<svg id="line" height="512" viewBox="0 0 64 64" width="512" xmlns="http://www.w3.org/2000/svg"><path d="m40 19a11 11 0 1 0 11 11 11.013 11.013 0 0 0 -11-11zm6.743 9.809-3.216 2.337 1.228 3.782a1 1 0 0 1 -1.539 1.117l-3.216-2.339-3.216 2.337a1 1 0 0 1 -1.539-1.117l1.228-3.782-3.216-2.337a1 1 0 0 1 .588-1.807h3.975l1.229-3.78a1 1 0 0 1 1.9 0l1.231 3.78h3.975a1 1 0 0 1 .588 1.807z" fill="#c4a2fc"/><path d="m40 13a16.99 16.99 0 0 0 -13 27.939v17.061a1 1 0 0 0 1.707.707l2.293-2.294v5.587a1 1 0 0 0 1.707.707l7.293-7.294 7.293 7.292a1 1 0 0 0 1.707-.705v-5.587l2.293 2.292a1 1 0 0 0 1.707-.705v-17.061a16.99 16.99 0 0 0 -13-27.939zm-9 40.584-2 2v-12.619a23.677 23.677 0 0 0 2 1.46zm20 2-2-2v-9.159a21.854 21.854 0 0 0 2-1.46zm-11-12.584a13 13 0 1 1 13-13 13.015 13.015 0 0 1 -13 13z" fill="#c4a2fc"/><g fill="#151a6a"><path d="m20 11h8a1 1 0 0 0 0-2h-8a1 1 0 0 0 0 2z"/><path d="m41 28.09v-24.09a3 3 0 0 0 -3-3h-28a3 3 0 0 0 -3 3v44a3 3 0 0 0 3 3h27a1.083 1.083 0 0 0 .7-.29l2.3-2.296 2.293 2.293a1 1 0 0 0 1.707-.707v-11.54a5.986 5.986 0 0 0 -3-10.37zm-5 20.91h-26a1 1 0 0 1 -1-1v-44a1 1 0 0 1 1-1h28a1 1 0 0 1 1 1v24.083a6 6 0 0 0 -3 10.388zm6-1.414-1.293-1.293a1 1 0 0 0 -1.414 0l-1.293 1.293v-7.924a6.086 6.086 0 0 0 4 0zm.4-10.386a4.061 4.061 0 0 1 -4.792 0 4 4 0 1 1 4.8 0z"/><path d="m32 17h-16a1 1 0 0 0 0 2h16a1 1 0 0 0 0-2z"/><path d="m32 24h-16a1 1 0 0 0 0 2h16a1 1 0 0 0 0-2z"/><path d="m32 31h-16a1 1 0 0 0 0 2h16a1 1 0 0 0 0-2z"/></g></svg>