<svg id="line" height="512" viewBox="0 0 64 64" width="512" xmlns="http://www.w3.org/2000/svg"><g fill="#c4a2fc"><path d="m60 16h-44a3 3 0 0 0 -3 3v25l50 .037v-25.037a3 3 0 0 0 -3-3z"/><path d="m13 51a3 3 0 0 0 3 3h44a3 3 0 0 0 3-3v-4.961l-50-.039zm24-2h2a1 1 0 0 1 0 2h-2a1 1 0 0 1 0-2z"/><path d="m49 60h-2.219l-.994-3.974-15.572-.011-1 3.985h-2.215a1 1 0 0 0 0 2h22a1 1 0 0 0 0-2z"/></g><path d="m50.186 38.771-3.186-7.964v-25.807a3 3 0 0 0 -3-3h-36a3 3 0 0 0 -3 3v25.807l-3.186 7.964a11.345 11.345 0 0 0 -.814 4.229v2a3 3 0 0 0 3 3h44a3 3 0 0 0 3-3v-2a11.345 11.345 0 0 0 -.814-4.229zm-43.186-33.771a1 1 0 0 1 1-1h36a1 1 0 0 1 1 1v25h-38zm-3.329 34.515 3.006-7.515h38.646l3.006 7.515a9.373 9.373 0 0 1 .618 2.485h-45.894a9.363 9.363 0 0 1 .618-2.485zm45.329 5.485a1 1 0 0 1 -1 1h-44a1 1 0 0 1 -1-1v-1h46z" fill="#151a6a"/><path d="m42 6h-32a1 1 0 0 0 -1 1v20a1 1 0 0 0 1 1h32a1 1 0 0 0 1-1v-20a1 1 0 0 0 -1-1zm-1 20h-30v-18h30z" fill="#151a6a"/><path d="m30 38h-8a1 1 0 0 0 0 2h8a1 1 0 0 0 0-2z" fill="#151a6a"/></svg>