<svg id="line" height="512" viewBox="0 0 64 64" width="512" xmlns="http://www.w3.org/2000/svg"><path d="m21 30v29a3 3 0 0 0 3 3h36a3 3 0 0 0 3-3v-29zm24.535 22.29a1 1 0 0 1 -1.414 0 3.072 3.072 0 0 0 -4.242 0 1 1 0 1 1 -1.414-1.414 5 5 0 0 1 7.07 0 1 1 0 0 1 0 1.414zm3.536-4.536a1 1 0 0 1 -1.414 0 8.01 8.01 0 0 0 -11.314 0 1 1 0 0 1 -1.414-1.414 10.011 10.011 0 0 1 14.142 0 1 1 0 0 1 0 1.414zm3.535-4.535a1 1 0 0 1 -1.414 0 13.013 13.013 0 0 0 -18.384 0 1 1 0 0 1 -1.414-1.414 15.012 15.012 0 0 1 21.212 0 1 1 0 0 1 0 1.414z" fill="#c4a2fc"/><path d="m63 28v-5a3 3 0 0 0 -3-3h-36a3 3 0 0 0 -3 3v5z" fill="#c4a2fc"/><path d="m22 2a21 21 0 1 0 21 21 21.024 21.024 0 0 0 -21-21zm17.647 28h-8.207a43.448 43.448 0 0 0 .56-7 43.448 43.448 0 0 0 -.56-7h8.207a18.784 18.784 0 0 1 0 14zm-17.647 12c-2.72 0-5.568-3.8-7.02-10h14.04c-1.452 6.205-4.3 10-7.02 10zm-7.421-12a42.6 42.6 0 0 1 0-14h14.842a41.432 41.432 0 0 1 .579 7 41.432 41.432 0 0 1 -.579 7zm7.421-26c2.72 0 5.568 3.8 7.02 10h-14.04c1.452-6.2 4.3-10 7.02-10zm16.727 10h-7.671a21.822 21.822 0 0 0 -4.112-9.325 19.066 19.066 0 0 1 11.783 9.325zm-21.671-9.325a21.822 21.822 0 0 0 -4.112 9.325h-7.671a19.066 19.066 0 0 1 11.783-9.325zm-12.703 11.325h8.207a44.03 44.03 0 0 0 0 14h-8.207a18.784 18.784 0 0 1 0-14zm.92 16h7.671a21.822 21.822 0 0 0 4.112 9.325 19.066 19.066 0 0 1 -11.783-9.325zm21.671 9.325a21.822 21.822 0 0 0 4.112-9.325h7.671a19.066 19.066 0 0 1 -11.783 9.325z" fill="#151a6a"/></svg>