<svg id="Line" height="512" viewBox="0 0 64 64" width="512" xmlns="http://www.w3.org/2000/svg"><path d="m25 54a5.5 5.5 0 0 0 10.975.5h10.05a5.5 5.5 0 1 0 7.558-5.587l2.841-8.52a5.5 5.5 0 1 0 -2.859-9.228l-8.045-7.04a5.5 5.5 0 1 0 -9.04 0l-8.045 7.04a5.5 5.5 0 1 0 -2.859 9.228l2.841 8.52a5.505 5.505 0 0 0 -3.417 5.087zm2.435-14.357a5.483 5.483 0 0 0 2.122-6.8l8.345-7.3a5.479 5.479 0 0 0 6.2 0l8.344 7.3a5.486 5.486 0 0 0 2.123 6.8l-2.954 8.863c-.038 0-.074-.006-.111-.006a5.506 5.506 0 0 0 -5.287 4h-10.43a5.506 5.506 0 0 0 -5.287-4c-.037 0-.073.005-.111.006z" fill="#c4a2fc"/><path d="m51 32.5a6.991 6.991 0 0 0 -9-6.7v-2.3a7 7 0 0 0 -3.413-6 7 7 0 1 0 -7.174 0 7 7 0 0 0 -3.413 6v2.3a6.927 6.927 0 0 0 -4 0v-2.3a7 7 0 0 0 -3.413-6 7 7 0 1 0 -7.174 0 7 7 0 0 0 -3.413 6v2.3a6.993 6.993 0 0 0 -5.587 12.7 7 7 0 0 0 -3.413 6v3a1 1 0 0 0 1 1h12a1 1 0 0 0 1-1v-3a7 7 0 0 0 -3.413-6 7 7 0 0 0 3.333-5h4.16a7 7 0 0 0 3.333 5 7 7 0 0 0 -3.413 6v3a1 1 0 0 0 1 1h12a1 1 0 0 0 1-1v-3a7 7 0 0 0 -3.413-6 7 7 0 0 0 3.333-5h4.16a7 7 0 0 0 3.333 5 7 7 0 0 0 -3.413 6v3a1 1 0 0 0 1 1h12a1 1 0 0 0 1-1v-3a7 7 0 0 0 -3.413-6 7 7 0 0 0 3.413-6zm-21-21a5 5 0 1 1 5 5 5.006 5.006 0 0 1 -5-5zm0 15v-3a5 5 0 0 1 10 0v3a.98.98 0 0 0 .046.229 7 7 0 0 0 -2.966 4.771h-4.16a7 7 0 0 0 -2.966-4.771.98.98 0 0 0 .046-.229zm-18-15a5 5 0 1 1 5 5 5.006 5.006 0 0 1 -5-5zm0 15v-3a5 5 0 0 1 10 0v3a.98.98 0 0 0 .046.229 7 7 0 0 0 -2.966 4.771h-4.16a7 7 0 0 0 -2.966-4.771.98.98 0 0 0 .046-.229zm1 18v2h-10v-2a5 5 0 0 1 10 0zm-5-7a5 5 0 1 1 5-5 5.006 5.006 0 0 1 -5 5zm23 7v2h-10v-2a5 5 0 0 1 10 0zm-5-7a5 5 0 1 1 5-5 5.006 5.006 0 0 1 -5 5zm23 7v2h-10v-2a5 5 0 0 1 10 0zm-10-12a5 5 0 1 1 5 5 5.006 5.006 0 0 1 -5-5z" fill="#151a6a"/></svg>