<svg id="line" height="512" viewBox="0 0 64 64" width="512" xmlns="http://www.w3.org/2000/svg"><g fill="#c4a2fc"><path d="m61 52.5h2v-11h-2a8.009 8.009 0 0 1 -8-8v-2h-30v2a8.009 8.009 0 0 1 -8 8h-2v11h2a8.009 8.009 0 0 1 8 8v2h30v-2a8.009 8.009 0 0 1 8-8zm-23 5c-4.411 0-8-4.71-8-10.5s3.589-10.5 8-10.5 8 4.71 8 10.5-3.589 10.5-8 10.5z"/><path d="m55 33.5a6.006 6.006 0 0 0 6 6h2v-5a3 3 0 0 0 -3-3h-5z"/><ellipse cx="38" cy="47" rx="6" ry="8.5"/><path d="m61 54.5a6.006 6.006 0 0 0 -6 6v2h5a3 3 0 0 0 3-3v-5z"/><path d="m15 39.5a6.006 6.006 0 0 0 6-6v-2h-5a3 3 0 0 0 -3 3v5z"/><path d="m21 60.5a6.006 6.006 0 0 0 -6-6h-2v5a3 3 0 0 0 3 3h5z"/></g><path d="m40 4.5h-3a3 3 0 0 0 -6 0h-6a3 3 0 0 0 -6 0h-6a3 3 0 0 0 -6 0h-3a3 3 0 0 0 -3 3v33a3 3 0 0 0 3 3h36a3 3 0 0 0 3-3v-33a3 3 0 0 0 -3-3zm-7 0a1 1 0 0 1 2 0v2a1 1 0 0 1 -2 0zm-12 0a1 1 0 0 1 2 0v2a1 1 0 0 1 -2 0zm-12 0a1 1 0 0 1 2 0v2a1 1 0 0 1 -2 0zm32 36a1 1 0 0 1 -1 1h-36a1 1 0 0 1 -1-1v-33a1 1 0 0 1 1-1h3a3 3 0 0 0 6 0h6a3 3 0 0 0 6 0h6a3 3 0 0 0 6 0h3a1 1 0 0 1 1 1z" fill="#151a6a"/><path d="m22 12.5a13 13 0 1 0 13 13 13.015 13.015 0 0 0 -13-13zm0 24a11 11 0 1 1 11-11 11.013 11.013 0 0 1 -11 11z" fill="#151a6a"/><path d="m23.621 24.486c-.23-.081-.465-.169-.7-.257v-3.923a2.622 2.622 0 0 1 .885.447 1 1 0 0 0 1.348-1.478 4.81 4.81 0 0 0 -2.233-1.009v-.766a1 1 0 0 0 -2 0v.844a3.651 3.651 0 0 0 -2.856 2.973 3.277 3.277 0 0 0 1.078 3.228 8.519 8.519 0 0 0 1.778 1.025v5.077a3.5 3.5 0 0 1 -1.742-.687 1 1 0 0 0 -1.095 1.674 5.393 5.393 0 0 0 2.837 1.022v.844a1 1 0 0 0 2 0v-.941a4.494 4.494 0 0 0 3.387-3.6 3.9 3.9 0 0 0 -2.687-4.473zm-3.244-1.515a1.325 1.325 0 0 1 -.347-1.284 1.787 1.787 0 0 1 .891-1.234v2.871a4.878 4.878 0 0 1 -.544-.353zm3.959 5.652a2.484 2.484 0 0 1 -1.415 1.845v-4.109a1.941 1.941 0 0 1 1.415 2.264z" fill="#151a6a"/></svg>