<?xml version="1.0"?>
<svg xmlns="http://www.w3.org/2000/svg" id="Line" width="512" height="512" viewBox="0 0 64 64"><path d="M40.826,36h2.586V60a3,3,0,0,0,3,3h8a3,3,0,0,0,3-3V36H60a2,2,0,0,0,1.414-3.414l-8.879-8.879a3.072,3.072,0,0,0-4.242,0l-8.879,8.879A2,2,0,0,0,40.826,36Z" style="fill:#c4a2fc"/><path d="M33.412,63a3,3,0,0,0,3-3V51H39a2,2,0,0,0,1.414-3.414l-8.879-8.879a3.072,3.072,0,0,0-4.242,0l-8.879,8.879A2,2,0,0,0,19.826,51h2.586v9a3,3,0,0,0,3,3Z" style="fill:#c4a2fc"/><path d="M46.5,34H43V23a10.013,10.013,0,0,0-6.085-9.2,7,7,0,1,0-7.83,0A10.013,10.013,0,0,0,23,23v2H3a1,1,0,0,0,0,2H27a2,2,0,0,1,0,4H15a1,1,0,0,0,0,2h8.764l5.789,2.9A1,1,0,0,0,30,36H46.5a3.5,3.5,0,0,1,0,7H27.236L15.447,37.1A1,1,0,0,0,15,37H3a1,1,0,0,0,0,2H14.764l11.789,5.9A1,1,0,0,0,27,45H46.5a5.5,5.5,0,0,0,0-11ZM28,8a5,5,0,1,1,5,5A5.006,5.006,0,0,1,28,8Zm-.03,24.867A3.992,3.992,0,0,0,27,25H25V23a8,8,0,0,1,16,0V34H30.236Z" style="fill:#151a6a"/></svg>
