<svg width="80" height="84" viewBox="0 0 80 84" fill="none" xmlns="http://www.w3.org/2000/svg">
<rect width="80" height="84" fill="none"/>
<g filter="url(#filter0_d)">
<path d="M57.9822 78.8263H10.3925C8.92517 78.8263 7.73621 77.6373 7.73621 76.17V10.0983C7.73621 8.63098 8.92517 7.44202 10.3925 7.44202H57.9822C59.4495 7.44202 60.6384 8.63098 60.6384 10.0983V76.17C60.6384 77.6373 59.4495 78.8263 57.9822 78.8263Z" fill="white"/>
<path d="M57.9547 7.44202H55.144V70.517C55.144 71.9989 53.9429 73.2001 52.4603 73.2001H7.73621V76.1432C7.73621 77.6251 8.93738 78.8263 10.4193 78.8263H57.9547C59.4373 78.8263 60.6384 77.6251 60.6384 76.1432V10.1257C60.6384 8.64319 59.4373 7.44202 57.9547 7.44202Z" fill="white"/>
<path d="M43.1244 12.0636H25.2502C24.3872 12.0636 23.6877 11.3641 23.6877 10.5011V4.92371C23.6877 2.85278 25.3668 1.17371 27.4377 1.17371H40.9369C43.0078 1.17371 44.6869 2.85278 44.6869 4.92371V10.5011C44.6869 11.3641 43.9874 12.0636 43.1244 12.0636Z" fill="white"/>
<path d="M40.8984 1.17371H39.9316C40.0104 1.47827 40.0525 1.79749 40.0525 2.12646V7.64954C40.0525 8.52112 39.3457 9.22791 38.4741 9.22791H23.6877V10.4852C23.6877 11.3568 24.3945 12.0636 25.2661 12.0636H43.1085C43.9801 12.0636 44.6869 11.3568 44.6869 10.4852V4.96216C44.6869 2.86987 42.9907 1.17371 40.8984 1.17371V1.17371Z" fill="#E5E5E5"/>
<path d="M70.2448 25.8167C70.2448 33.4027 64.0955 39.552 56.5094 39.552C48.924 39.552 42.774 33.4027 42.774 25.8167C42.774 18.2312 48.924 12.0813 56.5094 12.0813C64.0955 12.0813 70.2448 18.2312 70.2448 25.8167Z" fill="white"/>
<path d="M61.5674 13.0426C63.844 15.4944 65.2368 18.7775 65.2368 22.3871C65.2368 29.9725 59.0869 36.1224 51.5015 36.1224C49.7156 36.1224 48.009 35.7812 46.4441 35.1611C48.952 37.8613 52.533 39.552 56.5094 39.552C64.0955 39.552 70.2448 33.4027 70.2448 25.8167C70.2448 20.0171 66.6498 15.0568 61.5674 13.0426Z" fill="#E5E5E5"/>
<path d="M55.7873 31.8677C55.0757 31.8677 54.3927 31.5851 53.8897 31.0822L47.3187 24.5111C46.2707 23.4631 46.2707 21.7639 47.3187 20.7159C48.3667 19.668 50.0659 19.668 51.1139 20.7159L55.7873 25.3894L67.929 13.2477C68.9764 12.1997 70.6762 12.1997 71.7236 13.2477C72.7722 14.2957 72.7722 15.9949 71.7236 17.0428L57.6849 31.0822C57.1814 31.5851 56.499 31.8677 55.7873 31.8677V31.8677Z" fill="white"/>
<path d="M71.7236 13.2477C71.3934 12.9175 70.9985 12.6917 70.5798 12.5696C70.8447 13.4796 70.6189 14.5026 69.9011 15.2197L55.8618 29.259C55.3589 29.7626 54.6765 30.0452 53.9642 30.0452C53.2526 30.0452 52.5702 29.7626 52.0673 29.259L53.8898 31.0822C54.3927 31.5851 55.0757 31.8677 55.7874 31.8677C56.499 31.8677 57.1814 31.5851 57.6849 31.0822L71.7236 17.0428C72.7716 15.9949 72.7716 14.2957 71.7236 13.2477Z" fill="white"/>
<path d="M38.5059 31.8079H24.2047C23.5565 31.8079 23.0316 31.2823 23.0316 30.6342C23.0316 29.986 23.5565 29.4604 24.2047 29.4604H38.5059C39.1541 29.4604 39.6796 29.986 39.6796 30.6342C39.6796 31.2823 39.1541 31.8079 38.5059 31.8079Z" fill="#0882BF"/>
<path d="M21.9647 19.693H14.0674C13.4192 19.693 12.8937 19.1675 12.8937 18.5193C12.8937 17.8711 13.4192 17.3456 14.0674 17.3456H21.9647C22.6129 17.3456 23.1384 17.8711 23.1384 18.5193C23.1384 19.1675 22.6129 19.693 21.9647 19.693Z" fill="#0882BF"/>
<path d="M38.5059 37.2522H24.2047C23.5565 37.2522 23.0316 36.7267 23.0316 36.0785C23.0316 35.4309 23.5565 34.9054 24.2047 34.9054H38.5059C39.1541 34.9054 39.6796 35.4309 39.6796 36.0785C39.6796 36.7267 39.1541 37.2522 38.5059 37.2522Z" fill="#0882BF"/>
<path d="M43.446 46.0425H24.2047C23.5565 46.0425 23.0316 45.517 23.0316 44.8688C23.0316 44.2206 23.5565 43.6951 24.2047 43.6951H43.446C44.0942 43.6951 44.6198 44.2206 44.6198 44.8688C44.6198 45.517 44.0942 46.0425 43.446 46.0425Z" fill="#0882BF"/>
<path d="M33.8257 51.4874H24.2047C23.5565 51.4874 23.0316 50.9619 23.0316 50.3137C23.0316 49.6655 23.5565 49.14 24.2047 49.14H33.8257C34.4739 49.14 34.9988 49.6655 34.9988 50.3137C34.9988 50.9619 34.4739 51.4874 33.8257 51.4874Z" fill="#0882BF"/>
<path d="M38.5059 60.2924H24.2047C23.5565 60.2924 23.0316 59.7668 23.0316 59.1187C23.0316 58.4705 23.5565 57.9449 24.2047 57.9449H38.5059C39.1541 57.9449 39.6796 58.4705 39.6796 59.1187C39.6796 59.7668 39.1541 60.2924 38.5059 60.2924Z" fill="#0882BF"/>
<path d="M43.446 65.7367H24.2047C23.5565 65.7367 23.0316 65.2112 23.0316 64.563C23.0316 63.9154 23.5565 63.3899 24.2047 63.3899H43.446C44.0942 63.3899 44.6198 63.9154 44.6198 64.563C44.6198 65.2112 44.0942 65.7367 43.446 65.7367Z" fill="#0882BF"/>
<path d="M20.1251 33.1836C20.1251 35.1538 18.5284 36.7505 16.5582 36.7505C14.5886 36.7505 12.9913 35.1538 12.9913 33.1836C12.9913 31.214 14.5886 29.6167 16.5582 29.6167C18.5284 29.6167 20.1251 31.214 20.1251 33.1836Z" fill="#BC517C"/>
<path d="M20.1251 47.5916C20.1251 49.5612 18.5284 51.1578 16.5582 51.1578C14.5886 51.1578 12.9913 49.5612 12.9913 47.5916C12.9913 45.6213 14.5886 44.0247 16.5582 44.0247C18.5284 44.0247 20.1251 45.6213 20.1251 47.5916Z" fill="#D85594"/>
<path d="M20.1251 61.8408C20.1251 63.8104 18.5284 65.4077 16.5582 65.4077C14.5886 65.4077 12.9913 63.8104 12.9913 61.8408C12.9913 59.8706 14.5886 58.2739 16.5582 58.2739C18.5284 58.2739 20.1251 59.8706 20.1251 61.8408Z" fill="#D85594"/>
<path d="M38.5059 31.8079H24.2047C23.5565 31.8079 23.0316 31.2823 23.0316 30.6342C23.0316 29.986 23.5565 29.4604 24.2047 29.4604H38.5059C39.1541 29.4604 39.6796 29.986 39.6796 30.6342C39.6796 31.2823 39.1541 31.8079 38.5059 31.8079Z" fill="#805AAB"/>
<path d="M21.9647 19.693H14.0674C13.4192 19.693 12.8937 19.1675 12.8937 18.5193C12.8937 17.8711 13.4192 17.3456 14.0674 17.3456H21.9647C22.6129 17.3456 23.1384 17.8711 23.1384 18.5193C23.1384 19.1675 22.6129 19.693 21.9647 19.693Z" fill="#805AAB"/>
<path d="M38.5059 37.2522H24.2047C23.5565 37.2522 23.0316 36.7267 23.0316 36.0785C23.0316 35.4309 23.5565 34.9054 24.2047 34.9054H38.5059C39.1541 34.9054 39.6796 35.4309 39.6796 36.0785C39.6796 36.7267 39.1541 37.2522 38.5059 37.2522Z" fill="#805AAB"/>
<path d="M43.446 46.0425H24.2047C23.5565 46.0425 23.0316 45.517 23.0316 44.8688C23.0316 44.2206 23.5565 43.6951 24.2047 43.6951H43.446C44.0942 43.6951 44.6198 44.2206 44.6198 44.8688C44.6198 45.517 44.0942 46.0425 43.446 46.0425Z" fill="#BC517C"/>
<path d="M33.8257 51.4874H24.2047C23.5565 51.4874 23.0316 50.9619 23.0316 50.3137C23.0316 49.6655 23.5565 49.14 24.2047 49.14H33.8257C34.4739 49.14 34.9988 49.6655 34.9988 50.3137C34.9988 50.9619 34.4739 51.4874 33.8257 51.4874Z" fill="#BC517C"/>
<path d="M38.5059 60.2924H24.2047C23.5565 60.2924 23.0316 59.7668 23.0316 59.1187C23.0316 58.4705 23.5565 57.9449 24.2047 57.9449H38.5059C39.1541 57.9449 39.6796 58.4705 39.6796 59.1187C39.6796 59.7668 39.1541 60.2924 38.5059 60.2924Z" fill="#BC517C"/>
<path d="M43.446 65.7367H24.2047C23.5565 65.7367 23.0316 65.2112 23.0316 64.563C23.0316 63.9154 23.5565 63.3899 24.2047 63.3899H43.446C44.0942 63.3899 44.6198 63.9154 44.6198 64.563C44.6198 65.2112 44.0942 65.7367 43.446 65.7367Z" fill="#BC517C"/>
<path d="M16.5582 37.9242C13.9441 37.9242 11.8176 35.7977 11.8176 33.1836C11.8176 30.5695 13.9441 28.443 16.5582 28.443C19.1724 28.443 21.2988 30.5695 21.2988 33.1836C21.2988 35.7977 19.1724 37.9242 16.5582 37.9242ZM16.5582 30.7904C15.2386 30.7904 14.165 31.864 14.165 33.1836C14.165 34.5032 15.2386 35.5768 16.5582 35.5768C17.8778 35.5768 18.9514 34.5032 18.9514 33.1836C18.9514 31.864 17.8778 30.7904 16.5582 30.7904Z" fill="#EDC2CA"/>
<path d="M16.5582 52.3315C13.9441 52.3315 11.8176 50.2051 11.8176 47.5909C11.8176 44.9774 13.9441 42.8503 16.5582 42.8503C19.1724 42.8503 21.2988 44.9774 21.2988 47.5909C21.2988 50.2051 19.1724 52.3315 16.5582 52.3315ZM16.5582 45.1978C15.2386 45.1978 14.165 46.2714 14.165 47.5916C14.165 48.9111 15.2386 49.9847 16.5582 49.9847C17.8778 49.9847 18.9514 48.9111 18.9514 47.5916C18.9514 46.2714 17.8778 45.1978 16.5582 45.1978V45.1978Z" fill="#EDC2CA"/>
<path d="M16.5582 66.5814C13.9441 66.5814 11.8176 64.455 11.8176 61.8408C11.8176 59.2267 13.9441 57.1002 16.5582 57.1002C19.1724 57.1002 21.2988 59.2267 21.2988 61.8408C21.2988 64.455 19.1724 66.5814 16.5582 66.5814V66.5814ZM16.5582 59.4476C15.2386 59.4476 14.165 60.5212 14.165 61.8408C14.165 63.1604 15.2386 64.234 16.5582 64.234C17.8778 64.234 18.9514 63.1604 18.9514 61.8408C18.9514 60.5212 17.8778 59.4476 16.5582 59.4476V59.4476Z" fill="#EDC2CA"/>
<path d="M51.944 19.8859C51.2152 19.1577 50.2466 18.7561 49.2163 18.7561C48.186 18.7561 47.2174 19.1577 46.4893 19.8859C45.7605 20.6146 45.3589 21.5833 45.3589 22.6135C45.3589 23.6438 45.7605 24.6124 46.4886 25.3406L53.0597 31.9116C53.7878 32.6398 54.7571 33.0414 55.7874 33.0414C56.8176 33.0414 57.7856 32.6398 58.5144 31.9116L72.5537 17.8723C73.2825 17.1436 73.6835 16.1749 73.6835 15.1453C73.6835 14.115 73.2825 13.1464 72.5537 12.4176C71.8256 11.6888 70.8563 11.2878 69.826 11.2878C68.7958 11.2878 67.8271 11.6888 67.099 12.4176L65.5511 13.9655C64.4043 13.0902 63.1458 12.3883 61.8121 11.8805V10.1257C61.8121 7.99866 60.0818 6.26831 57.9553 6.26831H45.8606V4.9292C45.8606 2.2113 43.6493 0 40.9314 0H27.4432C24.7253 0 22.514 2.2113 22.514 4.9292V10.4987C22.514 12.0087 23.7427 13.2373 25.2527 13.2373H43.1219C44.632 13.2373 45.8606 12.0087 45.8606 10.4987V8.61572H57.9547C58.7872 8.61572 59.4647 9.29321 59.4647 10.1257V11.2067C58.4985 11.0114 57.5098 10.9076 56.5094 10.9076C48.2886 10.9076 41.6003 17.5958 41.6003 25.8167C41.6003 34.0375 48.2886 40.7257 56.5094 40.7257C57.5122 40.7257 58.501 40.625 59.4647 40.4315V76.1432C59.4647 76.9757 58.7872 77.6526 57.9547 77.6526H10.4193C9.58679 77.6526 8.90991 76.9757 8.90991 76.1432V10.1257C8.90991 9.29321 9.58679 8.61572 10.4193 8.61572H18.2214C18.8696 8.61572 19.3951 8.09021 19.3951 7.44202C19.3951 6.79382 18.8696 6.26831 18.2214 6.26831H10.4193C8.29285 6.26831 6.5625 7.99866 6.5625 10.1257V76.1432C6.5625 78.2697 8.29285 80 10.4193 80H57.9553C60.0818 80 61.8121 78.2697 61.8121 76.1432V39.7528C63.681 39.0417 65.4047 37.9565 66.8793 36.5289C69.6674 33.8293 71.2769 30.21 71.4099 26.3373C71.4319 25.6897 70.9253 25.1465 70.2771 25.1239C69.6338 25.1025 69.0863 25.6085 69.0637 26.2567C68.8763 31.7078 65.2917 36.2085 60.3693 37.7789C60.3015 37.7948 60.2356 37.8156 60.1733 37.843C59.0149 38.1915 57.785 38.3783 56.5094 38.3783C49.5831 38.3783 43.9478 32.7429 43.9478 25.8167C43.9478 18.8904 49.5831 13.255 56.5094 13.255C59.1699 13.255 61.7413 14.0961 63.8745 15.6421L55.7874 23.7299L51.944 19.8859ZM43.5132 10.4987C43.5132 10.7147 43.338 10.8899 43.1219 10.8899H25.2527C25.0366 10.8899 24.8615 10.7147 24.8615 10.4987V4.9292C24.8615 3.50525 26.0193 2.34741 27.4432 2.34741H40.9314C42.3547 2.34741 43.5132 3.50525 43.5132 4.9292V10.4987ZM68.7592 14.0778C69.0442 13.7921 69.4232 13.6353 69.826 13.6353C70.2295 13.6353 70.6085 13.7927 70.8942 14.0778C71.4825 14.6661 71.4825 15.6244 70.8942 16.2128L56.8542 30.2521C56.5692 30.5371 56.1902 30.6946 55.7867 30.6946C55.3833 30.6946 55.0043 30.5371 54.7192 30.2521L48.1482 23.681C47.8632 23.396 47.7063 23.017 47.7063 22.6135C47.7063 22.2101 47.8632 21.8311 48.1488 21.546C48.4338 21.261 48.8129 21.1035 49.2163 21.1035C49.6191 21.1035 49.9988 21.261 50.2838 21.546L54.9573 26.2195C55.4156 26.6779 56.1584 26.6779 56.6168 26.2195L62.688 20.1486L68.7592 14.0778Z" fill="url(#paint0_linear)"/>
</g>
<defs>
<filter id="filter0_d" x="0" y="0" width="84" height="84" filterUnits="userSpaceOnUse" color-interpolation-filters="sRGB">
<feFlood flood-opacity="0" result="BackgroundImageFix"/>
<feColorMatrix in="SourceAlpha" type="matrix" values="0 0 0 0 0 0 0 0 0 0 0 0 0 0 0 0 0 0 127 0"/>
<feOffset dx="2" dy="2"/>
<feGaussianBlur stdDeviation="1"/>
<feColorMatrix type="matrix" values="0 0 0 0 0 0 0 0 0 0 0 0 0 0 0 0 0 0 0.2 0"/>
<feBlend mode="normal" in2="BackgroundImageFix" result="effect1_dropShadow"/>
<feBlend mode="normal" in="SourceGraphic" in2="effect1_dropShadow" result="shape"/>
</filter>
<linearGradient id="paint0_linear" x1="40.123" y1="0" x2="40.123" y2="80" gradientUnits="userSpaceOnUse">
<stop stop-color="#805AAB"/>
<stop offset="1" stop-color="#BC517C"/>
</linearGradient>
</defs>
</svg>
