<svg width="82" height="82" viewBox="0 0 82 82" fill="none" xmlns="http://www.w3.org/2000/svg">
<rect width="82" height="82" fill="none"/>
<g filter="url(#filter0_d)">
<path d="M30 16C32.0711 16 33.75 14.3211 33.75 12.25C33.75 10.1789 32.0711 8.5 30 8.5C27.9289 8.5 26.25 10.1789 26.25 12.25C26.25 14.3211 27.9289 16 30 16Z" fill="white"/>
<path d="M61.25 13.5H68.75V48.5H61.25V13.5Z" fill="#E5CEE3"/>
<path d="M65 76L68.75 66H61.25L65 76Z" fill="white"/>
<path d="M72.5 13.5H76.25V31H72.5V13.5Z" fill="white"/>
<path d="M17.5 42.25C22.3325 42.25 26.25 38.3325 26.25 33.5C26.25 28.6675 22.3325 24.75 17.5 24.75C12.6675 24.75 8.75 28.6675 8.75 33.5C8.75 38.3325 12.6675 42.25 17.5 42.25Z" fill="#ECC4CE"/>
<path d="M18.75 49.75H41.25V59.75H18.75V49.75Z" fill="white"/>
<path d="M56.25 2.25H3.75C3.41848 2.25 3.10054 2.3817 2.86612 2.61612C2.6317 2.85054 2.5 3.16848 2.5 3.5V78.5C2.5 78.8315 2.6317 79.1495 2.86612 79.3839C3.10054 79.6183 3.41848 79.75 3.75 79.75H56.25C56.5815 79.75 56.8995 79.6183 57.1339 79.3839C57.3683 79.1495 57.5 78.8315 57.5 78.5V3.5C57.5 3.16848 57.3683 2.85054 57.1339 2.61612C56.8995 2.3817 56.5815 2.25 56.25 2.25ZM55 77.25H5V4.75H55V77.25Z" fill="url(#paint0_linear)"/>
<path d="M28.75 26C28.75 26.3315 28.8817 26.6495 29.1161 26.8839C29.3505 27.1183 29.6685 27.25 30 27.25H51.25C51.5815 27.25 51.8995 27.1183 52.1339 26.8839C52.3683 26.6495 52.5 26.3315 52.5 26C52.5 25.6685 52.3683 25.3505 52.1339 25.1161C51.8995 24.8817 51.5815 24.75 51.25 24.75H30C29.6685 24.75 29.3505 24.8817 29.1161 25.1161C28.8817 25.3505 28.75 25.6685 28.75 26Z" fill="#BC517C"/>
<path d="M51.25 28.5H30C29.6685 28.5 29.3505 28.6317 29.1161 28.8661C28.8817 29.1005 28.75 29.4185 28.75 29.75C28.75 30.0815 28.8817 30.3995 29.1161 30.6339C29.3505 30.8683 29.6685 31 30 31H51.25C51.5815 31 51.8995 30.8683 52.1339 30.6339C52.3683 30.3995 52.5 30.0815 52.5 29.75C52.5 29.4185 52.3683 29.1005 52.1339 28.8661C51.8995 28.6317 51.5815 28.5 51.25 28.5Z" fill="#BC517C"/>
<path d="M51.25 32.25H30C29.6685 32.25 29.3505 32.3817 29.1161 32.6161C28.8817 32.8505 28.75 33.1685 28.75 33.5C28.75 33.8315 28.8817 34.1495 29.1161 34.3839C29.3505 34.6183 29.6685 34.75 30 34.75H51.25C51.5815 34.75 51.8995 34.6183 52.1339 34.3839C52.3683 34.1495 52.5 33.8315 52.5 33.5C52.5 33.1685 52.3683 32.8505 52.1339 32.6161C51.8995 32.3817 51.5815 32.25 51.25 32.25Z" fill="#BC517C"/>
<path d="M51.25 36H30C29.6685 36 29.3505 36.1317 29.1161 36.3661C28.8817 36.6005 28.75 36.9185 28.75 37.25C28.75 37.5815 28.8817 37.8995 29.1161 38.1339C29.3505 38.3683 29.6685 38.5 30 38.5H51.25C51.5815 38.5 51.8995 38.3683 52.1339 38.1339C52.3683 37.8995 52.5 37.5815 52.5 37.25C52.5 36.9185 52.3683 36.6005 52.1339 36.3661C51.8995 36.1317 51.5815 36 51.25 36Z" fill="#BC517C"/>
<path d="M42.5 42.25C42.8315 42.25 43.1495 42.1183 43.3839 41.8839C43.6183 41.6495 43.75 41.3315 43.75 41C43.75 40.6685 43.6183 40.3505 43.3839 40.1161C43.1495 39.8817 42.8315 39.75 42.5 39.75H30C29.6685 39.75 29.3505 39.8817 29.1161 40.1161C28.8817 40.3505 28.75 40.6685 28.75 41C28.75 41.3315 28.8817 41.6495 29.1161 41.8839C29.3505 42.1183 29.6685 42.25 30 42.25H42.5Z" fill="#BC517C"/>
<path d="M47.5 42.25C47.8315 42.25 48.1495 42.1183 48.3839 41.8839C48.6183 41.6495 48.75 41.3315 48.75 41C48.75 40.6685 48.6183 40.3505 48.3839 40.1161C48.1495 39.8817 47.8315 39.75 47.5 39.75H46.25C45.9185 39.75 45.6005 39.8817 45.3661 40.1161C45.1317 40.3505 45 40.6685 45 41C45 41.3315 45.1317 41.6495 45.3661 41.8839C45.6005 42.1183 45.9185 42.25 46.25 42.25H47.5Z" fill="#BC517C"/>
<path d="M30 17.25C30.9889 17.25 31.9556 16.9568 32.7779 16.4074C33.6001 15.8579 34.241 15.0771 34.6194 14.1634C34.9978 13.2498 35.0969 12.2445 34.9039 11.2746C34.711 10.3046 34.2348 9.41373 33.5355 8.71447C32.8363 8.01521 31.9454 7.539 30.9755 7.34608C30.0055 7.15315 29.0002 7.25217 28.0866 7.6306C27.173 8.00904 26.3921 8.64991 25.8427 9.47215C25.2932 10.2944 25 11.2611 25 12.25C25.0015 13.5756 25.5288 14.8465 26.4661 15.7839C27.4035 16.7213 28.6744 17.2485 30 17.25ZM30 9.75C30.4945 9.75 30.9778 9.89662 31.3889 10.1713C31.8 10.446 32.1205 10.8365 32.3097 11.2933C32.4989 11.7501 32.5484 12.2528 32.452 12.7377C32.3555 13.2227 32.1174 13.6681 31.7678 14.0178C31.4181 14.3674 30.9727 14.6055 30.4877 14.702C30.0028 14.7984 29.5001 14.7489 29.0433 14.5597C28.5865 14.3705 28.196 14.0501 27.9213 13.6389C27.6466 13.2278 27.5 12.7445 27.5 12.25C27.5008 11.5872 27.7644 10.9518 28.2331 10.4831C28.7018 10.0144 29.3372 9.75079 30 9.75Z" fill="#BC517C"/>
<path d="M37.5 13.5H45C45.3315 13.5 45.6495 13.3683 45.8839 13.1339C46.1183 12.8995 46.25 12.5815 46.25 12.25C46.25 11.9185 46.1183 11.6005 45.8839 11.3661C45.6495 11.1317 45.3315 11 45 11H37.5C37.1685 11 36.8505 11.1317 36.6161 11.3661C36.3817 11.6005 36.25 11.9185 36.25 12.25C36.25 12.5815 36.3817 12.8995 36.6161 13.1339C36.8505 13.3683 37.1685 13.5 37.5 13.5Z" fill="#BC517C"/>
<path d="M15 13.5H22.5C22.8315 13.5 23.1495 13.3683 23.3839 13.1339C23.6183 12.8995 23.75 12.5815 23.75 12.25C23.75 11.9185 23.6183 11.6005 23.3839 11.3661C23.1495 11.1317 22.8315 11 22.5 11H15C14.6685 11 14.3505 11.1317 14.1161 11.3661C13.8817 11.6005 13.75 11.9185 13.75 12.25C13.75 12.5815 13.8817 12.8995 14.1161 13.1339C14.3505 13.3683 14.6685 13.5 15 13.5V13.5Z" fill="#BC517C"/>
<path d="M76.25 12.25H72.5C72.1685 12.25 71.8505 12.3817 71.6161 12.6161C71.3817 12.8505 71.25 13.1685 71.25 13.5V19.75H70V13.5C70 13.1685 69.8683 12.8505 69.6339 12.6161C69.3995 12.3817 69.0815 12.25 68.75 12.25V6C68.75 5.66848 68.6183 5.35054 68.3839 5.11612C68.1495 4.8817 67.8315 4.75 67.5 4.75H62.5C62.1685 4.75 61.8505 4.8817 61.6161 5.11612C61.3817 5.35054 61.25 5.66848 61.25 6V12.25C60.9185 12.25 60.6005 12.3817 60.3661 12.6161C60.1317 12.8505 60 13.1685 60 13.5V47.25C59.6685 47.25 59.3505 47.3817 59.1161 47.6161C58.8817 47.8505 58.75 48.1685 58.75 48.5V66C58.75 66.3315 58.8817 66.6495 59.1161 66.8839C59.3505 67.1183 59.6685 67.25 60 67.25H60.3837L63.8295 76.4389C63.9189 76.6772 64.0788 76.8826 64.2879 77.0275C64.4971 77.1725 64.7455 77.2502 65 77.2502C65.2545 77.2502 65.5029 77.1725 65.7121 77.0275C65.9212 76.8826 66.0811 76.6772 66.1705 76.4389L69.6163 67.25H70C70.3315 67.25 70.6495 67.1183 70.8839 66.8839C71.1183 66.6495 71.25 66.3315 71.25 66V48.5C71.25 48.1685 71.1183 47.8505 70.8839 47.6161C70.6495 47.3817 70.3315 47.25 70 47.25V22.25H71.25V31C71.25 31.3315 71.3817 31.6495 71.6161 31.8839C71.8505 32.1183 72.1685 32.25 72.5 32.25H76.25C76.5815 32.25 76.8995 32.1183 77.1339 31.8839C77.3683 31.6495 77.5 31.3315 77.5 31V13.5C77.5 13.1685 77.3683 12.8505 77.1339 12.6161C76.8995 12.3817 76.5815 12.25 76.25 12.25ZM63.75 7.25H66.25V12.25H63.75V7.25ZM68.75 64.75H61.25V49.75H68.75V64.75ZM65 72.44L63.0538 67.25H66.9462L65 72.44ZM62.5 47.25V14.75H67.5V47.25H62.5ZM75 29.75H73.75V14.75H75V29.75Z" fill="url(#paint1_linear)"/>
<path d="M17.5 23.5C15.5222 23.5 13.5888 24.0865 11.9443 25.1853C10.2998 26.2841 9.01809 27.8459 8.26121 29.6732C7.50433 31.5004 7.3063 33.5111 7.69215 35.4509C8.078 37.3907 9.03041 39.1725 10.4289 40.5711C11.8275 41.9696 13.6093 42.922 15.5491 43.3079C17.4889 43.6937 19.4996 43.4957 21.3268 42.7388C23.1541 41.9819 24.7159 40.7002 25.8147 39.0557C26.9135 37.4112 27.5 35.4778 27.5 33.5C27.497 30.8487 26.4425 28.3069 24.5678 26.4322C22.6931 24.5575 20.1513 23.503 17.5 23.5ZM17.5 41C16.0166 41 14.5666 40.5601 13.3332 39.736C12.0999 38.9119 11.1386 37.7406 10.5709 36.3701C10.0033 34.9997 9.85473 33.4917 10.1441 32.0368C10.4335 30.582 11.1478 29.2456 12.1967 28.1967C13.2456 27.1478 14.582 26.4335 16.0368 26.1441C17.4917 25.8547 18.9997 26.0032 20.3701 26.5709C21.7406 27.1386 22.9119 28.0999 23.736 29.3332C24.5601 30.5666 25 32.0166 25 33.5C24.9979 35.4885 24.207 37.3949 22.801 38.801C21.3949 40.207 19.4885 40.9979 17.5 41Z" fill="#F1C3CC"/>
<path d="M21.25 33.5V37.25C21.25 37.5815 21.1183 37.8995 20.8839 38.1339C20.6495 38.3683 20.3315 38.5 20 38.5H18.75C18.75 38.8315 18.6183 39.1495 18.3839 39.3839C18.1495 39.6183 17.8315 39.75 17.5 39.75C17.1685 39.75 16.8505 39.6183 16.6161 39.3839C16.3817 39.1495 16.25 38.8315 16.25 38.5H15C14.6685 38.5 14.3505 38.3683 14.1161 38.1339C13.8817 37.8995 13.75 37.5815 13.75 37.25C13.75 36.9185 13.8817 36.6005 14.1161 36.3661C14.3505 36.1317 14.6685 36 15 36H18.75V34.75H15C14.6685 34.75 14.3505 34.6183 14.1161 34.3839C13.8817 34.1495 13.75 33.8315 13.75 33.5V29.75C13.75 29.4185 13.8817 29.1005 14.1161 28.8661C14.3505 28.6317 14.6685 28.5 15 28.5H16.25C16.25 28.1685 16.3817 27.8505 16.6161 27.6161C16.8505 27.3817 17.1685 27.25 17.5 27.25C17.8315 27.25 18.1495 27.3817 18.3839 27.6161C18.6183 27.8505 18.75 28.1685 18.75 28.5H20C20.3315 28.5 20.6495 28.6317 20.8839 28.8661C21.1183 29.1005 21.25 29.4185 21.25 29.75C21.25 30.0815 21.1183 30.3995 20.8839 30.6339C20.6495 30.8683 20.3315 31 20 31H16.25V32.25H20C20.3315 32.25 20.6495 32.3817 20.8839 32.6161C21.1183 32.8505 21.25 33.1685 21.25 33.5Z" fill="#BC517C"/>
<path d="M48.5157 67.6131C45.0107 69.1346 41.3865 70.7069 37.6058 71.1802C33.5589 71.6867 29.8585 70.7397 27.4535 68.5836C26.8518 68.0188 26.2856 67.4172 25.7583 66.7824C24.856 65.743 23.9229 64.6683 22.6779 63.863C21.2404 62.9327 19.3005 62.6316 17.7372 63.0974C17.1771 63.2496 16.6573 63.5231 16.2145 63.8984C15.7717 64.2737 15.4167 64.7416 15.1747 65.2692C15.0399 65.5721 15.0309 65.9161 15.1497 66.2256C15.2685 66.5352 15.5054 66.7848 15.8082 66.9196C16.1111 67.0545 16.4551 67.0635 16.7646 66.9447C17.0741 66.8259 17.3238 66.589 17.4586 66.2861C17.6285 65.9047 17.9618 65.6378 18.4494 65.493C19.3149 65.2355 20.4954 65.4288 21.32 65.9617C22.2674 66.5747 23.0461 67.4716 23.8707 68.4211C24.4656 69.1351 25.1049 69.8109 25.7847 70.4446C28.225 72.6333 31.6808 73.8125 35.5066 73.8125C36.312 73.8118 37.1165 73.7611 37.9155 73.6605C42.0522 73.1433 45.8438 71.4977 49.5105 69.9061C49.8146 69.7741 50.0539 69.5267 50.1756 69.2184C50.2973 68.91 50.2916 68.5659 50.1596 68.2617C50.0276 67.9576 49.7802 67.7184 49.4718 67.5966C49.1634 67.4749 48.8193 67.4807 48.5152 67.6127L48.5157 67.6131Z" fill="#805AAB"/>
<path d="M17.5 49.75V59.75C17.5 60.0815 17.6317 60.3995 17.8661 60.6339C18.1005 60.8683 18.4185 61 18.75 61H41.25C41.5815 61 41.8995 60.8683 42.1339 60.6339C42.3683 60.3995 42.5 60.0815 42.5 59.75V49.75C42.5 49.4185 42.3683 49.1005 42.1339 48.8661C41.8995 48.6317 41.5815 48.5 41.25 48.5H18.75C18.4185 48.5 18.1005 48.6317 17.8661 48.8661C17.6317 49.1005 17.5 49.4185 17.5 49.75ZM20 51H40V58.5H20V51Z" fill="#805AAB"/>
<path d="M12.8661 67.6161L10.3661 70.1161C10.1317 70.3505 10 70.6685 10 71C10 71.3316 10.1317 71.6495 10.3661 71.8839C10.6006 72.1184 10.9185 72.2501 11.25 72.2501C11.5816 72.2501 11.8995 72.1184 12.1339 71.8839L14.6339 69.3839C14.75 69.2679 14.8421 69.1301 14.9049 68.9784C14.9677 68.8267 15.0001 68.6642 15.0001 68.5C15.0001 68.3359 14.9677 68.1733 14.9049 68.0217C14.8421 67.87 14.75 67.7322 14.6339 67.6161C14.5179 67.5 14.3801 67.408 14.2284 67.3452C14.0767 67.2823 13.9142 67.25 13.75 67.25C13.5859 67.25 13.4233 67.2823 13.2717 67.3452C13.12 67.408 12.9822 67.5 12.8661 67.6161Z" fill="#805AAB"/>
</g>
<defs>
<filter id="filter0_d" x="0" y="-1" width="84" height="84" filterUnits="userSpaceOnUse" color-interpolation-filters="sRGB">
<feFlood flood-opacity="0" result="BackgroundImageFix"/>
<feColorMatrix in="SourceAlpha" type="matrix" values="0 0 0 0 0 0 0 0 0 0 0 0 0 0 0 0 0 0 127 0"/>
<feOffset dx="2"/>
<feGaussianBlur stdDeviation="1"/>
<feColorMatrix type="matrix" values="0 0 0 0 0 0 0 0 0 0 0 0 0 0 0 0 0 0 0.2 0"/>
<feBlend mode="normal" in2="BackgroundImageFix" result="effect1_dropShadow"/>
<feBlend mode="normal" in="SourceGraphic" in2="effect1_dropShadow" result="shape"/>
</filter>
<linearGradient id="paint0_linear" x1="30" y1="2.25" x2="30" y2="79.75" gradientUnits="userSpaceOnUse">
<stop stop-color="#805AAB"/>
<stop offset="1" stop-color="#BC517C"/>
</linearGradient>
<linearGradient id="paint1_linear" x1="68.125" y1="4.75" x2="68.125" y2="77.2502" gradientUnits="userSpaceOnUse">
<stop stop-color="#805AAB"/>
<stop offset="1" stop-color="#BC517C"/>
</linearGradient>
</defs>
</svg>
