<svg width="1157" height="600" viewBox="0 0 1157 672" fill="none" xmlns="http://www.w3.org/2000/svg">
<path d="M140.933 334C140.933 372.918 109.384 404.467 70.4667 404.467C31.549 404.467 0 372.918 0 334C0 295.082 31.549 263.533 70.4667 263.533C109.384 263.533 140.933 295.082 140.933 334Z" fill="#663399"/>
<path d="M1048.13 544.933C1048.13 583.851 1016.58 615.4 977.667 615.4C938.749 615.4 907.2 583.851 907.2 544.933C907.2 506.016 938.749 474.467 977.667 474.467C1016.58 474.467 1048.13 506.016 1048.13 544.933Z" fill="#663399"/>
<path d="M958.188 544.737C958.089 546.114 957.579 547.198 956.659 547.989C955.745 548.78 954.538 549.176 953.038 549.176C951.397 549.176 950.105 548.625 949.162 547.523C948.225 546.416 947.756 544.898 947.756 542.971V542.188C947.756 540.958 947.973 539.874 948.406 538.937C948.84 537.999 949.458 537.281 950.261 536.783C951.069 536.279 952.007 536.027 953.073 536.027C954.55 536.027 955.739 536.423 956.642 537.214C957.544 538.005 958.065 539.115 958.206 540.545H955.569C955.505 539.719 955.273 539.121 954.875 538.752C954.482 538.377 953.882 538.189 953.073 538.189C952.194 538.189 951.535 538.506 951.096 539.139C950.662 539.766 950.439 540.741 950.428 542.065V543.032C950.428 544.415 950.636 545.426 951.052 546.064C951.474 546.703 952.136 547.022 953.038 547.022C953.853 547.022 954.459 546.838 954.857 546.469C955.262 546.094 955.493 545.517 955.552 544.737H958.188ZM959.357 544.157C959.357 543.214 959.539 542.373 959.902 541.635C960.266 540.896 960.787 540.325 961.467 539.921C962.152 539.517 962.946 539.314 963.849 539.314C965.132 539.314 966.178 539.707 966.986 540.492C967.801 541.277 968.255 542.344 968.349 543.691L968.366 544.342C968.366 545.801 967.959 546.973 967.145 547.857C966.33 548.736 965.237 549.176 963.866 549.176C962.495 549.176 961.399 548.736 960.579 547.857C959.765 546.979 959.357 545.783 959.357 544.271V544.157ZM961.897 544.342C961.897 545.244 962.067 545.936 962.407 546.416C962.747 546.891 963.233 547.128 963.866 547.128C964.481 547.128 964.962 546.894 965.308 546.425C965.653 545.95 965.826 545.194 965.826 544.157C965.826 543.272 965.653 542.587 965.308 542.101C964.962 541.614 964.476 541.371 963.849 541.371C963.228 541.371 962.747 541.614 962.407 542.101C962.067 542.581 961.897 543.328 961.897 544.342ZM972.269 539.49L972.348 540.589C973.027 539.739 973.938 539.314 975.081 539.314C976.089 539.314 976.839 539.61 977.331 540.202C977.823 540.794 978.075 541.679 978.087 542.856V549H975.547V542.918C975.547 542.379 975.43 541.989 975.195 541.749C974.961 541.503 974.571 541.38 974.026 541.38C973.312 541.38 972.775 541.685 972.418 542.294V549H969.878V539.49H972.269ZM982.358 539.49L982.438 540.589C983.117 539.739 984.028 539.314 985.171 539.314C986.179 539.314 986.929 539.61 987.421 540.202C987.913 540.794 988.165 541.679 988.177 542.856V549H985.637V542.918C985.637 542.379 985.52 541.989 985.285 541.749C985.051 541.503 984.661 541.38 984.116 541.38C983.401 541.38 982.865 541.685 982.508 542.294V549H979.968V539.49H982.358ZM994.487 549.176C993.093 549.176 991.956 548.748 991.077 547.893C990.204 547.037 989.768 545.897 989.768 544.474V544.228C989.768 543.272 989.952 542.42 990.321 541.67C990.69 540.914 991.212 540.334 991.886 539.93C992.565 539.52 993.339 539.314 994.206 539.314C995.507 539.314 996.529 539.725 997.273 540.545C998.023 541.365 998.398 542.528 998.398 544.034V545.071H992.343C992.425 545.692 992.671 546.19 993.081 546.565C993.497 546.94 994.021 547.128 994.654 547.128C995.633 547.128 996.397 546.773 996.948 546.064L998.196 547.462C997.815 548.001 997.3 548.423 996.649 548.728C995.999 549.026 995.278 549.176 994.487 549.176ZM994.197 541.371C993.693 541.371 993.283 541.541 992.967 541.881C992.656 542.221 992.457 542.707 992.369 543.34H995.902V543.138C995.891 542.575 995.738 542.142 995.445 541.837C995.152 541.526 994.736 541.371 994.197 541.371ZM1003.8 547.128C1004.27 547.128 1004.65 546.999 1004.95 546.741C1005.24 546.483 1005.39 546.141 1005.4 545.713H1007.79C1007.78 546.357 1007.6 546.949 1007.26 547.488C1006.91 548.021 1006.44 548.438 1005.83 548.736C1005.24 549.029 1004.57 549.176 1003.85 549.176C1002.49 549.176 1001.42 548.745 1000.63 547.884C999.846 547.017 999.453 545.821 999.453 544.298V544.131C999.453 542.666 999.843 541.497 1000.62 540.624C1001.4 539.751 1002.47 539.314 1003.83 539.314C1005.02 539.314 1005.97 539.654 1006.69 540.334C1007.41 541.008 1007.77 541.907 1007.79 543.032H1005.4C1005.39 542.54 1005.24 542.142 1004.95 541.837C1004.65 541.526 1004.27 541.371 1003.79 541.371C1003.19 541.371 1002.75 541.588 1002.44 542.021C1002.14 542.449 1001.99 543.146 1001.99 544.113V544.377C1001.99 545.355 1002.14 546.059 1002.44 546.486C1002.74 546.914 1003.19 547.128 1003.8 547.128ZM1012.28 537.152V539.49H1013.9V541.354H1012.28V546.1C1012.28 546.451 1012.34 546.703 1012.48 546.855C1012.61 547.008 1012.87 547.084 1013.25 547.084C1013.53 547.084 1013.78 547.063 1014 547.022V548.947C1013.5 549.1 1012.99 549.176 1012.46 549.176C1010.68 549.176 1009.77 548.276 1009.74 546.478V541.354H1008.35V539.49H1009.74V537.152H1012.28Z" fill="white"/>
<path d="M56.7783 336.643C56.7783 336.145 56.6025 335.764 56.251 335.5C55.8994 335.23 55.2666 334.949 54.3525 334.656C53.4385 334.357 52.7148 334.064 52.1816 333.777C50.7285 332.992 50.002 331.935 50.002 330.604C50.002 329.913 50.1953 329.298 50.582 328.759C50.9746 328.214 51.5342 327.789 52.2607 327.484C52.9932 327.18 53.8135 327.027 54.7217 327.027C55.6357 327.027 56.4502 327.194 57.165 327.528C57.8799 327.856 58.4336 328.322 58.8262 328.926C59.2246 329.529 59.4238 330.215 59.4238 330.982H56.7871C56.7871 330.396 56.6025 329.942 56.2334 329.62C55.8643 329.292 55.3457 329.128 54.6777 329.128C54.0332 329.128 53.5322 329.266 53.1748 329.541C52.8174 329.811 52.6387 330.168 52.6387 330.613C52.6387 331.029 52.8467 331.378 53.2627 331.659C53.6846 331.94 54.3027 332.204 55.1172 332.45C56.6172 332.901 57.71 333.461 58.3955 334.129C59.0811 334.797 59.4238 335.629 59.4238 336.625C59.4238 337.732 59.0049 338.603 58.167 339.235C57.3291 339.862 56.2012 340.176 54.7832 340.176C53.7988 340.176 52.9023 339.997 52.0938 339.64C51.2852 339.276 50.667 338.781 50.2393 338.154C49.8174 337.527 49.6064 336.801 49.6064 335.975H52.252C52.252 337.387 53.0957 338.093 54.7832 338.093C55.4102 338.093 55.8994 337.967 56.251 337.715C56.6025 337.457 56.7783 337.1 56.7783 336.643ZM64.0908 328.152V330.49H65.7168V332.354H64.0908V337.1C64.0908 337.451 64.1582 337.703 64.293 337.855C64.4277 338.008 64.6855 338.084 65.0664 338.084C65.3477 338.084 65.5967 338.063 65.8135 338.022V339.947C65.3154 340.1 64.8027 340.176 64.2754 340.176C62.4941 340.176 61.5859 339.276 61.5508 337.478V332.354H60.1621V330.49H61.5508V328.152H64.0908ZM72.6426 340C72.5254 339.771 72.4404 339.487 72.3877 339.147C71.7725 339.833 70.9727 340.176 69.9883 340.176C69.0566 340.176 68.2832 339.906 67.668 339.367C67.0586 338.828 66.7539 338.148 66.7539 337.328C66.7539 336.32 67.126 335.547 67.8701 335.008C68.6201 334.469 69.7012 334.196 71.1133 334.19H72.2822V333.646C72.2822 333.206 72.168 332.854 71.9395 332.591C71.7168 332.327 71.3623 332.195 70.876 332.195C70.4482 332.195 70.1113 332.298 69.8652 332.503C69.625 332.708 69.5049 332.989 69.5049 333.347H66.9648C66.9648 332.796 67.1348 332.286 67.4746 331.817C67.8145 331.349 68.2949 330.982 68.916 330.719C69.5371 330.449 70.2344 330.314 71.0078 330.314C72.1797 330.314 73.1084 330.61 73.7939 331.202C74.4854 331.788 74.8311 332.614 74.8311 333.681V337.803C74.8369 338.705 74.9629 339.388 75.209 339.851V340H72.6426ZM70.542 338.233C70.917 338.233 71.2627 338.151 71.5791 337.987C71.8955 337.817 72.1299 337.592 72.2822 337.311V335.676H71.333C70.0615 335.676 69.3848 336.115 69.3027 336.994L69.2939 337.144C69.2939 337.46 69.4053 337.721 69.6279 337.926C69.8506 338.131 70.1553 338.233 70.542 338.233ZM82.126 332.872C81.7803 332.825 81.4756 332.802 81.2119 332.802C80.251 332.802 79.6211 333.127 79.3223 333.777V340H76.7822V330.49H79.1816L79.252 331.624C79.7617 330.751 80.4678 330.314 81.3701 330.314C81.6514 330.314 81.915 330.353 82.1611 330.429L82.126 332.872ZM86.8369 328.152V330.49H88.4629V332.354H86.8369V337.1C86.8369 337.451 86.9043 337.703 87.0391 337.855C87.1738 338.008 87.4316 338.084 87.8125 338.084C88.0938 338.084 88.3428 338.063 88.5596 338.022V339.947C88.0615 340.1 87.5488 340.176 87.0215 340.176C85.2402 340.176 84.332 339.276 84.2969 337.478V332.354H82.9082V330.49H84.2969V328.152H86.8369Z" fill="white"/>
<line x1="140.933" y1="331.533" x2="268.8" y2="331.533" stroke="#663399" stroke-width="4"/>
<path d="M271.727 138.339C271.142 137.754 270.192 137.754 269.606 138.339L260.06 147.885C259.474 148.471 259.474 149.421 260.06 150.007C260.646 150.592 261.596 150.592 262.181 150.007L270.667 141.521L279.152 150.007C279.738 150.592 280.687 150.592 281.273 150.007C281.859 149.421 281.859 148.471 281.273 147.885L271.727 138.339ZM272.167 333.533L272.167 139.4L269.167 139.4L269.167 333.533L272.167 333.533Z" fill="#663399"/>
<path d="M977.073 475.527C977.658 476.113 978.608 476.113 979.194 475.527L988.74 465.981C989.326 465.396 989.326 464.446 988.74 463.86C988.154 463.274 987.204 463.274 986.619 463.86L978.133 472.345L969.648 463.86C969.062 463.274 968.113 463.274 967.527 463.86C966.941 464.446 966.941 465.396 967.527 465.981L977.073 475.527ZM976.633 347.533L976.633 474.467H979.633L979.633 347.533H976.633Z" fill="#663399"/>
<path d="M978.133 69.4H979.633V67.9H978.133V69.4ZM977.073 204.861C977.658 205.446 978.608 205.446 979.194 204.861L988.74 195.315C989.326 194.729 989.326 193.779 988.74 193.193C988.154 192.608 987.204 192.608 986.619 193.193L978.133 201.679L969.648 193.193C969.062 192.608 968.113 192.608 967.527 193.193C966.941 193.779 966.941 194.729 967.527 195.315L977.073 204.861ZM900.667 70.9L978.133 70.9V67.9L900.667 67.9V70.9ZM976.633 69.4V203.8H979.633V69.4H976.633Z" fill="#663399"/>
<path d="M268.8 670L267.3 670L267.3 671.5L268.8 671.5L268.8 670ZM750.4 670L750.4 671.5L751.9 671.5L751.9 670L750.4 670ZM751.46 143.006C750.875 142.42 749.925 142.42 749.339 143.006L739.793 152.552C739.207 153.138 739.207 154.087 739.793 154.673C740.379 155.259 741.329 155.259 741.914 154.673L750.4 146.188L758.885 154.673C759.471 155.259 760.421 155.259 761.006 154.673C761.592 154.087 761.592 153.138 761.006 152.552L751.46 143.006ZM267.3 576.2L267.3 670L270.3 670L270.3 576.2L267.3 576.2ZM268.8 671.5L750.4 671.5L750.4 668.5L268.8 668.5L268.8 671.5ZM751.9 670L751.9 144.067L748.9 144.067L748.9 670L751.9 670Z" fill="#663399"/>
<path d="M484.4 489.867L484.4 491.367L485.9 491.367L485.9 489.867L484.4 489.867ZM441.806 488.806C441.22 489.392 441.22 490.342 441.806 490.927L451.352 500.473C451.938 501.059 452.887 501.059 453.473 500.473C454.059 499.887 454.059 498.938 453.473 498.352L444.988 489.867L453.473 481.381C454.059 480.796 454.059 479.846 453.473 479.26C452.887 478.674 451.938 478.674 451.352 479.26L441.806 488.806ZM482.9 346.6L482.9 489.867L485.9 489.867L485.9 346.6L482.9 346.6ZM484.4 488.367L442.867 488.367L442.867 491.367L484.4 491.367L484.4 488.367Z" fill="#663399"/>
<path d="M483.467 71.2667H484.967V69.7667H483.467V71.2667ZM482.406 204.861C482.992 205.446 483.942 205.446 484.527 204.861L494.073 195.315C494.659 194.729 494.659 193.779 494.073 193.193C493.487 192.608 492.538 192.608 491.952 193.193L483.467 201.679L474.981 193.193C474.396 192.608 473.446 192.608 472.86 193.193C472.274 193.779 472.274 194.729 472.86 195.315L482.406 204.861ZM434.933 72.7667L483.467 72.7667V69.7667L434.933 69.7667V72.7667ZM481.967 71.2667V203.8H484.967V71.2667H481.967Z" fill="#663399"/>
<g filter="url(#filter0_d)">
<path d="M100.8 25C100.8 13.9543 109.754 5 120.8 5H417.733C428.779 5 437.733 13.9543 437.733 25V117.533C437.733 128.579 428.779 137.533 417.733 137.533H120.8C109.754 137.533 100.8 128.579 100.8 117.533V25Z" fill="#F0E0FF"/>
</g>
<g filter="url(#filter1_d)">
<path d="M563.733 25C563.733 13.9543 572.688 5 583.733 5H880.667C891.712 5 900.667 13.9543 900.667 25V117.533C900.667 128.579 891.712 137.533 880.667 137.533H583.733C572.688 137.533 563.733 128.579 563.733 117.533V25Z" fill="#FFDDEF"/>
</g>
<g filter="url(#filter2_d)">
<path d="M798 228.467C798 217.421 806.954 208.467 818 208.467H1114.93C1125.98 208.467 1134.93 217.421 1134.93 228.467V321C1134.93 332.046 1125.98 341 1114.93 341H818C806.954 341 798 332.046 798 321V228.467Z" fill="#FFDDEF"/>
</g>
<g filter="url(#filter3_d)">
<path d="M316.4 228.467C316.4 217.421 325.354 208.467 336.4 208.467H633.333C644.379 208.467 653.333 217.421 653.333 228.467V321C653.333 332.046 644.379 341 633.333 341H336.4C325.354 341 316.4 332.046 316.4 321V228.467Z" fill="#F0E0FF"/>
</g>
<g filter="url(#filter4_d)">
<path d="M100.8 463.667C100.8 452.621 109.754 443.667 120.8 443.667H417.733C428.779 443.667 437.733 452.621 437.733 463.667V556.2C437.733 567.246 428.779 576.2 417.733 576.2H120.8C109.754 576.2 100.8 567.246 100.8 556.2V463.667Z" fill="#F0E0FF"/>
</g>
<defs>
<filter id="filter0_d" x="82.8" y="0" width="376.933" height="172.533" filterUnits="userSpaceOnUse" color-interpolation-filters="sRGB">
<feFlood flood-opacity="0" result="BackgroundImageFix"/>
<feColorMatrix in="SourceAlpha" type="matrix" values="0 0 0 0 0 0 0 0 0 0 0 0 0 0 0 0 0 0 127 0"/>
<feOffset dx="2" dy="15"/>
<feGaussianBlur stdDeviation="10"/>
<feColorMatrix type="matrix" values="0 0 0 0 0.4 0 0 0 0 0.2 0 0 0 0 0.6 0 0 0 0.16 0"/>
<feBlend mode="normal" in2="BackgroundImageFix" result="effect1_dropShadow"/>
<feBlend mode="normal" in="SourceGraphic" in2="effect1_dropShadow" result="shape"/>
</filter>
<filter id="filter1_d" x="545.733" y="0" width="376.933" height="172.533" filterUnits="userSpaceOnUse" color-interpolation-filters="sRGB">
<feFlood flood-opacity="0" result="BackgroundImageFix"/>
<feColorMatrix in="SourceAlpha" type="matrix" values="0 0 0 0 0 0 0 0 0 0 0 0 0 0 0 0 0 0 127 0"/>
<feOffset dx="2" dy="15"/>
<feGaussianBlur stdDeviation="10"/>
<feColorMatrix type="matrix" values="0 0 0 0 0.895833 0 0 0 0 0.313542 0 0 0 0 0.627979 0 0 0 0.2 0"/>
<feBlend mode="normal" in2="BackgroundImageFix" result="effect1_dropShadow"/>
<feBlend mode="normal" in="SourceGraphic" in2="effect1_dropShadow" result="shape"/>
</filter>
<filter id="filter2_d" x="780" y="203.467" width="376.933" height="172.533" filterUnits="userSpaceOnUse" color-interpolation-filters="sRGB">
<feFlood flood-opacity="0" result="BackgroundImageFix"/>
<feColorMatrix in="SourceAlpha" type="matrix" values="0 0 0 0 0 0 0 0 0 0 0 0 0 0 0 0 0 0 127 0"/>
<feOffset dx="2" dy="15"/>
<feGaussianBlur stdDeviation="10"/>
<feColorMatrix type="matrix" values="0 0 0 0 0.895833 0 0 0 0 0.313542 0 0 0 0 0.627979 0 0 0 0.2 0"/>
<feBlend mode="normal" in2="BackgroundImageFix" result="effect1_dropShadow"/>
<feBlend mode="normal" in="SourceGraphic" in2="effect1_dropShadow" result="shape"/>
</filter>
<filter id="filter3_d" x="298.4" y="203.467" width="376.933" height="172.533" filterUnits="userSpaceOnUse" color-interpolation-filters="sRGB">
<feFlood flood-opacity="0" result="BackgroundImageFix"/>
<feColorMatrix in="SourceAlpha" type="matrix" values="0 0 0 0 0 0 0 0 0 0 0 0 0 0 0 0 0 0 127 0"/>
<feOffset dx="2" dy="15"/>
<feGaussianBlur stdDeviation="10"/>
<feColorMatrix type="matrix" values="0 0 0 0 0.4 0 0 0 0 0.2 0 0 0 0 0.6 0 0 0 0.16 0"/>
<feBlend mode="normal" in2="BackgroundImageFix" result="effect1_dropShadow"/>
<feBlend mode="normal" in="SourceGraphic" in2="effect1_dropShadow" result="shape"/>
</filter>
<filter id="filter4_d" x="82.8" y="438.667" width="376.933" height="172.533" filterUnits="userSpaceOnUse" color-interpolation-filters="sRGB">
<feFlood flood-opacity="0" result="BackgroundImageFix"/>
<feColorMatrix in="SourceAlpha" type="matrix" values="0 0 0 0 0 0 0 0 0 0 0 0 0 0 0 0 0 0 127 0"/>
<feOffset dx="2" dy="15"/>
<feGaussianBlur stdDeviation="10"/>
<feColorMatrix type="matrix" values="0 0 0 0 0.4 0 0 0 0 0.2 0 0 0 0 0.6 0 0 0 0.16 0"/>
<feBlend mode="normal" in2="BackgroundImageFix" result="effect1_dropShadow"/>
<feBlend mode="normal" in="SourceGraphic" in2="effect1_dropShadow" result="shape"/>
</filter>
</defs>
</svg>
