<svg width="1366" height="601" viewBox="0 0 1366 601" fill="none" xmlns="http://www.w3.org/2000/svg">
<path d="M576 144.339C333.519 55.5591 -116.5 291.839 27.9999 485.339C824 735.839 1298 515 1344.5 414.5C1408.53 276.117 1320 84 1186.5 166C1053 248 1023 308 576 144.339Z" fill="#FDFBFF"/>
<path d="M182.831 428C120.625 318.091 239.938 261.802 255.296 377.864C256.073 362.886 256.897 347.667 261.878 333.518C269.443 304.166 310.547 282.897 330.179 312.609C340.558 331.019 326.795 356.844 338.73 374.29C346.258 330.384 410.079 340.684 403.359 384.737C398.314 405.902 375.927 418.218 358.058 427.793L182.831 428Z" fill="#F2F2F2"/>
<path d="M394.217 358.142C362.641 368.377 323.179 385.617 319.978 423.298C319.886 424.792 317.546 424.802 317.638 423.298C318.457 409.992 324.948 397.816 333.937 388.187C343.792 377.629 356.564 370.418 369.75 364.824C372.327 364.228 399.162 351.547 394.217 358.142Z" fill="white"/>
<path d="M314.44 303.029C292.587 339.478 282.189 381.639 284.592 424.057C284.679 425.559 282.339 425.554 282.253 424.057C280.39 390.717 286.334 357.403 299.613 326.758C301.104 324.016 313.136 295.134 314.44 303.029Z" fill="white"/>
<path d="M199.921 316.454C215.326 351.051 224.862 387.966 228.138 425.689C228.269 427.187 225.928 427.179 225.798 425.689C223.249 396.602 216.956 367.964 207.073 340.484C207.1 337.423 193.614 312.581 199.921 316.454V316.454Z" fill="white"/>
<path d="M470.951 426.11C453.144 394.647 487.298 378.534 491.694 411.758C491.917 407.47 492.153 403.113 493.579 399.063C495.744 390.661 507.51 384.573 513.13 393.078C516.101 398.348 512.161 405.741 515.578 410.735C517.733 398.166 536.002 401.115 534.079 413.725C532.635 419.784 526.226 423.31 521.111 426.05L470.951 426.11Z" fill="#F2F2F2"/>
<path d="M531.462 406.112C522.423 409.042 511.127 413.977 510.21 424.764C510.184 425.191 509.514 425.194 509.54 424.764C509.885 420.975 511.534 417.423 514.206 414.713C517.118 411.792 520.61 409.514 524.458 408.025C525.195 407.854 532.877 404.224 531.462 406.112Z" fill="white"/>
<path d="M508.625 390.335C502.369 400.769 499.393 412.838 500.081 424.981C500.105 425.411 499.436 425.409 499.411 424.981C498.878 415.437 500.579 405.9 504.38 397.128C504.807 396.343 508.251 388.076 508.625 390.335V390.335Z" fill="white"/>
<path d="M475.843 394.178C480.253 404.082 482.982 414.65 483.92 425.448C483.957 425.877 483.287 425.875 483.25 425.448C482.521 417.122 480.719 408.924 477.89 401.057C477.898 400.181 474.037 393.07 475.843 394.178Z" fill="white"/>
<path d="M466.972 162.12C466.652 162.554 466.367 163.012 466.119 163.491L418.068 168.888L411.08 159.457L395.452 168.131L409.209 191.04L468.077 175.608C469.575 177.046 471.476 177.995 473.527 178.328C475.578 178.661 477.682 178.363 479.559 177.473C481.436 176.582 482.997 175.142 484.035 173.344C485.073 171.545 485.538 169.474 485.368 167.405C485.199 165.337 484.403 163.368 483.086 161.763C481.77 160.157 479.995 158.989 477.998 158.416C476.001 157.842 473.876 157.889 471.907 158.551C469.937 159.212 468.216 160.457 466.972 162.12Z" fill="#FFB8B8"/>
<path d="M398.867 176.336C399.254 176.166 399.614 175.941 399.937 175.668L419.249 159.419C419.713 159.028 420.091 158.546 420.359 158.002C420.627 157.458 420.779 156.864 420.806 156.258C420.832 155.653 420.733 155.048 420.513 154.483C420.294 153.918 419.959 153.404 419.531 152.975L402.007 135.398C401.271 134.653 400.292 134.198 399.248 134.115C398.204 134.032 397.165 134.327 396.32 134.945L383.068 144.558C382.241 145.158 381.649 146.028 381.396 147.018C381.142 148.007 381.243 149.054 381.679 149.977L393.144 174.19C393.632 175.22 394.502 176.02 395.57 176.421C396.639 176.821 397.821 176.791 398.867 176.336H398.867Z" fill="#6C63FF"/>
<path d="M323.543 406.16L335.078 409.294L352.671 366.348L335.648 361.722L323.543 406.16Z" fill="#FFB8B8"/>
<path d="M345.122 408.486L321.968 402.193L318.158 416.183L354.407 426.035L354.655 425.126C355.6 421.657 355.126 417.954 353.339 414.834C351.551 411.713 348.595 409.43 345.122 408.486Z" fill="#2F2E41"/>
<path d="M422.145 414.951L434.098 414.95L439.785 368.897L422.143 368.898L422.145 414.951Z" fill="#FFB8B8"/>
<path d="M443.579 411.538H419.584V426.037H457.151V425.095C457.151 421.499 455.721 418.051 453.176 415.509C450.631 412.967 447.179 411.538 443.579 411.538Z" fill="#2F2E41"/>
<path d="M387.205 103.876C377.854 94.5351 377.854 79.3899 387.205 70.0487C396.557 60.7074 411.72 60.7074 421.071 70.0487C430.423 79.3899 430.423 94.5352 421.071 103.876C411.72 113.218 396.557 113.218 387.205 103.876Z" fill="#FFB8B8"/>
<path d="M422.877 382.115H439.212C440.328 382.113 441.402 381.687 442.216 380.923C443.03 380.16 443.523 379.115 443.595 378.002C448.462 300.713 445.615 245.271 434.635 203.526C434.587 203.343 434.528 203.164 434.457 202.989L433.582 200.804C433.259 199.989 432.698 199.29 431.971 198.799C431.244 198.307 430.386 198.046 429.508 198.049H395.918C395.285 198.048 394.659 198.185 394.084 198.449C393.509 198.713 392.998 199.099 392.587 199.579L388.024 204.896C387.935 205 387.852 205.106 387.772 205.217C367.198 233.875 348.761 289.901 327.408 365.207C327.092 366.301 327.217 367.475 327.756 368.479C328.295 369.482 329.205 370.236 330.292 370.579L347.847 376.191C348.854 376.508 349.943 376.453 350.913 376.036C351.884 375.619 352.673 374.868 353.136 373.919L398.69 279.542C399.009 278.882 399.532 278.343 400.181 278.003C400.831 277.663 401.572 277.542 402.297 277.656C403.021 277.77 403.689 278.114 404.202 278.638C404.715 279.161 405.046 279.835 405.145 280.561L418.53 378.326C418.677 379.374 419.197 380.334 419.996 381.03C420.794 381.726 421.817 382.111 422.877 382.115Z" fill="#663399"/>
<path d="M389.866 205.285C389.912 205.285 389.957 205.284 390.004 205.283L430.805 203.997C431.854 203.967 432.858 203.562 433.633 202.855C434.407 202.148 434.902 201.187 435.026 200.146C440.198 158.325 426.013 147.122 419.674 144.247C419.144 144.008 418.685 143.636 418.342 143.168C417.998 142.7 417.781 142.152 417.712 141.575L417.164 137.192C417.07 136.418 416.771 135.683 416.297 135.063C406.358 122.203 392.787 118.085 385.582 116.775C384.997 116.67 384.398 116.685 383.819 116.819C383.241 116.952 382.696 117.202 382.217 117.553C381.738 117.903 381.336 118.348 381.034 118.858C380.732 119.369 380.538 119.936 380.462 120.524L379.64 126.818C379.556 127.419 379.317 127.987 378.945 128.466C358.217 155.532 381.309 195.496 386.148 203.232C386.544 203.86 387.092 204.378 387.742 204.737C388.392 205.096 389.123 205.285 389.866 205.285Z" fill="#D663FF"/>
<path d="M393.671 264.727C392.418 263.849 391.372 262.707 390.608 261.381C389.844 260.056 389.381 258.579 389.25 257.055C389.119 255.531 389.324 253.997 389.851 252.561C390.378 251.125 391.214 249.822 392.3 248.743L384.721 157.323L407.287 160.423L407.716 249.247C409.409 251.189 410.33 253.684 410.304 256.259C410.279 258.834 409.308 261.31 407.577 263.218C405.846 265.126 403.474 266.334 400.911 266.612C398.348 266.89 395.772 266.22 393.671 264.727H393.671Z" fill="#FFB8B8"/>
<path d="M383.247 170.487C383.669 170.487 384.09 170.426 384.495 170.306L408.72 163.189C409.302 163.018 409.843 162.728 410.307 162.338C410.771 161.948 411.15 161.465 411.418 160.922C411.686 160.378 411.838 159.784 411.865 159.178C411.892 158.573 411.793 157.968 411.573 157.403L402.608 134.269C402.235 133.292 401.521 132.482 400.599 131.986C399.677 131.491 398.607 131.343 397.585 131.57L381.58 135.045C380.581 135.262 379.69 135.821 379.059 136.625C378.429 137.429 378.099 138.428 378.127 139.449L378.871 166.223C378.903 167.362 379.378 168.444 380.194 169.24C381.011 170.036 382.106 170.483 383.247 170.487V170.487Z" fill="#D663FF"/>
<path d="M181.212 427.872H528.553C528.795 427.872 529.027 427.776 529.198 427.605C529.369 427.434 529.465 427.202 529.465 426.961C529.465 426.719 529.369 426.488 529.198 426.317C529.027 426.146 528.795 426.05 528.553 426.05H181.212C180.971 426.05 180.739 426.146 180.568 426.317C180.397 426.488 180.301 426.719 180.301 426.961C180.301 427.202 180.397 427.434 180.568 427.605C180.739 427.776 180.971 427.872 181.212 427.872Z" fill="#3F3D56"/>
<path d="M377.791 72.0862C379.569 66.7005 380.882 61.1724 381.715 55.5626C381.977 52.2966 381.139 48.7824 378.758 46.529C374.302 42.3118 366.731 44.3204 362.07 48.3115C355.335 54.0797 351.976 62.9442 350.707 71.7147C349.437 80.4852 349.996 89.404 349.69 98.2604C349.385 107.117 348.117 116.223 343.596 123.849C339.076 131.474 330.688 137.327 321.84 136.678C318.269 136.485 314.878 135.05 312.255 132.62C310.968 131.397 309.993 129.883 309.412 128.206C308.831 126.529 308.662 124.737 308.917 122.981C304.395 131.069 306.687 142.032 313.433 148.39C320.178 154.749 330.554 156.547 339.421 153.832C348.289 151.117 355.588 144.31 359.947 136.132C364.307 127.955 365.904 118.509 365.672 109.247C365.495 102.135 364.284 94.9647 365.488 87.9526C366.691 80.9405 371.084 73.8207 378.012 72.1694L377.791 72.0862Z" fill="#2F2E41"/>
<path d="M408.902 81.3053C410.083 85.2466 414.601 87.6769 418.666 87.0103C422.73 86.3438 426.072 83.0004 427.307 79.0756C428.424 75.067 427.967 70.7839 426.029 67.1004C424.962 64.8925 423.469 62.9166 421.636 61.2858C419.803 59.655 417.666 58.4012 415.347 57.5963C413.015 56.8244 410.532 56.6236 408.106 57.0108C405.681 57.3979 403.384 58.3617 401.409 59.8209C401.198 58.9355 400.756 58.1221 400.126 57.4644C399.497 56.8067 398.703 56.3284 397.827 56.079C396.062 55.6041 394.2 55.6315 392.451 56.1582C387.41 57.5931 383.042 60.7673 380.123 65.1164C377.242 69.452 375.336 74.3601 374.536 79.5024C373.161 87.2141 373.668 95.6409 378.004 102.168C382.34 108.695 391.211 112.548 398.408 109.437C398.857 107.145 397.793 104.838 396.564 102.852C395.334 100.867 393.876 98.9322 393.403 96.6455C392.931 94.3587 393.837 91.5615 396.051 90.8137C397.94 90.1757 399.955 91.2094 401.945 91.3342C403.075 91.4051 404.204 91.1778 405.219 90.6752C406.234 90.1726 407.098 89.4124 407.726 88.4707C408.353 87.5291 408.722 86.4392 408.795 85.3103C408.867 84.1814 408.642 83.0532 408.14 82.039L408.902 81.3053Z" fill="#2F2E41"/>
<g clip-path="url(#clip0)">
<path d="M830.815 100.133L783.732 85.9076L780.836 150.251L830.386 165.176L830.815 100.133Z" fill="#F5F5F5"/>
<path d="M499.389 0V65.4713L780.836 150.251L783.732 85.9076L499.389 0Z" fill="#F5F5F5"/>
<path opacity="0.1" d="M830.815 100.133L783.732 85.9076L780.836 150.251L830.386 165.176L830.815 100.133Z" fill="black"/>
<path d="M830.815 223.374L783.732 209.148L780.836 273.491L830.386 288.417L830.815 223.374Z" fill="#3AD29F"/>
<path d="M499.389 123.24V188.712L780.836 273.491L783.732 209.148L499.389 123.24Z" fill="#3AD29F"/>
<path opacity="0.1" d="M830.815 223.374L783.732 209.148L780.836 273.491L830.386 288.417L830.815 223.374Z" fill="black"/>
<path d="M795.702 246.053L803.41 257.606L818.825 238.35" stroke="white" stroke-width="7" stroke-miterlimit="10" stroke-linecap="round"/>
<g opacity="0.4">
<path opacity="0.4" d="M796.131 111.259L811.546 138.218" stroke="white" stroke-width="7" stroke-miterlimit="10" stroke-linecap="round"/>
<path opacity="0.4" d="M815.399 115.11L796.131 134.366" stroke="white" stroke-width="7" stroke-miterlimit="10" stroke-linecap="round"/>
</g>
<path d="M830.815 338.911L783.732 324.686L780.836 389.029L830.386 403.955L830.815 338.911Z" fill="#F5F5F5"/>
<path d="M499.389 238.779V304.25L780.836 389.029L783.732 324.686L499.389 238.779Z" fill="#F5F5F5"/>
<path opacity="0.1" d="M830.815 338.911L783.732 324.686L780.836 389.029L830.386 403.955L830.815 338.911Z" fill="black"/>
<g opacity="0.4">
<path opacity="0.4" d="M796.131 350.037L811.546 376.996" stroke="white" stroke-width="7" stroke-miterlimit="10" stroke-linecap="round"/>
<path opacity="0.4" d="M815.399 353.889L796.131 373.145" stroke="white" stroke-width="7" stroke-miterlimit="10" stroke-linecap="round"/>
</g>
<path opacity="0.3" d="M694.005 230.648C699.326 230.648 703.64 222.027 703.64 211.392C703.64 200.757 699.326 192.135 694.005 192.135C688.684 192.135 684.371 200.757 684.371 211.392C684.371 222.027 688.684 230.648 694.005 230.648Z" fill="black"/>
<path opacity="0.1" d="M694.005 373.145C738.701 373.145 774.935 300.726 774.935 211.392C774.935 122.058 738.701 49.6385 694.005 49.6385C649.309 49.6385 613.076 122.058 613.076 211.392C613.076 300.726 649.309 373.145 694.005 373.145Z" fill="#6C63FF"/>
<path opacity="0.1" d="M694.005 299.971C718.482 299.971 738.324 260.313 738.324 211.392C738.324 162.471 718.482 122.813 694.005 122.813C669.529 122.813 649.687 162.471 649.687 211.392C649.687 260.313 669.529 299.971 694.005 299.971Z" fill="white"/>
<g opacity="0.5">
<path opacity="0.5" d="M376.282 95.6398H374.997V102.914H376.282V95.6398Z" fill="#47E6B1"/>
<path opacity="0.5" d="M379.279 99.919V98.6352H372V99.919H379.279Z" fill="#47E6B1"/>
</g>
<g opacity="0.5">
<path opacity="0.5" d="M831.838 450.307H830.553V457.582H831.838V450.307Z" fill="#47E6B1"/>
<path opacity="0.5" d="M834.835 454.586V453.303H827.556V454.586H834.835Z" fill="#47E6B1"/>
</g>
<g opacity="0.5">
<path opacity="0.5" d="M800.198 295.906H798.914V303.18H800.198V295.906Z" fill="#47E6B1"/>
<path opacity="0.5" d="M803.196 300.185V298.901H795.916V300.185H803.196Z" fill="#47E6B1"/>
</g>
<g opacity="0.5">
<path opacity="0.5" d="M745.389 443.965H744.104V451.24H745.389V443.965Z" fill="#47E6B1"/>
<path opacity="0.5" d="M748.386 448.245V446.961H741.107V448.245H748.386Z" fill="#47E6B1"/>
</g>
<g opacity="0.5">
<path opacity="0.5" d="M706.851 536.824H705.567V544.098H706.851V536.824Z" fill="#47E6B1"/>
<path opacity="0.5" d="M709.849 541.103V539.819H702.569V541.103H709.849Z" fill="#47E6B1"/>
</g>
<g opacity="0.5">
<path opacity="0.5" d="M431.091 208.182H429.807V215.457H431.091V208.182Z" fill="#47E6B1"/>
<path opacity="0.5" d="M434.089 212.462V211.178H426.809V212.462H434.089Z" fill="#47E6B1"/>
</g>
<path opacity="0.5" d="M449.8 94.9147C449.446 94.7606 449.161 94.4818 449 94.1314C448.838 93.7809 448.811 93.3833 448.924 93.0142C448.942 92.9577 448.953 92.8991 448.958 92.8399C448.968 92.6708 448.924 92.5028 448.831 92.361C448.738 92.2191 448.602 92.1108 448.443 92.0522C448.284 91.9936 448.111 91.9877 447.948 92.0354C447.785 92.0832 447.642 92.182 447.54 92.3173C447.505 92.3653 447.476 92.4173 447.453 92.4721C447.299 92.8259 447.02 93.1107 446.669 93.2722C446.319 93.4338 445.921 93.4609 445.551 93.3483C445.495 93.3301 445.436 93.3186 445.377 93.3141C445.208 93.3038 445.04 93.3482 444.898 93.4408C444.756 93.5334 444.647 93.6693 444.589 93.8282C444.53 93.9871 444.524 94.1607 444.572 94.3233C444.62 94.4858 444.719 94.6287 444.854 94.7307C444.902 94.7657 444.954 94.795 445.009 94.8179C445.363 94.972 445.648 95.2508 445.809 95.6012C445.971 95.9516 445.998 96.3492 445.886 96.7183C445.867 96.7749 445.856 96.8335 445.851 96.8927C445.841 97.0618 445.886 97.2297 445.978 97.3716C446.071 97.5135 446.207 97.6218 446.366 97.6804C446.525 97.739 446.699 97.7449 446.861 97.6971C447.024 97.6494 447.167 97.5506 447.269 97.4153C447.304 97.3673 447.333 97.3153 447.356 97.2605C447.51 96.9067 447.789 96.6219 448.14 96.4604C448.491 96.2988 448.889 96.2717 449.258 96.3843C449.314 96.4025 449.373 96.414 449.432 96.4185C449.602 96.4288 449.77 96.3844 449.912 96.2918C450.054 96.1992 450.162 96.0633 450.221 95.9044C450.279 95.7454 450.285 95.5718 450.237 95.4093C450.19 95.2467 450.091 95.1039 449.955 95.0019C449.907 94.9668 449.855 94.9375 449.8 94.9147Z" fill="#4D8AF0"/>
<path opacity="0.5" d="M738.919 30.5775C738.565 30.4234 738.28 30.1446 738.119 29.7942C737.957 29.4438 737.93 29.0462 738.042 28.6771C738.061 28.6205 738.072 28.562 738.077 28.5027C738.087 28.3336 738.042 28.1657 737.95 28.0238C737.857 27.8819 737.721 27.7737 737.562 27.715C737.403 27.6564 737.229 27.6505 737.067 27.6983C736.904 27.746 736.761 27.8448 736.659 27.9801C736.624 28.0281 736.595 28.0801 736.572 28.1349C736.418 28.4887 736.139 28.7735 735.788 28.935C735.437 29.0966 735.04 29.1237 734.67 29.0111C734.614 28.9929 734.555 28.9814 734.496 28.9769C734.326 28.9666 734.158 29.0111 734.016 29.1037C733.875 29.1963 733.766 29.3321 733.708 29.491C733.649 29.65 733.643 29.8236 733.691 29.9861C733.739 30.1487 733.837 30.2915 733.973 30.3935C734.021 30.4286 734.073 30.4579 734.128 30.4808C734.482 30.6348 734.767 30.9136 734.928 31.264C735.09 31.6145 735.117 32.0121 735.004 32.3812C734.986 32.4377 734.975 32.4963 734.97 32.5556C734.96 32.7247 735.004 32.8926 735.097 33.0344C735.19 33.1763 735.326 33.2846 735.485 33.3432C735.644 33.4018 735.817 33.4077 735.98 33.36C736.143 33.3122 736.286 33.2134 736.388 33.0781C736.423 33.0301 736.452 32.9782 736.475 32.9233C736.629 32.5695 736.908 32.2847 737.259 32.1232C737.609 31.9616 738.007 31.9346 738.377 32.0471C738.433 32.0654 738.492 32.0768 738.551 32.0813C738.72 32.0916 738.888 32.0472 739.03 31.9546C739.172 31.862 739.281 31.7261 739.339 31.5672C739.398 31.4083 739.404 31.2347 739.356 31.0721C739.308 30.9096 739.209 30.7667 739.074 30.6647C739.026 30.6297 738.974 30.6004 738.919 30.5775Z" fill="#4D8AF0"/>
<path opacity="0.5" d="M383.514 259.514C383.16 259.36 382.876 259.081 382.714 258.731C382.552 258.38 382.525 257.983 382.638 257.613C382.656 257.557 382.667 257.498 382.672 257.439C382.682 257.27 382.638 257.102 382.545 256.96C382.452 256.818 382.317 256.71 382.157 256.651C381.998 256.593 381.825 256.587 381.662 256.635C381.499 256.682 381.356 256.781 381.254 256.916C381.219 256.964 381.19 257.016 381.167 257.071C381.013 257.425 380.734 257.71 380.383 257.871C380.033 258.033 379.635 258.06 379.265 257.947C379.209 257.929 379.15 257.918 379.091 257.913C378.922 257.903 378.754 257.947 378.612 258.04C378.47 258.133 378.361 258.268 378.303 258.427C378.244 258.586 378.238 258.76 378.286 258.922C378.334 259.085 378.433 259.228 378.568 259.33C378.616 259.365 378.668 259.394 378.723 259.417C379.077 259.571 379.362 259.85 379.524 260.2C379.685 260.551 379.712 260.948 379.6 261.318C379.581 261.374 379.57 261.433 379.565 261.492C379.555 261.661 379.6 261.829 379.692 261.971C379.785 262.113 379.921 262.221 380.08 262.28C380.239 262.338 380.413 262.344 380.575 262.296C380.738 262.249 380.881 262.15 380.983 262.014C381.018 261.966 381.047 261.915 381.07 261.86C381.225 261.506 381.503 261.221 381.854 261.06C382.205 260.898 382.603 260.871 382.972 260.984C383.029 261.002 383.087 261.013 383.146 261.018C383.316 261.028 383.484 260.984 383.626 260.891C383.768 260.798 383.876 260.663 383.935 260.504C383.993 260.345 383.999 260.171 383.951 260.008C383.904 259.846 383.805 259.703 383.669 259.601C383.621 259.566 383.569 259.537 383.514 259.514Z" fill="#4D8AF0"/>
<path opacity="0.5" d="M395.076 421.267C394.722 421.113 394.437 420.834 394.275 420.484C394.114 420.133 394.086 419.736 394.199 419.367C394.217 419.31 394.229 419.251 394.233 419.192C394.244 419.023 394.199 418.855 394.106 418.713C394.014 418.571 393.878 418.463 393.719 418.405C393.56 418.346 393.386 418.34 393.223 418.388C393.061 418.436 392.918 418.534 392.816 418.67C392.781 418.718 392.751 418.77 392.728 418.824C392.574 419.178 392.295 419.463 391.945 419.625C391.594 419.786 391.196 419.813 390.827 419.701C390.77 419.682 390.712 419.671 390.652 419.666C390.483 419.656 390.315 419.701 390.173 419.793C390.031 419.886 389.923 420.022 389.864 420.181C389.805 420.339 389.8 420.513 389.847 420.676C389.895 420.838 389.994 420.981 390.129 421.083C390.177 421.118 390.229 421.147 390.284 421.17C390.638 421.324 390.923 421.603 391.085 421.954C391.247 422.304 391.274 422.702 391.161 423.071C391.143 423.127 391.131 423.186 391.127 423.245C391.117 423.414 391.161 423.582 391.254 423.724C391.346 423.866 391.482 423.974 391.641 424.033C391.8 424.091 391.974 424.097 392.137 424.049C392.299 424.002 392.442 423.903 392.544 423.768C392.579 423.72 392.609 423.668 392.632 423.613C392.786 423.259 393.065 422.974 393.415 422.813C393.766 422.651 394.164 422.624 394.533 422.737C394.59 422.755 394.649 422.766 394.708 422.771C394.877 422.781 395.045 422.737 395.187 422.644C395.329 422.552 395.437 422.416 395.496 422.257C395.555 422.098 395.561 421.924 395.513 421.762C395.465 421.599 395.366 421.456 395.231 421.354C395.183 421.319 395.131 421.29 395.076 421.267Z" fill="#4D8AF0"/>
<path opacity="0.5" d="M587.812 119.175C589.231 119.175 590.381 118.026 590.381 116.608C590.381 115.19 589.231 114.04 587.812 114.04C586.393 114.04 585.243 115.19 585.243 116.608C585.243 118.026 586.393 119.175 587.812 119.175Z" fill="#F55F44"/>
<path opacity="0.5" d="M657.18 454.235C658.599 454.235 659.749 453.086 659.749 451.668C659.749 450.25 658.599 449.1 657.18 449.1C655.761 449.1 654.611 450.25 654.611 451.668C654.611 453.086 655.761 454.235 657.18 454.235Z" fill="#4D8AF0"/>
<path opacity="0.5" d="M815.185 188.498C816.604 188.498 817.755 187.349 817.755 185.931C817.755 184.513 816.604 183.363 815.185 183.363C813.766 183.363 812.616 184.513 812.616 185.931C812.616 187.349 813.766 188.498 815.185 188.498Z" fill="#4D8AF0"/>
<path opacity="0.5" d="M861.431 304.036C862.85 304.036 864 302.887 864 301.469C864 300.051 862.85 298.901 861.431 298.901C860.012 298.901 858.862 300.051 858.862 301.469C858.862 302.887 860.012 304.036 861.431 304.036Z" fill="#47E6B1"/>
<path opacity="0.5" d="M689.295 12.6236C690.714 12.6236 691.864 11.4741 691.864 10.0561C691.864 8.6381 690.714 7.48859 689.295 7.48859C687.876 7.48859 686.726 8.6381 686.726 10.0561C686.726 11.4741 687.876 12.6236 689.295 12.6236Z" fill="#F55F44"/>
<path opacity="0.1" d="M496.406 197.909C501.96 208.023 515.93 221.318 523.052 236.167C524.913 229.469 527.182 222.54 527.182 222.54C527.182 222.54 535.886 176 510.14 163.973C505.874 163.561 501.607 164.752 498.173 167.314C494.505 179.705 492.773 191.288 496.406 197.909Z" fill="black"/>
</g>
<defs>
<clipPath id="clip0">
<rect width="492" height="578" fill="white" transform="translate(372)"/>
</clipPath>
</defs>
</svg>
