<svg width="1391" height="739" viewBox="0 0 1391 739" fill="none" xmlns="http://www.w3.org/2000/svg">
<path d="M553.904 255.268C207.104 178.868 -108.596 386.268 35.9042 579.768C831.904 830.268 1458.15 769.117 1384.9 503.268C1344.4 356.268 1322.4 151.768 1188.9 233.768C1055.4 315.768 987.404 350.768 553.904 255.268Z" fill="#FDFBFF"/>
<g clip-path="url(#clip0)">
<path d="M1001.88 674.792C1059.13 674.792 1105.54 671.252 1105.54 666.886C1105.54 662.519 1059.13 658.979 1001.88 658.979C944.625 658.979 898.212 662.519 898.212 666.886C898.212 671.252 944.625 674.792 1001.88 674.792Z" fill="#E6E6E6"/>
<path d="M1042.05 440.521L1032.02 468.486C1031.26 470.605 1031.26 472.922 1032.01 475.044C1032.76 477.166 1034.23 478.962 1036.15 480.129V480.129C1037.55 480.978 1039.15 481.461 1040.78 481.533C1042.42 481.605 1044.05 481.264 1045.52 480.54C1046.99 479.817 1048.26 478.735 1049.2 477.395C1050.14 476.054 1050.73 474.498 1050.91 472.87L1054.1 444.537L1078.19 364.889L1057.44 354.849L1042.05 440.521Z" fill="#A0616A"/>
<path d="M1033.68 651.689H1048.41V508.456L1014.94 507.787L1033.68 651.689Z" fill="#A0616A"/>
<path d="M968.088 651.689H982.813V508.456L949.348 507.787L968.088 651.689Z" fill="#A0616A"/>
<path d="M1050.75 523.516L1012.6 519.5L1004.57 477.333L989.841 520.169L944.328 515.484L963.069 444.537C997.326 421.259 1029.86 421.768 1060.79 444.537L1050.75 523.516Z" fill="#663399"/>
<path d="M986.065 657.789C986.292 659.607 986.099 661.452 985.5 663.183C984.901 664.914 983.913 666.484 982.611 667.772C981.309 669.06 979.729 670.032 977.992 670.613C976.255 671.194 974.408 671.368 972.593 671.122L945.466 667.443C943.04 667.064 940.864 665.739 939.414 663.757C937.964 661.776 937.36 659.3 937.733 656.873C938.07 654.684 939.179 652.689 940.859 651.247C942.54 649.805 944.681 649.012 946.896 649.012H951.368L966.084 635.605C966.229 644.737 972.954 642.709 984.069 641.818L986.065 657.789Z" fill="#2F2E41"/>
<path d="M1051.66 657.789C1051.88 659.607 1051.69 661.452 1051.09 663.183C1050.49 664.914 1049.51 666.484 1048.2 667.772C1046.9 669.06 1045.32 670.032 1043.58 670.613C1041.85 671.194 1040 671.368 1038.19 671.122L1011.06 667.443C1008.63 667.064 1006.46 665.739 1005.01 663.757C1003.56 661.776 1002.95 659.3 1003.33 656.873V656.873C1003.66 654.684 1004.77 652.689 1006.45 651.247C1008.13 649.805 1010.27 649.012 1012.49 649.012H1016.96L1031.68 635.605C1031.82 644.737 1038.55 642.709 1049.66 641.818L1051.66 657.789Z" fill="#2F2E41"/>
<path d="M999.379 279.886C1012.41 279.886 1022.97 269.323 1022.97 256.293C1022.97 243.262 1012.41 232.699 999.379 232.699C986.349 232.699 975.786 243.262 975.786 256.293C975.786 269.323 986.349 279.886 999.379 279.886Z" fill="#A0616A"/>
<path d="M1029.33 295.949L999.881 298.627V272.523L1015.28 263.153L1029.33 295.949Z" fill="#A0616A"/>
<path d="M1064.13 454.577C1034.51 432.882 998.933 435.086 959.722 451.899C977.487 401.608 985.054 354.737 971.1 315.086C971.1 308.081 973.432 301.275 977.729 295.741C982.025 290.207 988.041 286.261 994.828 284.525L999.881 283.232L1024.65 284.571L1047.9 298.203C1052.64 300.983 1056.58 304.95 1059.32 309.714C1062.07 314.477 1063.52 319.873 1063.55 325.37L1064.13 454.577Z" fill="#E6E6E6"/>
<path d="M949.682 435.167L939.657 463.131C938.897 465.25 938.894 467.567 939.646 469.689C940.399 471.811 941.862 473.608 943.787 474.774C945.189 475.624 946.781 476.107 948.419 476.179C950.056 476.251 951.685 475.909 953.155 475.186C954.626 474.463 955.891 473.381 956.833 472.04C957.776 470.7 958.365 469.144 958.548 467.515L961.73 439.182L985.825 359.534L965.077 349.494L949.682 435.167Z" fill="#A0616A"/>
<path d="M1083.54 380.283H1050.75V299.965C1056.42 303.116 1061.35 307.451 1065.2 312.674C1069.05 317.897 1071.73 323.888 1073.06 330.239L1083.54 380.283Z" fill="#E6E6E6"/>
<path d="M981.391 243.518C979.949 244.199 978.361 244.51 976.769 244.424C975.177 244.338 973.632 243.857 972.272 243.025C970.942 242.146 969.937 240.854 969.413 239.348C968.889 237.843 968.875 236.206 969.372 234.692C970.367 232.134 972.884 230.532 975.327 229.281C980.715 226.522 986.489 224.593 992.453 223.56C995.297 223.068 998.308 222.797 1001 223.848C1002.33 224.368 1003.52 225.192 1004.84 225.737C1007.27 226.738 1009.97 226.742 1012.54 227.286C1015.17 227.86 1017.65 228.992 1019.8 230.606C1021.96 232.221 1023.74 234.278 1025.03 236.641C1025.87 238.249 1026.52 239.952 1026.96 241.715C1028.2 246.537 1028.18 251.595 1026.91 256.409C1024.89 264.035 1019.75 271.042 1020.22 278.917C1016.41 276.704 1014.63 272.196 1011.46 269.151C1009.1 266.901 1006.04 265.518 1002.8 265.228C1001.91 265.263 1001.03 265.039 1000.27 264.584C999.714 264.043 999.332 263.351 999.168 262.595L995.592 251.393C994.864 249.113 993.985 246.637 991.928 245.414C990.659 244.771 989.259 244.431 987.837 244.42C984.435 244.172 981.018 244.204 977.622 244.516" fill="#2F2E41"/>
<path d="M989.172 365.558L951.021 350.833L968.347 304.15C970.364 298.714 973.907 293.975 978.551 290.502C983.194 287.029 988.741 284.97 994.526 284.571V284.571L989.172 365.558Z" fill="#E6E6E6"/>
<path d="M783.926 499.78H364.926C362.937 499.778 361.031 498.987 359.625 497.581C358.219 496.175 357.428 494.269 357.426 492.28V35.2803C357.428 33.2919 358.219 31.3855 359.625 29.9794C361.031 28.5734 362.937 27.7825 364.926 27.7803H783.926C785.914 27.7825 787.821 28.5734 789.227 29.9794C790.633 31.3855 791.424 33.2919 791.426 35.2803V492.28C791.424 494.269 790.633 496.175 789.227 497.581C787.821 498.987 785.914 499.778 783.926 499.78ZM364.926 30.7803C363.733 30.7816 362.589 31.2562 361.745 32.0998C360.902 32.9434 360.427 34.0873 360.426 35.2803V492.28C360.427 493.473 360.902 494.617 361.745 495.461C362.589 496.305 363.733 496.779 364.926 496.78H783.926C785.119 496.779 786.263 496.305 787.106 495.461C787.95 494.617 788.424 493.473 788.426 492.28V35.2803C788.424 34.0873 787.95 32.9434 787.106 32.0998C786.263 31.2562 785.119 30.7816 783.926 30.7803H364.926Z" fill="#E6E6E6"/>
<path d="M451.388 198.126C456.824 198.126 461.231 193.719 461.231 188.283C461.231 182.847 456.824 178.44 451.388 178.44C445.952 178.44 441.545 182.847 441.545 188.283C441.545 193.719 445.952 198.126 451.388 198.126Z" fill="#E6E6E6"/>
<path d="M492.401 198.126C497.837 198.126 502.244 193.719 502.244 188.283C502.244 182.847 497.837 178.44 492.401 178.44C486.964 178.44 482.558 182.847 482.558 188.283C482.558 193.719 486.964 198.126 492.401 198.126Z" fill="#E6E6E6"/>
<path d="M533.413 198.126C538.849 198.126 543.256 193.719 543.256 188.283C543.256 182.847 538.849 178.44 533.413 178.44C527.977 178.44 523.57 182.847 523.57 188.283C523.57 193.719 527.977 198.126 533.413 198.126Z" fill="#663399"/>
<path d="M574.426 198.126C579.862 198.126 584.269 193.719 584.269 188.283C584.269 182.847 579.862 178.44 574.426 178.44C568.99 178.44 564.583 182.847 564.583 188.283C564.583 193.719 568.99 198.126 574.426 198.126Z" fill="#663399"/>
<path d="M615.438 198.126C620.875 198.126 625.281 193.719 625.281 188.283C625.281 182.847 620.875 178.44 615.438 178.44C610.002 178.44 605.595 182.847 605.595 188.283C605.595 193.719 610.002 198.126 615.438 198.126Z" fill="#663399"/>
<path d="M656.451 198.126C661.887 198.126 666.294 193.719 666.294 188.283C666.294 182.847 661.887 178.44 656.451 178.44C651.015 178.44 646.608 182.847 646.608 188.283C646.608 193.719 651.015 198.126 656.451 198.126Z" fill="#E6E6E6"/>
<path d="M697.464 198.126C702.9 198.126 707.307 193.719 707.307 188.283C707.307 182.847 702.9 178.44 697.464 178.44C692.027 178.44 687.62 182.847 687.62 188.283C687.62 193.719 692.027 198.126 697.464 198.126Z" fill="#E6E6E6"/>
<path d="M451.388 229.296C456.824 229.296 461.231 224.889 461.231 219.453C461.231 214.017 456.824 209.61 451.388 209.61C445.952 209.61 441.545 214.017 441.545 219.453C441.545 224.889 445.952 229.296 451.388 229.296Z" fill="#E6E6E6"/>
<path d="M492.401 229.296C497.837 229.296 502.244 224.889 502.244 219.453C502.244 214.017 497.837 209.61 492.401 209.61C486.964 209.61 482.558 214.017 482.558 219.453C482.558 224.889 486.964 229.296 492.401 229.296Z" fill="#E6E6E6"/>
<path d="M533.413 229.296C538.849 229.296 543.256 224.889 543.256 219.453C543.256 214.017 538.849 209.61 533.413 209.61C527.977 209.61 523.57 214.017 523.57 219.453C523.57 224.889 527.977 229.296 533.413 229.296Z" fill="#E6E6E6"/>
<path d="M574.426 229.296C579.862 229.296 584.269 224.889 584.269 219.453C584.269 214.017 579.862 209.61 574.426 209.61C568.99 209.61 564.583 214.017 564.583 219.453C564.583 224.889 568.99 229.296 574.426 229.296Z" fill="#E6E6E6"/>
<path d="M615.438 229.296C620.875 229.296 625.281 224.889 625.281 219.453C625.281 214.017 620.875 209.61 615.438 209.61C610.002 209.61 605.595 214.017 605.595 219.453C605.595 224.889 610.002 229.296 615.438 229.296Z" fill="#E6E6E6"/>
<path d="M656.451 229.296C661.887 229.296 666.294 224.889 666.294 219.453C666.294 214.017 661.887 209.61 656.451 209.61C651.015 209.61 646.608 214.017 646.608 219.453C646.608 224.889 651.015 229.296 656.451 229.296Z" fill="#E6E6E6"/>
<path d="M697.464 229.296C702.9 229.296 707.307 224.889 707.307 219.453C707.307 214.017 702.9 209.61 697.464 209.61C692.027 209.61 687.62 214.017 687.62 219.453C687.62 224.889 692.027 229.296 697.464 229.296Z" fill="#E6E6E6"/>
<path d="M451.388 260.465C456.824 260.465 461.231 256.059 461.231 250.622C461.231 245.186 456.824 240.779 451.388 240.779C445.952 240.779 441.545 245.186 441.545 250.622C441.545 256.059 445.952 260.465 451.388 260.465Z" fill="#663399"/>
<path d="M492.401 260.465C497.837 260.465 502.244 256.059 502.244 250.622C502.244 245.186 497.837 240.779 492.401 240.779C486.964 240.779 482.558 245.186 482.558 250.622C482.558 256.059 486.964 260.465 492.401 260.465Z" fill="#663399"/>
<path d="M533.413 260.465C538.849 260.465 543.256 256.059 543.256 250.622C543.256 245.186 538.849 240.779 533.413 240.779C527.977 240.779 523.57 245.186 523.57 250.622C523.57 256.059 527.977 260.465 533.413 260.465Z" fill="#663399"/>
<path d="M574.426 260.465C579.862 260.465 584.269 256.059 584.269 250.622C584.269 245.186 579.862 240.779 574.426 240.779C568.99 240.779 564.583 245.186 564.583 250.622C564.583 256.059 568.99 260.465 574.426 260.465Z" fill="#E6E6E6"/>
<path d="M615.438 260.465C620.875 260.465 625.281 256.059 625.281 250.622C625.281 245.186 620.875 240.779 615.438 240.779C610.002 240.779 605.595 245.186 605.595 250.622C605.595 256.059 610.002 260.465 615.438 260.465Z" fill="#E6E6E6"/>
<path d="M656.451 260.465C661.887 260.465 666.294 256.059 666.294 250.622C666.294 245.186 661.887 240.779 656.451 240.779C651.015 240.779 646.608 245.186 646.608 250.622C646.608 256.059 651.015 260.465 656.451 260.465Z" fill="#E6E6E6"/>
<path d="M697.464 260.465C702.9 260.465 707.307 256.059 707.307 250.622C707.307 245.186 702.9 240.779 697.464 240.779C692.027 240.779 687.62 245.186 687.62 250.622C687.62 256.059 692.027 260.465 697.464 260.465Z" fill="#E6E6E6"/>
<path d="M451.388 291.635C456.824 291.635 461.231 287.228 461.231 281.792C461.231 276.356 456.824 271.949 451.388 271.949C445.952 271.949 441.545 276.356 441.545 281.792C441.545 287.228 445.952 291.635 451.388 291.635Z" fill="#E6E6E6"/>
<path d="M492.401 291.635C497.837 291.635 502.244 287.228 502.244 281.792C502.244 276.356 497.837 271.949 492.401 271.949C486.964 271.949 482.558 276.356 482.558 281.792C482.558 287.228 486.964 291.635 492.401 291.635Z" fill="#E6E6E6"/>
<path d="M451.388 322.805C456.824 322.805 461.231 318.398 461.231 312.962C461.231 307.525 456.824 303.119 451.388 303.119C445.952 303.119 441.545 307.525 441.545 312.962C441.545 318.398 445.952 322.805 451.388 322.805Z" fill="#E6E6E6"/>
<path d="M492.401 322.805C497.837 322.805 502.244 318.398 502.244 312.962C502.244 307.525 497.837 303.119 492.401 303.119C486.964 303.119 482.558 307.525 482.558 312.962C482.558 318.398 486.964 322.805 492.401 322.805Z" fill="#E6E6E6"/>
<path d="M533.413 322.805C538.849 322.805 543.256 318.398 543.256 312.962C543.256 307.525 538.849 303.119 533.413 303.119C527.977 303.119 523.57 307.525 523.57 312.962C523.57 318.398 527.977 322.805 533.413 322.805Z" fill="#E6E6E6"/>
<path d="M533.413 291.635C538.849 291.635 543.256 287.228 543.256 281.792C543.256 276.356 538.849 271.949 533.413 271.949C527.977 271.949 523.57 276.356 523.57 281.792C523.57 287.228 527.977 291.635 533.413 291.635Z" fill="#E6E6E6"/>
<path d="M574.426 291.635C579.862 291.635 584.269 287.228 584.269 281.792C584.269 276.356 579.862 271.949 574.426 271.949C568.99 271.949 564.583 276.356 564.583 281.792C564.583 287.228 568.99 291.635 574.426 291.635Z" fill="#663399"/>
<path d="M615.438 291.635C620.875 291.635 625.281 287.228 625.281 281.792C625.281 276.356 620.875 271.949 615.438 271.949C610.002 271.949 605.595 276.356 605.595 281.792C605.595 287.228 610.002 291.635 615.438 291.635Z" fill="#663399"/>
<path d="M656.451 291.635C661.887 291.635 666.294 287.228 666.294 281.792C666.294 276.356 661.887 271.949 656.451 271.949C651.015 271.949 646.608 276.356 646.608 281.792C646.608 287.228 651.015 291.635 656.451 291.635Z" fill="#663399"/>
<path d="M697.464 291.635C702.9 291.635 707.307 287.228 707.307 281.792C707.307 276.356 702.9 271.949 697.464 271.949C692.027 271.949 687.62 276.356 687.62 281.792C687.62 287.228 692.027 291.635 697.464 291.635Z" fill="#E6E6E6"/>
<path d="M499.914 101.279C498.354 101.304 496.867 101.942 495.773 103.054C494.679 104.167 494.065 105.664 494.065 107.225C494.065 108.785 494.679 110.283 495.773 111.395C496.867 112.507 498.354 113.145 499.914 113.171H649C649.782 113.184 650.558 113.044 651.285 112.757C652.012 112.471 652.676 112.044 653.237 111.501C653.799 110.957 654.249 110.309 654.56 109.592C654.871 108.875 655.038 108.104 655.05 107.322C655.063 106.541 654.922 105.765 654.634 105.038C654.347 104.311 653.919 103.648 653.376 103.087C652.832 102.526 652.183 102.077 651.465 101.767C650.748 101.457 649.977 101.291 649.195 101.279C649.13 101.278 649.065 101.278 649 101.279H499.914Z" fill="#3F3D56"/>
<path d="M682.809 99.623C682.7 99.7317 682.614 99.8607 682.556 100.003C682.497 100.145 682.466 100.297 682.466 100.45C682.466 100.604 682.497 100.756 682.556 100.898C682.614 101.04 682.7 101.169 682.809 101.278L687.832 106.301H675.446C675.136 106.301 674.838 106.424 674.619 106.643C674.399 106.863 674.276 107.16 674.276 107.471C674.276 107.781 674.399 108.079 674.619 108.298C674.838 108.517 675.136 108.641 675.446 108.641H687.832L682.809 113.664C682.7 113.772 682.614 113.901 682.556 114.043C682.497 114.185 682.466 114.337 682.466 114.491C682.466 114.645 682.497 114.797 682.556 114.939C682.614 115.081 682.7 115.21 682.809 115.318C682.918 115.427 683.047 115.513 683.189 115.572C683.331 115.631 683.483 115.661 683.636 115.661C683.79 115.661 683.942 115.631 684.084 115.572C684.226 115.513 684.355 115.427 684.464 115.318L691.484 108.298C691.704 108.079 691.827 107.781 691.827 107.471C691.827 107.16 691.704 106.863 691.484 106.643L684.464 99.623C684.355 99.5144 684.226 99.4282 684.084 99.3694C683.942 99.3106 683.79 99.2803 683.637 99.2803C683.483 99.2803 683.331 99.3106 683.189 99.3694C683.047 99.4282 682.918 99.5144 682.809 99.623Z" fill="#E6E6E6"/>
<path d="M466.042 99.623C466.151 99.7317 466.237 99.8607 466.296 100.003C466.355 100.145 466.385 100.297 466.385 100.45C466.385 100.604 466.355 100.756 466.296 100.898C466.237 101.04 466.151 101.169 466.042 101.278L461.02 106.301H473.405C473.716 106.301 474.013 106.424 474.233 106.643C474.452 106.863 474.575 107.16 474.575 107.471C474.575 107.781 474.452 108.079 474.233 108.298C474.013 108.517 473.716 108.641 473.405 108.641H461.02L466.042 113.664C466.262 113.883 466.385 114.181 466.385 114.491C466.385 114.801 466.262 115.099 466.042 115.318C465.823 115.538 465.525 115.661 465.215 115.661C464.905 115.661 464.607 115.538 464.388 115.318L457.367 108.298C457.148 108.079 457.025 107.781 457.025 107.471C457.025 107.16 457.148 106.863 457.367 106.643L464.388 99.623C464.496 99.5144 464.625 99.4282 464.767 99.3694C464.909 99.3106 465.061 99.2803 465.215 99.2803C465.369 99.2803 465.521 99.3106 465.663 99.3694C465.805 99.4282 465.934 99.5144 466.042 99.623V99.623Z" fill="#E6E6E6"/>
<path d="M491.58 385.627C488.778 385.625 486.004 386.176 483.414 387.246C480.825 388.317 478.473 389.888 476.491 391.869C474.509 393.849 472.937 396.201 471.864 398.789C470.791 401.378 470.239 404.152 470.239 406.954C470.239 409.756 470.791 412.53 471.864 415.118C472.937 417.707 474.509 420.059 476.491 422.039C478.473 424.02 480.825 425.59 483.414 426.661C486.004 427.732 488.778 428.282 491.58 428.28H657.271C660.073 428.282 662.848 427.732 665.437 426.661C668.026 425.59 670.379 424.02 672.361 422.039C674.343 420.059 675.915 417.707 676.988 415.118C678.06 412.53 678.612 409.756 678.612 406.954C678.612 404.152 678.06 401.378 676.988 398.789C675.915 396.201 674.343 393.849 672.361 391.869C670.379 389.888 668.026 388.317 665.437 387.246C662.848 386.176 660.073 385.625 657.271 385.627H491.58Z" fill="#E6E6E6"/>
<path d="M364.272 68.545C357.494 68.545 350.868 66.5349 345.232 62.769C339.596 59.0031 335.203 53.6505 332.609 47.388C330.015 41.1255 329.336 34.2345 330.659 27.5863C331.981 20.938 335.245 14.8313 340.038 10.0382C344.831 5.2451 350.938 1.98096 357.586 0.658553C364.234 -0.663858 371.126 0.0148447 377.388 2.60885C383.65 5.20285 389.003 9.59565 392.769 15.2317C396.535 20.8678 398.545 27.494 398.545 34.2725C398.535 43.359 394.921 52.0704 388.495 58.4955C382.07 64.9206 373.359 68.5347 364.272 68.545Z" fill="#663399"/>
<path d="M377.796 30.8918H367.653V20.7494C367.653 19.8528 367.297 18.9929 366.663 18.3588C366.029 17.7248 365.169 17.3686 364.272 17.3686C363.376 17.3686 362.516 17.7248 361.882 18.3588C361.248 18.9929 360.892 19.8528 360.892 20.7494V30.8918H350.749C349.853 30.8918 348.993 31.248 348.359 31.882C347.725 32.516 347.369 33.3759 347.369 34.2725C347.369 35.1692 347.725 36.0291 348.359 36.6631C348.993 37.2971 349.853 37.6533 350.749 37.6533H360.892V47.7956C360.892 48.6923 361.248 49.5522 361.882 50.1862C362.516 50.8202 363.376 51.1764 364.272 51.1764C365.169 51.1764 366.029 50.8202 366.663 50.1862C367.297 49.5522 367.653 48.6923 367.653 47.7956V37.6533H377.796C378.692 37.6533 379.552 37.2971 380.186 36.6631C380.82 36.0291 381.176 35.1692 381.176 34.2725C381.176 33.3759 380.82 32.516 380.186 31.882C379.552 31.248 378.692 30.8918 377.796 30.8918Z" fill="white"/>
</g>
<defs>
<clipPath id="clip0">
<rect width="775.545" height="674.792" fill="white" transform="translate(330)"/>
</clipPath>
</defs>
</svg>
