<svg width="1454" height="586" viewBox="0 0 1454 586" fill="none" xmlns="http://www.w3.org/2000/svg">
<path d="M770.5 135C528.019 46.2201 -123.5 276.839 20.9997 470.339C817 720.839 1291 500 1337.5 399.5C1401.53 261.118 1563.5 274 1337.5 173C1194.46 109.076 1217.5 298.661 770.5 135Z" fill="#FDFBFF"/>
<g clip-path="url(#clip0)">
<path d="M460.179 372.278C460.028 389.492 458.767 406.68 456.404 423.732C456.322 424.331 456.231 424.93 456.148 425.529L294.931 424.628C294.458 424.033 293.992 423.431 293.541 422.822C292.036 420.807 290.625 418.734 289.33 416.589C283.106 406.258 280.256 394.162 283.112 385.816L283.163 385.686C283.779 383.859 284.75 382.171 286.021 380.72C292.531 373.391 305.695 374.613 317.641 380.528C306.926 368.8 298.395 354.001 297.747 340.79C297.111 327.905 303.849 318.701 311.156 310.878C311.396 310.62 311.636 310.368 311.875 310.117C311.992 309.987 312.115 309.865 312.231 309.736C317.933 303.775 324.58 297.898 334.201 298.609C344.753 299.39 356.452 308.229 364.655 318.528C372.858 328.82 378.309 340.511 383.834 351.922C389.366 363.325 395.351 375.02 404.229 384.767C392.205 369.558 382.51 352.254 378.929 335.424C375.348 318.595 378.5 302.431 389.216 294.505C392.469 292.173 396.234 290.654 400.195 290.075C400.657 289.998 401.127 289.936 401.604 289.88C411.524 288.752 423.368 292.183 433.446 300.384C444.544 309.414 452.238 322.801 456.067 335.509C459.895 348.217 460.303 360.451 460.179 372.278Z" fill="#F2F2F2"/>
<path d="M354.702 424.962L351.619 424.945C350.64 424.333 349.657 423.728 348.669 423.13C348.057 422.744 347.438 422.372 346.819 421.994C336.593 415.748 326.304 409.758 315.95 404.022C305.606 398.282 295.21 392.806 284.762 387.594C284.485 387.474 284.259 387.26 284.124 386.99C283.988 386.72 283.951 386.411 284.02 386.117C284.031 386.079 284.048 386.042 284.071 386.009C284.217 385.736 284.542 385.622 285.018 385.856C286.299 386.498 287.588 387.141 288.87 387.798C299.346 393.098 309.778 398.664 320.165 404.493C330.544 410.321 340.865 416.405 351.126 422.747C351.341 422.878 351.558 423.016 351.773 423.148C352.752 423.752 353.723 424.357 354.702 424.962Z" fill="white"/>
<path d="M394.45 425.184L392.544 425.173C392.114 424.572 391.692 423.97 391.262 423.368C381.16 409.203 371.06 395.037 360.963 380.872C344.427 357.68 327.897 334.489 311.371 311.298C311.273 311.173 311.2 311.031 311.156 310.878C311.015 310.365 311.392 310.064 311.876 310.117C312.079 310.146 312.275 310.218 312.448 310.329C312.622 310.439 312.77 310.586 312.883 310.758C322.154 323.764 331.422 336.764 340.688 349.76C357.138 372.835 373.585 395.908 390.03 418.978C391.076 420.443 392.122 421.914 393.168 423.379C393.598 423.981 394.028 424.582 394.45 425.184Z" fill="white"/>
<path d="M436.919 414.114C436.822 417.326 436.609 420.488 436.331 423.62C436.277 424.219 436.224 424.818 436.17 425.417L434.17 425.406C434.231 424.807 434.292 424.208 434.346 423.609C434.768 419.084 435.068 414.508 435.109 409.807C435.162 396.776 433.892 383.772 431.318 370.997C428.583 357.242 424.655 343.75 419.579 330.676C414.251 316.887 407.828 303.547 400.371 290.783C400.231 290.575 400.168 290.324 400.195 290.075C400.277 289.505 401.036 289.336 401.604 289.88C401.716 289.987 401.812 290.109 401.89 290.243C402.813 291.83 403.719 293.421 404.608 295.017C411.79 307.851 417.937 321.238 422.992 335.049C427.806 348.166 431.468 361.678 433.936 375.431C436.248 388.189 437.248 401.151 436.919 414.114V414.114Z" fill="white"/>
<path d="M995.398 331.61C995.398 323.878 966.297 317.61 930.398 317.61C894.5 317.61 865.398 323.878 865.398 331.61C865.398 336.566 877.363 340.917 895.398 343.405V420.11C895.398 421.834 896.083 423.488 897.302 424.707C898.521 425.926 900.174 426.61 901.898 426.61C903.622 426.61 905.275 425.926 906.494 424.707C907.713 423.488 908.398 421.834 908.398 420.11V344.786C915.27 345.319 922.675 345.61 930.398 345.61C938.121 345.61 945.526 345.319 952.398 344.786V420.11C952.398 421.834 953.083 423.488 954.302 424.707C955.521 425.926 957.174 426.61 958.898 426.61C960.622 426.61 962.275 425.926 963.494 424.707C964.713 423.488 965.398 421.834 965.398 420.11V343.405C983.434 340.917 995.398 336.566 995.398 331.61Z" fill="#CCCCCC"/>
<path d="M937.586 203.468C953.05 203.468 965.586 190.932 965.586 175.468C965.586 160.004 953.05 147.468 937.586 147.468C922.122 147.468 909.586 160.004 909.586 175.468C909.586 190.932 922.122 203.468 937.586 203.468Z" fill="#2F2E41"/>
<path d="M867.905 415.034H855.645L849.813 367.746H867.907L867.905 415.034Z" fill="#A0616A"/>
<path d="M846.888 411.531H870.532V426.417H832.001C832.001 424.463 832.386 422.527 833.135 420.721C833.883 418.914 834.979 417.273 836.362 415.891C837.744 414.508 839.385 413.412 841.191 412.664C842.997 411.916 844.933 411.531 846.888 411.531V411.531Z" fill="#2F2E41"/>
<path d="M848.768 408.192L837.07 404.521L845.662 357.656L862.926 363.073L848.768 408.192Z" fill="#A0616A"/>
<path d="M829.764 398.557L852.323 405.636L847.866 419.84L811.102 408.303C811.688 406.438 812.635 404.706 813.889 403.207C815.144 401.708 816.682 400.47 818.415 399.565C820.147 398.66 822.042 398.105 823.989 397.932C825.936 397.759 827.899 397.971 829.764 398.557Z" fill="#2F2E41"/>
<path d="M852.756 389.324C852.219 389.324 851.687 389.227 851.184 389.038L842.165 385.656C841.152 385.273 840.311 384.539 839.795 383.587C839.278 382.636 839.12 381.531 839.351 380.473C841.621 370.263 849.36 335.502 853.598 316.857C858.624 294.742 931.941 290.633 935.059 290.469L935.316 290.455L943.563 300.819C946.543 310.399 945.599 317.87 940.755 323.027C926.623 338.074 884.428 328.737 879.397 327.556L856.969 386.427C856.643 387.279 856.065 388.013 855.313 388.53C854.56 389.047 853.669 389.324 852.756 389.324V389.324Z" fill="#7238AB"/>
<path d="M865.756 396.324C865.219 396.324 864.687 396.227 864.184 396.038L855.165 392.656C854.152 392.273 853.311 391.539 852.795 390.587C852.278 389.636 852.12 388.531 852.351 387.473C854.621 377.263 862.36 342.502 866.598 323.857C871.624 301.742 944.941 297.633 948.059 297.469L948.316 297.455L956.563 307.819C959.543 317.399 958.599 324.87 953.755 330.027C939.623 345.073 897.428 335.737 892.397 334.556L869.969 393.427C869.643 394.279 869.065 395.013 868.313 395.53C867.56 396.047 866.669 396.324 865.756 396.324V396.324Z" fill="#663399"/>
<path d="M839.661 252.304C839.993 252.747 840.289 253.216 840.546 253.706L889.866 258.902L896.966 249.168L913.057 257.963L899.112 281.584L838.625 266.161C837.099 267.649 835.156 268.637 833.055 268.994C830.954 269.351 828.794 269.059 826.862 268.158C824.93 267.257 823.319 265.79 822.242 263.951C821.164 262.112 820.673 259.989 820.831 257.863C820.99 255.738 821.793 253.711 823.131 252.053C824.47 250.395 826.282 249.183 828.326 248.58C830.37 247.976 832.55 248.009 834.574 248.675C836.599 249.34 838.373 250.606 839.661 252.304L839.661 252.304Z" fill="#A0616A"/>
<path d="M954.274 311.786C953.561 311.784 952.859 311.612 952.225 311.285C942.363 306.271 923.158 297.586 905.35 295.769C904.741 295.709 904.151 295.522 903.618 295.221C903.084 294.919 902.62 294.51 902.255 294.019C901.882 293.522 901.616 292.954 901.472 292.35C901.329 291.746 901.311 291.119 901.421 290.508C903.028 281.612 906.714 258.961 906.239 240.807C906.1 235.225 907.863 229.761 911.24 225.315C914.617 220.868 919.407 217.702 924.821 216.339V216.339C928.081 215.479 931.392 214.826 934.734 214.385C938.576 213.898 942.478 214.318 946.128 215.611C949.778 216.903 953.074 219.033 955.753 221.829C958.432 224.625 960.419 228.009 961.555 231.711C962.691 235.413 962.944 239.329 962.294 243.147C959.118 261.96 955.916 288.236 958.699 306.579C958.827 307.401 958.724 308.243 958.403 309.01C958.082 309.778 957.555 310.441 956.88 310.928C956.124 311.483 955.212 311.783 954.274 311.786Z" fill="#D663FF"/>
<path d="M907.152 263.935C906.537 263.934 905.929 263.807 905.366 263.562L892.518 258C891.424 257.525 890.563 256.635 890.124 255.526C889.685 254.416 889.703 253.178 890.176 252.083L900.107 229.141C900.707 227.754 901.573 226.499 902.658 225.447C903.742 224.395 905.023 223.567 906.428 223.011C907.832 222.455 909.333 222.18 910.843 222.204C912.354 222.228 913.845 222.549 915.232 223.149C916.618 223.749 917.873 224.616 918.924 225.701C919.975 226.786 920.802 228.068 921.357 229.473C921.913 230.878 922.186 232.378 922.162 233.889C922.137 235.399 921.815 236.89 921.215 238.276L911.283 261.219C910.934 262.025 910.357 262.711 909.623 263.193C908.889 263.676 908.03 263.933 907.152 263.935V263.935Z" fill="#D663FF"/>
<path d="M936.562 206.58C950.127 206.58 961.123 195.584 961.123 182.019C961.123 168.454 950.127 157.458 936.562 157.458C922.997 157.458 912.001 168.454 912.001 182.019C912.001 195.584 922.997 206.58 936.562 206.58Z" fill="#A0616A"/>
<path d="M911.559 169.952C923.193 177.054 936.308 181.375 949.885 182.58L945.845 177.74C948.787 178.827 951.882 179.442 955.016 179.561C958.146 179.512 961.426 178.307 963.202 175.729C963.995 174.448 964.465 172.994 964.574 171.491C964.683 169.988 964.427 168.482 963.828 167.099C962.596 164.342 960.68 161.946 958.261 160.139C953.974 156.747 948.913 154.469 943.532 153.507C938.15 152.546 932.614 152.93 927.417 154.627C923.852 155.692 920.659 157.74 918.204 160.536C915.876 163.409 911.393 165.968 912.586 169.468L911.559 169.952Z" fill="#2F2E41"/>
<path d="M940.692 150.131C932.945 142.276 923.571 136.214 913.229 132.372C906.59 129.912 899.364 128.393 892.424 129.79C885.483 131.186 878.92 135.988 876.983 142.797C875.4 148.366 877.035 154.361 879.492 159.603C881.949 164.845 885.23 169.705 887.217 175.143C889.244 180.691 889.854 186.657 888.99 192.501C888.127 198.344 885.818 203.879 882.273 208.604C878.728 213.329 874.058 217.093 868.689 219.556C863.32 222.018 857.421 223.101 851.528 222.705C858.347 223.619 864.633 226.824 871.298 228.53C877.964 230.236 885.831 230.12 890.785 225.345C896.026 220.292 896.13 212.078 895.877 204.802C895.5 193.987 895.124 183.172 894.747 172.357C894.555 166.842 894.391 161.15 896.38 156.002C898.369 150.854 903.096 146.346 908.615 146.393C912.797 146.428 916.499 148.962 919.853 151.461C923.208 153.96 926.758 156.626 930.924 156.997C935.09 157.369 939.847 154.286 939.535 150.115" fill="#2F2E41"/>
<path d="M895.269 305.477C893.642 305.475 892.035 305.112 890.564 304.415C889.094 303.717 887.797 302.702 886.766 301.443C885.735 300.183 884.996 298.711 884.603 297.132C884.21 295.552 884.172 293.906 884.492 292.31C884.811 290.714 885.481 289.209 886.453 287.904C887.424 286.598 888.673 285.524 890.11 284.759C891.546 283.994 893.135 283.558 894.76 283.481C896.386 283.403 898.008 283.688 899.511 284.313H899.511C899.963 284.504 900.401 284.726 900.823 284.978L945.563 264.891L946.82 252.757L966.106 252.241L965.978 272.442C965.955 274.783 965.177 277.053 963.761 278.916C962.345 280.779 960.366 282.136 958.117 282.785L905.795 297.678C905.694 298.024 905.574 298.364 905.436 298.697C904.597 300.702 903.184 302.415 901.376 303.621C899.567 304.827 897.443 305.473 895.269 305.477V305.477Z" fill="#A0616A"/>
<path d="M964.473 262.144C963.924 262.421 963.325 262.583 962.711 262.62L948.737 263.479C947.546 263.551 946.376 263.147 945.482 262.357C944.588 261.567 944.045 260.455 943.97 259.264L942.436 234.311C942.341 232.803 942.544 231.29 943.034 229.86C943.523 228.429 944.29 227.11 945.291 225.976C946.291 224.843 947.505 223.918 948.864 223.254C950.222 222.59 951.698 222.201 953.207 222.108C954.716 222.015 956.228 222.221 957.657 222.713C959.087 223.205 960.405 223.974 961.537 224.977C962.669 225.979 963.592 227.195 964.253 228.554C964.915 229.914 965.302 231.39 965.392 232.899L966.926 257.852C966.979 258.728 966.775 259.601 966.34 260.364C965.904 261.126 965.255 261.745 964.473 262.144L964.473 262.144Z" fill="#D663FF"/>
<path d="M934.103 308H855.103C854.175 308 853.284 307.631 852.628 306.975C851.972 306.318 851.603 305.428 851.603 304.5C851.603 303.572 851.972 302.682 852.628 302.025C853.284 301.369 854.175 301 855.103 301H934.103C935.031 301 935.922 301.369 936.578 302.025C937.234 302.682 937.603 303.572 937.603 304.5V304.5C937.603 305.428 937.234 306.318 936.578 306.975C935.922 307.631 935.031 308 934.103 308V308Z" fill="#3F3D56"/>
<path d="M820.603 301.5V252.5C820.605 250.777 821.29 249.125 822.509 247.906C823.727 246.687 825.38 246.002 827.103 246H916.103C917.826 246.002 919.478 246.687 920.697 247.906C921.916 249.125 922.601 250.777 922.603 252.5V301.5C922.601 303.223 921.916 304.875 920.697 306.094C919.478 307.313 917.826 307.998 916.103 308H827.103C825.38 307.998 823.727 307.313 822.509 306.094C821.29 304.875 820.605 303.223 820.603 301.5V301.5Z" fill="#3F3D56"/>
<path d="M871.603 283C874.917 283 877.603 280.314 877.603 277C877.603 273.686 874.917 271 871.603 271C868.289 271 865.603 273.686 865.603 277C865.603 280.314 868.289 283 871.603 283Z" fill="white"/>
<path d="M558.781 219.337C557.97 218.111 556.901 217.076 555.648 216.308C554.395 215.539 552.988 215.055 551.528 214.888C550.067 214.722 548.588 214.878 547.194 215.345C545.8 215.813 544.526 216.58 543.46 217.593L511.706 201.203L513.68 219.667L543.532 232.401C545.352 234.078 547.725 235.028 550.199 235.073C552.674 235.117 555.079 234.252 556.959 232.642C558.838 231.032 560.062 228.788 560.398 226.336C560.734 223.884 560.158 221.393 558.781 219.337H558.781Z" fill="#FFB8B8"/>
<path d="M530.56 226.769C529.986 227.033 529.362 227.173 528.73 227.179C528.098 227.186 527.472 227.06 526.892 226.808L496.729 213.724C486.416 209.252 478.079 201.186 473.267 191.027L457.41 157.556C456.24 156.052 455.378 154.333 454.872 152.496C454.367 150.659 454.229 148.74 454.466 146.85C454.702 144.959 455.31 143.134 456.252 141.479C457.195 139.823 458.455 138.369 459.96 137.201C461.464 136.033 463.185 135.172 465.022 134.669C466.86 134.166 468.779 134.03 470.669 134.269C472.559 134.508 474.384 135.118 476.038 136.062C477.693 137.007 479.145 138.269 480.311 139.775L508.184 191.489L533.921 210.93C534.657 211.489 535.205 212.261 535.488 213.141C535.772 214.021 535.779 214.967 535.507 215.851L532.981 224.011C532.71 224.886 532.178 225.657 531.457 226.222C531.181 226.439 530.88 226.623 530.56 226.769V226.769Z" fill="#CCCCCC"/>
<path d="M456.712 118.192C470.277 118.192 481.273 107.196 481.273 93.6309C481.273 80.0662 470.277 69.0699 456.712 69.0699C443.148 69.0699 432.151 80.0662 432.151 93.6309C432.151 107.196 443.148 118.192 456.712 118.192Z" fill="#FFB8B8"/>
<path d="M466.661 415.827H478.92L484.753 368.539H466.658L466.661 415.827Z" fill="#FFB8B8"/>
<path d="M502.565 427.21L464.034 427.211L464.033 412.325L487.677 412.323C491.625 412.323 495.412 413.892 498.204 416.683C500.996 419.475 502.565 423.261 502.565 427.21V427.21L502.565 427.21Z" fill="#2F2E41"/>
<path d="M426.661 415.827H438.92L444.753 368.539H426.658L426.661 415.827Z" fill="#FFB8B8"/>
<path d="M462.565 427.21L424.034 427.211L424.033 412.325L447.677 412.323C451.625 412.323 455.412 413.892 458.204 416.683C460.996 419.475 462.565 423.261 462.565 427.21V427.21L462.565 427.21Z" fill="#2F2E41"/>
<path d="M422.38 402.292C421.957 401.809 421.643 401.242 421.458 400.629C421.272 400.015 421.22 399.369 421.305 398.733L442.769 237.748L496.098 246.804L501.789 243.389L487.072 396.133C486.95 397.165 486.475 398.122 485.729 398.844C484.983 399.566 484.01 400.009 482.976 400.097L466.828 401.443C466.186 401.497 465.54 401.412 464.934 401.194C464.327 400.977 463.775 400.631 463.313 400.182C462.852 399.732 462.493 399.189 462.259 398.588C462.026 397.988 461.925 397.344 461.962 396.701L466.142 323.959C466.15 323.835 466.111 323.713 466.034 323.616C465.956 323.52 465.846 323.455 465.724 323.435C465.601 323.415 465.476 323.442 465.372 323.509C465.268 323.576 465.193 323.679 465.16 323.798L444.477 400.499C444.219 401.453 443.653 402.297 442.868 402.898C442.083 403.5 441.122 403.826 440.133 403.828H425.766C425.124 403.828 424.49 403.691 423.907 403.426C423.323 403.161 422.802 402.774 422.38 402.292Z" fill="#663399"/>
<path d="M459.312 249.016C458.7 248.462 457.913 248.14 457.088 248.105C456.263 248.071 455.452 248.326 454.796 248.828L444.134 257.121C443.554 257.573 442.872 257.877 442.147 258.004C441.422 258.131 440.677 258.079 439.978 257.851C439.278 257.623 438.645 257.227 438.134 256.698C437.623 256.168 437.25 255.522 437.047 254.814C431.817 236.499 419.968 190.396 422.887 157.948C424.542 139.555 440.425 125.577 458.292 126.75C470.508 127.564 478.544 134.611 482.178 147.694C491.101 179.816 500.907 238.738 502.782 250.224C502.93 251.115 502.805 252.03 502.424 252.849C502.042 253.668 501.422 254.353 500.645 254.813C495.601 257.842 489.837 259.464 483.953 259.51C476.834 259.51 468.298 257.032 459.312 249.016Z" fill="#CCCCCC"/>
<path d="M463.335 260.443C463.455 258.978 463.251 257.504 462.739 256.126C462.228 254.748 461.42 253.499 460.373 252.466C459.327 251.434 458.066 250.644 456.681 250.151C455.296 249.659 453.82 249.476 452.356 249.616L437.484 217.123L427.643 232.87L443.274 261.312C443.672 263.755 444.952 265.967 446.872 267.529C448.792 269.091 451.218 269.895 453.691 269.788C456.163 269.681 458.511 268.67 460.289 266.948C462.066 265.226 463.15 262.911 463.335 260.443H463.335Z" fill="#FFB8B8"/>
<path d="M436.543 248.876C435.928 248.728 435.351 248.454 434.85 248.069C434.348 247.684 433.933 247.198 433.632 246.642L417.973 217.733C412.617 207.85 411.034 196.357 413.518 185.394L421.697 149.271C421.704 147.366 422.087 145.482 422.823 143.725C423.559 141.968 424.635 140.373 425.988 139.032C427.341 137.691 428.944 136.63 430.708 135.909C432.471 135.188 434.359 134.822 436.264 134.831C438.169 134.841 440.053 135.225 441.809 135.963C443.565 136.701 445.159 137.778 446.499 139.132C447.838 140.487 448.898 142.092 449.617 143.855C450.336 145.619 450.701 147.508 450.689 149.413L440.708 207.305L448.962 238.486C449.196 239.381 449.151 240.326 448.831 241.193C448.511 242.061 447.932 242.809 447.173 243.338L440.15 248.199C439.397 248.72 438.502 248.999 437.586 248.999C437.235 248.999 436.885 248.958 436.543 248.876V248.876Z" fill="#CCCCCC"/>
<path opacity="0.2" d="M448.697 173.828L439.697 211.828L452.697 243.828L443.697 212.828L448.697 173.828Z" fill="black"/>
<path d="M442.697 113.828C440.512 113.868 438.341 113.476 436.309 112.672C435.415 112.327 434.487 112.044 433.594 111.699C425.712 108.654 420.52 100.26 420.334 91.813C420.148 83.3655 424.523 75.1665 431.019 69.7632C437.515 64.3598 445.929 61.5857 454.354 60.9442C463.429 60.2532 473.648 62.5546 478.719 70.1124C480.069 72.1242 481.013 74.565 480.213 76.994C479.974 77.727 479.546 78.3842 478.973 78.8999C476.708 80.9148 474.45 79.3998 472.141 79.2659C468.968 79.0819 466.118 81.6505 465.094 84.6595C464.069 87.6685 464.52 90.9811 465.347 94.0502C465.977 95.8969 466.375 97.8151 466.53 99.7603C466.597 100.736 466.413 101.712 465.997 102.596C465.581 103.481 464.945 104.245 464.151 104.815C462.168 106.014 459.564 105.32 457.58 104.123C455.596 102.927 453.882 101.263 451.739 100.382C449.596 99.5016 446.716 99.6969 445.469 101.649C445.072 102.36 444.804 103.135 444.676 103.938C443.558 109.033 443.815 108.733 442.697 113.828L442.697 113.828Z" fill="#2F2E41"/>
<path d="M655.648 197.178C655.241 196.663 654.956 196.061 654.816 195.419C654.676 194.777 654.685 194.112 654.841 193.473C658.57 177.851 658.57 161.57 654.841 145.948C654.685 145.31 654.676 144.644 654.816 144.002C654.956 143.36 655.241 142.758 655.648 142.243C656.047 141.735 656.557 141.324 657.138 141.042C657.719 140.761 658.357 140.615 659.003 140.617H698.876C699.895 140.619 700.88 140.983 701.656 141.643C702.432 142.303 702.948 143.218 703.113 144.223C705.714 161.115 705.714 178.306 703.113 195.198C702.948 196.204 702.432 197.118 701.656 197.778C700.88 198.439 699.895 198.802 698.876 198.804H659.003C658.357 198.806 657.719 198.661 657.138 198.379C656.557 198.097 656.047 197.687 655.648 197.178V197.178Z" fill="#E6E6E6"/>
<path d="M593.967 56.5605C593.56 56.0451 593.275 55.4435 593.135 54.8016C592.995 54.1596 593.004 53.4942 593.16 52.856C596.89 37.2338 596.89 20.953 593.16 5.3308C593.004 4.6926 592.995 4.02718 593.135 3.38521C593.275 2.74325 593.56 2.14165 593.967 1.62624C594.366 1.11778 594.875 0.707009 595.457 0.425192C596.038 0.143376 596.676 -0.00204353 597.322 6.11063e-06H637.195C638.214 0.00205956 639.199 0.365572 639.975 1.02585C640.751 1.68614 641.267 2.60033 641.432 3.6057C644.033 20.498 644.033 37.6888 641.432 54.5811C641.267 55.5864 640.751 56.5006 639.975 57.1609C639.199 57.8212 638.214 58.1847 637.195 58.1868H597.322C596.676 58.1888 596.038 58.0434 595.457 57.7616C594.875 57.4798 594.366 57.069 593.967 56.5605Z" fill="#E6E6E6"/>
<path d="M692.079 103.598C689.478 86.7061 689.478 69.5153 692.079 52.623C692.244 51.6176 692.76 50.7034 693.536 50.0431C694.312 49.3827 695.297 49.0192 696.316 49.0173H736.188C736.834 49.0153 737.472 49.1607 738.054 49.4425C738.635 49.7243 739.145 50.1351 739.543 50.6436C739.951 51.159 740.235 51.7606 740.375 52.4025C740.515 53.0445 740.507 53.7099 740.351 54.3481C736.621 69.9703 736.621 86.2511 740.35 101.873C740.507 102.511 740.515 103.177 740.375 103.819C740.235 104.461 739.951 105.062 739.543 105.578C739.145 106.086 738.635 106.497 738.054 106.779C737.472 107.061 736.834 107.206 736.188 107.204H696.316C695.297 107.202 694.312 106.839 693.536 106.178C692.76 105.518 692.244 104.604 692.079 103.598V103.598Z" fill="#8138CA"/>
<path d="M525.156 101.819C522.555 84.9262 522.555 67.7354 525.156 50.8431C525.321 49.8378 525.837 48.9236 526.613 48.2633C527.389 47.603 528.374 47.2395 529.393 47.2374H569.265C569.912 47.2354 570.55 47.3808 571.131 47.6626C571.712 47.9444 572.222 48.3552 572.621 48.8637C573.028 49.3791 573.313 49.9807 573.453 50.6226C573.592 51.2646 573.584 51.93 573.428 52.5683C569.698 68.1904 569.698 84.4712 573.428 100.093C573.584 100.732 573.592 101.397 573.453 102.039C573.313 102.681 573.028 103.283 572.621 103.798C572.222 104.306 571.712 104.717 571.131 104.999C570.55 105.281 569.912 105.426 569.265 105.424H529.393C528.374 105.422 527.389 105.059 526.613 104.398C525.837 103.738 525.321 102.824 525.156 101.819Z" fill="#FF6584"/>
<path d="M535.018 219.49C534.603 218.966 534.314 218.355 534.172 217.702C534.03 217.05 534.038 216.373 534.197 215.724C537.988 199.846 537.988 183.297 534.197 167.418C534.038 166.77 534.03 166.093 534.172 165.441C534.314 164.788 534.604 164.176 535.018 163.652C535.423 163.136 535.941 162.718 536.532 162.432C537.123 162.146 537.771 161.998 538.428 162H578.955C579.991 162.002 580.992 162.371 581.781 163.043C582.57 163.714 583.094 164.643 583.262 165.665C585.906 182.835 585.906 200.308 583.262 217.478C583.094 218.5 582.57 219.429 581.781 220.1C580.992 220.771 579.991 221.141 578.955 221.143H538.428C537.771 221.145 537.123 220.997 536.532 220.711C535.941 220.424 535.423 220.007 535.018 219.49V219.49Z" fill="#8138CA"/>
<path d="M294.582 428.128H1067.88C1068.19 428.128 1068.49 428.002 1068.72 427.779C1068.94 427.556 1069.07 427.253 1069.07 426.937C1069.07 426.621 1068.94 426.318 1068.72 426.095C1068.49 425.872 1068.19 425.746 1067.88 425.746H294.582C294.425 425.746 294.27 425.776 294.125 425.836C293.98 425.896 293.849 425.983 293.738 426.094C293.627 426.204 293.539 426.336 293.479 426.481C293.419 426.625 293.388 426.78 293.388 426.937C293.388 427.094 293.419 427.249 293.479 427.393C293.539 427.538 293.627 427.67 293.738 427.78C293.849 427.891 293.98 427.978 294.125 428.038C294.27 428.098 294.425 428.128 294.582 428.128V428.128Z" fill="#3F3D56"/>
<path d="M571.135 183.822H549.785C548.99 183.821 548.227 183.505 547.665 182.942C547.103 182.38 546.786 181.617 546.785 180.822V179.548C546.786 178.752 547.103 177.99 547.665 177.427C548.227 176.865 548.99 176.549 549.785 176.548H571.135C571.93 176.549 572.693 176.865 573.255 177.427C573.817 177.99 574.134 178.752 574.135 179.548V180.822C574.134 181.617 573.817 182.38 573.255 182.942C572.693 183.505 571.93 183.821 571.135 183.822V183.822Z" fill="white"/>
<path d="M571.135 196.369H549.785C548.99 196.368 548.227 196.052 547.665 195.49C547.103 194.927 546.786 194.165 546.785 193.369V192.095C546.786 191.3 547.103 190.537 547.665 189.975C548.227 189.412 548.99 189.096 549.785 189.095H571.135C571.93 189.096 572.693 189.412 573.255 189.975C573.817 190.537 574.134 191.3 574.135 192.095V193.369C574.134 194.165 573.817 194.927 573.255 195.49C572.693 196.052 571.93 196.368 571.135 196.369V196.369Z" fill="white"/>
<path d="M556.995 71.9141H536.072C535.276 71.9132 534.514 71.5968 533.951 71.0344C533.389 70.472 533.073 69.7094 533.072 68.9141V67.7422C533.073 66.9468 533.389 66.1842 533.951 65.6218C534.514 65.0594 535.276 64.7431 536.072 64.7422H556.995C557.791 64.7431 558.553 65.0594 559.116 65.6218C559.678 66.1842 559.994 66.9468 559.995 67.7422V68.9141C559.994 69.7094 559.678 70.472 559.116 71.0344C558.553 71.5968 557.791 71.9132 556.995 71.9141V71.9141Z" fill="white"/>
<path d="M690.675 160.043H669.751C668.956 160.043 668.193 159.726 667.631 159.164C667.069 158.601 666.752 157.839 666.751 157.043V155.871C666.752 155.076 667.069 154.313 667.631 153.751C668.193 153.188 668.956 152.872 669.751 152.871H690.675C691.47 152.872 692.233 153.188 692.795 153.751C693.358 154.313 693.674 155.076 693.675 155.871V157.043C693.674 157.839 693.358 158.601 692.795 159.164C692.233 159.726 691.47 160.043 690.675 160.043Z" fill="white"/>
<path d="M690.675 174.857H669.751C668.956 174.856 668.193 174.54 667.631 173.977C667.069 173.415 666.752 172.652 666.751 171.857V170.685C666.752 169.889 667.069 169.127 667.631 168.564C668.193 168.002 668.956 167.685 669.751 167.685H690.675C691.47 167.685 692.233 168.002 692.795 168.564C693.358 169.127 693.674 169.889 693.675 170.685V171.857C693.674 172.652 693.358 173.415 692.795 173.977C692.233 174.54 691.47 174.856 690.675 174.857Z" fill="white"/>
<path d="M690.675 189.67H669.751C668.956 189.67 668.193 189.353 667.631 188.791C667.069 188.228 666.752 187.466 666.751 186.67V185.498C666.752 184.703 667.069 183.94 667.631 183.378C668.193 182.815 668.956 182.499 669.751 182.498H690.675C691.47 182.499 692.233 182.815 692.795 183.378C693.358 183.94 693.674 184.703 693.675 185.498V186.67C693.674 187.466 693.358 188.228 692.795 188.791C692.233 189.353 691.47 189.67 690.675 189.67V189.67Z" fill="white"/>
<path d="M556.995 84.2588H536.072C535.276 84.2579 534.514 83.9416 533.951 83.3792C533.389 82.8167 533.073 82.0542 533.072 81.2588V80.0864C533.073 79.291 533.389 78.5285 533.951 77.9661C534.514 77.4036 535.276 77.0873 536.072 77.0864H556.995C557.791 77.0873 558.553 77.4036 559.116 77.9661C559.678 78.5285 559.994 79.291 559.995 80.0864V81.2588C559.994 82.0542 559.678 82.8167 559.116 83.3792C558.553 83.9416 557.791 84.2579 556.995 84.2588Z" fill="white"/>
<path d="M629.172 21.895H608.249C607.454 21.8942 606.691 21.5778 606.129 21.0154C605.566 20.453 605.25 19.6904 605.249 18.895V17.7227C605.25 16.9273 605.566 16.1647 606.129 15.6023C606.691 15.0399 607.454 14.7235 608.249 14.7227H629.172C629.968 14.7235 630.73 15.0399 631.293 15.6023C631.855 16.1647 632.171 16.9273 632.172 17.7227V18.895C632.171 19.6904 631.855 20.453 631.293 21.0154C630.73 21.5778 629.968 21.8942 629.172 21.895V21.895Z" fill="white"/>
<path d="M724.646 74.9287H703.723C702.927 74.9278 702.165 74.6115 701.602 74.0491C701.04 73.4867 700.723 72.7241 700.723 71.9287V70.7563C700.723 69.961 701.04 69.1984 701.602 68.636C702.165 68.0736 702.927 67.7572 703.723 67.7563H724.646C725.442 67.7572 726.204 68.0736 726.767 68.636C727.329 69.1984 727.645 69.961 727.646 70.7563V71.9287C727.645 72.7241 727.329 73.4867 726.767 74.0491C726.204 74.6115 725.442 74.9278 724.646 74.9287Z" fill="white"/>
</g>
<defs>
<clipPath id="clip0">
<rect width="787.067" height="428.128" fill="white" transform="translate(282)"/>
</clipPath>
</defs>
</svg>
