<svg xmlns="http://www.w3.org/2000/svg" xmlns:xlink="http://www.w3.org/1999/xlink" width="388" height="283" viewBox="0 0 388 283"><defs><path id="vsm1c" d="M205.67 239.29c-.07-3.22-15.55-5.51-34.57-5.12-19.02.4-34.39 3.33-34.32 6.55.07 3.22 15.47 8.43 34.5 8.03 19.02-.4 34.45-6.24 34.39-9.46"/><path id="vsm1d" d="M450.07 239.54h-236.8c-2.01 0-4.08.85-4.88 1.88l-49.57 59.6c-1.23 1.71.38 2.9 6.93 2.98h345.73c3.6 0 4.89-.85 4.06-1.88l-58.93-60.7c-1.35-1.46-2.94-1.88-6.54-1.88"/><path id="vsm1e" d="M167.81 217.28c13.87-.24 24.06-3.67 29.68-6.08l4-25.19-36.95-1.15-31.95 2.69 6.82 25.5c5.09 1.9 14.61 4.48 28.4 4.23"/><path id="vsm1f" d="M169.15 246.25c17.7 0 23.87-6.9 23.87-6.9l4.47-28.15c-5.62 2.41-15.82 5.83-29.68 6.08-13.79.24-23.32-2.33-28.4-4.23l7.03 26.3s5 6.9 22.71 6.9"/><path id="vsm1g" d="M201.49 186.06c-.05-2.33-15.51-3.9-34.54-3.5-19.02.4-34.4 2.6-34.35 4.94.05 2.33 15.42 6 34.44 5.61 19.02-.4 34.5-4.72 34.45-7.05"/><path id="vsm1h" d="M183.45 118.15c-.59.5-1.16 1.03-1.86 1.38-1.03.5-2.13.6-2.53 1.85-.24.72.27 1.47.96 1.69 1.27.4 2.31-.69 3.12-1.54.6-.64 1.19-1.27 1.75-1.94.86-1-.43-2.3-1.44-1.44"/><path id="vsm1i" d="M190.3 126.72c-.91.51-1.96.97-2.8 1.6-.51.4-.79 1.04-.43 1.65.35.58 1.08.74 1.66.43.93-.48 1.8-1.24 2.65-1.85 1.1-.78.14-2.52-1.08-1.83"/><path id="vsm1j" d="M198.1 136.25c-.68.46-1.36.9-2.06 1.34-.69.42-1.44.77-2.05 1.3-.8.69.04 2.21 1.06 1.82 1.54-.6 2.95-1.9 4.24-2.92.86-.69-.28-2.17-1.2-1.54"/><path id="vsm1k" d="M187.83 127.11c-4.35-4.34-15.72-14.05-32.87-8.08.72.75.86 2.07-.3 2.75l-2.2 1.29c-.06.39-.3.73-.75.8-.07 0-.13.02-.2.03-.05.07-.1.14-.18.2-3.08 2.9-6 6.03-8.15 9.62a33.26 33.26 0 0 0-.61 14.17l4.85 13.66c.1.3.13.58.08.84.82-.8 2.25-.94 3.1.36a73.95 73.95 0 0 1 3.64 6.24 78.9 78.9 0 0 0 4.6 5.87c.77.8 1.53 1.62 2.27 2.45 1.26 1.42 2.67 2.73 3.7 4.33a8.12 8.12 0 0 1 1.37 3.6c.61-.05 1.2.33 1.54.84.28.43.4.92.47 1.41.05.36.08.78.3 1.07.15.2.36.33.57.47.1.07.22.14.31.23.61.54.77 1.46.5 2.2-.15.43-.43.8-.82 1.04-.54.34-1.1.16-1.7.26-.24.04-.47.15-.71.22-.93.28-1.9.1-2.84 0-.94-.09-1.87-.2-2.8-.34-1.46-.22-3-.02-4.46.01l-1.31.04c8.48.66 21.63.99 32.5-1.81-1.26-4.91 2.8-13.5 7.41-25.01 4.62-11.51.39-31.08-7.31-38.76"/><path id="vsm1l" d="M163.96 193.11c.94.1 3.6 0 3.85 0h3.08c.46 0-.14-1.03-.38-1.53-.35-.7-.53-1.78-1.14-2.32l-.31-.23c-.2-.14-1.07-2.52-1.34-2.94l-2.9-4.45c-1.04-1.6-2.45-2.91-3.71-4.33-.74-.83-1.5-1.64-2.26-2.45a78.9 78.9 0 0 1-4.6-5.87 74.06 74.06 0 0 0-3.65-6.23c-.85-1.3-6.42-10.31-8.03-14.86-.82-4.7-.61-9.57.61-14.18 2.14-3.59 5.39-6.4 8.47-9.29.07-.07 2.27-2.22 3-2.65 1.16-.67 1.03-2 .31-2.75a47.44 47.44 0 0 0-10.63 5.4c-9.6 6.38-12.41 15.75-12.29 24.71.09.21.14.44.14.66 0 .3-.03.57-.09.84.6 12.01 6.16 22.93 7.24 24.44 1.92 2.69 7.17 16.66 7.17 16.66s3.46.54 8.73.95l1.3-.03c1.48-.04 6.5.36 7.43.45"/><path id="vsm1m" d="M199 145.82c-1.64-.08-3.62-.12-5.14.55-1.06.48-.48 2.1.57 2.1.76 0 1.5-.23 2.25-.33.77-.1 1.54-.13 2.32-.13 1.42 0 1.4-2.12 0-2.19"/><path id="vsm1n" d="M199.72 161.9c-1.89-.42-3.79-.94-5.72-1.13-1.35-.14-1.56 1.96-.31 2.3 1.76.5 3.64.66 5.45.92 1.34.2 1.97-1.76.58-2.08"/><path id="vsm1o" d="M189.65 175c1.29.07 2.62.38 3.9.34 1.3-.04 1.53-1.82.3-2.22-1.28-.42-2.86-.34-4.2-.31-1.43.03-1.42 2.13 0 2.2"/><path id="vsm1p" d="M143.05 120.03c.62 1.3.87 2.71 1.44 4.02.47 1.07 2.15.49 2.13-.58-.03-1.59-.88-3.2-1.7-4.53-.73-1.2-2.46-.15-1.87 1.09"/><path id="vsm1q" d="M134.9 126.58c1.72 1.42 3.62 3 5.75 3.74 1.27.43 1.79-1.33.85-2.02-1.68-1.24-3.63-2.1-5.33-3.34-.95-.69-2.17.87-1.26 1.62"/><path id="vsm1r" d="M128.87 135.26c.78.59 1.62 1.1 2.42 1.63.79.52 1.58 1.2 2.45 1.57 1.19.5 2.45-.82 1.45-1.88-.72-.75-1.75-1.3-2.64-1.84a21.76 21.76 0 0 0-2.84-1.46c-1.24-.51-1.73 1.31-.84 1.98"/><path id="vsm1a" d="M128 154.39h7.18v2.73H128z"/><path id="vsm1t" d="M128.95 156.35c1.71.17 3.4.58 5.1.76 1.31.14 1.57-1.98.31-2.28-1.73-.41-3.64-.42-5.41-.44-1.3-.02-1.24 1.84 0 1.96"/><path id="vsm1u" d="M133.03 169.54c1.92.62 4 1.27 6.03 1.36 1.27.05 1.56-1.95.3-2.23-1.92-.43-3.87-.6-5.78-1.11-1.29-.34-1.8 1.57-.55 1.98"/><path id="vsm1v" d="M137.91 180.97c1.65-.05 3.25.2 4.9.26 1.22.05 1.5-1.86.29-2.15-1.67-.39-3.5-.3-5.19-.16-1.3.11-1.34 2.1 0 2.05"/><path id="vsm1w" d="M151.57 135.37c1.23.7 2.61 1.32 4.01 1.55 1.4.23 2.03-1.83.6-2.15a16.03 16.03 0 0 1-3.58-1.14c-1.16-.57-2.17 1.1-1.03 1.74"/><path id="vsm1x" d="M162.08 143.73c-1.53-.38-3.08-.83-4.65-1.07-1.33-.2-1.93 1.68-.57 2.07 1.53.44 3.12.67 4.68.97 1.28.24 1.84-1.65.54-1.97"/><path id="vsm1y" d="M160.1 156.13l-1.4 1.1c-.46.36-.98.7-1.38 1.12-.85.9.25 2.5 1.38 1.78 1.04-.68 1.96-1.68 2.89-2.5.43-.39.39-1.11 0-1.5-.44-.44-1.05-.35-1.5 0"/><path id="vsm1z" d="M165.06 170.74c-.53.37-1 .8-1.44 1.27l-.56.6c-.42.47-.53.87-.44 1.5.08.53.68.86 1.17.88.83.05 1.27-.62 1.76-1.17.4-.46.8-.97 1.1-1.5.24-.45.18-1.03-.19-1.4-.34-.34-.98-.47-1.4-.18"/><path id="vsm1A" d="M140.41 146.65c-1.33-.1-2.7-.34-4.02-.3-1.24.02-1.6 1.94-.3 2.22 1.4.3 2.9.25 4.32.24 1.4-.02 1.38-2.07 0-2.16"/><path id="vsm1B" d="M177.08 140.25c1.37-.57 2.75-1.1 4.08-1.77 1.07-.53.3-2.43-.83-1.96-1.37.57-2.69 1.25-4.02 1.9-1 .5-.28 2.27.77 1.83"/><path id="vsm1C" d="M177.62 157.45c1.33.36 2.82.65 4.2.53 1.44-.12 1.46-2.15 0-2.24-1.23-.09-2.41-.1-3.62-.37-1.36-.3-1.93 1.72-.58 2.08"/><path id="vsm1D" d="M177.5 176.97c.98.33 1.95.7 2.95.94.55.13 1.14-.18 1.3-.74.16-.6-.21-1.07-.74-1.29-.95-.39-1.95-.66-2.93-.97-1.33-.42-1.88 1.63-.58 2.06"/><path id="vsm1E" d="M144.46 161.42c-1.11.16-2.28.25-3.37.52-1.1.27-.9 2.07.27 1.99 1.21-.09 2.43-.38 3.64-.58.53-.09.84-.75.7-1.23-.16-.58-.7-.78-1.24-.7"/><path id="vsm1F" d="M173.84 133.54c1.2-.16 2.51-.28 3.65-.7.5-.18.83-.6.75-1.14-.07-.46-.5-.97-1.02-.9-1.23.15-2.43.48-3.66.65-1.18.16-.91 2.24.28 2.09"/><path id="vsm1G" d="M158.41 120.87c-11.82 5.92-14.3 20.06-11.86 31.86 1.44 6.99 4.37 13.55 7.02 20.13a91.87 91.87 0 0 1 3.37 9.36c.87 3.1 1.5 6.25 2.27 9.36.23.93 1.6.53 1.42-.39a96.73 96.73 0 0 0-4.8-16.75c-2.46-6.27-5.3-12.4-7.1-18.9-1.7-6.14-2.43-12.77-.84-19.02 1.63-6.36 5.65-11.17 11.06-14.73.58-.38.08-1.23-.54-.92"/><path id="vsm1H" d="M165.94 124.87c7.29 9.7 7.82 21.39 7.85 33.08.02 11.34-.15 22.98-3.04 34-.24.93 1.17 1.31 1.43.4 3.22-11.3 3.14-23.63 3.09-35.28-.06-11.28-.53-23.98-8.45-32.89-.41-.47-1.27.17-.88.69"/><path id="vsm1I" d="M169.77 119.1c8.74 5.27 15.11 13.5 17.36 23.5 2.46 10.98-2.1 21.26-4.05 31.91-.98 5.35-1.89 11.06-1.2 16.5.11.92 1.59.97 1.5 0-1-11.33 2.91-21.96 5.14-32.86 2.09-10.18.2-20.54-5.85-29.1-3.18-4.51-7.36-8.43-12.35-10.89-.63-.3-1.16.58-.55.95"/><path id="vsm1J" d="M440.91 235.7H222.1a4.63 4.63 0 0 1-4.62-4.6L209 85.29c0-4.41 2.31-7.1 6.93-7.29H449a4.63 4.63 0 0 1 4.62 4.6l-8.09 148.5c0 2.53-2.07 4.6-4.62 4.6"/><path id="vsm1K" d="M427.97 223.42h-193c-2.24 0-4.07-1.73-4.07-3.84l-7.47-121.69c0-3.68 2.04-5.92 6.11-6.08H435.1c2.25 0 4.08 1.73 4.08 3.84l-7.13 123.93c0 2.11-1.83 3.84-4.08 3.84"/><path id="vsm1b" d="M229.46 92c-4.07.16-6.1 2.4-6.1 6.1l7.46 122.05a3.98 3.98 0 0 0 4.07 3.85h192.7a3.98 3.98 0 0 0 4.07-3.85l7.12-124.3a3.98 3.98 0 0 0-4.06-3.85z"/><path id="vsm1M" d="M297.65 247.93C308.97 237.75 452.19 92 452.19 92l13.51 138.4z"/><path id="vsm1N" d="M441.65 235.56H220.88c-1.88 0-3.8.77-4.55 1.7l-46.21 54.04c-1.16 1.55.35 2.63 6.45 2.7H498.9c3.35 0 4.56-.76 3.79-1.7l-54.94-55.03c-1.26-1.33-2.74-1.71-6.1-1.71"/><path id="vsm1O" d="M173.15 299.94c-.64 0-1.2-.43-1.37-1.05l-1.66-6.07c-.38-1.13.36-.35 6.46-.36H498.9c3.35 0 1.86.55 3.79.77l-2.45 4.37a4.6 4.6 0 0 1-3.99 2.36c-30.24.14-305.51.1-323.1-.02"/><path id="vsm1P" d="M285.9 266.06c1.83-.41 101.63-.24 103.58.44 1.97.2 13.48 22.62 11.5 23.74-2.01 1.14-120.12.59-121.77-.95-1.6-1.51 3.14-22.77 6.7-23.23"/><path id="vsm1Q" d="M285.04 266.5c.29-.25.58-.4.87-.44"/><path id="vsm1R" d="M244.75 240.13a213 213 0 0 1 12.46.03c.33.19-.78 1.04-.73 1.15.06.1-.7.14-1.48.16-.77.03-10.25.05-11.16-.08-.9-.13.2-1.14.9-1.26"/><path id="vsm1S" d="M259.97 240.1c1.41-.08 3.01-.06 4.51-.05l5.73.02c.53 0 1.11 0 1.48.04.4.05.4.12.37.18l-.3.64c-.06.13.35.43-.7.52-1.51.12-4.42.03-6.09.02h-4.65c-1.17 0-2.05 0-1.95-.16.13-.23.3-.46.45-.69.08-.12-.08-.23.12-.35.14-.08.52-.13 1.03-.17"/><path id="vsm1T" d="M300.84 242.04c.64-.25 12.24-.22 12.5.05.41.4-.36 2.23-.26 2.47.1.25-.67.3-1.44.37-.77.06-10.4.1-11.36-.18-.96-.27-.11-2.46.56-2.71"/><path id="vsm1U" d="M315.94 241.9c.63-.02 10.2-.04 11.33.02 1.13.06 1.13.14 1.02.46-.12.32.2 2.1.15 2.3-.05.17-1.2.17-2.48.23s-8.18-.07-9.2-.01c-1.03.06-1.8 0-1.77-.34.03-.33.41-2.1.18-2.28-.24-.17.77-.37.77-.37"/><path id="vsm1V" d="M274.03 240.32c-.06.2-.03.62-.4.88-.37.27.9.27 3.28.3a527 527 0 0 0 8.22 0c1.27-.02 1.8-.09 1.6-.24-.2-.15.79-.89.38-.98-.4-.1-.87-.21-2.37-.2-1.5.02-8.35-.02-9.36.01-1 .03-1.32.12-1.35.23"/><path id="vsm1W" d="M226.17 242.34c-.36.44-.92 1.31-1.66 1.87-.75.57.48.58 2.82.63 2.34.04 6.83.06 8.12 0 1.3-.04 1.9-.2 1.91-.52 0-.33 1.94-1.88 1.66-2.08-.27-.2-.57-.44-2.06-.4-1.48.02-8.13-.04-9.15.02-1.02.05-1.45.25-1.64.48"/><path id="vsm1X" d="M288.79 241.12c-.1.3-.26.41 2.79.4 3.04 0 7.74.03 9 .01 1.28 0 1.05-.12 1.2-.27.16-.16.05-.9.2-1.03.15-.12-.97-.15-2.48-.14-1.5.02-7.76-.01-9.15.01-1.38.03-1.27.05-1.34.29l-.22.73"/><path id="vsm1Y" d="M329.94 242.44c.06.44.33 1.33.1 1.9-.21.57 1.07.59 3.5.63 2.45.04 7.08.06 8.36.01 1.28-.05 1.76-.2 1.45-.54-.31-.33.17-1.9-.3-2.1-.48-.2-1.02-.45-2.52-.42-1.5.03-8.37-.03-9.37.03s-1.25.26-1.22.49"/><path id="vsm1Z" d="M345.34 244.15c.12.63.05.9 3.13.88 3.1-.03 7.88.03 9.16 0 1.29-.02.95-.26.98-.6.02-.33-.73-1.93-.69-2.2.05-.26-1.1-.32-2.6-.3-1.5.04-7.78-.02-9.15.03-1.37.06-1.23.12-1.13.61l.3 1.58"/><path id="vsm1aa" d="M304.04 241.4c.44.17 2.32.14 3.61.15 2.8 0 8.03.03 8.88 0 1.15-.04.7-.58.82-.8a.53.53 0 0 0 0-.51c-.05-.11-3.67-.1-4.92-.1-2.58.02-4.62 0-6.93 0-.92 0-1.44.08-1.38.2.08.18.03.35-.04.52-.06.16-.34.35-.1.52l.06.03"/><path id="vsm1ab" d="M228.53 241.04c-.25.29-.47.4 2.53.4s7.6.02 8.86.01c1.26 0 1.1-.12 1.33-.27.24-.15.55-.9.76-1.02.21-.12-.87-.15-2.36-.14-1.5.02-7.64-.01-9.01.01-1.38.03-1.28.05-1.48.28l-.63.73"/><path id="vsm1ac" d="M375.65 241.96c.62-.03 10.34-.05 11.51 0 1.17.07 1.23.15 1.29.48.06.32 1.36 2.12 1.41 2.3.05.19-1.12.19-2.38.25-1.27.06-8.35-.07-9.36-.01-1 .06-1.82 0-1.97-.34-.16-.34-.74-2.13-1.08-2.3-.33-.18.58-.38.58-.38"/><path id="vsm1ad" d="M390.5 242.47c.3.45 1.07 1.34 1.16 1.92.1.58 1.4.6 3.9.64 2.51.04 7.22.06 8.5 0 1.26-.04 1.67-.2 1.17-.54-.5-.33-.89-1.92-1.48-2.12-.6-.2-1.28-.45-2.78-.42-1.5.03-8.52-.03-9.5.03-.98.06-1.12.26-.97.5"/><path id="vsm1ae" d="M407.08 244.2c.48.64.54.9 3.66.88 3.13-.02 8.02.04 9.31.01 1.3-.02.82-.27.66-.6-.16-.34-1.82-1.96-1.92-2.22-.1-.27-1.3-.33-2.8-.3-1.51.03-7.93-.03-9.28.02-1.36.06-1.19.12-.81.62l1.18 1.58"/><path id="vsm1af" d="M423.52 244.79c.6.22 1.58.29 3.1.3l13.42.1c2.77.01 4.69-.1 4.1-.8-.4-.45-.78-.9-1.16-1.35a1.78 1.78 0 0 0-.6-.5 6.28 6.28 0 0 0-2.26-.5c-.73-.06-1.47-.05-2.18-.05-4.99.04-9.96.07-14.98.07-2.31 0-1.78.4-1.41.81.47.53.93 1.06 1.45 1.6.13.13.3.23.52.32"/><path id="vsm1ag" d="M319.24 240.39c-.05-.17.4-.29 2.14-.28l9.2.04c.87 0 1.87.07 1.72.25-.16.18.18.96.1 1.02-.06.06-.8.14-1.65.15l-9.38-.02c-1.08 0-1.83-.07-2.16-.15-.33-.1.03-1.01.03-1.01"/><path id="vsm1ah" d="M269.53 244.63c.86.3.8.28 3.57.28 2.78.01 7.55.11 8.35 0 .94-.12 1.04-.31 1.13-.53.23-.63.71-1.27.8-1.88 0-.2-.07-.4-.73-.51-.43-.07-1.01-.06-1.55-.06-3 .04-5.97 0-8.95 0-.9 0-1.48.17-1.53.44-.05.27-1.09 2.26-1.09 2.26"/><path id="vsm1ai" d="M285.44 242.44c.07-.35.6-.6 2.3-.59 1.69.01 8.14.1 8.98.07.83-.04 1.78.14 1.53.53-.26.39-.38 2.04-.49 2.17-.1.14-.88.3-1.73.32-.85.01-8.24-.02-9.3-.02-1.08 0-1.77-.15-2.04-.34-.26-.19.75-2.14.75-2.14"/><path id="vsm1aj" d="M240.21 256.98c2.27-.06 15.12.18 15.9.16.8-.03 1.18.27.91.62-.26.35-1.03 2.27-1.42 2.69-.39.41-1.26.56-3.1.56-1.83 0-11-.13-13.4-.1-2.41.02-3.4-.03-3.05-.69.35-.64 1.89-3.19 4.16-3.24"/><path id="vsm1ak" d="M283.41 259.48c.09-.26.22-.53.29-.78.13-.47.45-1 1.84-1.3 1.28-.29 3.07-.3 4.69-.29l62.32.28c9.64.04 19.3.12 28.97.1.67 0 1.4.01 1.96.13.62.13.79.35.9.54l1.21 2c.14.23.28.85.08 1.07-.54.57-2.8.5-4.67.52-2.92.04-5.84.06-8.77.07-10.45.03-20.93-.5-31.34-.55l-27.71-.12-15.91-.05c-3.49 0-7.05.05-10.51-.03-3.4-.08-3.59-.81-3.35-1.6"/><path id="vsm1al" d="M223.15 245.71c.64-.4.9-.42 3-.42 2.08 0 15.03.06 16.49.02 1.45-.04 1.66.23 1.44.43-.21.2-1.46 1.85-1.55 2.23-.1.38-.82.55-2.63.55-1.8 0-13.67-.05-16.35-.03-2.68.02-2.16-.28-1.7-.79.44-.5 1.3-1.99 1.3-1.99"/><path id="vsm1am" d="M258.94 257.57c.57-.5.86-.52 3.2-.5 2.32 0 16.77.09 18.38.04 1.61-.04 1.94.28 1.78.53-.16.25-.94 2.27-.9 2.74.05.47-.7.68-2.73.68-2.02-.01-15.3-.08-18.29-.07-2.99.02-2.51-.35-2.2-.97.33-.62.76-2.45.76-2.45"/><path id="vsm1an" d="M240.96 242.26c.46-.38.62-.4 1.9-.4 1.26 0 9.1.05 10 0 .89-.03.97.22.8.41-.16.2-1.2 1.74-1.33 2.1-.12.35-.59.51-1.68.51-1.1 0-8.29-.03-9.92 0-1.63.01-1.26-.27-.9-.75.35-.47 1.13-1.87 1.13-1.87"/><path id="vsm1ao" d="M256.03 242.32c.42-.42.75-.38 1.36-.42.62-.04 9.63.03 10.18.01.56-.02 1.02.21.9.42-.12.22-.72 1.76-1.07 2.14-.36.38-.32.4-1.3.4-.96 0-9.76-.05-10.45 0-.68.03-1.18-.13-.9-.47.27-.34 1.28-2.08 1.28-2.08"/><path id="vsm1ap" d="M395.33 240.43c.24.29.7.6.6.9-.08.26 1.23.27 3.72.29 2.5.02 7.2.03 8.49 0 1.25-.01 1.52-.12 1.44-.25-.17-.27-.05-.55-.46-.81-.26-.18-1.01-.4-3.02-.38-1.53.02-8.63-.02-9.64.01-1.01.03-1.22.12-1.13.24"/><path id="vsm1aq" d="M410.83 240.38c.03-.18.18-.2 1.53-.19 1.34 0 9.7.03 10.6 0 .9 0 1.26.11 1.3.2.04.1.68.84.95 1.01.27.17-.04.25-1.18.25l-10.36-.02c-1.68.01-1.63-.12-1.82-.35-.18-.22-1.02-.9-1.02-.9"/><path id="vsm1ar" d="M426.82 240.43c-.02-.2.37-.19.98-.2.61-.02 10.21.01 10.78 0 .57 0 1.3.1 1.4.21.1.1 1.09.85 1.11 1.03.02.18.09.19-.93.19-1.01 0-10.25-.03-10.93-.02-.67.02-1.37-.05-1.45-.22-.08-.16-.96-1-.96-1"/><path id="vsm1as" d="M219.83 249.46c.53-.4 1.09-.6 3.13-.58 2.05.03 13.46.26 15.37.14 1.92-.13 6.49-.1 6.9.07.4.18-.9 1.58-.96 2.08-.06.5-.38 1.1-2.1 1.15-1.73.04-10.85-.16-14.15-.15-3.3.02-8.43.2-9.67.1-1.24-.1.31-1.26.89-1.7.56-.45.3-.88.6-1.1"/><path id="vsm1at" d="M216.42 253.31c.52-.4 1.21-.52 2.9-.52l29.57.07c1.61 0 2.34.14 2.1.54-.24.4-1.37 2.13-1.48 2.47-.11.34-.65.6-2.25.65-1.6.05-16.86-.07-19.03-.05-2.18.02-11.73 0-12.81-.02-1.09-.02-1.1-.22-.8-.65.29-.43 1.54-2.28 1.8-2.49"/><path id="vsm1au" d="M418.18 253.8c-.16-.43.36-.55 2.14-.55l31.16.07c1.7 0 2.7.15 3.15.56.44.4 2.27 2.2 2.74 2.55.48.35.38.62-1.22.67-1.6.05-17.84-.07-20.1-.06-2.25.02-12.32 0-13.49-.01-1.17-.03-1.53-.23-1.97-.68a40.1 40.1 0 0 1-2.41-2.56"/><path id="vsm1av" d="M212.7 257.5c.79-.53 1.39-.48 2.54-.53 1.14-.05 17.87.08 18.9.05 1.04-.02 1.9.28 1.68.56-.21.27-1.29 2.28-1.94 2.77-.66.5-.58.52-2.4.51-1.8 0-18.2-.1-19.48-.06-1.28.05-2.2-.17-1.68-.6.51-.44 2.38-2.7 2.38-2.7"/><path id="vsm1aw" d="M386.54 258.02c.03-.56.7-.5 1.76-.55 2.27-.1 4.96-.01 7.32 0 3.48.03 6.96.03 10.44.04.71 0 1.47 0 2.13.12 1.08.17 1.48.54 1.73.86.54.68.98 1.37 1.3 2.07.28.59.68.88-1.54.9-1.93.03-3.95-.02-5.91-.03-4.32-.02-9.17-.2-13.34-.03-1.2.05-2.41-.17-2.51-.62-.1-.45-1.38-2.76-1.38-2.76"/><path id="vsm1ax" d="M359.93 242.37c.05-.4.2-.41 1.55-.41 1.34 0 9.68.05 10.58 0 .9-.03 1.26.22 1.3.42.05.2.69 1.76.97 2.13.28.36-.04.53-1.2.53s-8.79-.04-10.49-.02c-1.7.02-1.63-.26-1.8-.75-.15-.48-.91-1.9-.91-1.9"/><path id="vsm1ay" d="M302.48 253.14c.7-.3 13.48-.24 13.79.09.45.49-.35 2.71-.23 3 .13.3-.72.37-1.58.45-.85.07-11.49.1-12.55-.23-1.06-.34-.17-3 .57-3.3"/><path id="vsm1az" d="M319.13 253.02l.1-.01c.92-.1 2.59-.02 3.56-.02 2.79 0 6.06-.11 8.81.05 1.25.07 1.25.18 1.14.57-.1.39.32 2.56.27 2.78-.04.22-1.32.22-2.73.3-1.54.07-3.25 0-4.81-.02-1.62-.02-3.25-.02-4.87-.02-1.4 0-2.47.05-2.45-.4.03-.66.17-1.3.07-1.94-.05-.33-.54-1.1.91-1.3"/><path id="vsm1aA" d="M334.57 253.68c.08.54.43 1.62.21 2.31-.22.7 1.2.72 3.9.78 2.7.06 7.82.08 9.24.02 1.4-.05 1.94-.24 1.57-.65-.37-.4.07-2.32-.47-2.57-.53-.24-1.15-.54-2.8-.5-1.64.04-9.23-.05-10.32.02-1.1.06-1.37.3-1.33.6"/><path id="vsm1aB" d="M351.67 255.78c.17.78.1 1.1 3.52 1.08 3.41-.02 8.72.06 10.13.03 1.42-.03 1.03-.33 1.04-.74 0-.4-.96-2.36-.93-2.68.03-.31-1.24-.4-2.9-.36-1.64.04-8.58-.05-10.08.02-1.5.06-1.35.13-1.22.74l.44 1.91"/><path id="vsm1aC" d="M384.99 253.18c.67-.04 11.4-.05 12.7.03 1.3.07 1.37.17 1.47.57.1.39 1.74 2.59 1.81 2.81.08.23-1.22.22-2.61.3-1.4.07-9.25-.1-10.36-.03-1.11.07-2.01-.01-2.22-.42-.2-.41-1.01-2.6-1.4-2.8-.39-.22.6-.46.6-.46"/><path id="vsm1aD" d="M401.44 253.82c.12.21.48.74.58.9.36.58.83 1.91 2.67 2.14.55.07 1.15.06 1.72.07.83 0 10.38.13 10.3.03 2.77-.12 2.09-.42.55-2.15-1.04-1.17-.76-1.6-4.32-1.6-3.02-.02-6.13-.01-9.14-.02a16 16 0 0 0-1.53.04c-.93.1-.97.35-.83.59"/><path id="vsm1aE" d="M267.95 256.26c.95.37.87.33 3.94.35 3.07.01 8.33.14 9.22.01 1.27-.18 1.61-.75 1.72-1.07.17-.5.16-.78.48-1.28.27-.42.1-.92-1.28-1.11-.73-.1-1.63-.1-2.5-.09-2.52.03-4.99-.12-7.51-.09-1.5.02-2.62.06-2.83.53-.06.33-1.24 2.75-1.24 2.75"/><path id="vsm1aF" d="M285.5 253.62c.08-.43.66-.73 2.52-.71 2.22.02 4.04-.06 6.26-.03 1.65.01 4.35-.12 4.9.4.79.77.17 1.71.1 2.53-.01.28-.13.6-1.02.77-.6.11-1.37.11-2.09.1-2.43 0-4.86-.02-7.28-.03-1.62-.01-3.6.05-4.21-.43-.3-.23.82-2.6.82-2.6"/><path id="vsm1aG" d="M253.11 253.43c.48-.51.84-.46 1.52-.5.68-.05 10.6.04 11.2.02.62-.02 1.12.26.99.51-.14.26-.83 2.14-1.23 2.6-.4.47-.35.5-1.42.49-1.07 0-10.78-.08-11.54-.03-.76.04-1.3-.15-.99-.57.32-.4 1.47-2.52 1.47-2.52"/><path id="vsm1aH" d="M367.66 253.64c.03-.47.2-.5 1.68-.49 1.48 0 10.69.07 11.67.03 1-.05 1.42.26 1.48.5.07.23.92 2.15 1.26 2.6.35.44.02.64-1.27.63-1.29 0-9.73-.05-11.61-.03-1.89.02-1.83-.33-2.05-.92a30.02 30.02 0 0 0-1.16-2.32"/><path id="vsm1aI" d="M380.14 240.42v-.01c-.04-.08-.3-.19.54-.22H390.64c.7 0 2.06 0 2.56.07.41.06.26.17.31.24l.25.3c.08.12.2.24.3.36.08.1.46.25.17.35-.36.12-2.36.08-3.35.08l-5.83.01c-1.07 0-2.1.03-3.18 0-1.3-.02-1.29-.16-1.34-.28l-.26-.6-.13-.3"/><path id="vsm1aJ" d="M364.55 240.38c0-.16.21-.21.88-.21l11.65.01c.64 0 .99.06 1.07.21.08.16.4.84.5.97.1.14.01.24-.59.26-.6.02-6.54-.02-7.37-.01h-4.97c-.43 0-.53-.08-.63-.25-.1-.17-.54-.9-.54-.98"/><path id="vsm1aK" d="M349.39 240.36c.13-.2.52-.19 1.16-.2.65-.02 10.54.01 11.13 0 .6 0 1.26.1 1.29.2.02.11.49.85.38 1.02-.12.18-.06.2-1.1.2-1.05-.01-10.57-.04-11.28-.02-.7.02-1.37-.06-1.34-.22.04-.16-.24-.98-.24-.98"/><path id="vsm1aL" d="M334.17 240.37c.16-.2.53-.19 1.16-.2.64-.02 10.3.01 10.88 0 .59 0 1.23.1 1.23.2.01.1.37.84.24 1.02-.14.18-.08.19-1.1.19-1.03 0-10.33-.03-11.03-.01-.7.01-1.33-.06-1.27-.22.05-.16-.11-.98-.11-.98"/><path id="vsm1aM" d="M413.53 260.06c-.2-.2.19-.35 2.13-.34 1.95.01 9.39.09 10.3.07.93-.02 2.15.09 2.15.32s1.08 1.2 1.06 1.27c-.02.08-.77.18-1.71.18-.95.01-9.3-.03-10.5-.04-1.2 0-2.1-.09-2.55-.2-.45-.11-.88-1.26-.88-1.26"/><path id="vsm1aN" d="M428.23 257.83c-.1-.19.11-.24.84-.24l12.7.04c.69 0 1.1.06 1.27.25.17.18.89.98 1.07 1.13.19.15.15.28-.5.3-.63.02-7.12-.04-8.03-.03h-5.4c-.48-.02-.63-.1-.83-.3a20.8 20.8 0 0 1-1.12-1.15"/><path id="vsm1aO" d="M447.16 260.1c-.04-.26.4-.24 1.11-.26.7-.02 11.79.05 12.44.04.66 0 1.5.13 1.63.26.12.13 1.33 1.05 1.37 1.27.05.22.12.23-1.05.23s-11.84-.06-12.61-.04c-.78.02-1.59-.08-1.7-.28-.1-.2-1.19-1.23-1.19-1.23"/><path id="vsm1aP" d="M430.16 260.06c-.01-.25.42-.23 1.11-.25.7-.02 11.52.05 12.16.04.64 0 1.46.13 1.56.26.1.13 1.19 1.04 1.2 1.26.02.23.1.24-1.05.24-1.15 0-11.57-.07-12.33-.05-.76.02-1.54-.07-1.63-.27-.08-.2-1.02-1.23-1.02-1.23"/><path id="vsm1aQ" d="M246.17 252.16c.45.3 13.03.3 13.52-.02.72-.47 1.19-2.53 1.46-2.8.27-.26-.48-.32-1.23-.39s-10.53-.14-11.76.15c-1.23.29-2.46 2.76-1.99 3.06"/><path id="vsm1aR" d="M262.35 252.36c.66.03 11.01.09 12.25.02 1.24-.06 1.29-.16 1.3-.54.02-.38 1.06-2.37 1.09-2.57.05-.43-5.6-.34-6.61-.34-1.7 0-6.97-.17-7.27.41-.19.36-.96 2.37-1.33 2.57-.38.2.57.45.57.45"/><path id="vsm1aS" d="M323.09 248.43c.63.28 13.03.28 13.3-.02.43-.45-.42-2.4-.31-2.65.1-.25-.68-.31-1.46-.37-.78-.07-10.48-.13-11.51.14-1.03.28-.68 2.62-.02 2.9"/><path id="vsm1aT" d="M339.17 248.62c.84.11 2.91.03 3.8.04 2.63.01 5.74.11 8.3-.02 1.18-.06 1.16-.16.94-.52-.22-.35-.44-2.25-.55-2.43-.1-.19-1.26-.2-2.57-.26-1.37-.06-2.91-.01-4.27 0h-5.51c-1-.01-1.32.1-1.29.33.06.43.18.86.26 1.3.07.34-.29 1.52.87 1.56h.02"/><path id="vsm1aU" d="M278.06 251.81c.23-.5.85-1.51.82-2.14-.02-.62 1.3-.63 3.8-.67 2.51-.04 7.24-.04 8.54.01 1.3.06 1.79.23 1.43.59-.36.36-.03 2.14-.56 2.38-.54.24-1.16.52-2.78.48-1.6-.04-9.07.01-10.12-.06-1.06-.07-1.25-.31-1.13-.59"/><path id="vsm1aV" d="M244.37 247.88l.03-.04c.47-.68.69-1.4 1.36-2.06.5-.5 1.92-.5 3.75-.52 2.42-.04 6.97-.04 8.2 0 1.87.09 1.27.48 1.06.85-.3.55-.07 1.13-.9 1.68-.9.6-1.74.7-3.97.68-2-.01-8.83.34-9.53-.23-.13-.11-.08-.23 0-.36"/><path id="vsm1aW" d="M294.69 249.92c.17-.69.1-.97 3.26-.94 3.16.03 8.05-.01 9.37.02 1.31.03 1.02.29 1.1.65.09.37-.42 2.19-.32 2.5.1.3-1.14.38-2.77.34-1.63-.04-8.43.01-9.9-.06-1.48-.07-1.33-.14-1.18-.72l.44-1.79"/><path id="vsm1aX" d="M353.88 248.07c-.57-.58-.32-1.45-.46-1.82-.26-.69.71-.81 3.31-.85 2.45-.04 7.12-.04 8.43 0 2.86.13 2.7 1.82 2.77 2.32.1.74-.79 1.07-3.82 1.05-2.27 0-7.23.19-9.21-.21-.5-.1-.81-.28-1.02-.5"/><path id="vsm1aY" d="M369.14 246.27c-.26-.65-.5-.92 2.63-.89 3.14.03 7.93-.02 9.25.01 1.31.03 1.18.28 1.49.62.3.35.93 2.07 1.22 2.36.29.3-.89.37-2.51.33-1.63-.04-8.3.01-9.8-.05-1.5-.07-1.39-.14-1.6-.69-.23-.54-.68-1.69-.68-1.69"/><path id="vsm1aZ" d="M310.87 249.31c.18-.1.44-.19.84-.23a17.9 17.9 0 0 1 1.87-.08l7.76-.03c.95 0 2.07.01 2.62.2.32.12.36.27.38.4l.27 1.73c.07.49.05.89-1.95 1.12-1.45.17-2.92.08-4.43.06l-5.83-.08c-1.22-.02-2.12-.18-1.95-.53.18-.45.14-.9.18-1.35.03-.29-.32-.86.24-1.2"/><path id="vsm1ba" d="M402.97 248.7c.21.02.46.04.75.04l2.29.02 6.1.02c1.01 0 2.16.02 3.12-.03 1.16-.07 1.09-.17.66-.53a6.67 6.67 0 0 1-1.38-1.7l-.26-.41c-.16-.26-.1-.4-1.31-.51-2.11-.19-4.17-.12-6.21-.11h-3.34c-.55 0-1.11.02-1.67.01-.42 0-.92-.03-1.26.02-.38.07-.35.22-.28.32.35.51.73 1.03 1.12 1.55l.6.8c.15.2.13.4 1.07.5"/><path id="vsm1bb" d="M418.03 248.2c-.37-.5-.92-1.46-1.67-2.06-.75-.6.56-.6 3.03-.64 2.47-.04 7.2-.04 8.57.01s2.04.21 2.1.56c.06.34 2.46 2.05 2.2 2.28-.26.22-.55.5-2.22.46-1.66-.04-9.07 0-10.2-.06-1.14-.07-1.62-.3-1.81-.56"/><path id="vsm1bc" d="M432.48 246.38c-.63-.66-1.02-.93 2.18-.9 3.2.03 8.04-.02 9.4.01 1.35.03 1.35.28 1.85.63.51.35 2.11 2.09 2.56 2.38.46.3-.69.37-2.37.33-1.67-.04-8.42.02-9.98-.05-1.56-.07-1.49-.14-2.02-.7l-1.62-1.7"/><path id="vsm1bd" d="M326.73 251.84c-.05.41.45.72 2.33.71 1.89 0 9.06-.1 9.98-.05.92.05 1.98-.17 1.74-.63-.25-.46-.24-2.32-.34-2.47-.1-.15-.9-.33-1.78-.35-.9-.02-8.63 0-9.75 0a5 5 0 0 0-2.24.35c-.35.2.06 2.44.06 2.44"/><path id="vsm1be" d="M292.13 245.6c.3-.14.7-.24 1.25-.28.6-.03 1.2-.03 1.81-.03h5.24c2.9-.01 4.94-.08 4.92.79-.02.5.54 2.53-2.81 2.5l-7.92-.1c-1.8-.01-3.55.07-3.39-.5.28-.48-.33-1.8.9-2.38"/><path id="vsm1bf" d="M306.92 247.94c-.12.39.3.67 2.12.66 1.82 0 8.74-.1 9.62-.05.88.04 1.94-.16 1.77-.59-.16-.42.16-2.17.09-2.3-.07-.14-.81-.31-1.66-.33-.86-.02-8.32 0-9.4 0s-1.85.14-2.22.33c-.36.2-.32 2.28-.32 2.28"/><path id="vsm1bg" d="M259.77 248.02c-.06.43.1.45 1.45.45 1.35 0 9.76-.02 10.66.02.9.05 1.28-.23 1.33-.45.05-.2.7-1.86.98-2.23.27-.37-.03-.53-1.14-.54h-10c-1.62-.03-1.62.25-1.89.74-.27.5-1.4 2.01-1.4 2.01"/><path id="vsm1bh" d="M275.77 247.99c-.02.47.37.43.99.47.61.05 10.27 0 10.84.02.58.02 1.27-.23 1.33-.47.05-.23.74-1.89.68-2.28-.05-.39 0-.4-.97-.41-.98 0-9.9.03-10.56-.01-.65-.05-1.32.12-1.4.46a29.4 29.4 0 0 1-.9 2.22"/><path id="vsm1bi" d="M408.66 252.1c-.28-.25-.25-.55-.44-.8l-.99-1.35c-.12-.17-.24-.36.07-.5.45-.2 1.58-.21 2.58-.22l7.3-.03c1.14 0 2.48.01 3.34.24.55.14.74.33.9.51l1.59 1.68c.3.32.58.69-.14.92-.7.23-2.09.24-3.35.24-2.64 0-6.14.08-8.82-.13-1.25-.1-1.78-.3-2.04-.55"/><path id="vsm1bj" d="M425.77 252.27c.6.49 1.67.5 3.65.5l20.43.04c1.02 0 2.17 0 2.6-.2.3-.15.11-.35-.08-.54l-1.96-1.89a2.34 2.34 0 0 0-1.26-.64 18.02 18.02 0 0 0-3.69-.26l-18.84-.02c-1.14 0-2.44.02-2.86.25-.23.13-.13.29-.03.44a14.32 14.32 0 0 0 2.04 2.32"/><path id="vsm1bk" d="M385.74 248.23c.42.44.6.46 2.04.46 1.43 0 10.3-.02 11.3.02 1 .05 1.08-.24.9-.45-.2-.22-1.37-1.9-1.5-2.28-.13-.38-.63-.54-1.8-.54s-8.85 0-10.6-.02c-1.73-.02-1.4.27-1.14.77.28.5.8 2.04.8 2.04"/><path id="vsm1bl" d="M392.31 252.07c.65.55 2.73.57 4.55.57l6.84.03c.99 0 2.1 0 2.66-.18.53-.17.4-.43.25-.66l-1.17-1.8c-.13-.2-.29-.4-.88-.55-.76-.2-1.9-.22-2.9-.22l-8.02-.02c-.9 0-1.9 0-2.4.17-.4.14-.3.35-.18.54.43.66.47 1.45 1.25 2.12"/><path id="vsm1bm" d="M375.46 252.09c.15.21.46.4 1.13.48.56.06 1.18.06 1.78.07l9.4.02c.74 0 1.53 0 2.02-.12.6-.14.51-.4.39-.63l-1.17-2.08c-.12-.2-.29-.43-.97-.57-.61-.12-1.41-.13-2.14-.13l-9.24-.01c-.65 0-1.38 0-1.77.12-.36.1-.32.27-.26.41l.65 1.65c.07.18-.01.5.18.79"/><path id="vsm1bn" d="M359.24 252.07c.35.5.75.46 1.47.51.72.05 11.42 0 12.08.03.65.02 1.22-.26 1.1-.51-.13-.26-.67-2.05-1.04-2.47-.36-.42-.31-.44-1.4-.44-1.09 0-10.97.02-11.73-.02-.76-.05-1.37.13-1.19.5.2.38.71 2.4.71 2.4"/><path id="vsm1bo" d="M342.8 251.98c.28.5.68.46 1.37.5.7.06 11.16.01 11.8.03.64.03 1.23-.25 1.14-.5-.08-.25-.38-2.04-.68-2.46-.3-.42-.25-.44-1.32-.44-1.06 0-10.72.02-11.46-.02-.73-.05-1.36.13-1.22.5.13.38.38 2.39.38 2.39"/><path id="vsm1bp" d="M427.6 257.08c-2.3 0-4-.02-4.67-.04-.72-.02-1.12-.08-1.46-.12l-.43-.06c-.21-.02-.36-.08-.31-.13.04-.05.25-.08.47-.05l.52.06c.31.05.58.08 1.13.1 1.6.04 9.93.05 17.3.05 6.17 0 12.01 0 13.97.03 2.22.03 2.93-.04 3.12-.1.09-.03.1-.07.04-.12-.06-.06.07-.1.29-.1.22 0 .44.05.5.1.12.11.08.2-.12.26-.41.14-1.53.2-3.65.17-1.94-.03-7.78-.03-13.96-.03-4.62 0-9.34 0-12.74-.02"/><path id="vsm1bq" d="M201.46 263.62c-.19 0-.36-.02-.48-.06-2-.58 5.06-8.46 10.26-13.15a79.6 79.6 0 0 0 5.74-5.93c3.52-3.91 4.96-5.32 6.75-5.4 3.66-.16 216.01-.28 218.14-.28.17 0 .43.02.7.1 3.12.91 30.18 24.47 28.7 25.41-1.54.98-130.36-.37-140.91-.55-17.59-.28-125.78-.31-128.7-.14h-.2m22.26-24.35c-1.31.13-3.67 2.77-5.84 5.2-1.65 1.86-3.6 4.03-5.71 5.95-6.45 5.86-11.51 12.4-10.37 12.9 4.97-.16 110.74-.15 128.6.15 21.48.35 136.78 1.37 139.8.65 1.04-1.1-25.36-24.2-28.29-25.12-7.26 0-214.43.12-218.19.27"/><path id="vsm1br" d="M448.94 168.27h-82.53c-.8 0-1.43-.64-1.43-1.42l1-89.13h8.91l90.37-12.5c.8 0 1.43.63 1.43 1.42l2.12 95.48h-19.63z"/><path id="vsm1bs" d="M335.84 225.18H228.9c-.83 0-1.51-.63-1.51-1.4l-3.7-99.1c0-.77.68-1.4 1.51-1.4h108.4c.83 0 1.5.63 1.5 1.4l2.25 99.1c0 .77-.67 1.4-1.51 1.4"/><path id="vsm1bt" d="M372.47 161.35c-1 0-1.81-.81-1.81-1.81l1.15-119.81c0-1 .82-1.81 1.82-1.81h104.15c1 0 1.81.81 1.81 1.81l-1.15 119.8c0 1-.81 1.82-1.81 1.82z"/><path id="vsm1bu" d="M331.08 227.48h-103.7c-.82 0-1.47-.6-1.47-1.36l-3.59-96.1c0-.75.66-1.36 1.47-1.36H328.9c.8 0 1.46.6 1.46 1.36l2.18 96.1c0 .75-.66 1.36-1.47 1.36"/><path id="vsm1bv" d="M419.12 55.97l-1.46 73.98a.67.67 0 0 1-1.2.42l-30.42-36.26a.67.67 0 0 1 0-.87l31.9-37.72a.67.67 0 0 1 1.18.45"/><path id="vsm1bw" d="M413 116.74h48.88v-9.23H413z"/><path id="vsm1bx" d="M452.75 103.74l.66 43.1c0 .37-.29.66-.64.66h-23.69a.64.64 0 0 1-.56-.94l23.03-43.11c.3-.58 1.2-.37 1.2.3"/><path id="vsm1by" d="M413 80.6a17.31 17.31 0 1 0 34.62-.01 17.31 17.31 0 0 0-34.62.01"/><path id="vsm1bz" d="M345.22 112.9h-84.98a1.2 1.2 0 0 1-1.2-1.2l-2.31-84.89c0-.66.54-1.2 1.2-1.2l76.5 2.3c.67 0 1.2.54 1.2 1.2l-3.07 48.8 13.4-.2.46 33.98c0 .67-.54 1.2-1.2 1.2"/><path id="vsm1bA" d="M341.75 108.28h-84.98a1.2 1.2 0 0 1-1.2-1.2l-2.31-84.88c0-.66.54-1.2 1.2-1.2h86.13c.66 0 1.2.54 1.2 1.2l1.16 84.88c0 .67-.54 1.2-1.2 1.2"/><path id="vsm1bB" d="M331.36 98.67h-67.75a.96.96 0 0 1-.96-.96l-1.84-67.68c0-.53.43-.96.96-.96h70.6c.53 0 .96.43.96.96l1.54 67.48c0 .53-2.98 1.16-3.5 1.16"/><path id="vsm1bC" d="M263.32 99.44h70.74c.45 0 .81-.36.81-.81l-.38-17.68c0-.22-.1-.44-.26-.6l-15.37-14.24a.81.81 0 0 0-1.1-.01L303.9 78.53a.81.81 0 0 1-1.14-.05L283.91 58.2a.81.81 0 0 0-1.21.03L262.3 82.3a.81.81 0 0 0-.19.52l.38 15.8c0 .46.37.82.82.82"/><path id="vsm1bD" d="M321.01 45.03a10.2 10.2 0 1 1-20.39-.01 10.2 10.2 0 0 1 20.4.01"/><path id="vsm1bE" d="M269.81 212.87l12.32-.38v-5.77l-12.7.38z"/><path id="vsm1bF" d="M285.93 168.73c-5.15 0-9.71-1.74-13.32-5.15-13.48-12.78-33.21 1.42-33.41 1.56l-1.14-1.55c.21-.16 5.32-3.86 12.28-5.94 9.36-2.8 17.52-1.23 23.6 4.53 6.98 6.62 16.14 4.67 20.98 2.92 10.03-3.63 17.65-11.61 18.22-16.5l1.91.22c-.73 6.25-9.65 14.53-19.47 18.08a28.44 28.44 0 0 1-9.65 1.83"/><path id="vsm1bG" d="M294.42 185.58l-39.85-41.34.83-.8 39.85 41.34z"/><path id="vsm1bH" d="M257.1 144.43a1.54 1.54 0 1 1-3.07 0 1.54 1.54 0 0 1 3.08 0"/><path id="vsm1bI" d="M295.93 185.47a1.54 1.54 0 1 1-2.82-1.23 1.54 1.54 0 0 1 2.82 1.23"/><path id="vsm1bJ" d="M236.13 166.54h4.23v-4.23h-4.23z"/><path id="vsm1bK" d="M311.77 151.35H316v-4.23h-4.23z"/><path id="vsm1bL" d="M270.97 165.57h5.39v-5.38h-5.39z"/><path id="vsm1bM" d="M270.2 166.34h6.93v-6.92h-6.93zm1.54-1.54h3.85v-3.84h-3.85z"/><path id="vsm1bN" d="M273 167.6a.83.83 0 0 1 1.5-.08l15.46 27.56c.16.3.12.66-.1.92l-7.49 10.43a.83.83 0 0 1-.61.3l-11.95.36a.83.83 0 0 1-.63-.26l-9-9.72a.83.83 0 0 1-.17-.88z"/><path id="vsm1bO" d="M275.32 189.49l-.9-21.64a.77.77 0 1 0-1.54.06l.9 21.61a3.27 3.27 0 1 0 1.54-.03"/><path id="vsm1bP" d="M158.96 127.51c.77-.38 2.3-3.84 2.69-3.84.38 0 3.85 4.6 4.62 4.22.77-.38 0-3.84-.77-4.6-.77-.78 7.31 1.53 7.31.38 0-1.16-4.23-4.23-5.77-4.23 2.7-.77 10-3.47 9.24-4.62-.77-1.15-8.64 2.64-8.64 2.64 2.86-2.64 5.17-7.25 4.02-8.8-1.16-1.14-5.78 7.31-5.78 7.31.39-3.46 4.24-15.38 3.08-16.14-1.15-.77-5.39 11.15-5 15.76-2.7-2.3-3.46-6.54-4.62-10.77-1.15-4.23-5.39.77-1.92 6.16 3.46 5.38 5.2 5.81 5.2 5.81-5.2-1.97-7.13-10.43-9.05-10.04-1.93.38.38 8.84 6.54 11.53-3.85 0-8.85-3.07-9.62-1.15-.77 1.92 8.08 3.07 9.24 3.07-.39 1.54-1.54 7.7-.77 7.31"/><path id="vsm1bQ" d="M234 259.37c-1.87.89-4.46.45-6.47.44l-5.2-.05c-3.7-.02-7.71.4-11.35-.15-.73-.11-1.05 1-.31 1.1 4 .6 8.35.18 12.4.21l6.31.05c1.8.02 3.55.18 5.2-.6.67-.32.09-1.32-.58-1"/><path id="vsm1bR" d="M235.52 260.92c.78.83 2.24.56 3.28.61 1.74.09 3.47.16 5.21.23 3.72.13 7.45.17 11.17.04.74-.02.75-1.18 0-1.15-3.1.1-6.2.1-9.3.01-1.5-.04-2.99-.1-4.47-.16-.92-.04-4.45.27-5.07-.4-.51-.53-1.33.28-.82.82"/><path id="vsm1bS" d="M257.58 261.26c1.12.84 3.12.48 4.45.52a321.34 321.34 0 0 0 19.24.1c.74-.02.74-1.17 0-1.15a330.56 330.56 0 0 1-19.62-.11c-.88-.03-2.77.18-3.5-.36-.59-.44-1.16.56-.57 1"/><path id="vsm1bT" d="M283.29 261.25c30.2.82 60.42 1.41 90.63 1.08 3.1-.04 6.21.05 9.3-.08.81-.03 3.06.08 2.82-1.28-.13-.73-1.24-.42-1.11.31-.1-.51-.07-.32-.73-.24-.47.05-.95.06-1.41.07-1.12.04-2.24.02-3.36.02-3.1-.02-6.2.06-9.3.08-6.94.06-13.9.07-20.85.04-14.13-.05-28.27-.27-42.4-.57-7.87-.17-15.73-.37-23.6-.58-.74-.02-.74 1.13 0 1.15"/><path id="vsm1bU" d="M388.09 262.23c4.65.13 9.32.12 13.98.17l6.84.08c.95 0 2.48.31 2.8-.9.18-.71-.94-1.02-1.12-.3-.13.49-10.42-.05-11.57-.06-3.64-.04-7.29-.04-10.93-.14-.75-.02-.75 1.13 0 1.15"/><path id="vsm1bV" d="M414.28 262.34l9.6.21c1.46.04 3 .24 4.44.1.73-.06 1.15-.16 1.53-.8.38-.64-.62-1.22-1-.58-.34.59-2.95.18-3.49.16l-3.7-.08-7.38-.17c-.75-.01-.75 1.14 0 1.16"/><path id="vsm1bW" d="M431.27 262.3c4.83.11 9.66.19 14.5.23.74 0 .74-1.15 0-1.15a985.2 985.2 0 0 1-14.5-.23c-.75-.02-.75 1.14 0 1.15"/><path id="vsm1bX" d="M448.27 262.52c5.06.23 10.12.32 15.19.28.74-.01.74-1.16 0-1.16-5.07.05-10.13-.04-15.2-.27-.74-.03-.73 1.12 0 1.15"/><path id="vsm1bY" d="M284.85 267.6c2.87-1.96 6.84-1.56 10.17-1.66 3.4-.1 6.8-.14 10.2-.14 7.05 0 14.1.19 21.15.43 14.08.47 28.17.46 42.26.23 3.97-.06 7.94-.14 11.91-.23 3.48-.07 8.16-.88 11 1.63.55.5 1.37-.32.8-.82-1.9-1.69-4.32-2.03-6.8-2.05-3.58-.03-7.18.14-10.76.2-7.56.15-15.12.26-22.68.28-15.13.03-30.24-.76-45.37-.82-4.16-.01-8.31.03-12.47.16-3.34.1-7.1-.18-10 1.79-.6.41-.02 1.41.6 1"/><path id="vsm1bZ" d="M158.95 187.6l.03.03h-.03v-.03"/><path id="vsm1ca" d="M156.33 104.1c-1.15 4.1 1.57 8.5 4.56 11.11.61.54 1.52-.36.9-.9-2.73-2.36-5.17-6.16-4.41-9.92.14-.68-.86-.97-1.05-.3"/><path id="vsm1cb" d="M152.9 107.36c-.67 2.56.95 4.8 2.44 6.74 1.44 1.88 3.07 3.41 5.37 4.12.84.25 1.2-1.07.36-1.32a9.33 9.33 0 0 1-4.37-3.1c-1.4-1.63-3.24-3.85-2.78-6.16.13-.66-.85-.95-1.02-.28"/><path id="vsm1cc" d="M160.08 119.08a10.85 10.85 0 0 0-1.91 8.01c.13.67 1.25.53 1.2-.16-.17-2.51.26-5.16 1.63-7.32.37-.58-.52-1.06-.92-.53"/><path id="vsm1cd" d="M161.57 124.38c.28-.7.78-1.28 1.09-1.98l-1.06-.13c.44 1.46 1.35 2.62 2.19 3.87.56.85 1.05 1.9 2.1 2.21.84.26 1.19-1.04.36-1.3-.72-.21-1.2-1.46-1.61-2.04-.76-1.03-1.35-2.09-1.98-3.2-.26-.44-.91-.31-1.06.15-.26.76-.76 1.4-1.03 2.15-.22.63.75.87 1 .27"/><path id="vsm1ce" d="M165.09 122.41a6.88 6.88 0 0 0 3.22 1.31c1.35.2 2.68.01 4 .4.87.25 1.21-1.06.37-1.34-1.07-.36-2.13-.32-3.24-.35a8.92 8.92 0 0 1-3.78-.99c-.67-.32-1.15.54-.57.97"/><path id="vsm1cf" d="M163.67 118.72a11.4 11.4 0 0 0 5.56-3.53c1.31-1.51 2.68-3.14 2.38-5.24-.12-.84-1.4-.48-1.29.36.25 1.73-1.76 3.82-2.93 4.88-1.23 1.12-2.67 1.79-4.14 2.53-.56.29-.17 1.17.42 1"/><path id="vsm1cg" d="M149.79 117.3c.64 1.37 2.08 2 3.44 2.5 1.75.63 3.61 1.22 5.49.85.72-.14.56-1.33-.18-1.29-2.7.15-5.99-.75-7.92-2.7-.45-.46-1.08.11-.83.63"/><path id="vsm1ch" d="M162.77 234.26a55.6 55.6 0 0 0-.89-6.45c-.12-.6-.66-20.16-.43-29.42.07-2.8-2.35-4.96-5-5.05a52.1 52.1 0 0 1-14.93-3 4.9 4.9 0 0 0-.4-.11c-2.52-2.69-7.6-.75-6.7 3.68l.16.64c.02.23.06.46.13.7l.15.5c.24.9.5 1.8.8 2.67.68 2.35 1.35 4.7 2.05 7.04-.16.75-.14 1.55.11 2.34.86 2.73 1.65 5.47 2.42 8.22.42 1.97.98 3.9 1.61 5.82l.34 1.24.3 1.75c.08.57.3 1.1.61 1.56l.47 1.68.12.36c.13.64.27 1.28.43 1.92.19.78.43 1.58.54 2.38-.02-.01.05 1.16.06 1.3a7.64 7.64 0 0 0 2.8 5.3c.95.84 1.73 1.84 2.68 2.67 3.42 3.01 9.17 3.66 11.76-.82 1.19-2.05.98-4.65.8-6.92"/><path id="vsm1ci" d="M418 66c-3.4 3.24-5.86 6.9-6.28 11.69-.35 3.95.12 7.46 1.73 11.06 1.58 3.52 3.8 6.6 7.37 8.26 3.04 1.4 6.96 2.46 10.28 1.43 1.47-.46.85-2.75-.64-2.31-2.74.8-6.14-.16-8.64-1.32-3.12-1.44-4.95-4.2-6.31-7.26a18.78 18.78 0 0 1-1.5-8.87c.19-4.75 2.56-7.72 5.4-11.28.78-.97-.46-2.3-1.4-1.4"/><path id="vsm1cj" d="M283.3 57.35c-1.96-.33-3.15 1.6-4.14 3-1.68 2.36-3.27 4.77-4.9 7.16a82.63 82.63 0 0 1-11.47 13.38c-.75.73.27 2.15 1.15 1.49 3.9-2.93 7.05-6.89 9.88-10.82 1.47-2.04 2.86-4.14 4.25-6.23l2.17-3.3c.55-.82 1.68-3.24 2.85-3.13.88.07 1.1-1.4.21-1.55"/><path id="vsm1ck" d="M299.86 77.31c1.2 1.12 2.88 3.22 4.74 2.56 1.88-.66 3.74-2.5 5.23-3.77 1.8-1.53 3.48-3.17 5.2-4.78.9-.84 1.8-1.85 2.82-2.54 1.63-1.1 2.25.3 3.3 1.35.93.94 2.4-.52 1.45-1.46-1.15-1.15-2.42-3.42-4.38-2.67-1.79.67-3.5 2.84-4.84 4.13-1.78 1.69-3.54 3.42-5.42 5-.98.84-2.1 1.99-3.3 2.5-.7.3-.97.36-1.73-.04-.73-.39-1.43-1.03-2.13-1.5-.73-.48-1.59.63-.94 1.22"/><path id="vsm1cl" d="M267.86 176.07c-2.14 6.45-6.7 11.8-8.74 18.3-.48 1.53 1.87 2.15 2.4.66 2.23-6.39 6.36-11.92 8.29-18.43.37-1.25-1.54-1.75-1.95-.53"/><path id="vsm1cm" d="M259.42 194.61c-1.09 3.37 3.07 6.48 5.15 8.54.76.75 1.52 1.48 2.3 2.2.6.57 1.56 1.16 2.03 1.82.8 1.14.14 3.64.43 5.08.26 1.3 2.46 1.03 2.35-.32-.14-1.58.29-3.27 0-4.82-.25-1.33-1.32-1.96-2.28-2.82-1.4-1.26-2.75-2.55-4.08-3.88-1.13-1.13-4.28-3.47-3.83-5.23.34-1.34-1.65-1.88-2.07-.57"/><path id="vsm1cn" d="M270.2 208.42c3.9.23 7.82.1 11.66-.62 1.1-.21.86-2.07-.26-1.97-3.8.36-7.58.65-11.4.6-1.29-.01-1.27 1.91 0 1.99"/><path id="vsm1co" d="M281.7 207.92c1.3 0 1.3-2.03 0-2.03-1.32 0-1.32 2.03 0 2.03"/><path id="vsm1cp" d="M173.87 197.15c1.42-.1 2.84-.24 4.24-.47.62-.1.35-1.03-.26-.94-1.32.18-2.65.34-3.98.42-.64.04-.64 1.03 0 1"/><path id="vsm1cq" d="M182.9 196.54l6.95-1.27c1.23-.23.7-2.1-.51-1.87l-6.95 1.29c-1.21.22-.7 2.07.52 1.85"/><path id="vsm1cr" d="M193.81 194.03c1.27 0 1.27-1.97 0-1.97s-1.27 1.97 0 1.97"/><path id="vsm1cs" d="M150.52 181.2c-.6.04-1.15.26-1.72.44-.56.18-1.16.32-1.68.6-.49.27-.68.92-.46 1.41.24.56.76.74 1.33.66.52-.08 1.03-.32 1.52-.5.51-.18 1.09-.32 1.55-.62.83-.53.59-2.08-.54-2"/><path id="vsm1ct" d="M186.7 187.07c1.25.15 2.6.07 3.8-.25 1.22-.33 1.02-2.42-.3-2.26-1.17.13-2.31.24-3.5.25-1.48.02-1.4 2.09 0 2.26"/><path id="vsm1cu" d="M165.08 184.67c-1.33 0-2.77.08-4.03.54-1.38.51-.81 2.35.6 2.16 1.15-.16 2.27-.48 3.43-.61 1.3-.15 1.38-2.1 0-2.09"/><path id="vsm1cv" d="M142.63 135.63c-1.4-.55-2.52-1.4-3.78-2.17-1.04-.63-2.19.84-1.3 1.7 1.22 1.17 2.94 1.94 4.51 2.53 1.3.48 1.83-1.56.57-2.06"/><path id="vsm1cw" d="M188.63 134.21c1.46-.37 2.99-.86 4.22-1.75.45-.32.67-.83.45-1.37-.2-.45-.79-.84-1.3-.63-1.32.54-2.58 1.21-3.94 1.68-1.3.44-.78 2.41.57 2.07"/><clipPath id="vsm1s"><use xlink:href="#vsm1a"/></clipPath><clipPath id="vsm1L"><use xlink:href="#vsm1b"/></clipPath></defs><g><g transform="translate(-128 -21)"><g><g opacity=".52"><use fill="#0353a7" xlink:href="#vsm1c"/></g><g opacity=".45"><use fill="#0353a7" xlink:href="#vsm1d"/></g><g><use fill="#3333d1" xlink:href="#vsm1e"/></g><g><use fill="#2929b5" xlink:href="#vsm1f"/></g><g><use fill="#1a1a99" xlink:href="#vsm1g"/></g><g><use fill="#00b07e" xlink:href="#vsm1h"/></g><g><use fill="#00b07e" xlink:href="#vsm1i"/></g><g><use fill="#00b07e" xlink:href="#vsm1j"/></g><g><use fill="#76ffaa" xlink:href="#vsm1k"/></g><g><use fill="#1cf68b" xlink:href="#vsm1l"/></g><g><use fill="#00b07e" xlink:href="#vsm1m"/></g><g><use fill="#00b07e" xlink:href="#vsm1n"/></g><g><use fill="#00b07e" xlink:href="#vsm1o"/></g><g><use fill="#00b07e" xlink:href="#vsm1p"/></g><g><use fill="#00b07e" xlink:href="#vsm1q"/></g><g><use fill="#00b07e" xlink:href="#vsm1r"/></g><g><g/><g clip-path="url(#vsm1s)"><use fill="#00b07e" xlink:href="#vsm1t"/></g></g><g><use fill="#00b07e" xlink:href="#vsm1u"/></g><g><use fill="#00b07e" xlink:href="#vsm1v"/></g><g><use fill="#00b07e" xlink:href="#vsm1w"/></g><g><use fill="#00b07e" xlink:href="#vsm1x"/></g><g><use fill="#00b07e" xlink:href="#vsm1y"/></g><g><use fill="#00b07e" xlink:href="#vsm1z"/></g><g><use fill="#00b07e" xlink:href="#vsm1A"/></g><g><use fill="#00b07e" xlink:href="#vsm1B"/></g><g><use fill="#00b07e" xlink:href="#vsm1C"/></g><g><use fill="#00b07e" xlink:href="#vsm1D"/></g><g><use fill="#00b07e" xlink:href="#vsm1E"/></g><g><use fill="#00b07e" xlink:href="#vsm1F"/></g><g><use fill="#00d393" xlink:href="#vsm1G"/></g><g><use fill="#00d393" xlink:href="#vsm1H"/></g><g><use fill="#00d393" xlink:href="#vsm1I"/></g><g><use fill="#f8fafb" xlink:href="#vsm1J"/></g><g><use fill="#294757" xlink:href="#vsm1K"/></g></g><g opacity=".5"><g opacity=".5"/><g clip-path="url(#vsm1L)" opacity=".5"><use fill="#112129" xlink:href="#vsm1M"/></g></g><g><g><use fill="#ccdae1" xlink:href="#vsm1N"/></g><g><use fill="#4e7e97" xlink:href="#vsm1O"/></g><g><use fill="#b5c9d4" xlink:href="#vsm1P"/></g><g><use fill="#60b0fb" xlink:href="#vsm1Q"/></g><g><use fill="#7ba1b4" xlink:href="#vsm1R"/></g><g><use fill="#7ba1b4" xlink:href="#vsm1S"/></g><g><use fill="#7ba1b4" xlink:href="#vsm1T"/></g><g><use fill="#7ba1b4" xlink:href="#vsm1U"/></g><g><use fill="#7ba1b4" xlink:href="#vsm1V"/></g><g><use fill="#7ba1b4" xlink:href="#vsm1W"/></g><g><use fill="#7ba1b4" xlink:href="#vsm1X"/></g><g><use fill="#7ba1b4" xlink:href="#vsm1Y"/></g><g><use fill="#7ba1b4" xlink:href="#vsm1Z"/></g><g><use fill="#7ba1b4" xlink:href="#vsm1aa"/></g><g><use fill="#7ba1b4" xlink:href="#vsm1ab"/></g><g><use fill="#7ba1b4" xlink:href="#vsm1ac"/></g><g><use fill="#7ba1b4" xlink:href="#vsm1ad"/></g><g><use fill="#7ba1b4" xlink:href="#vsm1ae"/></g><g><use fill="#7ba1b4" xlink:href="#vsm1af"/></g><g><use fill="#7ba1b4" xlink:href="#vsm1ag"/></g><g><use fill="#7ba1b4" xlink:href="#vsm1ah"/></g><g><use fill="#7ba1b4" xlink:href="#vsm1ai"/></g><g><use fill="#7ba1b4" xlink:href="#vsm1aj"/></g><g><use fill="#7ba1b4" xlink:href="#vsm1ak"/></g><g><use fill="#7ba1b4" xlink:href="#vsm1al"/></g><g><use fill="#7ba1b4" xlink:href="#vsm1am"/></g><g><use fill="#7ba1b4" xlink:href="#vsm1an"/></g><g><use fill="#7ba1b4" xlink:href="#vsm1ao"/></g><g><use fill="#7ba1b4" xlink:href="#vsm1ap"/></g><g><use fill="#7ba1b4" xlink:href="#vsm1aq"/></g><g><use fill="#7ba1b4" xlink:href="#vsm1ar"/></g><g><use fill="#7ba1b4" xlink:href="#vsm1as"/></g><g><use fill="#7ba1b4" xlink:href="#vsm1at"/></g><g><use fill="#7ba1b4" xlink:href="#vsm1au"/></g><g><use fill="#7ba1b4" xlink:href="#vsm1av"/></g><g><use fill="#7ba1b4" xlink:href="#vsm1aw"/></g><g><use fill="#7ba1b4" xlink:href="#vsm1ax"/></g><g><use fill="#7ba1b4" xlink:href="#vsm1ay"/></g><g><use fill="#7ba1b4" xlink:href="#vsm1az"/></g><g><use fill="#7ba1b4" xlink:href="#vsm1aA"/></g><g><use fill="#7ba1b4" xlink:href="#vsm1aB"/></g><g><use fill="#7ba1b4" xlink:href="#vsm1aC"/></g><g><use fill="#7ba1b4" xlink:href="#vsm1aD"/></g><g><use fill="#7ba1b4" xlink:href="#vsm1aE"/></g><g><use fill="#7ba1b4" xlink:href="#vsm1aF"/></g><g><use fill="#7ba1b4" xlink:href="#vsm1aG"/></g><g><use fill="#7ba1b4" xlink:href="#vsm1aH"/></g><g><use fill="#7ba1b4" xlink:href="#vsm1aI"/></g><g><use fill="#7ba1b4" xlink:href="#vsm1aJ"/></g><g><use fill="#7ba1b4" xlink:href="#vsm1aK"/></g><g><use fill="#7ba1b4" xlink:href="#vsm1aL"/></g><g><use fill="#7ba1b4" xlink:href="#vsm1aM"/></g><g><use fill="#7ba1b4" xlink:href="#vsm1aN"/></g><g><use fill="#7ba1b4" xlink:href="#vsm1aO"/></g><g><use fill="#7ba1b4" xlink:href="#vsm1aP"/></g><g><use fill="#7ba1b4" xlink:href="#vsm1aQ"/></g><g><use fill="#7ba1b4" xlink:href="#vsm1aR"/></g><g><use fill="#7ba1b4" xlink:href="#vsm1aS"/></g><g><use fill="#7ba1b4" xlink:href="#vsm1aT"/></g><g><use fill="#7ba1b4" xlink:href="#vsm1aU"/></g><g><use fill="#7ba1b4" xlink:href="#vsm1aV"/></g><g><use fill="#7ba1b4" xlink:href="#vsm1aW"/></g><g><use fill="#7ba1b4" xlink:href="#vsm1aX"/></g><g><use fill="#7ba1b4" xlink:href="#vsm1aY"/></g><g><use fill="#7ba1b4" xlink:href="#vsm1aZ"/></g><g><use fill="#7ba1b4" xlink:href="#vsm1ba"/></g><g><use fill="#7ba1b4" xlink:href="#vsm1bb"/></g><g><use fill="#7ba1b4" xlink:href="#vsm1bc"/></g><g><use fill="#7ba1b4" xlink:href="#vsm1bd"/></g><g><use fill="#7ba1b4" xlink:href="#vsm1be"/></g><g><use fill="#7ba1b4" xlink:href="#vsm1bf"/></g><g><use fill="#7ba1b4" xlink:href="#vsm1bg"/></g><g><use fill="#7ba1b4" xlink:href="#vsm1bh"/></g><g><use fill="#7ba1b4" xlink:href="#vsm1bi"/></g><g><use fill="#7ba1b4" xlink:href="#vsm1bj"/></g><g><use fill="#7ba1b4" xlink:href="#vsm1bk"/></g><g><use fill="#7ba1b4" xlink:href="#vsm1bl"/></g><g><use fill="#7ba1b4" xlink:href="#vsm1bm"/></g><g><use fill="#7ba1b4" xlink:href="#vsm1bn"/></g><g><use fill="#7ba1b4" xlink:href="#vsm1bo"/></g><g><use fill="#7ba1b4" xlink:href="#vsm1bp"/></g><g><use fill="#ccdae1" xlink:href="#vsm1bq"/></g><g opacity=".5"><use fill="#112129" xlink:href="#vsm1br"/></g><g opacity=".5"><use fill="#112129" xlink:href="#vsm1bs"/></g><g><use fill="#b3b3fc" xlink:href="#vsm1bt"/></g><g><use fill="#fcdb7e" xlink:href="#vsm1bu"/></g><g><use fill="#5f5ff6" xlink:href="#vsm1bv"/></g><g><use fill="#3636cc" xlink:href="#vsm1bw"/></g><g><use fill="#8080f1" xlink:href="#vsm1bx"/></g><g><use fill="#d7d7ff" xlink:href="#vsm1by"/></g><g opacity=".5"><use fill="#112129" xlink:href="#vsm1bz"/></g><g><use fill="#e2ffe2" xlink:href="#vsm1bA"/></g><g><use fill="#abffad" xlink:href="#vsm1bB"/></g><g><use fill="#69e781" xlink:href="#vsm1bC"/></g><g><use fill="#e2ffe2" xlink:href="#vsm1bD"/></g><g><use fill="#ffbe00" xlink:href="#vsm1bE"/></g><g><use fill="#ffa200" xlink:href="#vsm1bF"/></g><g><use fill="#ff7e00" xlink:href="#vsm1bG"/></g><g><use fill="#ff7e00" xlink:href="#vsm1bH"/></g><g><use fill="#ff7e00" xlink:href="#vsm1bI"/></g><g><use fill="#ff7e00" xlink:href="#vsm1bJ"/></g><g><use fill="#ff7e00" xlink:href="#vsm1bK"/></g><g><use fill="#ffeeb5" xlink:href="#vsm1bL"/></g><g><use fill="#ff7e00" xlink:href="#vsm1bM"/></g><g><use fill="#ffeeb6" xlink:href="#vsm1bN"/></g><g><use fill="#ffb300" xlink:href="#vsm1bO"/></g><g><use fill="#ff8678" xlink:href="#vsm1bP"/></g><g><use fill="#4e7e97" xlink:href="#vsm1bQ"/></g><g><use fill="#4e7e97" xlink:href="#vsm1bR"/></g><g><use fill="#4e7e97" xlink:href="#vsm1bS"/></g><g><use fill="#4e7e97" xlink:href="#vsm1bT"/></g><g><use fill="#4e7e97" xlink:href="#vsm1bU"/></g><g><use fill="#4e7e97" xlink:href="#vsm1bV"/></g><g><use fill="#4e7e97" xlink:href="#vsm1bW"/></g><g><use fill="#4e7e97" xlink:href="#vsm1bX"/></g><g><use fill="#4e7e97" xlink:href="#vsm1bY"/></g><g><use fill="#1cf68b" xlink:href="#vsm1bZ"/></g><g><use fill="#ff5151" xlink:href="#vsm1ca"/></g><g><use fill="#ff5151" xlink:href="#vsm1cb"/></g><g><use fill="#ff5151" xlink:href="#vsm1cc"/></g><g><use fill="#ff5151" xlink:href="#vsm1cd"/></g><g><use fill="#ff5151" xlink:href="#vsm1ce"/></g><g><use fill="#ff5151" xlink:href="#vsm1cf"/></g><g><use fill="#ff5151" xlink:href="#vsm1cg"/></g><g><use fill="#1a1a99" xlink:href="#vsm1ch"/></g><g><use fill="#3636cc" xlink:href="#vsm1ci"/></g><g><use fill="#4ad295" xlink:href="#vsm1cj"/></g><g><use fill="#4ad295" xlink:href="#vsm1ck"/></g><g><use fill="#ffd341" xlink:href="#vsm1cl"/></g><g><use fill="#ffbe00" xlink:href="#vsm1cm"/></g><g><use fill="#ffa200" xlink:href="#vsm1cn"/></g><g><use fill="#ffa200" xlink:href="#vsm1co"/></g><g><use fill="#b4b4ff" xlink:href="#vsm1cp"/></g><g><use fill="#b4b4ff" xlink:href="#vsm1cq"/></g><g><use fill="#b4b4ff" xlink:href="#vsm1cr"/></g><g><use fill="#00c588" xlink:href="#vsm1cs"/></g><g><use fill="#00c588" xlink:href="#vsm1ct"/></g><g><use fill="#00c588" xlink:href="#vsm1cu"/></g><g><use fill="#00c588" xlink:href="#vsm1cv"/></g><g><use fill="#00c588" xlink:href="#vsm1cw"/></g></g></g></g></svg>