<?xml version="1.0" encoding="iso-8859-1"?>
<!-- Generator: Adobe Illustrator 16.0.0, SVG Export Plug-In . SVG Version: 6.00 Build 0)  -->
<!DOCTYPE svg PUBLIC "-//W3C//DTD SVG 1.1//EN" "http://www.w3.org/Graphics/SVG/1.1/DTD/svg11.dtd">
<svg version="1.1" id="Capa_1" xmlns="http://www.w3.org/2000/svg" xmlns:xlink="http://www.w3.org/1999/xlink" x="0px" y="0px"
	 width="509.787px" height="509.788px" fill="#f9da00" viewBox="0 0 509.787 509.788" style="enable-background:new 0 0 509.787 509.788;"
	 xml:space="preserve">
<g>
	<g>
		<path d="M509.601,87.491l-23.202-9.604l0.21-23.868c0,0-51.169-23.699-116.188-23.699c-54.566,0-100.703,16.85-115.451,22.887
			C240.198,47.17,194.067,30.32,139.495,30.32c-65.013,0-113.87,23.231-113.87,23.231l0.181,26.583L0,88.384l0.134,391.083
			l17.334-8.758c0.584-0.279,58.771-29.355,112.474-29.355c46.008,0,99.839,16.301,116.042,21.579l10.812,3.726l10.118-3.924
			c14.515-5.29,62.414-21.369,107.453-21.369c53.294,0,117.834,29.263,118.476,29.555l16.943,7.754L509.601,87.491z
			 M242.995,424.702c-23.086-7.274-67.068-19.22-106.887-19.22c-38.838,0-78.476,11.351-100.119,18.706V82.248
			c21.024-6.767,57.136-16.056,97.527-16.056c49.441,0,92.874,14.001,109.479,20.125V424.702z M473.927,424.702
			c-23.086-7.274-67.073-19.22-106.892-19.22c-37.204,0-74.979,10.393-97.119,17.726V86.271
			c16.383-6.136,59.075-20.079,107.979-20.079c39.726,0,75.271,9.219,96.032,15.974V424.702z"/>
		<path d="M307.575,125.056c0.35-0.082,36.807-8.081,73.659-8.081c36.782,0,69.806,7.964,70.121,8.045l2.837-11.607
			c-1.389-0.35-34.681-8.396-72.97-8.396c-38.196,0-74.733,8.022-76.264,8.355L307.575,125.056z"/>
		<path d="M451.355,157.641l2.837-11.613c-1.389-0.345-34.681-8.39-72.97-8.39c-38.22,0-74.722,8.022-76.252,8.355l2.604,11.683
			c0.35-0.082,36.736-8.081,73.647-8.081C418.017,149.607,451.04,157.571,451.355,157.641z"/>
		<path d="M307.575,188.848c0.35-0.082,36.807-8.081,73.671-8.081c36.771,0,69.794,7.964,70.109,8.045l2.837-11.607
			c-1.389-0.35-34.681-8.396-72.958-8.396c-38.208,0-74.745,8.022-76.275,8.361L307.575,188.848z"/>
		<path d="M381.234,213.399c36.782,0,69.806,7.963,70.121,8.045l2.837-11.607c-1.389-0.351-34.681-8.396-72.97-8.396
			c-38.22,0-74.733,8.022-76.264,8.355l2.593,11.683C307.925,221.386,344.312,213.399,381.234,213.399z"/>
		<path d="M381.234,244.98c36.782,0,69.806,7.964,70.121,8.045l2.837-11.613c-1.389-0.344-34.681-8.39-72.97-8.39
			c-38.196,0-74.733,8.022-76.264,8.355l2.593,11.683C307.925,252.979,344.382,244.98,381.234,244.98z"/>
		<path d="M381.234,265.66c-38.208,0-74.722,8.01-76.252,8.349l2.593,11.688c0.361-0.094,36.748-8.08,73.659-8.08
			c36.794,0,69.806,7.963,70.121,8.033l2.837-11.606C452.804,273.694,419.523,265.66,381.234,265.66z"/>
		<path d="M304.982,305.083l2.593,11.688c0.361-0.082,36.76-8.081,73.671-8.081c36.771,0,69.794,7.953,70.109,8.046l2.837-11.606
			c-1.389-0.352-34.681-8.396-72.958-8.396C343.026,296.733,306.513,304.754,304.982,305.083z"/>
		<path d="M304.982,336.096l2.593,11.678c0.361-0.082,36.76-8.081,73.671-8.081c36.782,0,69.794,7.964,70.121,8.046l2.849-11.607
			c-1.4-0.35-34.692-8.396-72.981-8.396C343.026,327.736,306.513,335.758,304.982,336.096z"/>
		<path d="M304.982,369.143l2.593,11.677c0.361-0.07,36.817-8.081,73.671-8.081c36.782,0,69.794,7.965,70.121,8.058l2.849-11.618
			c-1.4-0.34-34.692-8.396-72.981-8.396C343.026,360.782,306.513,368.815,304.982,369.143z"/>
		<path d="M60.861,119.393c0.362-0.087,36.817-8.086,73.671-8.086c36.783,0,69.794,7.964,70.121,8.046l2.843-11.607
			c-1.401-0.35-34.687-8.396-72.976-8.396c-38.202,0-74.733,8.022-76.264,8.361L60.861,119.393z"/>
		<path d="M204.653,151.983l2.843-11.607c-1.401-0.35-34.687-8.396-72.976-8.396c-38.213,0-74.722,8.022-76.252,8.361l2.593,11.677
			c0.362-0.082,36.748-8.081,73.659-8.081C171.315,143.938,204.326,151.902,204.653,151.983z"/>
		<path d="M60.861,183.185c0.362-0.087,36.817-8.086,73.683-8.086c36.771,0,69.782,7.964,70.109,8.052l2.843-11.613
			c-1.401-0.344-34.687-8.396-72.964-8.396c-38.214,0-74.745,8.022-76.275,8.361L60.861,183.185z"/>
		<path d="M134.532,207.73c36.783,0,69.794,7.964,70.121,8.045l2.843-11.607c-1.401-0.35-34.687-8.396-72.976-8.396
			c-38.225,0-74.733,8.022-76.264,8.361l2.593,11.683C61.223,215.729,97.609,207.73,134.532,207.73z"/>
		<path d="M134.532,239.322c36.783,0,69.794,7.964,70.121,8.046l2.843-11.607c-1.401-0.35-34.687-8.396-72.976-8.396
			c-38.202,0-74.733,8.022-76.264,8.355l2.593,11.688C61.223,247.31,97.679,239.322,134.532,239.322z"/>
		<path d="M134.532,259.985c-38.214,0-74.722,8.022-76.252,8.361l2.593,11.677c0.362-0.081,36.748-8.081,73.659-8.081
			c36.794,0,69.794,7.964,70.121,8.045l2.843-11.607C206.095,268.031,172.821,259.985,134.532,259.985z"/>
		<path d="M58.28,299.43l2.593,11.678c0.362-0.07,36.759-8.081,73.671-8.081c36.771,0,69.782,7.964,70.109,8.058l2.843-11.619
			c-1.401-0.339-34.687-8.396-72.964-8.396C96.33,291.069,59.811,299.104,58.28,299.43z"/>
		<path d="M58.28,330.445l2.593,11.677c0.362-0.094,36.759-8.08,73.671-8.08c36.783,0,69.794,7.963,70.121,8.045l2.843-11.618
			c-1.401-0.339-34.687-8.384-72.976-8.384C96.33,322.061,59.811,330.094,58.28,330.445z"/>
		<path d="M58.28,363.467l2.593,11.689c0.362-0.082,36.817-8.081,73.671-8.081c36.783,0,69.794,7.964,70.121,8.046l2.843-11.607
			c-1.401-0.35-34.687-8.396-72.976-8.396C96.342,355.119,59.811,363.141,58.28,363.467z"/>
	</g>
</g>
<g>
</g>
<g>
</g>
<g>
</g>
<g>
</g>
<g>
</g>
<g>
</g>
<g>
</g>
<g>
</g>
<g>
</g>
<g>
</g>
<g>
</g>
<g>
</g>
<g>
</g>
<g>
</g>
<g>
</g>
</svg>
