<svg xmlns="http://www.w3.org/2000/svg" xmlns:xlink="http://www.w3.org/1999/xlink" viewBox="0 0 800 800"><defs><style>.cls-1{isolation:isolate;}.cls-2{fill:url(#åçûìßííûé_ãðàäèåíò_5);}.cls-3{opacity:0.15;mix-blend-mode:multiply;}.cls-4{fill:#fff;}</style><linearGradient id="åçûìßííûé_ãðàäèåíò_5" x1="121.18" y1="396.55" x2="701.18" y2="396.55" gradientUnits="userSpaceOnUse"><stop offset="0" stop-color="#c699ff"/><stop offset="0.07" stop-color="#c699ff"/><stop offset="1" stop-color="#491f7d"/></linearGradient></defs><g class="cls-1"><g id="objects"><circle class="cls-2" cx="411.18" cy="396.55" r="290"/><path class="cls-3" d="M222.61,410.91l-.79.79,79.78,79.77C297.57,452,262.16,416.92,222.61,410.91Z"/><path class="cls-3" d="M694.16,333.25,598.91,238C485.56,300,442.45,429.23,383.88,539.85c-8.83,14.72-35.45,6.59-51.35,19.44L456.28,683C595,661.37,701.18,541.37,701.18,396.55A290.78,290.78,0,0,0,694.16,333.25Z"/><path class="cls-4" d="M223.81,413.42c29.62,20.5,45.1,24.22,70.62,67.21s30,72.23,36.71,77.6,40.3-1.34,57.76-10.74,18.12-14.6,34.42-52.73C445.93,441.9,482.65,377,510.86,339.38s87.6-87.09,90.29-96.49-25.53-13.77-52.39-5.71-83.47,70.31-117.64,119.29c-38,54.41-51.45,100.34-58.17,99s-19.84-28.73-38.65-48.88-38.62-33.81-61.46-29.78S210.15,404,223.81,413.42Z"/></g></g></svg>