<svg height="512" viewBox="0 0 128 128" width="512" xmlns="http://www.w3.org/2000/svg"><path d="m118.741 40.145h-3.341v-16.53a5.006 5.006 0 0 0 -5-5h-87a5.006 5.006 0 0 0 -5 5v21.864h-3.83a6.716 6.716 0 0 0 -6.709 6.708v18.446a6.717 6.717 0 0 0 6.709 6.709h3.83v16.384a5.006 5.006 0 0 0 5 5h32.079v8.625a6.041 6.041 0 0 0 6.034 6.034h30.641a6.041 6.041 0 0 0 6.034-6.034v-8.625h12.212a5.006 5.006 0 0 0 5-5v-28.573h3.337a5.4 5.4 0 0 0 5.4-5.4v-14.209a5.4 5.4 0 0 0 -5.396-5.399z" fill="#e6e7e8"/><rect fill="#d4fbff" height="78.111" rx="4" width="95" x="15.404" y="15.615"/><path d="m106.182 90.559h-86.556a4.222 4.222 0 0 1 -4.226-4.222v3.389a4 4 0 0 0 4 4h87a4 4 0 0 0 4-4v-3.389a4.222 4.222 0 0 1 -4.218 4.222z" fill="#fff"/><path d="m106.4 15.615h-87a4 4 0 0 0 -4 4v11.305h95v-11.305a4 4 0 0 0 -4-4z" fill="#0089ef"/><path d="m87.885 20.981a2.463 2.463 0 1 0 2.463 2.463 2.463 2.463 0 0 0 -2.463-2.463z" fill="#fff"/><path d="m95.274 20.981a2.463 2.463 0 1 0 2.463 2.463 2.463 2.463 0 0 0 -2.463-2.463z" fill="#d4fbff"/><circle cx="102.663" cy="23.444" fill="#fa759e" r="2.463"/><path d="m114.741 37.146h-26.772a4.4 4.4 0 0 0 -4.4 4.4v14.209a4.4 4.4 0 0 0 4.4 4.4h6.544v6.333l7.169-6.333h13.059a4.4 4.4 0 0 0 4.4-4.4v-14.211a4.4 4.4 0 0 0 -4.4-4.398z" fill="#ffd7e5"/><path d="m10.57 42.479h34.749a5.709 5.709 0 0 1 5.709 5.709v18.445a5.709 5.709 0 0 1 -5.709 5.709h-8.5v8.22l-9.3-8.22h-16.949a5.709 5.709 0 0 1 -5.709-5.709v-18.445a5.709 5.709 0 0 1 5.709-5.709z" fill="#6dc9f7"/><path d="m57.513 108.385h30.641a5.034 5.034 0 0 0 5.034-5.034v-16.265a5.033 5.033 0 0 0 -5.034-5.033h-7.49v-7.253l-8.2 7.249h-14.951a5.033 5.033 0 0 0 -5.034 5.033v16.265a5.034 5.034 0 0 0 5.034 5.038z" fill="#fa759e"/><g fill="#3a2c60"><path d="m90.946 30.92a1 1 0 0 0 -1-1h-9.237a1 1 0 0 0 0 2h9.237a1 1 0 0 0 1-1z"/><path d="m114.741 36.146h-3.341v-16.531a5.006 5.006 0 0 0 -5-5h-87a5.006 5.006 0 0 0 -5 5v21.864h-3.831a6.716 6.716 0 0 0 -6.708 6.709v18.445a6.716 6.716 0 0 0 6.708 6.709h3.831v16.384a5.006 5.006 0 0 0 5 5h32.08v8.625a6.04 6.04 0 0 0 6.033 6.034h30.641a6.041 6.041 0 0 0 6.034-6.034v-8.625h12.212a5.006 5.006 0 0 0 5-5v-28.573h3.337a5.4 5.4 0 0 0 5.4-5.4v-14.209a5.4 5.4 0 0 0 -5.396-5.398zm-108.88 30.487v-18.445a4.714 4.714 0 0 1 4.708-4.709h34.75a4.714 4.714 0 0 1 4.708 4.709v18.445a4.714 4.714 0 0 1 -4.708 4.709h-8.5a1 1 0 0 0 -1 1v6l-7.642-6.752a1 1 0 0 0 -.662-.25h-16.946a4.714 4.714 0 0 1 -4.708-4.707zm86.327 36.718a4.038 4.038 0 0 1 -4.034 4.034h-30.641a4.038 4.038 0 0 1 -4.033-4.034v-16.265a4.037 4.037 0 0 1 4.033-4.033h14.946a1 1 0 0 0 .662-.251l6.543-5.78v5.031a1 1 0 0 0 1 1h7.49a4.038 4.038 0 0 1 4.034 4.033zm17.212-13.625a3 3 0 0 1 -3 3h-12.212v-5.64a6.04 6.04 0 0 0 -6.034-6.033h-6.49v-6.253a1 1 0 0 0 -1.664-.745l-7.92 7h-14.567a6.039 6.039 0 0 0 -6.033 6.033v5.64h-32.08a3 3 0 0 1 -3-3v-16.386h10.741l9.021 7.97a1 1 0 0 0 1.662-.75v-7.22h7.5a6.716 6.716 0 0 0 6.708-6.709v-18.445a6.716 6.716 0 0 0 -6.708-6.709h-28.924v-9.559h59.2a1 1 0 0 0 0-2h-59.2v-10.305a3 3 0 0 1 3-3h87a3 3 0 0 1 3 3v10.305h-14.158a1 1 0 0 0 0 2h14.158v4.226h-21.431a5.4 5.4 0 0 0 -5.4 5.4v14.209a5.4 5.4 0 0 0 5.4 5.4h5.544v5.333a1 1 0 0 0 .589.912.99.99 0 0 0 .411.088 1 1 0 0 0 .662-.25l6.885-6.083h7.34zm8.735-33.971a3.4 3.4 0 0 1 -3.4 3.4h-13.053a1 1 0 0 0 -.662.251l-5.507 4.865v-4.118a1 1 0 0 0 -1-1h-6.544a3.4 3.4 0 0 1 -3.4-3.4v-14.209a3.4 3.4 0 0 1 3.4-3.4h26.772a3.4 3.4 0 0 1 3.4 3.4z"/><path d="m96.554 44.615-6.154 2.669a1.568 1.568 0 0 0 -.944 1.439v.016a1.568 1.568 0 0 0 .944 1.439l6.158 2.669a1.093 1.093 0 0 0 1.528-1v-.019a1.093 1.093 0 0 0 -.693-1.017l-5.321-2.095 5.314-2.047a1.092 1.092 0 0 0 .7-1.02v-.029a1.093 1.093 0 0 0 -1.532-1.005z"/><path d="m102.948 42.15a1.015 1.015 0 0 0 -1.226.748l-2.708 11.189a1.017 1.017 0 0 0 .748 1.226 1.028 1.028 0 0 0 .24.028 1.012 1.012 0 0 0 .986-.777l2.712-11.189a1.016 1.016 0 0 0 -.752-1.225z"/><path d="m112.31 47.279-6.157-2.657a1.093 1.093 0 1 0 -.827 2.023l5.333 2.063-5.338 2.1a1.093 1.093 0 0 0 -.693 1.017v.015a1.093 1.093 0 0 0 1.529 1l6.158-2.681a1.568 1.568 0 0 0 0-2.878z"/><path d="m66.283 93.115v-3.651a.873.873 0 0 1 .2-.637.814.814 0 0 1 .6-.2h.609a.987.987 0 0 0 .665-.228.966.966 0 0 0 0-1.331.987.987 0 0 0 -.665-.228h-1.428a2.282 2.282 0 0 0 -1.7.609 2.307 2.307 0 0 0 -.6 1.692v3.689a1.8 1.8 0 0 1 -.266 1.1 1.283 1.283 0 0 1 -.951.4.96.96 0 0 0 -.675.266.9.9 0 0 0 -.237.647.879.879 0 0 0 .912.932 1.283 1.283 0 0 1 .951.4 1.8 1.8 0 0 1 .266 1.1v3.689a2.311 2.311 0 0 0 .6 1.693 2.285 2.285 0 0 0 1.7.608h1.427a.987.987 0 0 0 .665-.228.966.966 0 0 0 0-1.331.987.987 0 0 0 -.665-.228h-.609a.814.814 0 0 1 -.6-.2.873.873 0 0 1 -.2-.637v-3.647a2.239 2.239 0 0 0 -.447-1.426 1.824 1.824 0 0 0 -1.055-.7 1.808 1.808 0 0 0 1.055-.713 2.282 2.282 0 0 0 .448-1.44z"/><path d="m72.8 97.508a1.3 1.3 0 0 0 -.98.409 1.417 1.417 0 0 0 -.39 1.017 1.285 1.285 0 0 0 .352.922 1.4 1.4 0 0 0 .9.428 2.912 2.912 0 0 1 -.741 1.369.647.647 0 0 0 -.19.438.594.594 0 0 0 .209.456.708.708 0 0 0 .494.19.746.746 0 0 0 .533-.247 4.36 4.36 0 0 0 1.255-3.118 2.105 2.105 0 0 0 -.4-1.389 1.3 1.3 0 0 0 -1.042-.475z"/><path d="m72.833 90.757a1.368 1.368 0 0 0 -1.407 1.407 1.4 1.4 0 0 0 .4 1.018 1.445 1.445 0 0 0 2.015 0 1.4 1.4 0 0 0 .4-1.018 1.368 1.368 0 0 0 -1.408-1.407z"/><path d="m82.921 94.332a1.283 1.283 0 0 1 -.951-.4 1.8 1.8 0 0 1 -.266-1.1v-3.691a2.307 2.307 0 0 0 -.6-1.692 2.282 2.282 0 0 0 -1.7-.609h-1.428a.985.985 0 0 0 -.665.228.966.966 0 0 0 0 1.331.985.985 0 0 0 .665.228h.609a.814.814 0 0 1 .6.2.873.873 0 0 1 .2.637v3.651a2.276 2.276 0 0 0 .447 1.436 1.8 1.8 0 0 0 1.055.713 1.821 1.821 0 0 0 -1.055.7 2.234 2.234 0 0 0 -.447 1.426v3.651a.873.873 0 0 1 -.2.637.814.814 0 0 1 -.6.2h-.609a.985.985 0 0 0 -.665.228.966.966 0 0 0 0 1.331.985.985 0 0 0 .665.228h1.424a2.285 2.285 0 0 0 1.7-.608 2.311 2.311 0 0 0 .6-1.693v-3.685a1.8 1.8 0 0 1 .266-1.1 1.283 1.283 0 0 1 .951-.4.924.924 0 0 0 .684-.276.952.952 0 0 0 .229-.656.9.9 0 0 0 -.23-.647.96.96 0 0 0 -.679-.268z"/><path d="m19.477 53.039-7.077 3.067a1.8 1.8 0 0 0 -1.085 1.653v.019a1.8 1.8 0 0 0 1.085 1.654l7.077 3.068a1.256 1.256 0 0 0 1.755-1.152v-.022a1.255 1.255 0 0 0 -.795-1.168l-6.114-2.407 6.105-2.351a1.256 1.256 0 0 0 .8-1.172v-.035a1.256 1.256 0 0 0 -1.751-1.154z"/><path d="m28.881 64.747a1.378 1.378 0 0 0 .443-1.084 1.448 1.448 0 0 0 -1.469-1.469 1.463 1.463 0 0 0 -1.064.424 1.4 1.4 0 0 0 -.434 1.045 1.367 1.367 0 0 0 .449 1.089 1.553 1.553 0 0 0 1.049.389 1.5 1.5 0 0 0 1.026-.394z"/><path d="m28.092 52.3a2.138 2.138 0 0 1 1.513.543 1.739 1.739 0 0 1 .586 1.33 1.513 1.513 0 0 1 -.191.747 2.825 2.825 0 0 1 -.473.626q-.28.28-.912.833a15.612 15.612 0 0 0 -1.143 1.089 3.491 3.491 0 0 0 -.936 2.5 1.312 1.312 0 0 0 .35 1 1.2 1.2 0 0 0 .862.335 1.1 1.1 0 0 0 1.173-1.025q.108-.483.163-.675a2.113 2.113 0 0 1 .152-.384 2.148 2.148 0 0 1 .3-.424 6.741 6.741 0 0 1 .537-.537q1.212-1.084 1.681-1.543a4.5 4.5 0 0 0 .808-1.089 3.058 3.058 0 0 0 .34-1.469 3.523 3.523 0 0 0 -.6-1.971 4.1 4.1 0 0 0 -1.691-1.434 5.75 5.75 0 0 0 -2.523-.527 5.516 5.516 0 0 0 -2.691.631 4.634 4.634 0 0 0 -1.754 1.591 3.562 3.562 0 0 0 -.6 1.9 1.188 1.188 0 0 0 .379.842 1.25 1.25 0 0 0 .932.39q.936 0 1.271-1.114a4.38 4.38 0 0 1 .867-1.612 2.1 2.1 0 0 1 1.6-.553z"/><path d="m36.413 62.513 7.076-3.081a1.8 1.8 0 0 0 -.006-3.306l-7.074-3.052a1.256 1.256 0 1 0 -.95 2.324l6.126 2.371-6.132 2.407a1.255 1.255 0 0 0 -.8 1.169v.017a1.256 1.256 0 0 0 1.76 1.151z"/></g></svg>