<svg height="801" viewBox="0 0 5816 801" width="5816" xmlns="http://www.w3.org/2000/svg" xmlns:xlink="http://www.w3.org/1999/xlink"><linearGradient id="a"><stop offset="0" stop-color="#d3e9ff"/><stop offset="1" stop-color="#f4f6f8"/></linearGradient><linearGradient id="b" x1="47.141649%" x2="21.165239%" xlink:href="#a" y1="49.385511%" y2="51.302964%"/><linearGradient id="c" x1="0%" x2="67.777158%" xlink:href="#a" y1="43.41377%" y2="48.228596%"/><linearGradient id="d" x1="63.479012%" x2="-.627285%" xlink:href="#a" y1="50.617825%" y2="45.932163%"/><g fill="none" fill-rule="evenodd"><g fill-rule="nonzero"><path d="m-21-85.4586247 226.25004 820.0457727c1.877719 6.805814 8.529178 11.148579 15.515421 10.130083l5212.500029-759.9092165z" fill="#f4f6f8"/><path d="m733.338361-199.455864 47.17552 683.132314c1.179515 17.080149 15.981897 29.970159 33.062045 28.790644 1.275657-.088094 2.54464-.255031 3.799679-.499855l3646.962755-711.423103z" fill="url(#b)" transform="matrix(.9945219 .10452846 -.10452846 .9945219 30.600026 -270.795015)"/><path d="m23.488737 0h2176.934583l-1821.80598 787.540181c-.200958.08687-.402829.171611-.605582.254206-15.858161 6.460159-33.951694-1.156071-40.413037-17.011325z" fill="url(#c)"/><path d="m831.312827 591.846517-802.5898838-591.846517h2171.7003768z" fill="url(#d)"/></g><text fill="#262f34" font-family="Montserrat-SemiBold, Montserrat SemiBold" font-size="24" font-weight="500" opacity=".16" transform="matrix(.99026807 -.1391731 .1391731 .99026807 -43.310431 318.018059)"><tspan x="2070.24647" y="477.193036">wow, this is a wiiiiiiide screen</tspan></text></g></svg>