<svg height="64px" viewBox="0 0 512 512" width="64px" xmlns="http://www.w3.org/2000/svg"><path d="m188.21875 188.558594-16.640625-24.960938 141.507813-94.675781 16.640624 24.960937zm0 0" fill="#f12896"/><path d="m263.808594 330.824219-87.398438-48.003907 14.5625-26.21875 87.394532 48.003907zm0 0" fill="#f12896"/><path d="m376 241c-74.398438 0-135 60.597656-135 135 0 74.398438 60.601562 136 135 136s136-61.601562 136-136c0-74.402344-61.601562-135-136-135zm0 0" fill="#f12896"/><path d="m512 376c0 74.398438-61.601562 136-136 136v-271c74.398438 0 136 60.597656 136 135zm0 0" fill="#f12896"/><path d="m449.5 451.699219c-18.898438 18.601562-45 30.300781-73.5 30.300781s-54.601562-11.699219-73.5-30.300781c7.199219-33.898438 37.199219-60.699219 73.5-60.699219s66.300781 26.800781 73.5 60.699219zm0 0" fill="#f2f2fc"/><path d="m449.5 451.699219c-18.898438 18.601562-45 30.300781-73.5 30.300781v-91c36.300781 0 66.300781 26.800781 73.5 60.699219zm0 0" fill="#d8d8fc"/><path d="m376 301c-24.902344 0-45 20.097656-45 45 0 24.898438 20.097656 45 45 45s45-20.101562 45-45c0-24.902344-20.097656-45-45-45zm0 0" fill="#f2f2fc"/><path d="m421 346c0 24.898438-20.097656 45-45 45v-90c24.902344 0 45 20.097656 45 45zm0 0" fill="#d8d8fc"/><path d="m361 0c-33 0-60 27-60 60s27 60 60 60 60-27 60-60-27-60-60-60zm0 0" fill="#f12896"/><path d="m421 60c0 33-27 60-60 60v-120c33 0 60 27 60 60zm0 0" fill="#f12896"/><path d="m361 30c-16.5 0-30 13.5-30 30s13.5 30 30 30 30-13.5 30-30-13.5-30-30-30zm0 0" fill="#f2f2fc"/><path d="m391 60c0 16.5-13.5 30-30 30v-60c16.5 0 30 13.5 30 30zm0 0" fill="#d8d8fc"/><path d="m105 121c-57.898438 0-105 47.101562-105 105s47.101562 105 105 105 105-47.101562 105-105-47.101562-105-105-105zm0 0" fill="#f12896"/><path d="m210 226c0 57.898438-47.101562 105-105 105v-210c57.898438 0 105 47.101562 105 105zm0 0" fill="#f12896"/><path d="m150 285.699219c-12.597656 9.300781-28.199219 15.300781-45 15.300781s-32.402344-6-45-15.300781c.300781-24.597657 20.398438-44.699219 45-44.699219s44.699219 20.097656 45 44.699219zm0 0" fill="#f2f2fc"/><path d="m150 285.699219c-12.597656 9.300781-28.199219 15.300781-45 15.300781v-60c24.601562 0 44.699219 20.097656 45 44.699219zm0 0" fill="#d8d8fc"/><path d="m105 181c-16.5 0-30 13.5-30 30s13.5 30 30 30 30-13.5 30-30-13.5-30-30-30zm0 0" fill="#f2f2fc"/><path d="m105 241v-60c16.5 0 30 13.5 30 30s-13.5 30-30 30zm0 0" fill="#d8d8fc"/></svg>