<svg height="64px" viewBox="0 0 256 256" width="64px" xmlns="http://www.w3.org/2000/svg"><g fill="none" fill-rule="evenodd"><path d="m15.645276 80.5c54-54 162-54 216 0s-8.894846 96.728847-63.070572 150.904574c-54.175727 54.175727-40.79324-42.698087-73.6100816-75.080419-32.8168415-32.382332-133.3193464-21.824155-79.3193464-75.824155z" fill="#fff" transform="matrix(-1 0 0 1 252.292844 0)"/><g fill="#f12896" fill-rule="nonzero" transform="translate(20 20)"><path d="m184.359375 63.703125h12.65625c10.467984 0 18.984375-8.5163906 18.984375-18.984375v-25.734375c0-10.46798438-8.516391-18.984375-18.984375-18.984375h-12.65625c-10.467984 0-18.984375 8.51639062-18.984375 18.984375v6.75h-19.828125c-10.467984 0-18.984375 8.5163906-18.984375 18.984375v56.953125h-13.009781c-3.158157-28.4364844-27.3345471-50.625-56.599594-50.625-31.4039531 0-56.953125 25.5491719-56.953125 56.953125 0 31.403953 25.5491719 56.953125 56.953125 56.953125 29.2650469 0 53.441437-22.188516 56.599594-50.625h13.009781v56.953125c0 10.467984 8.516391 18.984375 18.984375 18.984375h19.828125v6.328125c0 10.490344 8.478 19.40625 18.984375 19.40625h12.65625c10.492875 0 18.984375-8.899875 18.984375-19.40625v-25.3125c0-10.467984-8.516391-18.984375-18.984375-18.984375h-12.65625c-10.467984 0-18.984375 8.516391-18.984375 18.984375v6.328125h-19.828125c-3.489328 0-6.328125-2.838797-6.328125-6.328125v-56.953125h26.15625v6.328125c0 10.467984 8.516391 18.984375 18.984375 18.984375h12.65625c10.467984 0 18.984375-8.516391 18.984375-18.984375v-25.3125c0-10.4679844-8.516391-18.984375-18.984375-18.984375h-12.65625c-10.467984 0-18.984375 8.5163906-18.984375 18.984375v6.328125h-26.15625v-56.953125c0-3.4893281 2.838797-6.328125 6.328125-6.328125h19.828125v6.328125c0 10.4679844 8.516391 18.984375 18.984375 18.984375zm-6.328125-44.71875c0-3.4893281 2.838797-6.328125 6.328125-6.328125h12.65625c3.489328 0 6.328125 2.8387969 6.328125 6.328125v25.734375c0 3.4893281-2.838797 6.328125-6.328125 6.328125h-12.65625c-3.489328 0-6.328125-2.8387969-6.328125-6.328125zm-121.078125 133.3125c-24.4252969 0-44.296875-19.871578-44.296875-44.296875 0-24.4252969 19.8715781-44.296875 44.296875-44.296875s44.296875 19.8715781 44.296875 44.296875c0 24.425297-19.8715781 44.296875-44.296875 44.296875zm121.078125 18.984375c0-3.489328 2.838797-6.328125 6.328125-6.328125h12.65625c3.489328 0 6.328125 2.838797 6.328125 6.328125v25.3125c0 3.595641-2.956922 6.75-6.328125 6.75h-12.65625c-3.371203 0-6.328125-3.154359-6.328125-6.75zm0-75.9375c0-3.4893281 2.838797-6.328125 6.328125-6.328125h12.65625c3.489328 0 6.328125 2.8387969 6.328125 6.328125v25.3125c0 3.489328-2.838797 6.328125-6.328125 6.328125h-12.65625c-3.489328 0-6.328125-2.838797-6.328125-6.328125z"/><path d="m86.7400313 90.8693438c-2.4709219-2.4717657-6.4778907-2.4717657-8.9488126 0l-27.1662187 27.1657972-14.5099687-14.509547c-2.4709219-2.471344-6.4778907-2.471344-8.9492344 0-2.4713438 2.471344-2.4713438 6.47789 0 8.949234l18.984375 18.984375c2.4709219 2.471344 6.4783125 2.471344 8.9492344 0l31.640625-31.6406249c2.4713437-2.4713437 2.4713437-6.4778906 0-8.9492343z"/></g></g></svg>