<svg height="294" viewBox="0 0 480 294" width="480" xmlns="http://www.w3.org/2000/svg"><g fill="#7a2eb8"><path d="m237.199072 293.914732c-1.583729 0-3.159864-.414373-4.545085-1.216l-14.470508-8.561898c-2.159728-1.208407-1.104271-1.636881-.392678-1.885288 2.883255-1.000136 3.465763-1.231186 6.543187-2.976542.32-.180068.74522-.111729 1.076067.08244l11.116475 6.600678c.40244.223458.971932.223458 1.34183 0l43.339931-25.015321c.402441-.229966.661695-.694238.661695-1.17261v-50.015457c0-.48922-.259254-.945898-.672542-1.194305l-43.321491-24.993626c-.400271-.233221-.931796-.233221-1.335322 0l-43.310643 25.001219c-.420881.240814-.687728.711594-.687728 1.186712v50.015457c0 .478372.266847.931796.684474 1.158508l11.871457 6.859932c6.442305 3.22061 10.386441-.572746 10.386441-4.383457v-49.381965c0-.698577.560813-1.248543 1.25939-1.248543h5.495322c.687728 0 1.256135.549966 1.256135 1.248543v49.381965c0 8.596609-4.681762 13.526779-12.833627 13.526779-2.504678 0-4.476745 0-9.982915-2.712949l-11.363796-6.542102c-2.807322-1.622779-4.546169-4.656813-4.546169-7.906711v-50.015457c0-3.248813 1.738847-6.282847 4.546169-7.899118l43.338846-25.043525c2.742238-1.551186 6.388068-1.551186 9.10861 0l43.335592 25.043525c2.807322 1.622779 4.552678 4.650305 4.552678 7.899118v50.015457c0 3.249898-1.745356 6.271999-4.552678 7.906711l-43.335592 25.02183c-1.386305.801627-2.958101 1.216-4.563525 1.216z"/><path d="m250.586245 259.456916c-18.96461 0-22.938034-8.705085-22.938034-16.006508 0-.695322.55756-1.249627 1.252882-1.249627h5.602711c.625899 0 1.147661.450169 1.245288 1.061966.846102 5.703593 3.368136 8.582508 14.837153 8.582508 9.130304 0 13.016948-2.065356 13.016948-6.908745 0-2.793221-1.102101-4.86617-15.290575-6.254644-11.858441-1.173695-19.192407-3.793356-19.192407-13.279458 0-8.74522 7.369763-13.959592 19.728271-13.959592 13.883661 0 20.753355 4.81844 21.624406 15.158236.032543.355797-.093288.697492-.330847.964339-.23756.248407-.568407.399187-.917695.399187h-5.624407c-.583593 0-1.098847-.414373-1.217085-.978441-1.349423-6.002983-4.631864-7.920813-13.534372-7.920813-9.968813 0-11.127322 3.472271-11.127322 6.074576 0 3.152271 1.36678 4.069966 14.826305 5.851118 13.318508 1.760543 19.64583 4.253288 19.64583 13.614644 0 9.442712-7.874169 14.851254-21.60705 14.851254z"/><path d="m102.992269 98.233001-.090034 71.203795c0 .990373-.53261 1.911322-1.378712 2.397288-.848271.510916-1.917831.510916-2.77478 0l-27.299796-15.636609c-1.716067-1.014238-2.781288-2.835526-2.781288-4.815187v-33.265897c0-1.982915-1.054373-3.81939-2.774779-4.804339l-11.6241356-6.69722c-.8417627-.501153-1.8136949-.745221-2.7595931-.745221-.968678 0-1.9145763.244068-2.7823729.745221l-11.6273895 6.69722c-1.7204067.984949-2.7704406 2.821424-2.7704406 4.804339v33.265897c0 1.979661-1.0511186 3.789017-2.7780338 4.815187l-27.3073892 15.636609c-.8493559.510916-1.9037287.510916-2.7563389 0-.8721356-.485966-1.386305-1.406915-1.386305-2.397288l-.1008814-71.203795c0-1.997017 1.0652203-3.832406 2.7780338-4.822779l45.9487446-26.442847c.7886102-.456678 1.659661-.695322 2.5372203-.731119h.4751187c.8818982.035797 1.7529491.274441 2.529627.731119l45.9487446 26.442847c1.723661.990373 2.77478 2.825762 2.77478 4.822779zm221.08973-97.881923 27.352948 15.263458c1.758373.98061 2.847458 2.83661 2.847458 4.847728v132.281489c0 1.984-1.058712 3.81505-2.77478 4.808677l-45.972609 26.548068c-1.718237.991457-3.834576.991457-5.552813 0l-45.963931-26.548068c-1.717153-.993627-2.77478-2.824677-2.77478-4.808677v-53.065762c0-1.982915 1.057627-3.815051 2.775864-4.806508l45.967186-26.527457c1.716067-.990373 3.828067-.991458 5.54522-.00217l11.509152 6.629966c.600949.348204 1.341831.348204 1.94278 0 .598779-.347118.969762-.989288.969762-1.681356v-70.516066c0-.983864.521763-1.893966 1.36895-2.392949.849355-.497898 1.899389-.508745 2.759593-.030373zm-4.265221 134.957556v-18.223728c0-.494644-.264678-.953492-.693152-1.201898l-15.781966-9.116203c-.429559-.248407-.958915-.248407-1.388474 0l-15.781966 9.116203c-.429559.248406-.693153.707254-.693153 1.201898v18.223728c0 .494644.263594.953492.694238 1.199729l15.781965 9.097763c.428475.246237.957831.246237 1.385221 0l15.78305-9.097763c.429559-.246237.694237-.705085.694237-1.199729zm157.326424-18.700691-27.523254 15.99783c-.858034.498983-1.91783.502238-2.778034.005424-.860203-.494644-1.390644-1.412339-1.390644-2.405966v-13.080949c0-.991457-.529356-1.909152-1.389559-2.403796l-14.398915-8.29722c-.855864-.494644-1.913491-.494644-2.770441 0l-14.391321 8.29722c-.860204.494644-1.388475 1.412339-1.388475 2.403796v16.625898c0 .993627.530441 1.913492 1.393898 2.408136l46.241626 26.540474c.867797.497898 1.400407 1.424271 1.392814 2.425491-.005424 1.000136-.551051 1.92-1.426441 2.407051l-27.62088 15.352406c-1.694373.94156-3.758644.930712-5.44217-.030373l-45.664541-26.02088c-1.732339-.986034-2.804068-2.826848-2.804068-4.821695v-53.052745c0-1.982915 1.058712-3.81505 2.77478-4.806508l45.950914-26.527457c1.721492-.993627 3.843254-.991457 5.561491.007593l45.67105 26.51661c1.711729.993627 2.763932 2.823593 2.763932 4.801084v12.859661c0 1.977492-1.052203 3.805288-2.761762 4.798915zm-49.131497-2.484935c.329762-.190915.735457-.190915 1.06522 0l8.820067 5.088542c.329763.190915.532611.541288.532611.923119v10.184677c0 .380746-.202848.732204-.532611.923119l-8.820067 5.088542c-.329763.189831-.735458.189831-1.06522 0l-8.81356-5.088542c-.328678-.190915-.53261-.542373-.53261-.923119v-10.184677c0-.381831.203932-.732204.53261-.923119zm-248.120654-46.221661 45.575137 26.319606c.851716.490266 1.539685 1.191559 2.014803 2.014488.475661.823869.738472 1.769375.737739 2.753055l.011303 52.638424c.001498 1.968153-1.048491 3.785587-2.753534 4.769994l-45.604955 26.330033c-1.704103.983864-3.802102.983922-5.50716.000572l-45.598807-26.317213c-1.704661-.984832-2.754695-2.803544-2.754712-4.771301l.01291-52.639877c.001465-1.967359 1.050515-3.784251 2.754618-4.768115l45.606834-26.331118c1.703164-.983322 3.802102-.983922 5.505824.001452z"/></g></svg>