<svg id="Layer_1" enable-background="new 0 0 128 128" height="512" viewBox="0 0 128 128" width="512" xmlns="http://www.w3.org/2000/svg"><path d="m123.395 92.72h-8.995v-51.689c0-5.424-4.413-9.837-9.838-9.837h-46.434c-2.416-2.344-5.704-3.792-9.336-3.792h-4.922c-3.631 0-6.92 1.449-9.336 3.792h-7.095c-5.425 0-9.839 4.413-9.839 9.837v51.689h-8.995c-.552 0-1 .448-1 1v3.933c0 3.83 3.116 6.945 6.946 6.945h102.899c3.83 0 6.945-3.116 6.945-6.945v-3.933c0-.552-.448-1-1-1z" fill="#e6e7e8"/><path d="m14.599 89.72v-52.689c0-4.88 3.958-8.837 8.84-8.837h77.123c4.881 0 8.838 3.958 8.838 8.837v52.689z" fill="#6dc9f7"/><path d="m100.563 28.194h-77.124c-4.882 0-8.84 3.958-8.84 8.837v3c0-4.88 3.958-8.837 8.84-8.837h77.123c4.881 0 8.838 3.958 8.838 8.837v-3c.001-4.88-3.956-8.837-8.837-8.837z" fill="#fff"/><path d="m21.628 37.031h80.745v52.689h-80.745z" fill="#d4fbff"/><path d="m68.073 44.568h30.128v22.584h-30.128z" fill="#fa759e"/><path d="m61.925 82.524c.384 0 .752.059 1.109.145v-5.995c0-9.444-7.656-17.1-17.1-17.1h-.598c-.967.224-1.97.354-3.005.354-1.035 0-2.038-.13-3.005-.354h-.598c-9.444 0-17.1 7.656-17.1 17.1v13.046h36.309c-.451-.723-.723-1.57-.723-2.484-.001-2.603 2.109-4.712 4.711-4.712z" fill="#ffd7e5"/><path d="m45.336 59.574c-.967.224-1.97.354-3.005.354-1.035 0-2.038-.13-3.005-.354h-.598c-.379 0-.75.03-1.122.057v.001l3.346 5.82h2.772l.083-.124 3.271-5.696h.003c-.38-.028-.759-.058-1.146-.058z" fill="#fff"/><path d="m34.532 60.114 1.899 9.759 4.519-4.421-3.346-5.821c-1.053.069-2.079.232-3.072.483z" fill="#ffd7e5"/><path d="m47.078 59.632-3.343 5.82 4.519 4.421 1.896-9.754c-.993-.252-2.018-.417-3.072-.487z" fill="#ffd7e5"/><path d="m56.416 43.627c-.278 0-.542.082-.782.228v2.771c0 .759-.067 1.501-.189 2.225.288.231.616.373.971.373 1.095 0 1.982-1.253 1.982-2.799s-.888-2.798-1.982-2.798z" fill="#fff"/><path d="m29.028 46.626v-2.771c-.24-.146-.504-.228-.783-.228-1.095 0-1.982 1.253-1.982 2.799s.887 2.799 1.982 2.799c.355 0 .683-.142.971-.373-.121-.725-.188-1.468-.188-2.226z" fill="#fff"/><path d="m45.356 38.947c-5.412-1.639-8.246-4.799-8.246-4.799s-1.196 2.321-3.309 3.573-4.773 1.643-4.773 1.643v4.49 2.771c0 7.347 5.956 13.302 13.302 13.302 7.347 0 13.302-5.956 13.302-13.302v-2.771-3.76c.001.001-5.531.29-10.276-1.147z" fill="#fff"/><path d="m43.723 71.642h-2.784l-1.474-3.832 1.474-2.358h2.784l1.474 2.358z" fill="#fa759e"/><path d="m45.197 89.72h-5.732l1.474-18.078h2.784z" fill="#fa759e"/><path d="m65.913 89.72c.451-.723.723-1.57.723-2.484 0-2.602-2.109-4.712-4.712-4.712-2.602 0-4.712 2.109-4.712 4.712 0 .915.272 1.762.723 2.484z" fill="#fff"/><path d="m119.395 89.72v3.933c0 3.283-2.662 5.945-5.945 5.945h-102.899c-3.284 0-5.946-2.662-5.946-5.945v-3.933z" fill="#fa759e"/><g fill="#3a2c60"><path d="m36.462 43.433c-.735 0-1.33.596-1.33 1.33 0 .735.596 1.33 1.33 1.33s1.33-.596 1.33-1.33-.595-1.33-1.33-1.33z"/><path d="m48.199 43.433c-.735 0-1.33.596-1.33 1.33 0 .735.596 1.33 1.33 1.33.735 0 1.33-.596 1.33-1.33.001-.734-.595-1.33-1.33-1.33z"/><path d="m42.331 51.685c1.386 0 2.513-1.127 2.513-2.513v-.887c0-.552-.448-1-1-1s-1 .448-1 1v.887c0 .283-.23.513-.513.513s-.513-.23-.513-.513v-.887c0-.552-.448-1-1-1s-1 .448-1 1v.887c0 1.385 1.127 2.513 2.513 2.513z"/><path d="m50.065 41.076-2.605-.454c-.548-.092-1.062.27-1.157.813-.095.544.27 1.062.813 1.157l2.605.454c.058.01.116.015.173.015.477 0 .899-.342.984-.828.095-.544-.269-1.061-.813-1.157z"/><path d="m37.201 40.622-2.605.454c-.544.095-.908.613-.813 1.157.085.486.507.828.984.828.057 0 .115-.005.173-.015l2.605-.454c.544-.095.908-.613.813-1.157-.094-.543-.606-.905-1.157-.813z"/><path d="m44.488 52.187c-.032.04-.789.974-2.157.974-1.386 0-2.1-.9-2.143-.956-.325-.44-.945-.538-1.39-.217-.448.323-.549.948-.226 1.396.052.073 1.31 1.777 3.758 1.777 2.386 0 3.69-1.686 3.745-1.758.331-.437.245-1.054-.188-1.39-.432-.336-1.058-.255-1.399.174z"/><path d="m119.395 88.72h-8.995v-51.689c0-5.424-4.413-9.837-9.838-9.837h-46.434c-2.416-2.344-5.704-3.792-9.336-3.792h-4.922c-3.631 0-6.92 1.449-9.336 3.792h-7.095c-5.425 0-9.839 4.413-9.839 9.837v51.689h-8.995c-.552 0-1 .448-1 1v3.933c0 3.83 3.116 6.945 6.946 6.945h102.899c3.83 0 6.945-3.116 6.945-6.945v-3.933c0-.552-.448-1-1-1zm-62.725-24.009c-2.849 1.76-4.624 4.878-4.624 8.299v15.71h-5.927l-1.38-16.931 1.105-2.875 1.712 1.675c.189.186.442.285.699.285.1 0 .2-.015.297-.045.352-.109.614-.403.684-.764l1.689-8.689c2.152.704 4.097 1.854 5.745 3.335zm8.638 24.009h-6.765c-.205-.455-.329-.953-.329-1.484 0-2.047 1.665-3.712 3.711-3.712 2.047 0 3.712 1.665 3.712 3.712 0 .531-.125 1.029-.329 1.484zm-3.274-7.191c-.037-.001-.072-.005-.109-.005-3.149 0-5.711 2.562-5.711 5.712 0 .515.078 1.01.208 1.484h-2.376v-15.71c0-2.876 1.59-5.468 4.087-6.813 2.425 2.819 3.902 6.476 3.902 10.478v4.854zm-29.418 7.191v-15.71c0-3.421-1.776-6.539-4.624-8.299 1.653-1.485 3.606-2.639 5.766-3.342l1.692 8.697c.07.361.333.654.684.764.098.031.198.045.297.045.257 0 .51-.1.699-.285l1.694-1.658 1.099 2.858-1.38 16.931h-5.927zm-9.989 0v-12.046c0-4.002 1.477-7.659 3.902-10.478 2.497 1.345 4.087 3.937 4.087 6.813v15.71h-7.989zm14.431-20.859-1.358-6.981c.448-.085.9-.152 1.354-.199l2.644 4.598zm3.519.056.916-1.465h1.676l.916 1.465-1.048 2.725h-1.41zm4.411-2.638 2.64-4.596c.455.047.907.115 1.356.201l-1.356 6.977zm-1.832-.827h-1.626l-2.213-3.85c.973.21 1.98.326 3.014.326 1.044 0 2.06-.119 3.041-.333zm-1.296 8.19h.94l1.311 16.078h-3.561zm.471-13.714c-6.23 0-11.38-4.659-12.182-10.673-.022-.167-.048-.334-.064-.501-.034-.372-.057-.747-.057-1.128v-2.771-3.665c1.017-.226 2.765-.709 4.283-1.608 1.368-.811 2.381-2.001 2.996-2.868 1.292 1.119 3.898 3.021 7.759 4.19 3.658 1.108 7.693 1.233 9.566 1.215v2.735 2.771c0 .382-.023.759-.057 1.132-.015.16-.04.321-.061.481-.794 6.023-5.948 10.69-12.183 10.69zm-14.214-10.724c-.419-.128-.854-.86-.854-1.779 0-.854.375-1.546.765-1.742v1.943c0 .523.032 1.037.087 1.546.002.01.001.021.002.032zm28.429-.033c.055-.508.087-1.023.087-1.546v-1.943c.39.196.765.889.765 1.742 0 .918-.434 1.65-.854 1.779.001-.01.001-.021.002-.032zm-40.946-11.14c0-4.322 3.517-7.837 7.839-7.837h5.397c-1.499 2.166-2.383 4.79-2.383 7.624v6.568c-.723.687-1.19 1.777-1.19 3.039 0 2.13 1.31 3.799 2.982 3.799.085 0 .169-.014.253-.023.962 3.715 3.375 6.844 6.604 8.746-.232.047-.456.116-.685.172-.043.011-.088.016-.132.027-.011.003-.019.011-.03.014-3.321.848-6.273 2.61-8.576 5.009-.063.049-.116.105-.167.169-3.024 3.235-4.886 7.568-4.886 12.336v12.046h-5.026zm102.795 56.622c0 2.727-2.218 4.945-4.945 4.945h-102.899c-2.728 0-4.946-2.218-4.946-4.945v-2.933h73.038c.552 0 1-.448 1-1s-.448-1-1-1h-11.214c.13-.474.208-.969.208-1.484 0-1.839-.877-3.473-2.231-4.519l6.259-14.565h26.536c.552 0 1-.448 1-1v-22.584c0-.552-.448-1-1-1h-30.128c-.552 0-1 .448-1 1v22.583c0 .552.448 1 1 1h1.414l-5.453 12.691v-4.168c0-4.768-1.862-9.101-4.886-12.336-.051-.064-.104-.121-.167-.169-2.297-2.394-5.241-4.152-8.552-5.003-.012-.003-.02-.012-.032-.015-.047-.012-.095-.018-.142-.029-.233-.057-.461-.127-.698-.175 3.23-1.902 5.643-5.03 6.604-8.746.084.009.168.023.253.023 1.672 0 2.982-1.668 2.982-3.799 0-1.262-.467-2.352-1.19-3.039v-6.568c0-2.834-.884-5.458-2.383-7.624h44.737c4.322 0 7.838 3.516 7.838 7.837v51.689h-10.958c-.552 0-1 .448-1 1s.448 1 1 1h20.955zm-44.104-34.148c-.508-.217-1.095.017-1.314.524l-2.631 6.123h-1.273v-20.584h28.127v20.583h-24.676l2.291-5.333c.218-.507-.017-1.095-.524-1.313z"/><path d="m91.961 88.72h-7.324c-.552 0-1 .448-1 1s.448 1 1 1h7.324c.552 0 1-.448 1-1s-.448-1-1-1z"/><path d="m73.367 50.289h19.631c.552 0 1-.448 1-1s-.448-1-1-1h-19.631c-.552 0-1 .448-1 1s.447 1 1 1z"/><path d="m93.998 55.86c0-.552-.448-1-1-1h-19.631c-.552 0-1 .448-1 1s.448 1 1 1h19.631c.552 0 1-.448 1-1z"/><path d="m92.998 61.431h-13.355c-.552 0-1 .448-1 1s.448 1 1 1h13.354c.552 0 1-.448 1-1s-.447-1-.999-1z"/></g></svg>