<svg id="Layer_35" enable-background="new 0 0 64 64" height="64px" fill="#7a2eb8" viewBox="0 0 64 64" width="64px" xmlns="http://www.w3.org/2000/svg"><path d="m58.339 34.495c.476.318 1.047.505 1.661.505 1.654 0 3-1.346 3-3 0-1.537-1.166-2.793-2.658-2.965l-1.311-5.681-1.668 1.668 1.028 4.455c-.834.533-1.391 1.462-1.391 2.523 0 .311.061.606.15.888l-3.488 2.616c-.477-.317-1.048-.504-1.662-.504-.807 0-1.537.324-2.077.844l-2.96-1.48c.015-.121.037-.24.037-.364 0-1.654-1.346-3-3-3s-3 1.346-3 3c0 .462.113.894.301 1.285l-4.015 4.015c-.392-.187-.824-.3-1.286-.3-1.654 0-3 1.346-3 3s1.346 3 3 3 3-1.346 3-3c0-.462-.113-.894-.301-1.285l4.015-4.015c.392.187.824.3 1.286.3.807 0 1.537-.324 2.077-.844l2.96 1.48c-.015.121-.037.24-.037.364 0 1.654 1.346 3 3 3s3-1.346 3-3c0-.311-.061-.606-.149-.888z"/><path d="m13.735 45.013-.707 10.6.972.973.972-.972-.707-10.6c-.089-.003-.176-.014-.265-.014s-.176.011-.265.013z"/><circle cx="14" cy="37" r="6"/><path d="m16.285 45.242.743 11.144-3.028 3.028-3.028-3.028.743-11.144c-4.972 1.055-8.715 5.476-8.715 10.758v5h3v-8h2v8h12v-8h2v8h3v-5c0-5.282-3.743-9.703-8.715-10.758z"/><path d="m50 19c2.757 0 5-2.243 5-5s-2.243-5-5-5-5 2.243-5 5 2.243 5 5 5zm0-8c1.654 0 3 1.346 3 3s-1.346 3-3 3-3-1.346-3-3 1.346-3 3-3z"/><circle cx="50" cy="14" r="1"/><path d="m41.948 18.049-1.296 2.16 3.139 3.138 2.159-1.296 1.22.503.611 2.446h4.438l.611-2.446 1.22-.503 2.159 1.296 3.139-3.138-1.296-2.16.465-1.142.534-.202 1.949-.486v-4.438l-2.452-.612-.496-1.22 1.296-2.158-3.139-3.138-2.159 1.296-1.22-.503-.611-2.446h-4.438l-.611 2.446-1.22.503-2.159-1.296-3.139 3.138 1.296 2.158-.464 1.142-.535.203-1.949.487v4.438l2.452.612zm8.052-11.049c3.859 0 7 3.14 7 7s-3.141 7-7 7-7-3.14-7-7 3.141-7 7-7z"/><path d="m33 47h6v16h-6z"/><path d="m41 39h6v24h-6z"/><path d="m49 43h6v20h-6z"/><path d="m57 37h6v26h-6z"/><path d="m10 27h25v-11c0-3.86-3.141-7-7-7h-18c-3.859 0-7 3.14-7 7v4c0 3.86 3.141 7 7 7zm5-14h16v2h-16zm-4 0h2v2h-2zm-4 0h2v2h-2zm0 4h24v2h-24zm0 4h24v2h-24z"/></svg>