<svg id="Capa_1" enable-background="new 0 0 512 512" height="512" fill="#7a2eb8" viewBox="0 0 512 512" width="512" xmlns="http://www.w3.org/2000/svg"><path d="m194.583 116.673c10.997-5.755 22.912-8.673 35.417-8.673h52c42.182 0 76.5 34.318 76.5 76.5v52c0 12.407-10.093 22.5-22.5 22.5h-15.945c-4.142 0-7.5 3.358-7.5 7.5s3.358 7.5 7.5 7.5h15.945c20.678 0 37.5-16.822 37.5-37.5v-52c0-50.453-41.047-91.5-91.5-91.5h-18.5v-33.949c12.925-3.339 22.5-15.098 22.5-29.051 0-16.542-13.458-30-30-30s-30 13.458-30 30c0 13.953 9.575 25.712 22.5 29.051v33.949h-18.5c-14.741 0-29.393 3.59-42.372 10.383-3.67 1.92-5.088 6.453-3.167 10.123 1.92 3.67 6.453 5.088 10.122 3.167zm46.417-86.673c0-8.271 6.729-15 15-15s15 6.729 15 15-6.729 15-15 15-15-6.729-15-15z"/><path d="m196 197h120c12.407 0 22.5-10.093 22.5-22.5s-10.093-22.5-22.5-22.5h-120c-12.407 0-22.5 10.093-22.5 22.5s10.093 22.5 22.5 22.5zm0-30h120c4.136 0 7.5 3.364 7.5 7.5s-3.364 7.5-7.5 7.5h-120c-4.136 0-7.5-3.364-7.5-7.5s3.364-7.5 7.5-7.5z"/><path d="m426.5 363v-34c0-9.649-7.851-17.5-17.5-17.5h-34c-8.451 0-15.522 6.022-17.148 14h-15.886c-2.66-13.935-14.937-24.5-29.634-24.5h-33.832v-27h9.741c4.142 0 7.5-3.358 7.5-7.5s-3.358-7.5-7.5-7.5h-112.241c-12.407 0-22.5-10.093-22.5-22.5v-52c0-18.25 6.531-35.922 18.391-49.758 2.696-3.145 2.332-7.88-.813-10.575-3.145-2.696-7.88-2.332-10.575.813-14.188 16.553-22.002 37.691-22.002 59.52v52c0 20.678 16.822 37.5 37.5 37.5h57.5v27h-33.832c-14.698 0-26.974 10.565-29.634 24.5h-15.886c-1.626-7.978-8.697-14-17.148-14h-34c-9.649 0-17.5 7.851-17.5 17.5v34c0 7.729 5.037 14.303 12 16.615v15.885h-.501c-6.341 0-11.5 5.159-11.5 11.5v62.718c0 3.7 1.756 6.996 4.479 9.101-.099.995-.148 2-.148 3.011 0 16.636 13.534 30.17 30.17 30.17s30.17-13.534 30.17-30.17c0-1.011-.05-2.016-.148-3.011 2.722-2.105 4.479-5.401 4.479-9.101v-62.718c0-6.341-5.159-11.5-11.5-11.5h-.5v-15.885c4.547-1.509 8.272-4.836 10.31-9.115h16.69v55.188c0 47.593 38.719 86.312 86.312 86.312h.376c17.919 0 35.106-5.442 49.701-15.738 3.385-2.388 4.193-7.067 1.805-10.452s-7.067-4.193-10.452-1.805c-12.053 8.501-26.249 12.995-41.056 12.995h-.376c-39.322 0-71.312-31.99-71.312-71.312v-94.52c0-8.364 6.805-15.168 15.168-15.168h112.663c8.364 0 15.168 6.805 15.168 15.168v94.52c0 13.093-3.577 25.892-10.344 37.012-2.153 3.538-1.03 8.152 2.508 10.306 3.541 2.154 8.154 1.03 10.306-2.508 8.197-13.471 12.529-28.966 12.529-44.81v-55.188h16.69c2.038 4.279 5.763 7.605 10.31 9.115v15.885h-.498c-6.341 0-11.5 5.159-11.5 11.5v62.718c0 3.7 1.756 6.996 4.479 9.101-.099.995-.148 2-.148 3.011 0 16.636 13.534 30.17 30.17 30.17s30.17-13.534 30.17-30.17c0-1.011-.05-2.016-.148-3.011 2.722-2.105 4.479-5.401 4.479-9.101v-62.718c0-6.341-5.159-11.5-11.5-11.5h-.5v-15.885c6.961-2.312 11.998-8.886 11.998-16.615zm-326-34c0-1.378 1.122-2.5 2.5-2.5h34c1.378 0 2.5 1.122 2.5 2.5v34c0 1.378-1.122 2.5-2.5 2.5h-34c-1.378 0-2.5-1.122-2.5-2.5zm39 81.5v55.718h-39v-55.718zm-19.5 86.5c-8.365 0-15.17-6.805-15.17-15.17 0-.205.005-.409.013-.612h30.314c.008.203.013.407.013.612 0 8.365-6.805 15.17-15.17 15.17zm-7.5-101.5v-15h15v15zm42-40v-15h15v15zm94-54.5v-27h15v27zm124 28c0-1.378 1.122-2.5 2.5-2.5h34c1.378 0 2.5 1.122 2.5 2.5v34c0 1.378-1.122 2.5-2.5 2.5h-34c-1.378 0-2.5-1.122-2.5-2.5zm-30 11.5h15v15h-15zm69 70v55.718h-39v-55.718zm-19.5 86.5c-8.365 0-15.17-6.805-15.17-15.17 0-.205.005-.409.013-.612h30.314c.008.203.013.407.013.612 0 8.365-6.805 15.17-15.17 15.17zm-7.5-101.5v-15h15v15z"/><path d="m228.306 336.5c-13.678 0-24.806 11.128-24.806 24.806v55.388c0 13.678 11.128 24.806 24.806 24.806h55.388c13.678 0 24.806-11.128 24.806-24.806v-55.388c0-13.678-11.128-24.806-24.806-24.806zm65.194 24.806v55.388c0 5.407-4.399 9.806-9.806 9.806h-55.388c-5.407 0-9.806-4.399-9.806-9.806v-55.388c0-5.407 4.399-9.806 9.806-9.806h55.388c5.407 0 9.806 4.399 9.806 9.806z"/><path d="m271.742 362.518-42.091 42.091c-2.929 2.929-2.929 7.678 0 10.606 2.929 2.929 7.678 2.929 10.606 0l42.091-42.091c2.929-2.929 2.929-7.678 0-10.606-2.928-2.929-7.677-2.929-10.606 0z"/><path d="m238.537 385.097c4.142 0 7.5-3.358 7.5-7.5v-9.864c0-4.142-3.358-7.5-7.5-7.5s-7.5 3.358-7.5 7.5v9.864c0 4.142 3.358 7.5 7.5 7.5z"/><path d="m273.463 392.636c-4.142 0-7.5 3.358-7.5 7.5v9.864c0 4.142 3.358 7.5 7.5 7.5s7.5-3.358 7.5-7.5v-9.864c0-4.142-3.358-7.5-7.5-7.5z"/></svg>