<svg xmlns="http://www.w3.org/2000/svg" width="661.44" height="404.11" viewBox="0 0 661.44 404.11" aria-hidden="true">
    <defs>
        <clipPath id="Asset_4_svg__a">
            <path fill="none" d="M67 65.54H287.8V104.71000000000001H67z" />
        </clipPath>
        <clipPath id="Asset_4_svg__b">
            <path fill="none" d="M67 101.86H126.83V104.71H67z" />
        </clipPath>
        <clipPath id="Asset_4_svg__c">
            <path fill="none" d="M67 104.71H108.31V365.03999999999996H67z" />
        </clipPath>
        <clipPath id="Asset_4_svg__d">
            <path d="M89.13,133.71v-.51a.21.21,0,0,1,.21-.21h.08a5.12,5.12,0,0,0,.7-.05,1.51,1.51,0,0,0,.57-.22,1.25,1.25,0,0,0,.38-.48,2.09,2.09,0,0,0,.14-.82v-4.94a.21.21,0,0,0-.2-.21h-6.7a.22.22,0,0,0-.21.21v4.94a1.91,1.91,0,0,0,.15.82,1.09,1.09,0,0,0,.38.48,1.45,1.45,0,0,0,.57.22,3.91,3.91,0,0,0,.7.05H86a.22.22,0,0,1,.21.21v.51a.21.21,0,0,1-.21.2H80a.21.21,0,0,1-.21-.2v-.51A.22.22,0,0,1,80,133h.07a3.91,3.91,0,0,0,.7-.05,1.45,1.45,0,0,0,.57-.22,1.18,1.18,0,0,0,.39-.48,2.1,2.1,0,0,0,.13-.82V120.65a1.86,1.86,0,0,0-.14-.77,1.18,1.18,0,0,0-.39-.46,1.61,1.61,0,0,0-.57-.21,5.09,5.09,0,0,0-.69,0H80a.21.21,0,0,1-.21-.2v-.51a.22.22,0,0,1,.21-.21h6a.22.22,0,0,1,.21.21V119a.21.21,0,0,1-.21.2H85.9a4,4,0,0,0-.7.06,1.31,1.31,0,0,0-.57.22,1.09,1.09,0,0,0-.38.48,1.88,1.88,0,0,0-.15.82V125a.22.22,0,0,0,.21.21H91a.21.21,0,0,0,.2-.21v-4.23a2.05,2.05,0,0,0-.14-.82,1.18,1.18,0,0,0-.39-.48,1.27,1.27,0,0,0-.56-.22,3.88,3.88,0,0,0-.7-.06h-.08a.2.2,0,0,1-.21-.2v-.51a.21.21,0,0,1,.21-.21h6a.21.21,0,0,1,.2.21V119a.2.2,0,0,1-.2.2h-.07a3.8,3.8,0,0,0-.7.06,1.31,1.31,0,0,0-.57.22,1,1,0,0,0-.39.48,2.05,2.05,0,0,0-.14.82v10.78a1.72,1.72,0,0,0,.15.78.92.92,0,0,0,.38.44,1.38,1.38,0,0,0,.58.2,3.73,3.73,0,0,0,.69.05h.07a.21.21,0,0,1,.2.21v.51a.2.2,0,0,1-.2.2h-6a.2.2,0,0,1-.21-.2" fill="none" clip-rule="evenodd" />
        </clipPath>
        <clipPath id="Asset_4_svg__e">
            <path fill="none" d="M81.25 336.61H96.88V351.03000000000003H81.25z" />
        </clipPath>
        <clipPath id="Asset_4_svg__f">
            <path fill="none" d="M80.54 336.19H96.92V351.15H80.54z" />
        </clipPath>
        <clipPath id="Asset_4_svg__g">
            <path d="M84.24,336.61c0,.37,0,.71,0,1.05a1.64,1.64,0,0,0,0,.44,1.2,1.2,0,0,0,1.29.91,1.23,1.23,0,0,0,1.09-1.2v-1.19h4.79v.2c0,.37,0,.74,0,1.1A1.19,1.19,0,0,0,92.74,339a1.22,1.22,0,0,0,1.14-1.25c0-.31,0-.63,0-.94v-.2h1.28a1.71,1.71,0,0,1,1.61,1.19,2.24,2.24,0,0,1,.1.63c0,3.58,0,7.17,0,10.75A1.77,1.77,0,0,1,95,351h-12a1.78,1.78,0,0,1-1.84-1.84c0-3.56,0-7.11,0-10.66a1.8,1.8,0,0,1,1.82-1.92Zm-1.8,4.21V349a1.51,1.51,0,0,0,0,.3.52.52,0,0,0,.5.5,1.37,1.37,0,0,0,.29,0H94.88a1.83,1.83,0,0,0,.33,0,.55.55,0,0,0,.46-.46c0-.1,0-.21,0-.31v-8.23Z" fill="none" clip-rule="evenodd" />
        </clipPath>
        <clipPath id="Asset_4_svg__h">
            <path fill="none" d="M81.25 336.19H96.92V351.15H81.25z" />
        </clipPath>
        <clipPath id="Asset_4_svg__i">
            <path d="M84.86,337v-.9a.57.57,0,0,1,.6-.61.56.56,0,0,1,.59.59c0,.6,0,1.21,0,1.82a.55.55,0,0,1-.61.58.56.56,0,0,1-.58-.6V337" fill="none" clip-rule="evenodd" />
        </clipPath>
        <clipPath id="Asset_4_svg__j">
            <path d="M93.26,337c0,.29,0,.59,0,.88a.59.59,0,1,1-1.18,0c0-.61,0-1.22,0-1.82a.59.59,0,1,1,1.18,0q0,.45,0,.9" fill="none" clip-rule="evenodd" />
        </clipPath>
        <clipPath id="Asset_4_svg__k">
            <path d="M93.16,345.34a3.71,3.71,0,0,1-.43,1.78,1.72,1.72,0,0,1-3-.08,3.9,3.9,0,0,1-.13-3.24,1.66,1.66,0,0,1,1.64-1.12,1.79,1.79,0,0,1,1.68,1.23,3.88,3.88,0,0,1,.25,1.43m-1.18.14c0-.35,0-.61-.07-.86a1.47,1.47,0,0,0-.27-.78.49.49,0,0,0-.82,0,1.23,1.23,0,0,0-.19.44,4.54,4.54,0,0,0,0,1.94,1.89,1.89,0,0,0,.24.65.47.47,0,0,0,.83,0,1.07,1.07,0,0,0,.19-.42c.07-.36.1-.73.14-1" fill="none" clip-rule="evenodd" />
        </clipPath>
        <clipPath id="Asset_4_svg__l">
            <path d="M87.73,348h-1c-.12,0-.11-.08-.11-.16v-3.94l-1,.48c-.06-.3-.12-.59-.19-.88a10.36,10.36,0,0,1,1.29-.57,3.54,3.54,0,0,1,1,0Z" fill="none" clip-rule="evenodd" />
        </clipPath>
        <clipPath id="Asset_4_svg__m">
            <path d="M87.66,161.69a7.84,7.84,0,1,0,7.83,7.84,7.85,7.85,0,0,0-7.83-7.84m5.27,12.42a2.16,2.16,0,0,0-.88-.92c-.51-.29-1-.5-1.59-.74a3.39,3.39,0,0,1-1.08-.61,1,1,0,0,1-.29-.48,7.51,7.51,0,0,1,0-1.06.17.17,0,0,1,0-.12,2.36,2.36,0,0,0,.56-1.14c0-.14,0-.28.23-.33s.12-.11.16-.17a1.33,1.33,0,0,0,.16-.78.62.62,0,0,0-.12-.29.24.24,0,0,1,0-.25,4.75,4.75,0,0,0,.2-2.12,1.43,1.43,0,0,0-1.2-1.3.28.28,0,0,1-.13-.09,1,1,0,0,0-.52-.33,3.18,3.18,0,0,0-1.47,0,2.2,2.2,0,0,0-1.25.63,2.39,2.39,0,0,0-.58,1.86,14.25,14.25,0,0,0,.2,1.42.27.27,0,0,1,0,.18,1,1,0,0,0,.17,1.28l.08,0a.35.35,0,0,1,.12.15,2.51,2.51,0,0,0,.6,1.26.21.21,0,0,1,0,.13c0,.31,0,.62,0,.92a.63.63,0,0,1-.2.5,3.94,3.94,0,0,1-.71.5c-.49.24-1,.42-1.51.65a3.07,3.07,0,0,0-1.29,1,2.09,2.09,0,0,0-.17.28,7,7,0,1,1,10.54,0" fill="none" clip-rule="evenodd" />
        </clipPath>
        <clipPath id="Asset_4_svg__n">
            <path fill="none" d="M79.82 207.99H95.42999999999999V220.13H79.82z" />
        </clipPath>
        <clipPath id="Asset_4_svg__o">
            <path fill="none" d="M79.82 207.99H95.49V220.81H79.82z" />
        </clipPath>
        <clipPath id="Asset_4_svg__p">
            <path d="M95,208.31l-.07-.05a1.23,1.23,0,0,0-.78-.27H81.1a1.23,1.23,0,0,0-.78.27l-.07.05a1.27,1.27,0,0,0-.43.95v9.6a1.25,1.25,0,0,0,.3.81l0,0a1.24,1.24,0,0,0,.94.42H94.16a1.27,1.27,0,0,0,1.28-1.27v-9.6A1.27,1.27,0,0,0,95,208.31Zm-4.8,4.85,4.39-3.9h0v9.35Zm-9.55,5.34v-9.24h0l4.44,4Zm.77-9.68h12.4l-6.2,5.52Zm-.34,10.47,4.63-5.53,1.63,1.45a.41.41,0,0,0,.56,0l1.68-1.49,4.49,5.57h-13Z" fill="none" clip-rule="evenodd" />
        </clipPath>
        <clipPath id="Asset_4_svg__q">
            <path fill="none" clip-rule="evenodd" d="M95.44 299.92L95.44 307.73 79.82 307.73 79.82 299.92 79.82 292.11 95.44 292.11 95.44 299.92z" />
        </clipPath>
        <clipPath id="Asset_4_svg__r">
            <path fill="none" d="M79.82 292.03H95.49V308.40999999999997H79.82z" />
        </clipPath>
        <clipPath id="Asset_4_svg__s">
            <path d="M94.16,307.72H81.1a1.27,1.27,0,0,1-1.28-1.27V293.38a1.27,1.27,0,0,1,1.28-1.27H94.16a1.27,1.27,0,0,1,1.28,1.27v13.07A1.27,1.27,0,0,1,94.16,307.72ZM81.1,292.94a.44.44,0,0,0-.44.44v13.07a.44.44,0,0,0,.44.44H94.16a.44.44,0,0,0,.44-.44V293.38a.44.44,0,0,0-.44-.44Z" fill="none" clip-rule="evenodd" />
        </clipPath>
        <clipPath id="Asset_4_svg__t">
            <path d="M87.23,298.52s0,0,0,0h-.42a.65.65,0,0,1-.62-.63v-2.59a.34.34,0,0,1,0-.1.64.64,0,0,1,.62-.56h.44v-.43h-.44a1.08,1.08,0,0,0-.75.33l-.1.11,0,0a1.08,1.08,0,0,0-.83-.41h-.43v.42h.43a.64.64,0,0,1,.64.63v.85h0v1.73a.37.37,0,0,1,0,.11.64.64,0,0,1-.61.56h-.42s0,0,0,0v.36s0,0,0,0h.45a1,1,0,0,0,.73-.31l.11-.12,0,0a1,1,0,0,0,.71.39c.18,0,.35,0,.53,0,0,0,0,0,0,0s0-.24,0-.36" fill="none" clip-rule="evenodd" />
        </clipPath>
        <clipPath id="Asset_4_svg__u">
            <path d="M81.9,297.93a.32.32,0,0,1-.14-.14.23.23,0,0,1,0-.2l.28-.67h0l.81-2v0h0v0h.28l0,0h.09v0h0v0l.81,2h0l.28.67a.23.23,0,0,1,0,.2.32.32,0,0,1-.14.14l-.1,0a.23.23,0,0,1-.24-.16l-.21-.51H82.45l-.21.51A.23.23,0,0,1,82,298h0Zm1.61-1.17-.42-1-.42,1Z" fill="none" clip-rule="evenodd" />
        </clipPath>
        <clipPath id="Asset_4_svg__v">
            <path fill="none" d="M117.94 235.61H297.43V278.35H117.94z" />
        </clipPath>
        <clipPath id="Asset_4_svg__w">
            <path fill="none" d="M76.63 235.61H117.94V278.35H76.63z" />
        </clipPath>
        <clipPath id="Asset_4_svg__x">
            <path fill="none" d="M89.45 253.66H105.06V262.71H89.45z" />
        </clipPath>
        <clipPath id="Asset_4_svg__y">
            <path fill="none" d="M88.74 253.41H105.11999999999999V263.38H88.74z" />
        </clipPath>
        <clipPath id="Asset_4_svg__z">
            <path d="M103.79,262.7H90.72a1.27,1.27,0,0,1-1.27-1.27v-6.5a1.27,1.27,0,0,1,1.27-1.27h13.07a1.27,1.27,0,0,1,1.28,1.27v6.5A1.27,1.27,0,0,1,103.79,262.7Zm-13.07-8.21a.44.44,0,0,0-.43.44v6.5a.44.44,0,0,0,.43.44h13.07a.44.44,0,0,0,.44-.44v-6.5a.44.44,0,0,0-.44-.44Z" fill="none" clip-rule="evenodd" />
        </clipPath>
        <clipPath id="Asset_4_svg__A">
            <path fill="none" d="M89.45 253.41H105.12V263.38H89.45z" />
        </clipPath>
        <clipPath id="Asset_4_svg__B">
            <path d="M91.26,259.49a.24.24,0,0,1-.14-.14.31.31,0,0,1,0-.19l.27-.64h0l.77-1.86v0h.29a.05.05,0,0,1,0,0h.11v0l.77,1.86h0l.26.64a.21.21,0,0,1,0,.19.23.23,0,0,1-.13.14l-.09,0a.23.23,0,0,1-.23-.16l-.2-.48H91.78l-.2.48a.24.24,0,0,1-.23.16h0Zm1.53-1.12-.4-1-.41,1Z" fill="none" clip-rule="evenodd" />
        </clipPath>
        <clipPath id="Asset_4_svg__C">
            <path d="M94.51,259.51a.25.25,0,0,1-.18-.08.22.22,0,0,1-.07-.17v-2.51a.24.24,0,0,1,.24-.24h.89a.92.92,0,0,1,.66.25.83.83,0,0,1,.27.62.83.83,0,0,0,.06,1.26.84.84,0,0,1-.28.62,1,1,0,0,1-.66.26Zm.24-1.75h.64a.49.49,0,0,0,.31-.11.39.39,0,0,0,.13-.28.34.34,0,0,0-.13-.27.48.48,0,0,0-.31-.1h-.64Zm0,1.25h.69a.49.49,0,0,0,.31-.11.35.35,0,0,0,.13-.27.34.34,0,0,0-.13-.27.46.46,0,0,0-.31-.1h-.69Z" fill="none" clip-rule="evenodd" />
        </clipPath>
        <clipPath id="Asset_4_svg__D">
            <path d="M98.37,259.51a1.44,1.44,0,0,1-1.06-.44,1.47,1.47,0,0,1-.44-1.06,1.5,1.5,0,0,1,2.41-1.19.27.27,0,0,1,.1.16.32.32,0,0,1,0,.19.28.28,0,0,1-.17.09.23.23,0,0,1-.18-.05,1,1,0,0,0-.61-.2,1,1,0,0,0-1,1,1,1,0,0,0,.29.71,1,1,0,0,0,.71.29,1,1,0,0,0,.67-.26.24.24,0,0,1,.18-.07.22.22,0,0,1,.17.09.23.23,0,0,1,.07.17.3.3,0,0,1-.08.18,1.47,1.47,0,0,1-1,.39" fill="none" clip-rule="evenodd" />
        </clipPath>
        <clipPath id="Asset_4_svg__E">
            <path fill="none" d="M97.14 251.35H104.52V265.2H97.14z" />
        </clipPath>
        <clipPath id="Asset_4_svg__F">
            <path fill="none" d="M96.57 251.27H105.11999999999999V265.52H96.57z" />
        </clipPath>
        <clipPath id="Asset_4_svg__G">
            <path d="M97.14,265v-.65h1.18a2.13,2.13,0,0,0,2-1.83c0-.14,0-.25,0-.36v-5.44h0v-.5c0-.61,0-1.23,0-1.84a2.11,2.11,0,0,0-2.11-2.07H97.15v-.9h1.11a3,3,0,0,1,2.34,1.14l.05.06.17.21.15-.17.09-.11.19-.2a3,3,0,0,1,2.13-.93h1.13v.9h-1.15a2.12,2.12,0,0,0-2.06,1.84c0,.11,0,.23,0,.34v7.77a2.12,2.12,0,0,0,2.07,2.09h1.17v.89h-.59a8.53,8.53,0,0,1-.87,0,2.9,2.9,0,0,1-2-1.11l-.22-.26-.15.16-.1.12-.22.23a3,3,0,0,1-2.06.89H97.14V265" fill="none" clip-rule="evenodd" />
        </clipPath>
    </defs>
    <g data-name="Layer 2">
        <g data-name="Layer 1">
            <path d="M52.15,101.32C112.65,35.9,232.9-5.36,334.1.56,516,11.2,577.55,99.36,597,133.33,661.49,246,627.49,398.08,483.3,403.75c-187.66,7.37-254.5-99.61-376.79-74.57C-21.39,355.37-27.1,187,52.15,101.32Z" fill="#fdc347" opacity=".2" />
            <path d="M315.85,367.44l-1.1,4.18c27.89,11.44,58.6,21.81,93.82,27.6,1.8-11,.88-20.92-5.53-30.65Z" fill="#1b9ff0" />
            <path d="M241.19,311.23H661.44a0,0,0,0,1,0,0v54a0,0,0,0,1,0,0H241.19a27,27,0,0,1-27-27v0A27,27,0,0,1,241.19,311.23Z" transform="translate(875.64 676.45) rotate(-180)" fill="#fdc347" />
            <path d="M366.76,318.46a19.1,19.1,0,0,0,19.09-19h.06V280h74.18v19.39h0a19.1,19.1,0,0,0,19.09,19Z" fill="#9a9fa1" />
            <rect x="364.23" y="318.44" width="117.7" height="2.92" rx="1.11" transform="translate(846.17 639.8) rotate(-180)" fill="#74787a" />
            <rect x="291.67" y="109.3" width="268.76" height="172.47" rx="15.02" transform="translate(852.11 391.07) rotate(-180)" fill="#d1d2d4" />
            <path d="M546.39,109.3H416.73l42.6,172.47h87.06a14.21,14.21,0,0,0,14.05-14.37V123.67A14.22,14.22,0,0,0,546.39,109.3Z" fill="#fff" opacity=".2" />
            <path transform="translate(845.87 573.91) rotate(-180)" fill="#74787a" d="M385.94 281.86H459.93V292.04H385.94z" />
            <path transform="translate(852.11 387.49) rotate(-180)" fill="#87939f" d="M302.57 120.55H549.53V266.93H302.57z" />
            <path fill="#fff" d="M358.42 129.34H503.85V267.14H358.42z" />
            <path fill="#d5d9dc" opacity=".5" d="M367.56 152.48H421.45V164.73H367.56z" />
            <g fill="#2e3235">
                <path d="M372.08 148.6L370 145.36v3.24h-.88V144h1.1l1.9 3v-3H373v4.57zM373.78 147.73a.87.87 0 01.08-.37 1 1 0 01.2-.29 1 1 0 01.3-.19 1.45 1.45 0 01.37-.11l.78-.11a.37.37 0 00.19-.08.25.25 0 00.05-.15.41.41 0 00-.13-.29.61.61 0 00-.41-.12.58.58 0 00-.43.15.6.6 0 00-.17.37l-.76-.17A1 1 0 01374 146a1.22 1.22 0 01.27-.33 1.5 1.5 0 01.41-.25 1.62 1.62 0 01.57-.09 1.67 1.67 0 01.63.1 1.37 1.37 0 01.43.26 1 1 0 01.24.39 1.39 1.39 0 01.08.46v1.55a2.72 2.72 0 000 .28c0 .09 0 .17 0 .23h-.78a.9.9 0 010-.18 1.48 1.48 0 010-.2 1.21 1.21 0 01-.35.32 1.08 1.08 0 01-.59.15 1.29 1.29 0 01-.45-.08 1.23 1.23 0 01-.35-.22 1 1 0 01-.21-.3A.86.86 0 01373.78 147.73zm1.27.32a.75.75 0 00.26 0 .51.51 0 00.23-.12.66.66 0 00.15-.23.85.85 0 00.06-.35v-.14l-.72.11a.65.65 0 00-.28.12.36.36 0 00-.11.28.37.37 0 00.1.26A.43.43 0 00375.05 148.05zM377.45 148.6v-3.17h.82v.38a.74.74 0 01.16-.2 1.14 1.14 0 01.23-.15 1.22 1.22 0 01.27-.09l.26 0a1.21 1.21 0 01.58.13.83.83 0 01.36.4 1.07 1.07 0 01.44-.41 1.32 1.32 0 01.57-.12 1.47 1.47 0 01.42.06 1.07 1.07 0 01.37.22 1.16 1.16 0 01.26.38 1.45 1.45 0 01.09.54v2.06h-.83v-1.88a.65.65 0 00-.13-.43.49.49 0 00-.43-.17.54.54 0 00-.43.18.67.67 0 00-.15.44v1.86h-.85v-1.88a.65.65 0 00-.14-.43.49.49 0 00-.42-.17.54.54 0 00-.44.18.66.66 0 00-.16.44v1.86zM386 147.69a1.38 1.38 0 01-.18.39 1.34 1.34 0 01-.31.32 1.38 1.38 0 01-.42.21 1.51 1.51 0 01-.53.08 1.8 1.8 0 01-.62-.11 1.46 1.46 0 01-.88-.87 1.76 1.76 0 01-.13-.71 1.92 1.92 0 01.12-.69 1.63 1.63 0 01.35-.53 1.56 1.56 0 01.5-.33 1.47 1.47 0 01.58-.12 1.53 1.53 0 011.16.44A1.69 1.69 0 01386 147a.91.91 0 010 .17v.1h-2.27a.64.64 0 00.07.28.84.84 0 00.18.23.61.61 0 00.24.15.81.81 0 00.31.06.73.73 0 00.47-.14.78.78 0 00.25-.34zm-.8-1a.93.93 0 000-.23.63.63 0 00-.13-.2.69.69 0 00-.22-.14.75.75 0 00-.31-.05.9.9 0 00-.3.05.71.71 0 00-.22.15.9.9 0 00-.14.2.59.59 0 00-.05.22z" />
            </g>
            <path fill="#d5d9dc" opacity=".5" d="M431.95 152.48H485.84V164.73H431.95zM367.56 152.48H421.45V154.31H367.56z" />
            <path fill="#d5d9dc" opacity=".5" d="M431.95 152.48H485.84V154.31H431.95zM388.76 196.36H417.32V200.47000000000003H388.76z" />
            <ellipse cx="384.05" cy="198.41" rx="2.93" ry="2.81" fill="#d5d9dc" opacity=".5" />
            <path fill="#d5d9dc" opacity=".5" d="M432.75 196.36H461.31V200.47000000000003H432.75zM431.95 167.47H458.89V171.58H431.95zM377.66 167.47H404.6V171.58H377.66z" />
            <path fill="#87939f" d="M378.59 187.02H439.65999999999997V191.13000000000002H378.59zM384.05 141.66H412.94V145.77H384.05z" />
            <ellipse cx="427.19" cy="198.41" rx="2.93" ry="2.81" fill="#d5d9dc" opacity=".5" />
            <path fill="#d5d9dc" opacity=".5" d="M388.76 206.24H417.32V210.35000000000002H388.76z" />
            <ellipse cx="384.05" cy="208.29" rx="2.93" ry="2.81" fill="#d5d9dc" opacity=".5" />
            <path fill="#d5d9dc" opacity=".5" d="M432.75 206.24H461.31V210.35000000000002H432.75z" />
            <ellipse cx="427.19" cy="208.29" rx="2.93" ry="2.81" fill="#d5d9dc" opacity=".5" />
            <path fill="#d5d9dc" opacity=".5" d="M388.76 216.26H417.32V220.37H388.76z" />
            <ellipse cx="384.05" cy="218.31" rx="2.93" ry="2.81" fill="#d5d9dc" opacity=".5" />
            <path fill="#d5d9dc" opacity=".5" d="M432.75 216.26H461.31V220.37H432.75z" />
            <ellipse cx="427.19" cy="218.31" rx="2.93" ry="2.81" fill="#d5d9dc" opacity=".5" />
            <path fill="none" stroke="#2aa3ef" stroke-miterlimit="10" stroke-width="2.576" d="M358.17 178.89H503.8V229.66H358.17z" />
            <g>
                <circle cx="513.63" cy="204.94" r="5.16" fill="#41657c" />
                <path d="M513.63,202.55a2.39,2.39,0,1,0,2.38,2.39A2.39,2.39,0,0,0,513.63,202.55Zm0,3a.57.57,0,0,1-.58-.57.58.58,0,0,1,1.16,0A.57.57,0,0,1,513.63,205.51Z" fill="#fff" />
                <g>
                    <circle cx="513.63" cy="193.35" r="5.16" fill="#41657c" />
                    <rect x="512.74" y="191.09" width="1.78" height="4.52" rx=".89" transform="translate(25.59 444.38) rotate(-47.85)" fill="#fff" />
                    <g>
                        <circle cx="513.63" cy="216.52" r="5.16" fill="#dc2c2e" />
                        <g fill="#fff">
                            <rect x="512.11" y="215.21" width="3.03" height="3.66" rx=".11" />
                            <path d="M514.38,214.17h-1.5a.78.78,0,0,0-.77.77h3A.77.77,0,0,0,514.38,214.17Z" />
                        </g>
                    </g>
                </g>
            </g>
            <path fill="#fca128" d="M302.72 120.49H549.39V129.16H302.72zM478.69 352.68H291a2.65 2.65 0 01-2-4.35l12.1-14.56 217.7.27C506.06 340.83 489.14 352.68 478.69 352.68z" />
            <g>
                <path d="M288,348.57H473.62a3.23,3.23,0,0,0,2.06-.74l13.6-20.2,0-2.31a1.23,1.23,0,0,0-1.35-1.19L286.27,345v1.89A1.69,1.69,0,0,0,288,348.57Z" fill="#d1d2d4" />
                <path d="M286.29,345.08h188.5l13.85-20.17a.44.44,0,0,0-.28-.78H305.5Z" fill="#e1e1e1" />
            </g>
            <g>
                <ellipse cx="523.91" cy="339.98" rx="12.43" ry="6.54" fill="#e1e1e1" />
                <path d="M523.91,346.53c-6.87,0-12.44-2.93-12.44-6.55a3.43,3.43,0,0,1,0-.56,4.26,4.26,0,0,0-1.3,2.92c0,3.61,5.56,6.54,12.43,6.54,6.51,0,11.84-2.63,12.39-6C533,345.05,528.78,346.53,523.91,346.53Z" fill="#fca128" />
            </g>
            <ellipse cx="617.52" cy="342.28" rx="16.93" ry="3.87" fill="#fca128" />
            <g>
                <path d="M627.54,342.45c-10.39,2-19,1.86-26.18,0L597,292.7h34.91Z" fill="#d1d2d4" />
                <path fill="#fff" d="M606.87 343.36L601.27 342.3 595.98 297.72 602.4 297.72 606.87 343.36z" />
                <path d="M633.81,293h-1.43l-1.29-6.12H597L595.65,293h-1.39l-1.61,4.77a127.69,127.69,0,0,0,42.74,0Z" fill="#87939f" />
                <ellipse cx="614.01" cy="286.71" rx="17.08" ry="2.24" fill="#41657c" />
                <path d="M628.63,328.27,630,312.7H598.32l1.38,15.57A115.71,115.71,0,0,0,628.63,328.27Z" fill="#87939f" />
                <path fill="#d1d2d4" d="M603.87 312.7L597.77 312.7 599.65 328.24 605.54 328.84 603.87 312.7z" />
            </g>
            <g>
                <path fill="#3e4652" d="M67.36 65.54H227.5V104.71000000000001H67.36z" />
                <path fill="#545f6e" d="M63.44 61.26H227.49V365.59999999999997H63.44z" />
                <g clip-path="url(#Asset_4_svg__a)">
                    <path fill="#37414f" d="M63.44 61.98H227.49V108.28H63.44z" />
                </g>
                <g fill="#fff">
                    <path d="M85.71 89.75H84V77.58h7.4v1.56H85.71v3.92h5.18v1.58H85.71zM93.22 82.48a4.32 4.32 0 016.06 0 4.77 4.77 0 010 6.29 4.35 4.35 0 01-6.08 0 4.77 4.77 0 010-6.29zm1.2 5.31a2.54 2.54 0 003.66 0 3.5 3.5 0 000-4.33 2.54 2.54 0 00-3.66 0 3.5 3.5 0 000 4.33zM107.12 81.41v1.71a5.76 5.76 0 00-.7-.05c-1.52 0-2.27.85-2.27 2.55v4.13h-1.62V81.49h1.58v1.45a2.56 2.56 0 012.48-1.58A2.32 2.32 0 01107.12 81.41zM110.43 89.75h-1.59V81.49h1.54v1.1a2.5 2.5 0 011.07-1 3.12 3.12 0 011.44-.35 2.91 2.91 0 011.48.4 2.39 2.39 0 011 1.17 2.92 2.92 0 012.77-1.57 2.76 2.76 0 012 .81A3.1 3.1 0 01121 84.4v5.35h-1.6V84.57a2.09 2.09 0 00-.44-1.38 1.63 1.63 0 00-1.31-.51 1.8 1.8 0 00-1.38.59 2.17 2.17 0 00-.53 1.49v5h-1.61V84.57a2.09 2.09 0 00-.44-1.38 1.63 1.63 0 00-1.31-.51 1.77 1.77 0 00-1.39.58 2.15 2.15 0 00-.54 1.51zM135.42 89.75H128V77.58h7.4v1.56H129.7v3.74h5.19v1.58H129.7v3.73h5.72zM139.44 89.75h-1.62V77.32h1.62zM148 86.92l1.39.48A3.67 3.67 0 01148 89.28a3.82 3.82 0 01-2.37.73 4.07 4.07 0 01-2.95-1.19 4.83 4.83 0 010-6.35 4 4 0 015.7-.06 4.58 4.58 0 011.05 3.15 3.74 3.74 0 010 .52h-6.22a2.46 2.46 0 00.73 1.8 2.4 2.4 0 001.76.71A2.24 2.24 0 00148 86.92zm-4.76-2.15h4.52a2.08 2.08 0 00-2.27-2.11 2.12 2.12 0 00-1.58.63A2.23 2.23 0 00143.23 84.77zM153.09 89.75h-1.6V81.49H153v1.1a2.56 2.56 0 011.07-1 3.19 3.19 0 011.44-.35 2.91 2.91 0 011.48.4 2.29 2.29 0 011 1.17 2.93 2.93 0 012.77-1.57 2.8 2.8 0 012 .81 3.14 3.14 0 01.83 2.34v5.35H162V84.57a2 2 0 00-.44-1.38 1.62 1.62 0 00-1.31-.51 1.76 1.76 0 00-1.37.59 2.13 2.13 0 00-.53 1.49v5h-1.62V84.57a2 2 0 00-.44-1.38 1.63 1.63 0 00-1.31-.51 1.78 1.78 0 00-1.39.58 2.14 2.14 0 00-.53 1.51zM172 86.92l1.39.48a3.67 3.67 0 01-1.34 1.88 3.82 3.82 0 01-2.37.73 4 4 0 01-2.94-1.19 4.31 4.31 0 01-1.21-3.22 4.38 4.38 0 011.16-3.13 4 4 0 015.7-.06 4.58 4.58 0 011 3.15 3.74 3.74 0 010 .52H167.2a2.5 2.5 0 00.73 1.8 2.41 2.41 0 001.76.71A2.24 2.24 0 00172 86.92zm-4.76-2.15h4.52a2.21 2.21 0 00-.62-1.52 2.23 2.23 0 00-1.65-.59 2.12 2.12 0 00-1.58.63A2.28 2.28 0 00167.25 84.77zM177.13 85v4.77h-1.62V81.49h1.58v1.19a3 3 0 014.73-.52 3.55 3.55 0 01.77 2.36v5.23H181v-5c0-1.38-.64-2.08-1.92-2.08a1.71 1.71 0 00-1.42.65A2.53 2.53 0 00177.13 85zM187.33 78.88v2.61h1.78V83h-1.78v4.3a1.16 1.16 0 00.26.85 1.17 1.17 0 00.89.28 2.38 2.38 0 00.63-.07v1.37a3 3 0 01-1.1.16 2.27 2.27 0 01-1.68-.62 2.35 2.35 0 01-.62-1.73V83h-1.58V81.49h.45a1.2 1.2 0 00.95-.35 1.32 1.32 0 00.32-.92V78.88zM190.57 87.61l1.46-.52a1.73 1.73 0 00.58 1.11 2 2 0 001.34.44 1.55 1.55 0 001-.32 1 1 0 00.38-.78c0-.55-.35-.91-1.06-1.07l-1.41-.31a2.66 2.66 0 01-1.51-.82 2.15 2.15 0 01-.55-1.49A2.38 2.38 0 01191.7 82a3 3 0 012.06-.77 3.86 3.86 0 011.41.23 2.34 2.34 0 011 .61 3.22 3.22 0 01.52.7 3.44 3.44 0 01.26.67l-1.43.53a1.52 1.52 0 00-.12-.4 2.38 2.38 0 00-.26-.44 1.19 1.19 0 00-.53-.38 2 2 0 00-.81-.15 1.43 1.43 0 00-1 .33 1 1 0 00-.39.77c0 .53.32.86 1 1l1.33.29a3.14 3.14 0 011.7.88 2.25 2.25 0 01.59 1.57 2.46 2.46 0 01-.8 1.77 3 3 0 01-2.22.79 3.46 3.46 0 01-2.39-.76A2.74 2.74 0 01190.57 87.61z" />
                </g>
                <g clip-path="url(#Asset_4_svg__b)">
                    <path fill="#1b9ff0" d="M63.44 98.3H130.39V108.27H63.44z" />
                </g>
                <g clip-path="url(#Asset_4_svg__c)">
                    <path fill="#37404a" d="M63.44 102.04H111.87V367.71000000000004H63.44z" />
                </g>
                <g clip-path="url(#Asset_4_svg__d)">
                    <path fill="#fff" d="M76.26 114.68H99.05000000000001V137.47H76.26z" />
                </g>
                <g clip-path="url(#Asset_4_svg__e)">
                    <g clip-path="url(#Asset_4_svg__f)">
                        <g clip-path="url(#Asset_4_svg__g)">
                            <g clip-path="url(#Asset_4_svg__h)">
                                <path fill="#fff" d="M77.69 333.05H100.44V354.59000000000003H77.69z" />
                            </g>
                        </g>
                    </g>
                </g>
                <g clip-path="url(#Asset_4_svg__i)">
                    <path fill="#fff" d="M81.3 331.92H89.62V342.03000000000003H81.3z" />
                </g>
                <g clip-path="url(#Asset_4_svg__j)">
                    <path fill="#fff" d="M88.51 331.92H96.83000000000001V342.03000000000003H88.51z" />
                </g>
                <g clip-path="url(#Asset_4_svg__k)">
                    <path fill="#fff" d="M85.74 339.12H96.72V351.53000000000003H85.74z" />
                </g>
                <g clip-path="url(#Asset_4_svg__l)">
                    <path fill="#fff" d="M81.9 339.29H91.29V351.53000000000003H81.9z" />
                </g>
                <path fill="none" stroke="#4a5360" stroke-linecap="square" stroke-miterlimit="10" stroke-width=".859" d="M67.36 147.8L227.5 147.8" />
                <path fill="none" stroke="#231f20" stroke-miterlimit="10" stroke-width=".53" opacity=".5" d="M220.72 104.71L220.72 365.04" />
                <path fill="#2f333a" d="M220.78 145.12H227.49V177.07H220.78z" />
                <path fill="none" stroke="#4a5360" stroke-linecap="square" stroke-miterlimit="10" stroke-width=".859" d="M67.36 191.25L220.72 191.25M67.36 234.7L220.03 234.7M67.36 321.59L220.78 321.59M67.36 365.04L227.5 365.04" />
                <g fill="#fff">
                    <path d="M125.9 127h-4.21v3.39h-1.14v-7.6h1.14v3.19h4.21v-3.19H127v7.6H125.9zM131.12 124.71a2.7 2.7 0 012.67 3v.26h-4.35a1.8 1.8 0 001.87 1.7 2.34 2.34 0 001.63-.64l.48.67a3.12 3.12 0 01-2.21.82 2.89 2.89 0 01-.09-5.78zm-1.69 2.48h3.36a1.62 1.62 0 00-1.67-1.64A1.69 1.69 0 00129.43 127.19zM138.48 129.75a2.35 2.35 0 01-1.8.74 1.84 1.84 0 01-1.92-1.83 1.78 1.78 0 011.92-1.8 2.29 2.29 0 011.8.73v-.91c0-.68-.56-1.09-1.35-1.09a2.26 2.26 0 00-1.65.73l-.44-.71a3.08 3.08 0 012.25-.9c1.2 0 2.21.52 2.21 1.93v3.71h-1zm0-1.54a1.74 1.74 0 00-1.41-.63 1.11 1.11 0 100 2.19 1.74 1.74 0 001.41-.63zM145.07 129.56a2.29 2.29 0 01-1.81.93c-1.43 0-2.46-1.08-2.46-2.89s1-2.89 2.46-2.89a2.26 2.26 0 011.81.93v-2.89h1v7.6h-1zm0-3.13a1.92 1.92 0 00-1.53-.81c-1 0-1.67.83-1.67 2a1.75 1.75 0 001.67 2 1.91 1.91 0 001.53-.8zM147.57 123.27a.67.67 0 01.66-.66.66.66 0 01.66.66.64.64 0 01-.66.65A.66.66 0 01147.57 123.27zm.16 1.58h1v5.5h-1zM154.1 126.83c0-.91-.46-1.21-1.17-1.21a2 2 0 00-1.52.8v3.93h-1v-5.5h1v.77a2.66 2.66 0 012-.91 1.58 1.58 0 011.77 1.78v3.86h-1zM157.2 131a2.15 2.15 0 001.77.73 1.52 1.52 0 001.71-1.57v-.72a2.31 2.31 0 01-1.81 1c-1.43 0-2.46-1.05-2.46-2.85s1-2.84 2.46-2.84a2.26 2.26 0 011.81.93v-.79h1v5.28c0 1.9-1.38 2.46-2.73 2.46a3 3 0 01-2.26-.82zm3.48-4.58a1.94 1.94 0 00-1.53-.81 1.71 1.71 0 00-1.66 1.93c0 1.14.63 1.94 1.66 1.94a1.93 1.93 0 001.53-.83z" />
                </g>
                <g fill="#fff">
                    <path d="M120.55 166.2h5.11v1h-4v2.22h3.89v1h-3.89v3.38h-1.14zM130.58 173.05a2.75 2.75 0 01-2 .89 1.56 1.56 0 01-1.75-1.76v-3.89h1v3.55c0 .91.46 1.18 1.16 1.18a2 2 0 001.53-.77v-4h1v5.51h-1zM133.24 166.2h1v7.6h-1zM135.89 166.2h1v7.6h-1zM142.65 168v5.84h-1.14v-7.6h1.17l4.14 5.69V166.2H148v7.6h-1.11zM153 173.19a2.36 2.36 0 01-1.8.75 1.84 1.84 0 01-1.92-1.83 1.78 1.78 0 011.92-1.8 2.29 2.29 0 011.8.73v-.91c0-.69-.56-1.1-1.35-1.1a2.26 2.26 0 00-1.65.73l-.44-.7a3 3 0 012.25-.9c1.2 0 2.21.52 2.21 1.92v3.72h-1zm0-1.53a1.74 1.74 0 00-1.41-.63 1.11 1.11 0 100 2.19 1.74 1.74 0 001.41-.63zM162.38 170.13c0-.64-.29-1.06-1-1.06a1.79 1.79 0 00-1.37.78v4h-1v-3.67c0-.64-.27-1.06-1-1.06a1.79 1.79 0 00-1.35.8v3.93h-1v-5.51h1v.78a2.4 2.4 0 011.78-.91 1.42 1.42 0 011.49 1 2.32 2.32 0 011.86-1c1 0 1.56.55 1.56 1.66v4h-1zM167.45 168.16a2.7 2.7 0 012.67 3v.25h-4.35a1.8 1.8 0 001.87 1.71 2.35 2.35 0 001.63-.65l.48.67a3.08 3.08 0 01-2.21.83 2.89 2.89 0 01-.09-5.78zm-1.69 2.48h3.36a1.62 1.62 0 00-1.67-1.64A1.69 1.69 0 00165.76 170.64z" />
                </g>
                <g fill="#fff">
                    <path d="M120.55 209.64h5.11v1h-4v2.22h3.89v1h-3.89v2.37h4v1h-5.11zM133.75 213.58c0-.64-.29-1.06-1-1.06a1.78 1.78 0 00-1.37.78v3.95h-1v-3.67c0-.64-.28-1.06-1-1.06a1.8 1.8 0 00-1.35.79v3.94h-1v-5.51h1v.78a2.37 2.37 0 011.78-.92 1.44 1.44 0 011.5 1 2.31 2.31 0 011.85-1c1 0 1.57.56 1.57 1.67v4h-1zM139.8 216.64a2.35 2.35 0 01-1.8.74 1.83 1.83 0 01-1.92-1.82 1.78 1.78 0 011.92-1.8 2.29 2.29 0 011.8.73v-.91c0-.69-.56-1.1-1.34-1.1a2.26 2.26 0 00-1.66.73l-.44-.71a3.1 3.1 0 012.25-.9c1.2 0 2.22.53 2.22 1.93v3.72h-1zm0-1.54a1.74 1.74 0 00-1.41-.62 1.1 1.1 0 100 2.18 1.74 1.74 0 001.41-.62zM142.31 210.17a.66.66 0 11.66.65A.66.66 0 01142.31 210.17zm.16 1.57h1v5.51h-1zM145.12 209.64h1v7.61h-1z" />
                </g>
                <g fill="#fff">
                    <path d="M122.41 297.54h-2.36v-1h5.85v1h-2.35v6.6h-1.14zM128.22 298.5a2.71 2.71 0 012.68 3v.25h-4.35a1.8 1.8 0 001.87 1.71 2.31 2.31 0 001.63-.65l.47.68a3.1 3.1 0 01-2.21.82 2.89 2.89 0 01-.09-5.78zM126.54 301h3.36a1.64 1.64 0 00-1.68-1.64A1.68 1.68 0 00126.54 301zM133.76 302l-1.55 2.14h-1.16l2.06-2.83-1.94-2.67h1.17l1.42 2 1.41-2h1.17l-2 2.67 2.07 2.83H135.3zM137.58 302.92v-3.38h-.91v-.9h.91v-1.51h1v1.51h1.12v.9H138.6v3.15c0 .39.19.68.54.68a.83.83 0 00.56-.22l.26.77a1.45 1.45 0 01-1.07.36A1.2 1.2 0 01137.58 302.92zM148.63 302.57H144.9l-.61 1.57H143l3-7.6h1.42l3 7.6h-1.25zm-3.39-1h3.06l-1.54-4zM151.39 298.64h1v.84a2.36 2.36 0 011.81-1v1a1.32 1.32 0 00-.36 0 2 2 0 00-1.45.8v3.83h-1zM157.66 298.5a2.71 2.71 0 012.68 3v.25H156a1.81 1.81 0 001.87 1.71 2.31 2.31 0 001.63-.65l.48.68a3.12 3.12 0 01-2.21.82 2.89 2.89 0 01-.09-5.78zM156 301h3.36a1.62 1.62 0 00-1.67-1.64A1.69 1.69 0 00156 301zM165 303.54a2.35 2.35 0 01-1.8.74 1.84 1.84 0 01-1.92-1.83 1.78 1.78 0 011.92-1.8 2.29 2.29 0 011.8.73v-.91c0-.68-.56-1.09-1.35-1.09a2.26 2.26 0 00-1.65.73l-.44-.71a3.08 3.08 0 012.25-.9c1.2 0 2.21.52 2.21 1.93v3.71h-1zm0-1.54a1.74 1.74 0 00-1.41-.63 1.11 1.11 0 100 2.19 1.74 1.74 0 001.41-.63z" />
                </g>
                <g fill="#fff">
                    <path d="M120.55 340h2.71a3.8 3.8 0 110 7.6h-2.71zm2.71 6.6a2.65 2.65 0 002.77-2.8 2.63 2.63 0 00-2.77-2.8h-1.57v5.6zM132 347a2.36 2.36 0 01-1.8.75 1.84 1.84 0 01-1.92-1.83 1.78 1.78 0 011.92-1.8 2.29 2.29 0 011.8.73v-.91c0-.69-.56-1.1-1.34-1.1a2.26 2.26 0 00-1.66.73l-.44-.7a3.06 3.06 0 012.25-.9c1.2 0 2.22.52 2.22 1.92v3.72h-1zm0-1.53a1.74 1.74 0 00-1.41-.63 1.11 1.11 0 100 2.19 1.74 1.74 0 001.41-.63zM134.83 346.37V343h-.91v-.9h.91v-1.5h1v1.5H137v.9h-1.11v3.16c0 .39.18.67.53.67a.8.8 0 00.56-.21l.26.77a1.42 1.42 0 01-1.07.36A1.21 1.21 0 01134.83 346.37zM140.53 342a2.7 2.7 0 012.68 3v.25h-4.36a1.81 1.81 0 001.87 1.71 2.35 2.35 0 001.63-.65l.48.67a3.07 3.07 0 01-2.21.83 2.89 2.89 0 01-.09-5.78zm-1.69 2.48h3.37a1.64 1.64 0 00-1.68-1.64A1.69 1.69 0 00138.84 344.43zM147.46 340h3.2a2.34 2.34 0 110 4.67H148.6v2.93h-1.14zm3 1H148.6v2.67h1.91a1.34 1.34 0 100-2.67zM154.08 340.51a.67.67 0 01.66-.66.67.67 0 01.66.66.66.66 0 01-1.32 0zm.16 1.57h1v5.51h-1zM159.36 342a2.42 2.42 0 012.06 1l-.69.63a1.52 1.52 0 00-1.33-.68 2 2 0 000 3.95 1.54 1.54 0 001.33-.68l.69.63a2.42 2.42 0 01-2.06 1 2.89 2.89 0 010-5.78zM164.4 345.22l-.83.84v1.53h-1V340h1v4.89l2.66-2.8h1.29l-2.38 2.5 2.4 3h-1.3zM170.63 342a2.7 2.7 0 012.67 3v.25H169a1.8 1.8 0 001.87 1.71 2.35 2.35 0 001.63-.65l.48.67a3.08 3.08 0 01-2.21.83 2.89 2.89 0 01-.09-5.78zm-1.69 2.48h3.36a1.62 1.62 0 00-1.67-1.64A1.69 1.69 0 00168.94 344.43zM174.59 342.08h1v.85a2.33 2.33 0 011.8-1v1a1.86 1.86 0 00-.36 0 1.94 1.94 0 00-1.44.8v3.83h-1z" />
                </g>
                <g clip-path="url(#Asset_4_svg__m)">
                    <path fill="#fff" d="M76.26 158.13H99.05000000000001V180.92H76.26z" />
                </g>
                <g clip-path="url(#Asset_4_svg__n)">
                    <g clip-path="url(#Asset_4_svg__o)">
                        <g clip-path="url(#Asset_4_svg__p)">
                            <g clip-path="url(#Asset_4_svg__o)">
                                <path fill="#fff" d="M76.26 204.43H99V223.69H76.26z" />
                            </g>
                        </g>
                    </g>
                </g>
                <g clip-path="url(#Asset_4_svg__q)">
                    <g clip-path="url(#Asset_4_svg__r)">
                        <g clip-path="url(#Asset_4_svg__s)">
                            <g clip-path="url(#Asset_4_svg__r)">
                                <path fill="#fff" d="M76.26 288.54H99V311.28000000000003H76.26z" />
                            </g>
                        </g>
                    </g>
                </g>
                <g clip-path="url(#Asset_4_svg__t)">
                    <path fill="#fff" d="M81.08 290.62H90.78V302.47H81.08z" />
                </g>
                <g clip-path="url(#Asset_4_svg__u)">
                    <path fill="#fff" d="M78.18 291.24H88V301.51H78.18z" />
                </g>
            </g>
            <g>
                <path fill="#37404a" opacity=".5" d="M76.63 278.34H227.49V286.03999999999996H76.63z" />
                <g clip-path="url(#Asset_4_svg__v)">
                    <path fill="#1b9ff0" d="M114.38 232.04H244.65V281.9H114.38z" />
                </g>
                <g clip-path="url(#Asset_4_svg__w)">
                    <path fill="#1c83be" d="M73.07 232.04H121.5V282.61H73.07z" />
                </g>
                <g clip-path="url(#Asset_4_svg__x)">
                    <g clip-path="url(#Asset_4_svg__y)">
                        <g clip-path="url(#Asset_4_svg__z)">
                            <g clip-path="url(#Asset_4_svg__A)">
                                <path fill="#fff" d="M85.89 250.09H108.63V266.26H85.89z" />
                            </g>
                        </g>
                    </g>
                </g>
                <g clip-path="url(#Asset_4_svg__B)">
                    <path fill="#fff" d="M87.54 252.95H97.23V263.07H87.54z" />
                </g>
                <g clip-path="url(#Asset_4_svg__C)">
                    <path fill="#fff" d="M90.7 252.94H99.94V263.07H90.7z" />
                </g>
                <g clip-path="url(#Asset_4_svg__D)">
                    <path fill="#fff" d="M93.31 252.95H103.02000000000001V263.07H93.31z" />
                </g>
                <g clip-path="url(#Asset_4_svg__E)">
                    <g clip-path="url(#Asset_4_svg__F)">
                        <g clip-path="url(#Asset_4_svg__G)">
                            <g clip-path="url(#Asset_4_svg__F)">
                                <path fill="#fff" d="M93.58 247.79H108.08V268.76H93.58z" />
                            </g>
                        </g>
                    </g>
                </g>
                <g fill="#fff">
                    <path d="M132 254.65h-2.36v-1h5.85v1h-2.35v6.6H132zM137.85 255.6a2.71 2.71 0 012.68 3v.25h-4.35a1.8 1.8 0 001.86 1.71 2.33 2.33 0 001.63-.65l.48.67a3.06 3.06 0 01-2.21.82 2.89 2.89 0 01-.09-5.78zm-1.69 2.49h3.37a1.64 1.64 0 00-1.68-1.64A1.7 1.7 0 00136.16 258.09zM143.39 259.1l-1.55 2.15h-1.16l2.06-2.83-1.94-2.68H142l1.43 2 1.41-2H146L144 258.42l2.07 2.83h-1.16zM147.21 260v-3.39h-.92v-.9h.92v-1.5h1v1.5h1.12v.9h-1.12v3.16c0 .39.18.67.54.67a.78.78 0 00.56-.22l.26.78a1.45 1.45 0 01-1.07.35A1.19 1.19 0 01147.21 260zM153.45 253.64H157a1.93 1.93 0 012.14 1.94 1.73 1.73 0 01-1.32 1.75 1.87 1.87 0 011.47 1.86 2 2 0 01-2.2 2.06h-3.66zm3.35 3.23a1.11 1.11 0 100-2.22h-2.21v2.22zm.06 3.37a1.14 1.14 0 001.28-1.19 1.17 1.17 0 00-1.28-1.18h-2.27v2.37zM160.36 258.49a2.78 2.78 0 112.78 2.89A2.73 2.73 0 01160.36 258.49zm4.49 0a1.73 1.73 0 10-1.71 2A1.78 1.78 0 00164.85 258.49z" />
                    <path d="M168.89,259.1l-1.55,2.15h-1.16l2.06-2.83-1.93-2.68h1.16l1.42,2,1.42-2h1.16l-1.95,2.68,2.07,2.83h-1.16Z" />
                </g>
                <path d="M262.71,309l-.94.1c-30.34,3.17-48.42-11.69-73.31-47-3.06-4.33-4.12-9,.22-12s6.8-.9,9.86,3.43c10.52,14.92,13.55,20,26.34,27.55,11.92,7,24,10.11,34.89,9,17.13-1.78,30.9-13.75,39.87-34.61A9.6,9.6,0,1,1,317.27,263C305.72,289.83,286.36,306.14,262.71,309Z" fill="#f7b595" />
                <path d="M191.11,255c4.34-3.06,6.81-.9,9.86,3.43,10.53,14.92,13.56,20,26.35,27.55,11.91,7,24,10.11,34.89,9,17.13-1.78,30.9-13.76,39.86-34.61a9.59,9.59,0,0,1,15.85-2.74,9.59,9.59,0,0,0-18.28-2.23c-9,20.86-22.74,32.83-39.87,34.61-10.91,1.14-23-2-34.89-9-12.79-7.53-15.82-12.63-26.34-27.55-3.06-4.33-5.53-6.49-9.86-3.43s-3.28,7.72-.22,12v0A6.24,6.24,0,0,1,191.11,255Z" fill="#f8bfa3" />
                <path d="M184.06,239.64h22.07a0,0,0,0,1,0,0v15.29a11,11,0,0,1-11,11h0a11,11,0,0,1-11-11V239.64a0,0,0,0,1,0,0Z" transform="translate(-28.74 25.05) rotate(-6.84)" fill="#f7b595" />
                <path d="M212.05 246.86a24.44 24.44 0 01-6.49 12.91 3.34 3.34 0 01-4.48 1.48h0a3.34 3.34 0 01-1.48-4.48 23.83 23.83 0 006.49-12.9 3.33 3.33 0 014.48-1.48h0A3.32 3.32 0 01212.05 246.86zM191.85 233l1.78 15.64a2.65 2.65 0 01-2.15 3h0a2.52 2.52 0 01-2.76-2.33l-1.79-15.65a2.64 2.64 0 012.16-3h0A2.53 2.53 0 01191.85 233z" fill="#f7b595" />
                <rect x="191.29" y="235.95" width="21.12" height="5.35" rx="2.68" transform="translate(-10.31 468.13) rotate(-97.02)" fill="#f7b595" />
                <rect x="176.26" y="238.77" width="17.58" height="4.93" rx="2.47" transform="translate(-31.76 454.39) rotate(-97.02)" fill="#f7b595" />
                <rect x="183.71" y="238.43" width="25.14" height="5.78" rx="2.89" transform="translate(-19.24 465.62) rotate(-97.02)" fill="#f7b595" />
                <path d="M507.37,324.43l-8.16,1.43a9.69,9.69,0,0,0-1.93.1c-25.57,4-40.58,3.36-50.2-2.12-6.57-3.74-14.78-11.64-20.08-39.78a9.6,9.6,0,0,0-18.87,3.56c5.27,28,14.35,44.3,29.44,52.9a49.21,49.21,0,0,0,26.68,7.07c13.2,0,22.44-6.86,36.94-9.13,1-.15,1.88-.22,2.68-.27a18.28,18.28,0,0,0,8.69,1.22l6.19-2.26c4.32-1.94,8.77-.44,9.83-1.34C536.63,329,514.81,323.12,507.37,324.43Z" fill="#efa98d" />
                <path d="M442.25,338.71c-12.6-10.53-21.54-22.09-26.92-47.36l-6.24,1c5.38,25.13,14.26,40.1,28.48,48.2a15.42,15.42,0,0,0,2.09,1.08A2,2,0,0,0,442.25,338.71Z" fill="#f7b595" />
                <path d="M435.31,282.86,421.8,244.62c-3.31-9.37-11.92-15.75-21.94-17.14a55.48,55.48,0,0,1-14.33-4.07,41.54,41.54,0,0,0-16.41-3.36H349.66A41.6,41.6,0,0,0,337,222a49.76,49.76,0,0,1-13.73,2.09,17,17,0,0,0-12.31,5.79L278,267.42a2.87,2.87,0,0,0,.26,4.07l21.24,18.64a2.89,2.89,0,0,0,4.07-.26l4.45-5.06c10.52,26.6,9.39,60.44-1,87.44,39.39,29.3,78.68,26.62,103.61,3.31-6.82-25.49-7.87-61.2.09-86.36l23.71-4.86A1.13,1.13,0,0,0,435.31,282.86Z" fill="#7ace64" />
                <g>
                    <g fill="#e89c87">
                        <circle cx="386.95" cy="161.7" r="9.29" />
                        <circle cx="329.58" cy="161.7" r="9.29" />
                    </g>
                    <path transform="translate(716.53 403.68) rotate(-180)" fill="#e89c87" d="M343.75 190.54H372.77V213.13H343.75z" />
                    <path fill="#f8bfa3" d="M343.75 190.54L348.82 190.54 347.3 213.13 343.75 213.13 343.75 190.54z" />
                    <rect x="323.13" y="114.57" width="70.27" height="82.35" rx="35.14" transform="translate(716.53 311.49) rotate(180)" fill="#5c463d" />
                    <circle cx="358.64" cy="165.87" r="8.56" fill="#7ace64" />
                    <path d="M338.39,221.41a2.24,2.24,0,0,1-2.08-3l1.19-3.34a4.65,4.65,0,0,1,4.53-2.92l31.46.38a4.64,4.64,0,0,1,4.54,3.27l.87,3.38a2.24,2.24,0,0,1-2.2,2.8Z" fill="#1dbd6f" />
                    <path d="M349.12,262.11c3.29,8.1,12.69,8.27,17.48,0,5.27-9.94-2-95.28-2-95.28-.5-4.37-3-7.57-6-7.57h0c-2.87,0-5.34,3.05-5.91,7.29C352.72,166.55,343.89,252.51,349.12,262.11Z" fill="#46352e" />
                </g>
                <g opacity=".5">
                    <path d="M303.48,269.7l-10.14,11.56a2.59,2.59,0,0,0,.24,3.66l6.15,5.4a2.59,2.59,0,0,0,3.66-.23l4-4.55a2.57,2.57,0,0,0,.65-1.71V271.41A2.6,2.6,0,0,0,303.48,269.7Z" fill="#1dbd6f" />
                </g>
                <path d="M410.5,290l-5,.79-1.75-4.61a4.14,4.14,0,0,0-1.77,3.51c-6.36,25.42-3.32,65.88,3,90.57l8.53-6.54C406.89,348.66,402.87,314.82,410.5,290Z" fill="#1dbd6f" opacity=".5" />
                <path d="M434.87 284l-.45 5.06a3.23 3.23 0 01-2.56 2.87l-21.14 4.45a3.22 3.22 0 01-3.58-1.77L405 290.19zM301.06 290.89l-4.3 2.68a3.24 3.24 0 01-3.84-.31l-16.28-14.19a3.23 3.23 0 01-.75-3.93l2.27-4.36z" fill="#1dbd6f" />
            </g>
        </g>
    </g>
</svg>