<?xml version="1.0" ?><svg viewBox="0 0 512 512" xmlns="http://www.w3.org/2000/svg"><defs><style>.cls-1{fill:#8736ff;}.cls-2{fill:#360977;}.cls-3{fill:#8736ff;}.cls-4{fill:#360977;}.cls-5{fill:#ae78fd;}.cls-6{fill:#ae78fd;}.cls-7{fill:#0071af;}.cls-8{fill:#fda5a3;}.cls-9{fill:#e2ceff;}.cls-10{fill:#cbe2ef;}.cls-11{fill:#ec9090;}.cls-12{fill:#d27676;}.cls-13{fill:#7db6d6;}.cls-14{fill:#006095;}.cls-15{fill:#6b9bb6;}.cls-16{fill:#b36565;}.cls-17{fill:#d78d8b;}</style></defs><title/><g data-name="/ FLAT" id="_FLAT"><path class="cls-1" d="M292.4223,368.84448A16.00015,16.00015,0,0,0,278.11145,360h-44.2229a16.00015,16.00015,0,0,0-14.31085,8.84448L208,392h96Z"/><path class="cls-2" d="M232.84477,392H304l-11.9471-23.89419A85.0761,85.0761,0,0,1,232.84477,392Z"/><circle class="cls-3" cx="256" cy="168" r="144"/><path class="cls-4" d="M196.79523,299.3042a144.06958,144.06958,0,0,0,190.509-190.509A288.64625,288.64625,0,0,1,196.79523,299.3042Z"/><path class="cls-5" d="M341.65674,242.34326l-11.31348,11.31348L352.004,275.3175A144.92216,144.92216,0,0,0,363.3175,264.004Z"/><path class="cls-6" d="M264,24.22473C261.3512,24.07959,258.685,24,256,24s-5.3512.07959-8,.22473V56h16Z"/><path class="cls-6" d="M148.6825,71.996l21.66076,21.66077,11.31348-11.31348L159.996,60.6825A144.92216,144.92216,0,0,0,148.6825,71.996Z"/><path class="cls-6" d="M112.22473,176H144V160H112.22473c-.14508,2.6488-.22473,5.31494-.22473,8S112.07965,173.3512,112.22473,176Z"/><path class="cls-6" d="M148.6825,264.004A144.92216,144.92216,0,0,0,159.996,275.3175l21.66077-21.66076-11.31348-11.31348Z"/><path class="cls-7" d="M298.08062,184H472a16,16,0,0,0,16-16V40a16,16,0,0,0-16-16H360a32,32,0,0,0-32,32v82.3875a16,16,0,0,1-3.5061,9.99512L297.29976,182.3753A1,1,0,0,0,298.08062,184Z"/><path class="cls-8" d="M484.68628,284.68628l-17.37256-17.37256a16,16,0,0,0-22.62744,0L431.4845,280.5155a15.81634,15.81634,0,0,0-2.79822-3.82922l-1.37256-1.37256A16,16,0,0,0,400,286.62744v18.74512a16.00029,16.00029,0,0,1-4.68628,11.31372L384,328l32,32,19.31372-19.31372A15.99983,15.99983,0,0,1,446.62744,336h2.74512a16.00034,16.00034,0,0,0,11.31372-4.68628l24-24A16,16,0,0,0,484.68628,284.68628Z"/><path class="cls-8" d="M256.00006,200h-.00012A55.99994,55.99994,0,0,0,200,256v32.80408a56.00005,56.00005,0,0,0,16.402,39.5979l4.2843,4.2843A38.62726,38.62726,0,0,1,232,360h48a38.62726,38.62726,0,0,1,11.31372-27.31372l4.2843-4.2843A56.00005,56.00005,0,0,0,312,288.80408V256A55.99994,55.99994,0,0,0,256.00006,200Z"/><path class="cls-3" d="M376,320l-67.31372,67.31372A16.00034,16.00034,0,0,1,297.37256,392H214.62744a16.00034,16.00034,0,0,1-11.31372-4.68628L136,320,88,368l75.31372,75.31372A15.99987,15.99987,0,0,1,168,454.62744V496H344V454.62744a15.99987,15.99987,0,0,1,4.68628-11.31372L424,368Z"/><polygon class="cls-9" points="264 176 176 176 176 160 248 160 248 72 264 72 264 176"/><path class="cls-10" d="M400,136H384V80a24,24,0,0,1,48,0v8H416V80a8,8,0,0,0-16,0Z"/><path class="cls-11" d="M424.97022,304.97022l-1.94044-1.94044a6.62775,6.62775,0,0,1,0-9.373h0a8.01391,8.01391,0,0,0,2.33441-6.0845,6.36225,6.36225,0,0,1,3.05018-5.94252l2.86424-1.65586a6.5977,6.5977,0,0,1,9.857,4.6525,24.03607,24.03607,0,0,1-6.79238,20.34385h0A6.62775,6.62775,0,0,1,424.97022,304.97022Z"/><path class="cls-8" d="M116.68628,316.68628A16.00029,16.00029,0,0,1,112,305.37256V286.62744a16,16,0,0,0-27.31372-11.31372l-1.37256,1.37256a15.81634,15.81634,0,0,0-2.79822,3.82922L67.31372,267.31372a16,16,0,0,0-22.62744,0L27.31372,284.68628a16,16,0,0,0,0,22.62744l24,24A16.00034,16.00034,0,0,0,62.62744,336h2.74512a15.99983,15.99983,0,0,1,11.31372,4.68628L96,360l32-32Z"/><path class="cls-12" d="M200,256v32.80408a56.00005,56.00005,0,0,0,16.402,39.5979l4.2843,4.2843A38.60712,38.60712,0,0,1,228.52,344h54.96a38.60712,38.60712,0,0,1,7.83374-11.31372l4.2843-4.2843A56.00005,56.00005,0,0,0,312,288.80408V256a55.99994,55.99994,0,0,0-55.99994-56h-.00012A55.99994,55.99994,0,0,0,200,256Z"/><path class="cls-11" d="M87.02978,304.97022l1.94044-1.94044a6.62775,6.62775,0,0,0,0-9.373h0a8.01391,8.01391,0,0,1-2.33441-6.0845,6.36225,6.36225,0,0,0-3.05018-5.94252l-2.86424-1.65586a6.5977,6.5977,0,0,0-9.857,4.6525,24.03607,24.03607,0,0,0,6.79238,20.34385h0A6.62775,6.62775,0,0,0,87.02978,304.97022Z"/><rect class="cls-13" height="48" rx="8" width="64" x="376" y="104"/><path class="cls-14" d="M328.00018,184H472a16,16,0,0,0,16-16V40a15.98985,15.98985,0,0,0-.46222-3.75793A160.01192,160.01192,0,0,1,328.00018,184Z"/><path class="cls-15" d="M440,138.25586A160.83509,160.83509,0,0,1,423.99908,152H432a8,8,0,0,0,8-8Z"/><path class="cls-16" d="M257.71313,344H283.48a38.60712,38.60712,0,0,1,7.83374-11.31372l4.2843-4.2843A56.00005,56.00005,0,0,0,312,288.80408V256c0-1.1106-.04132-2.21118-.1051-3.30566A111.94747,111.94747,0,0,1,257.71313,344Z"/><path class="cls-17" d="M257.66626,344a111.36192,111.36192,0,0,1-25.94788,11.43677A38.60228,38.60228,0,0,1,232,360h48a38.61224,38.61224,0,0,1,3.48-16Z"/><path class="cls-17" d="M394.4339,317.56616,384,328l32,32,10.4339-10.43384A112.59783,112.59783,0,0,1,394.4339,317.56616Z"/><path class="cls-17" d="M87.78455,351.78455,96,360l32-32-8.21545-8.21545A104.54532,104.54532,0,0,1,87.78455,351.78455Z"/><path class="cls-4" d="M176.00024,496H344V454.62744a15.99987,15.99987,0,0,1,4.68628-11.31372L424,368l-20.69971-20.69971C365.00629,434.83093,277.65381,496,176.00024,496Z"/></g></svg>