<svg width="500" height="500" xmlns="http://www.w3.org/2000/svg">

 <g>
  <title>background</title>
  <rect fill="none" id="canvas_background" height="402" width="582" y="-1" x="-1"/>
 </g>
 <g>
  <title>Layer 1</title>
  <path fill="#7b32f8" id="svg_4" d="m207.5,418.85c-5.03,-0.01 -3.54,2.7 -1.97,4.83c5.85,7.92 10.31,16.4 13.58,25.78c4,11.45 12.58,17.88 25.08,18.19c4.58,0.11 9.18,0.19 13.75,-0.03c11.31,-0.55 20.04,-6.08 23.99,-16.39c4.12,-10.77 8.05,-21.51 15.68,-32.35c-31.22,0 -60.67,0.03 -90.11,-0.03z" class="st1"/>
  <path stroke="#fff" fill="#7b32f8" id="svg_5" d="m444.64,333.73c0.01,0 0.02,0 0.03,0c0.5,-5.52 -2.48,-9.52 -5.84,-13.34c-5.8,-6.58 -10.97,-13.65 -15.25,-21.26c-7.84,-13.91 -11.72,-29.05 -12.07,-44.96c-0.61,-28 6.49,-53.33 26.65,-73.91c5.61,-5.72 8.27,-12.65 8.03,-20.73c-0.34,-11.43 -6.86,-20.09 -13.27,-28.54c-7.59,-10 -18.39,-11.35 -29.87,-8.49c-3.85,0.96 -7.64,1.56 -11.58,1.73c-16.13,0.7 -31.86,-1.05 -46.63,-8.01c-10.56,-4.98 -21.38,-9.68 -30.07,-17.77c-14.13,-13.15 -24.86,-28.54 -31.12,-47.03c-2.83,-8.36 -8.71,-14.41 -17.5,-17.11c-8.04,-2.47 -16.34,-2.34 -24.5,-1.6c-10.77,0.98 -19.01,6.75 -23.16,16.72c-6.28,15.06 -13.39,29.5 -24.42,41.72c1.82,0.08 3.54,0.28 4.85,1.24c-1.31,-0.96 -3.03,-1.16 -4.85,-1.24c0,0 0.14,0.05 0.14,0.05c-0.47,0.48 -0.95,0.97 -1.42,1.45c0,0 0.12,-0.13 0.12,-0.13c-0.47,0.47 -0.93,0.93 -1.4,1.4c-0.54,0.44 -1.09,0.89 -1.63,1.33c-26.79,22.9 -57.36,33 -92.58,27.37c-12.35,-4.05 -25.1,-0.02 -32.27,10.42c-2.46,3.58 -4.58,7.41 -6.71,11.2c-6.54,11.64 -6.39,23.21 2.32,33.46c20.69,24.36 29.64,52.3 27.2,84.04c-0.35,0.68 -0.46,1.32 0.24,1.87c-1.91,3.48 -1.99,7.4 -2.67,11.17c-1.08,0.7 -0.9,1.74 -0.76,2.78c-0.59,2.15 -1.17,4.3 -1.76,6.45c0,0 -0.26,0.3 -0.26,0.3l0.15,0.37c-1.05,0.84 -1.2,2 -1.18,3.23c-0.97,0.63 -1.27,1.57 -1.2,2.67c-0.31,0.18 -0.39,0.42 -0.23,0.74c-1.04,0.77 -1.28,1.87 -1.3,3.07c-1.03,0.57 -1.27,1.54 -1.33,2.62c-1.02,0.58 -1.23,1.57 -1.28,2.63c-1.07,0.52 -1.34,1.55 -1.59,2.59c-5.67,7.33 -11.87,14.32 -16.9,22.07c-10.57,16.29 2.15,46.49 21.8,52.75c5.8,1.85 11.62,1.93 17.38,0.01c5.03,-1.68 10.2,-2.24 15.44,-2.43c28.32,-0.99 53.08,8.21 74.78,26.16c0.1,1.25 0.46,2.3 1.91,2.52c1.33,2.13 3.06,3.86 5.19,5.2c0.22,1.48 1.28,1.88 2.57,2c0.07,0.97 0.54,1.63 1.5,1.89c1.01,1.81 1.89,3.76 4.27,4.26c1.08,-6.63 0.33,-17.61 -1.56,-23.33c-0.01,-0.62 -0.01,-1.25 -0.01,-1.87c0.1,-3.57 -0.62,-6.92 -2.57,-9.96c0,0 0.24,-0.44 0.24,-0.44c-0.32,-3.1 -1.01,-6.08 -2.87,-8.68c0,0 0.18,-0.31 0.18,-0.31l-0.23,-0.28c-0.17,-2.29 -1,-4.29 -2.56,-5.98c0,0 0.16,-0.3 0.16,-0.3l-0.22,-0.26c-0.24,-2.09 -1,-3.94 -2.59,-5.38c0.02,0 0.03,0 0.05,0c-0.31,-2.06 -1.19,-3.83 -2.78,-5.21c0,0 0,0 0,0c-0.42,-0.64 -0.84,-1.29 -1.26,-1.93c0,0 0.13,-0.32 0.13,-0.32l-0.26,-0.23c-0.37,-0.52 -0.75,-1.04 -1.12,-1.55c0.04,0 0.07,0.01 0.11,0c-0.3,-1.71 -1.14,-3.05 -2.66,-3.92c0.01,0 0.02,0 0.03,0c-0.31,-1.74 -1.21,-3.06 -2.78,-3.91c0,0.01 0,0.02 0,0.03c-0.4,-0.44 -0.8,-0.88 -1.2,-1.31c0.02,0.01 0.03,0.02 0.06,0.03c-0.08,-1.12 -0.53,-2 -1.64,-2.43c0,0 -0.03,-0.04 -0.03,-0.04c-0.41,-0.46 -0.82,-0.92 -1.23,-1.38c0,0 0.03,0.04 0.03,0.04c-0.44,-0.48 -0.87,-0.95 -1.31,-1.43c0,0 0.09,0.08 0.09,0.08c-0.45,-0.48 -0.91,-0.96 -1.37,-1.44c0,0 0.11,0.1 0.11,0.1c-0.46,-0.48 -0.93,-0.96 -1.39,-1.45c0,0 0.12,0.11 0.12,0.11c-0.47,-0.48 -0.95,-0.95 -1.42,-1.43c0,0 0.12,0.11 0.12,0.11c-0.47,-0.48 -0.94,-0.97 -1.41,-1.45c0,0 0.13,0.12 0.13,0.12c-0.47,-0.48 -0.94,-0.97 -1.42,-1.45c0,0 0.13,0.12 0.13,0.12c-0.48,-0.48 -0.95,-0.96 -1.43,-1.44c0,0 0.13,0.12 0.13,0.12c-0.1,-0.85 -0.57,-1.34 -1.43,-1.44c0,0 0.17,0 0.17,0c-2.03,-3.97 -5.2,-7.03 -8.18,-10.24c0,0 0,0.01 0,0.01c-0.4,-0.48 -0.79,-0.96 -1.19,-1.44c0.04,0 0.07,0.01 0.11,0c-0.32,-1.72 -1.2,-3.05 -2.7,-3.97c0,0 0.06,-0.07 0.06,-0.07c-0.55,-1.17 -1.03,-2.38 -1.67,-3.5c-13.1,-22.86 -18.04,-47.24 -14.43,-73.46c2.64,-19.23 10.59,-36.12 21.2,-52.02c0.43,-0.56 0.87,-1.13 1.3,-1.69c0,0 -0.06,0.08 -0.06,0.08c0.4,-0.48 0.8,-0.96 1.21,-1.44c0,0 0.03,-0.04 0.03,-0.04c0.67,-0.82 1.35,-1.64 2.02,-2.46c0.25,-0.29 0.51,-0.59 0.76,-0.88c0.43,-0.56 0.85,-1.12 1.28,-1.68c0.46,-0.47 0.93,-0.94 1.39,-1.41c0,0 -0.11,0.11 -0.11,0.11c0.47,-0.48 0.93,-0.96 1.4,-1.43c0,0 -0.1,0.1 -0.1,0.1c0.47,-0.47 0.94,-0.94 1.4,-1.41c0,0 -0.1,0.1 -0.1,0.1c0.47,-0.47 0.94,-0.94 1.4,-1.41c0,0 -0.09,0.1 -0.09,0.1c0.48,-0.46 0.96,-0.93 1.44,-1.39c0,0 -0.11,0.11 -0.11,0.11c0.45,-0.45 0.91,-0.9 1.36,-1.36c0,0.02 0.01,0.03 0.01,0.05c13.39,-10.84 28.14,-19.24 44.46,-24.84c2.57,-0.6 5.15,-1.21 7.72,-1.81c1.02,0.18 1.98,0.17 2.72,-0.7c2.6,-0.23 5.22,-0.34 7.8,-0.7c49.37,-6.77 98.87,21.61 118.43,67.38c8.47,19.82 10,40.33 8.48,61.39l-0.16,0.31l0.21,0.27c-0.28,0.63 -0.55,1.27 -0.83,1.9c-0.45,2.7 -0.63,5.48 -1.38,8.09c-5.11,17.8 -13.63,33.82 -25.35,48.15l0.11,0c-0.46,0.48 -0.92,0.95 -1.39,1.43c-0.45,0.44 -0.89,0.89 -1.34,1.33c-26.01,22.38 -39.02,63.13 -34.41,88.58c1.29,-1.48 2.42,-2.72 3.48,-4.02c13.55,-16.67 31.3,-27.05 51.25,-34.04c11.67,-4.09 23.88,-4.66 36.1,-4.86c4.09,0.53 8.34,0.53 12.25,1.67c21.51,6.3 35.98,-6.13 42.98,-29.51c1.9,-4.22 2.5,-8.43 0.03,-12.62zm-110.26,-6.56c0.03,-0.03 0.07,-0.07 0.07,-0.07c-0.02,0.03 -0.04,0.05 -0.07,0.07z" class="st1"/>
  <circle fill="#46149b" id="svg_6" r="24.01" cy="253.49" cx="250.82" class="st1"/>
  <polygon fill="#353535" id="svg_7" points="248.09,217.91 250.82,193.54 253.56,217.91  " class="st1"/>
  <polygon fill="#353535" id="svg_8" points="237.23,220.49 232.3,196.48 242.43,218.8  " class="st1"/>
  <polygon fill="#353535" id="svg_9" points="227.7,226.31 215.59,204.99 232.12,223.1  " class="st1"/>
  <polygon fill="#353535" id="svg_10" points="220.43,234.79 202.33,218.25 223.64,230.36  " class="st1"/>
  <polygon fill="#353535" id="svg_11" points="216.14,245.09 193.81,234.97 217.83,239.9  " class="st1"/>
  <polygon fill="#353535" id="svg_12" points="215.24,256.22 190.88,253.49 215.24,250.76  " class="st1"/>
  <polygon fill="#353535" id="svg_13" points="217.83,267.09 193.81,272.02 216.14,261.89  " class="st1"/>
  <polygon fill="#353535" id="svg_14" points="223.64,276.62 202.33,288.73 220.43,272.2  " class="st1"/>
  <polygon fill="#353535" id="svg_15" points="232.12,283.89 215.59,301.99 227.7,280.67  " class="st1"/>
  <polygon fill="#353535" id="svg_16" points="242.43,288.18 232.3,310.5 237.23,286.49  " class="st1"/>
  <polygon fill="#353535" id="svg_17" points="253.56,289.07 250.82,313.44 248.09,289.07  " class="st1"/>
  <polygon fill="#353535" id="svg_18" points="264.42,286.49 269.35,310.5 259.22,288.18  " class="st1"/>
  <polygon fill="#353535" id="svg_19" points="273.95,280.67 286.06,301.99 269.53,283.89  " class="st1"/>
  <polygon fill="#353535" id="svg_20" points="281.22,272.2 299.32,288.73 278.01,276.62  " class="st1"/>
  <polygon fill="#353535" id="svg_21" points="285.51,261.89 307.84,272.02 283.82,267.09  " class="st1"/>
  <polygon fill="#353535" id="svg_22" points="286.41,250.76 310.77,253.49 286.41,256.22  " class="st1"/>
  <polygon fill="#353535" id="svg_23" points="283.82,239.9 307.84,234.97 285.51,245.09  " class="st1"/>
  <polygon fill="#353535" id="svg_24" points="278.01,230.36 299.32,218.25 281.22,234.79  " class="st1"/>
  <polygon fill="#353535" id="svg_25" points="269.53,223.1 286.06,204.99 273.95,226.31  " class="st1"/>
  <polygon fill="#353535" id="svg_26" points="259.22,218.8 269.35,196.48 264.42,220.49  " class="st1"/>
 </g>
</svg>