<svg width="16" height="32" viewBox="0 0 16 32" fill="none" xmlns="http://www.w3.org/2000/svg">
<path d="M8 0C3.589 0 0 3.589 0 8V26C0 29.309 2.691 32 6 32C9.309 32 12 29.309 12 26V8C12 5.794 10.206 4 8 4C5.794 4 4 5.794 4 8V23C4 23.552 4.448 24 5 24C5.553 24 6 23.552 6 23V8C6 6.896 6.897 6 8 6C9.104 6 10 6.896 10 8V26C10 28.206 8.206 30 6 30C3.795 30 2 28.206 2 26V8C2 4.691 4.691 2 8 2C11.309 2 14 4.691 14 8V23C14 23.552 14.448 24 15 24C15.552 24 16 23.552 16 23V8C16 3.589 12.411 0 8 0Z" fill="url(#paint0_linear)"/>
<defs>
<linearGradient id="paint0_linear" x1="8" y1="0" x2="8" y2="32" gradientUnits="userSpaceOnUse">
<stop stop-color="#4E3D95"/>
<stop offset="1" stop-color="#3A2E60"/>
</linearGradient>
</defs>
</svg>
