<svg height="512pt" viewBox="0 0 512.00038 512" width="512pt" xmlns="http://www.w3.org/2000/svg"><path d="m374.882812 512c-19.199218 0-39.804687-2.816406-61.472656-8.511719-64.765625-17.015625-132.054687-58.007812-189.472656-115.425781s-98.410156-124.707031-115.425781-189.46875c-17.765625-67.605469-7.519531-124.863281 28.851562-161.230469 36.367188-36.371093 93.625-46.613281 161.230469-28.851562 64.761719 17.015625 132.050781 58.007812 189.46875 115.425781s98.410156 124.707031 115.425781 189.472656c17.765625 67.601563 7.519531 124.859375-28.851562 161.230469-24.707031 24.707031-59.0625 37.359375-99.753907 37.359375zm-237.675781-482.003906c-32.671875 0-59.722656 9.65625-78.636719 28.570312-28.515624 28.519532-35.996093 75.539063-21.054687 132.402344 15.6875 59.703125 53.914063 122.167969 107.628906 175.886719 53.71875 53.714843 116.183594 91.941406 175.882813 107.625 56.863281 14.945312 103.886718 7.464843 132.402344-21.050781 28.515624-28.515626 35.992187-75.539063 21.050781-132.402344-15.683594-59.703125-53.910157-122.164063-107.628907-175.882813-53.714843-53.714843-116.179687-91.941406-175.878906-107.628906-19.148437-5.027344-37.183594-7.519531-53.765625-7.519531zm0 0" fill="#27d8f6"/><path d="m453.429688 453.429688c-28.515626 28.515624-75.535157 35.996093-132.398438 21.054687-59.703125-15.6875-122.167969-53.914063-175.886719-107.628906-53.714843-53.71875-91.941406-116.183594-107.628906-175.886719-14.941406-56.863281-7.460937-103.882812 21.054687-132.398438l-21.207031-21.207031c-36.371093 36.367188-46.617187 93.625-28.851562 161.226563 17.015625 64.765625 58.007812 132.054687 115.425781 189.472656s124.707031 98.410156 189.46875 115.425781c21.671875 5.695313 42.277344 8.511719 61.476562 8.511719 40.6875 0 75.046876-12.652344 99.753907-37.359375zm0 0" fill="#00c0f1"/><g fill="#ffcd00"><path d="m287 241h60v30h-60zm0 0"/><path d="m287 302h60v30h-60zm0 0"/><path d="m287 180h60v30h-60zm0 0"/></g><path d="m165 241h60v30h-60zm0 0" fill="#ffdc55"/><path d="m165 302h60v30h-60zm0 0" fill="#ffdc55"/><path d="m165 180h60v30h-60zm0 0" fill="#ffdc55"/><path d="m317 226-61 30-61-30v-60h122zm0 0" fill="#0042a2"/><path d="m317 226-61 30v-90h61zm0 0" fill="#002859"/><path d="m317 346h-122v-60l61-30 61 30zm0 0" fill="#0042a2"/><path d="m317 346h-61v-90l61 30zm0 0" fill="#002859"/><path d="m137.117188 512c-40.695313 0-75.042969-12.648438-99.753907-37.363281-36.371093-36.367188-46.617187-93.625-28.851562-161.230469 17.015625-64.761719 58.007812-132.050781 115.425781-189.46875s124.707031-98.410156 189.46875-115.425781c67.605469-17.761719 124.863281-7.515625 161.230469 28.851562 36.371093 36.367188 46.617187 93.625 28.851562 161.230469-17.015625 64.761719-58.007812 132.050781-115.425781 189.46875s-124.707031 98.414062-189.46875 115.429688c-21.667969 5.691406-42.28125 8.507812-61.476562 8.507812zm237.707031-482.066406c-16.589844 0-34.625 2.492187-53.777344 7.523437-59.71875 15.691407-122.199219 53.925781-175.933594 107.65625-53.730469 53.734375-91.964843 116.214844-107.65625 175.933594-14.945312 56.878906-7.464843 103.914063 21.058594 132.4375s75.558594 36.003906 132.4375 21.058594c59.71875-15.691407 122.199219-53.925781 175.933594-107.65625 53.730469-53.734375 91.964843-116.214844 107.65625-175.933594 14.945312-56.878906 7.46875-103.914063-21.058594-132.4375-18.917969-18.917969-45.980469-28.582031-78.660156-28.582031zm0 0" fill="#76e2f8"/><path d="m453.484375 58.515625c28.523437 28.523437 36.003906 75.558594 21.058594 132.4375-15.691407 59.71875-53.925781 122.199219-107.65625 175.929687-53.734375 53.734376-116.214844 91.96875-175.933594 107.660157-56.878906 14.945312-103.914063 7.464843-132.4375-21.058594l-21.152344 21.152344c24.710938 24.714843 59.058594 37.363281 99.753907 37.363281 19.195312 0 39.808593-2.816406 61.472656-8.511719 64.765625-17.015625 132.054687-58.007812 189.472656-115.425781s98.410156-124.707031 115.425781-189.472656c17.765625-67.601563 7.519531-124.859375-28.851562-161.230469zm0 0" fill="#00cef5"/><path d="m467 90c-24.8125 0-45-20.1875-45-45s20.1875-45 45-45 45 20.1875 45 45-20.1875 45-45 45zm0 0" fill="#ffdc55"/><path d="m498.804688 13.195312-63.609376 63.609376c8.148438 8.148437 19.398438 13.195312 31.804688 13.195312 24.8125 0 45-20.1875 45-45 0-12.40625-5.046875-23.65625-13.195312-31.804688zm0 0" fill="#ffcd00"/><path d="m45 512c-24.8125 0-45-20.1875-45-45s20.1875-45 45-45 45 20.1875 45 45-20.1875 45-45 45zm0 0" fill="#ffdc55"/><path d="m76.804688 435.195312-63.609376 63.609376c8.148438 8.148437 19.398438 13.195312 31.804688 13.195312 24.8125 0 45-20.1875 45-45 0-12.40625-5.046875-23.65625-13.195312-31.804688zm0 0" fill="#ffcd00"/><path d="m195 226h122v60h-122zm0 0" fill="#002859"/><path d="m256 226h61v60h-61zm0 0" fill="#00193f"/></svg>