<svg id="Capa_1" enable-background="new 0 0 512 512" height="512" viewBox="0 0 512 512" width="512" xmlns="http://www.w3.org/2000/svg" xmlns:xlink="http://www.w3.org/1999/xlink"><linearGradient id="SVGID_1_" gradientUnits="userSpaceOnUse" x1="256" x2="256" y1="316" y2="16"><stop offset="0" stop-color="#5558ff"/><stop offset="1" stop-color="#00c0ff"/></linearGradient><linearGradient id="SVGID_2_" gradientUnits="userSpaceOnUse" x1="256" x2="256" y1="496" y2="346"><stop offset="0" stop-color="#addcff"/><stop offset=".5028" stop-color="#eaf6ff"/><stop offset="1" stop-color="#eaf6ff"/></linearGradient><g id="Cloud_Network_2_"><g><g><path d="m450.531 140.98c-7.172-75.305-90.092-118.772-155.654-81.343-25.547-27.89-60.879-43.637-98.877-43.637-70.635 0-128.76 54.507-134.414 124.937-35.713 12.363-61.586 46.42-61.586 85.063 0 49.629 41.371 90 91 90h330c49.629 0 91-40.371 91-90 0-38.599-25.814-72.627-61.469-85.02zm-14.531 10.782-.059-.015h.059z" fill="url(#SVGID_1_)"/></g></g><g><g><path d="m256 376c8.284 0 15-6.716 15-15s-6.716-15-15-15-15 6.716-15 15 6.716 15 15 15zm95.449 59.253c-5.859-5.859-15.352-5.859-21.211 0-39.668 39.668-108.809 39.668-148.477 0-5.859-5.859-15.352-5.859-21.211 0s-5.859 15.352 0 21.211c25.489 25.503 59.386 39.536 95.45 39.536s69.961-14.033 95.449-39.536c5.86-5.86 5.86-15.352 0-21.211zm-95.449.747c20.01 0 38.848-7.808 53.027-21.987 5.859-5.859 5.859-15.352 0-21.211s-15.352-5.859-21.211 0c-17.051 17.021-46.582 17.021-63.633 0-5.859-5.859-15.352-5.859-21.211 0s-5.859 15.352 0 21.211c14.18 14.179 33.018 21.987 53.028 21.987z" fill="url(#SVGID_2_)"/></g></g></g></svg>