<svg width="692" height="501" viewBox="0 0 907 731" fill="none" xmlns="http://www.w3.org/2000/svg">
<rect x="188" width="692" height="501" rx="10" fill="url(#paint0_linear)"/>
<g clip-path="url(#clip0)">
<path d="M757.57 555.548H116.732C112.357 555.543 108.163 553.803 105.07 550.71C101.976 547.616 100.237 543.422 100.232 539.048V143.894C100.235 140.689 101.51 137.617 103.776 135.35C106.042 133.084 109.115 131.809 112.319 131.806H761.773C765.033 131.809 768.159 133.106 770.464 135.412C772.77 137.717 774.066 140.843 774.07 144.103V539.048C774.065 543.422 772.325 547.616 769.232 550.71C766.139 553.803 761.945 555.543 757.57 555.548V555.548Z" fill="#F2F2F2"/>
<path d="M736.85 534.716H139.606C130.851 534.716 123.728 528.046 123.728 519.847V175.742C123.728 169.662 129.006 164.716 135.494 164.716H740.767C747.362 164.716 752.728 169.744 752.728 175.924V519.847C752.728 528.046 745.605 534.716 736.85 534.716Z" fill="white"/>
<path d="M773.84 145.95H100V137.55C100.006 133.161 101.753 128.953 104.858 125.851C107.962 122.748 112.171 121.004 116.56 121H757.28C761.669 121.004 765.878 122.748 768.982 125.851C772.087 128.953 773.834 133.161 773.84 137.55V145.95Z" fill="#3F3D56"/>
<path d="M130.095 137.783C132.461 137.783 134.379 135.866 134.379 133.5C134.379 131.134 132.461 129.217 130.095 129.217C127.73 129.217 125.812 131.134 125.812 133.5C125.812 135.866 127.73 137.783 130.095 137.783Z" fill="white"/>
<path d="M146.354 137.783C148.72 137.783 150.638 135.866 150.638 133.5C150.638 131.134 148.72 129.217 146.354 129.217C143.988 129.217 142.071 131.134 142.071 133.5C142.071 135.866 143.988 137.783 146.354 137.783Z" fill="white"/>
<path d="M162.613 137.783C164.979 137.783 166.896 135.866 166.896 133.5C166.896 131.134 164.979 129.217 162.613 129.217C160.247 129.217 158.33 131.134 158.33 133.5C158.33 135.866 160.247 137.783 162.613 137.783Z" fill="white"/>
<path d="M469.188 483.596H401.948C403.519 480.564 405.546 477.792 407.958 475.376C411.019 472.308 414.655 469.875 418.659 468.218C422.663 466.56 426.955 465.709 431.288 465.716H439.848C445.909 465.713 451.854 467.38 457.03 470.534C462.205 473.688 466.412 478.207 469.188 483.596V483.596Z" fill="white"/>
<path d="M665.188 483.596H597.948C599.519 480.564 601.546 477.792 603.958 475.376C607.019 472.308 610.655 469.875 614.659 468.218C618.663 466.56 622.955 465.709 627.288 465.716H635.848C641.909 465.713 647.854 467.38 653.03 470.534C658.205 473.688 662.412 478.207 665.188 483.596V483.596Z" fill="white"/>
</g>
<g clip-path="url(#clip1)">
<path d="M685.874 183H212.68C208.258 183.005 204.018 184.764 200.891 187.891C197.764 191.018 196.005 195.258 196 199.68V250.6C196.005 255.022 197.764 259.262 200.891 262.389C204.018 265.516 208.258 267.275 212.68 267.28H685.874C690.296 267.275 694.536 265.516 697.663 262.389C700.79 259.262 702.549 255.022 702.554 250.6V199.68C702.549 195.258 700.79 191.018 697.663 187.891C694.536 184.764 690.296 183.005 685.874 183ZM700.798 250.6C700.792 254.556 699.218 258.349 696.42 261.146C693.623 263.944 689.83 265.518 685.874 265.524H212.68C208.724 265.518 204.931 263.944 202.134 261.146C199.336 258.349 197.762 254.556 197.756 250.6V199.68C197.762 195.724 199.336 191.931 202.134 189.134C204.931 186.336 208.724 184.762 212.68 184.756H685.874C689.83 184.762 693.623 186.336 696.42 189.134C699.218 191.931 700.792 195.724 700.798 199.68V250.6Z" fill="#3F3D56"/>
<path d="M685.874 387.553H212.68C208.258 387.548 204.018 385.789 200.891 382.662C197.764 379.535 196.005 375.295 196 370.873V319.954C196.005 315.532 197.764 311.292 200.891 308.165C204.018 305.038 208.258 303.279 212.68 303.274H685.874C690.296 303.279 694.536 305.038 697.663 308.165C700.79 311.292 702.549 315.532 702.554 319.954V370.873C702.549 375.295 700.79 379.535 697.663 382.662C694.536 385.789 690.296 387.548 685.874 387.553ZM212.68 305.03C208.723 305.034 204.93 306.608 202.132 309.406C199.334 312.204 197.76 315.997 197.756 319.954V370.873C197.76 374.83 199.333 378.624 202.131 381.423C204.929 384.221 208.723 385.795 212.68 385.8H685.874C689.831 385.796 693.625 384.222 696.423 381.424C699.221 378.626 700.795 374.833 700.799 370.876V319.954C700.795 315.997 699.221 312.204 696.423 309.406C693.625 306.608 689.832 305.034 685.875 305.03H212.68Z" fill="#CCCCCC"/>
<path d="M685.874 507.827H212.68C208.258 507.822 204.018 506.063 200.891 502.936C197.764 499.809 196.005 495.569 196 491.147V440.228C196.005 435.806 197.764 431.566 200.891 428.439C204.018 425.312 208.258 423.553 212.68 423.548H685.874C690.296 423.553 694.536 425.312 697.663 428.439C700.79 431.566 702.549 435.806 702.554 440.228V491.147C702.549 495.569 700.79 499.809 697.663 502.936C694.536 506.063 690.296 507.822 685.874 507.827ZM212.68 425.3C208.723 425.304 204.93 426.878 202.132 429.676C199.334 432.474 197.76 436.267 197.756 440.224V491.143C197.76 495.1 199.334 498.893 202.132 501.692C204.93 504.49 208.723 506.063 212.68 506.068H685.874C689.831 506.064 693.625 504.49 696.423 501.692C699.221 498.894 700.795 495.101 700.799 491.144V440.228C700.796 436.27 699.222 432.476 696.424 429.677C693.626 426.878 689.832 425.304 685.874 425.3H212.68Z" fill="#CCCCCC"/>
<path d="M276.619 254.172C270.877 254.172 265.264 252.469 260.49 249.279C255.715 246.089 251.994 241.555 249.797 236.25C247.6 230.945 247.025 225.108 248.145 219.476C249.265 213.844 252.03 208.671 256.09 204.611C260.15 200.551 265.323 197.786 270.955 196.666C276.587 195.546 282.424 196.121 287.729 198.318C293.034 200.515 297.568 204.236 300.758 209.011C303.948 213.785 305.651 219.398 305.651 225.14C305.651 232.84 302.592 240.224 297.148 245.669C291.703 251.113 284.319 254.172 276.619 254.172Z" fill="#1ECA44"/>
<path d="M643.01 248.843H333.11C331.247 248.843 329.461 248.103 328.144 246.786C326.826 245.469 326.086 243.682 326.086 241.82C326.086 239.957 326.826 238.17 328.144 236.853C329.461 235.536 331.247 234.796 333.11 234.796H643.01C644.873 234.796 646.659 235.536 647.976 236.853C649.294 238.17 650.034 239.957 650.034 241.82C650.034 243.682 649.294 245.469 647.976 246.786C646.659 248.103 644.873 248.843 643.01 248.843V248.843Z" fill="#CCCCCC"/>
<path d="M542.045 218.994H333.103C331.24 218.994 329.454 218.254 328.137 216.937C326.819 215.62 326.079 213.833 326.079 211.971C326.079 210.108 326.819 208.321 328.137 207.004C329.454 205.687 331.24 204.947 333.103 204.947H542.045C543.908 204.947 545.694 205.687 547.011 207.004C548.329 208.321 549.068 210.108 549.068 211.971C549.068 213.833 548.329 215.62 547.011 216.937C545.694 218.254 543.908 218.994 542.045 218.994V218.994Z" fill="#CCCCCC"/>
<path d="M276.619 374.445C270.877 374.445 265.264 372.742 260.49 369.552C255.715 366.362 251.994 361.828 249.797 356.523C247.6 351.218 247.025 345.381 248.145 339.749C249.265 334.117 252.03 328.944 256.09 324.884C260.15 320.824 265.323 318.059 270.955 316.939C276.587 315.819 282.424 316.394 287.729 318.591C293.034 320.788 297.568 324.509 300.758 329.284C303.948 334.058 305.651 339.671 305.651 345.413C305.651 353.113 302.592 360.497 297.148 365.942C291.703 371.386 284.319 374.445 276.619 374.445V374.445Z" fill="#E6E6E6"/>
<path d="M643.01 369.117H333.11C331.247 369.117 329.461 368.377 328.144 367.06C326.826 365.743 326.086 363.956 326.086 362.094C326.086 360.231 326.826 358.444 328.144 357.127C329.461 355.81 331.247 355.07 333.11 355.07H643.01C644.873 355.07 646.659 355.81 647.976 357.127C649.294 358.444 650.034 360.231 650.034 362.094C650.034 363.956 649.294 365.743 647.976 367.06C646.659 368.377 644.873 369.117 643.01 369.117Z" fill="#E6E6E6"/>
<path d="M542.045 339.268H333.103C331.24 339.268 329.454 338.528 328.137 337.211C326.819 335.894 326.079 334.107 326.079 332.245C326.079 330.382 326.819 328.595 328.137 327.278C329.454 325.961 331.24 325.221 333.103 325.221H542.045C543.908 325.221 545.694 325.961 547.011 327.278C548.329 328.595 549.068 330.382 549.068 332.245C549.068 334.107 548.329 335.894 547.011 337.211C545.694 338.528 543.908 339.268 542.045 339.268V339.268Z" fill="#E6E6E6"/>
<path d="M276.619 494.719C270.877 494.719 265.264 493.016 260.49 489.826C255.715 486.636 251.994 482.102 249.797 476.797C247.6 471.492 247.025 465.655 248.145 460.023C249.265 454.391 252.03 449.218 256.09 445.158C260.15 441.098 265.323 438.333 270.955 437.213C276.587 436.093 282.424 436.668 287.729 438.865C293.034 441.062 297.568 444.783 300.758 449.558C303.948 454.332 305.651 459.945 305.651 465.687C305.651 473.387 302.592 480.771 297.148 486.216C291.703 491.66 284.319 494.719 276.619 494.719V494.719Z" fill="#E6E6E6"/>
<path d="M643.01 489.391H333.11C331.247 489.391 329.461 488.651 328.144 487.334C326.826 486.017 326.086 484.23 326.086 482.367C326.086 480.505 326.826 478.718 328.144 477.401C329.461 476.084 331.247 475.344 333.11 475.344H643.01C644.873 475.344 646.659 476.084 647.976 477.401C649.294 478.718 650.034 480.505 650.034 482.367C650.034 484.23 649.294 486.017 647.976 487.334C646.659 488.651 644.873 489.391 643.01 489.391Z" fill="#E6E6E6"/>
<path d="M542.045 459.542H333.103C331.24 459.542 329.454 458.802 328.137 457.485C326.819 456.168 326.079 454.381 326.079 452.518C326.079 450.656 326.819 448.869 328.137 447.552C329.454 446.235 331.24 445.495 333.103 445.495H542.045C543.908 445.495 545.694 446.235 547.011 447.552C548.329 448.869 549.068 450.656 549.068 452.518C549.068 454.381 548.329 456.168 547.011 457.485C545.694 458.802 543.908 459.542 542.045 459.542V459.542Z" fill="#E6E6E6"/>
<path d="M275.137 235.352C274.416 235.354 273.714 235.121 273.137 234.688L273.101 234.661L265.576 228.905C265.227 228.638 264.935 228.305 264.715 227.924C264.495 227.544 264.353 227.124 264.295 226.689C264.238 226.254 264.266 225.811 264.38 225.387C264.493 224.963 264.689 224.565 264.957 224.217C265.224 223.868 265.557 223.575 265.937 223.356C266.317 223.136 266.737 222.993 267.172 222.936C267.608 222.878 268.05 222.907 268.474 223.02C268.899 223.134 269.296 223.33 269.645 223.597L274.519 227.335L286.036 212.309C286.575 211.606 287.372 211.145 288.251 211.029C289.13 210.913 290.018 211.151 290.722 211.69V211.69L290.651 211.79L290.724 211.69C291.427 212.23 291.886 213.027 292.002 213.906C292.118 214.784 291.881 215.673 291.342 216.377L277.795 234.043C277.481 234.449 277.078 234.778 276.617 235.003C276.155 235.229 275.648 235.345 275.135 235.343L275.137 235.352Z" fill="white"/>
</g>
<defs>
<linearGradient id="paint0_linear" x1="534" y1="0" x2="534" y2="501" gradientUnits="userSpaceOnUse">
<stop stop-color="#C4C4C4" stop-opacity="0"/>
<stop offset="1" stop-color="#635AFA"/>
</linearGradient>
<clipPath id="clip0">
<rect width="806.008" height="609.716" fill="white" transform="translate(100 121)"/>
</clipPath>
<clipPath id="clip1">
<rect width="747.62" height="526" fill="white" transform="translate(0 71)"/>
</clipPath>
</defs>
</svg>
