<svg width="506" height="362" viewBox="0 0 506 362" fill="none" xmlns="http://www.w3.org/2000/svg">
<rect width="506" height="362" />
<path d="M174.453 165.703V339.062C174.453 339.062 246.094 288.75 296.406 273.984C296.406 273.984 298.594 166.797 329.766 113.203L174.453 165.703" fill="#3C0A74"/>
<path d="M219.297 312.812C219.297 312.812 222.031 159.141 227.5 151.484C232.969 143.281 280 135.078 280 135.078C280 135.078 260.859 278.906 265.234 288.203C265.781 287.656 246.094 295.859 219.297 312.812Z" fill="#B3690E"/>
<path d="M174.453 339.062C174.453 339.062 124.141 296.406 45.9374 273.984C45.9374 273.984 51.9531 185.937 23.5156 118.672L174.453 165.703V339.062Z" fill="#5B11AD"/>
<path d="M77.6562 288.203C77.6562 288.203 123.594 306.797 126.875 312.812C130.156 318.828 130.156 158.047 130.156 158.047C130.156 158.047 67.2656 140.547 61.7968 140.547C61.7968 140.547 80.9374 205.625 77.6562 288.203" fill="#E9C243"/>
<path opacity="0.3" d="M174.453 165.703V194.687L315 146.562C318.828 134.531 323.75 123.047 329.219 113.203L174.453 165.703" fill="black"/>
<path opacity="0.3" d="M33.3594 148.75C30.6251 138.359 27.3438 128.516 22.9688 118.672L173.906 165.703V194.687L33.3594 148.75Z" fill="black"/>
<path d="M10.9375 103.359L166.797 137.813L339.062 96.25L170.078 86.9531L10.9375 103.359Z" fill="#6C15CC"/>
<path d="M10.9375 103.359L23.5156 137.813L166.797 178.281V137.813L10.9375 103.359Z" fill="#5B11AD"/>
<path d="M166.797 178.281C166.797 178.281 296.953 130.156 329.219 127.969C329.219 127.969 331.406 108.828 339.062 96.7969L166.797 137.812V178.281Z" fill="#3C0A74"/>
<path d="M57.4219 113.75L89.1406 143.828L124.141 127.969L175 112.656L238.437 120.312L271.797 126.875L298.594 106.094L57.4219 113.75Z" fill="#F0AE11"/>
<path d="M124.141 127.969L175 112.656L238.437 120.312L298.594 106.094L171.719 94.0625L57.4219 113.75L124.141 127.969Z" fill="#F0AE11"/>
<path d="M57.4219 113.75V152.031L121.406 169.531L124.141 127.969L57.4219 113.75Z" fill="#F8D048"/>
<path d="M238.438 120.313L239.531 156.953L294.219 140.547L298.594 106.094L238.438 120.313Z" fill="#C47116"/>
<path d="M203.984 94.6094C203.984 94.6094 203.984 56.3281 241.172 22.9687C241.172 22.9687 218.75 31.1719 207.812 28.9844C194.687 26.7969 190.312 10.9375 190.312 10.9375C190.312 10.9375 158.594 79.8438 167.891 88.5938C177.187 97.8906 203.984 94.6094 203.984 94.6094Z" fill="#EA9F07"/>
<path d="M155.313 117.031C155.313 117.031 133.984 73.2813 88.5938 50.3125C88.5938 50.3125 124.141 47.0313 132.344 42.6563C142.734 37.7344 148.75 24.0625 148.75 24.0625C148.75 24.0625 188.125 92.9688 184.844 103.359C181.563 113.75 155.313 117.031 155.313 117.031Z" fill="#F8D048"/>
<path d="M178.281 112.109C178.281 112.109 144.922 125.234 102.266 125.234C12.578 124.687 -0.000117632 60.1563 88.5937 66.1719C161.328 71.6406 178.281 112.109 178.281 112.109" fill="#EA9F07"/>
<path d="M172.266 111.563C172.266 111.563 211.641 114.844 248.281 105.547C324.844 85.8594 296.406 27.8906 224.219 52.5C165.156 72.7344 172.266 111.563 172.266 111.563Z" fill="#F0AE11"/>
<path d="M178.281 112.109C178.281 112.109 157.5 120.313 130.703 120.313C74.9218 120.313 66.7187 79.8438 121.953 83.6719C167.344 86.9531 178.281 112.109 178.281 112.109" fill="#824000"/>
<path d="M178.281 112.109C178.281 112.109 205.625 114.297 231.328 107.734C284.922 94.0625 264.687 53.5938 214.922 70.5469C173.359 84.7656 178.281 112.109 178.281 112.109" fill="#824000"/>
<path d="M380.609 230.359V354.187C380.609 354.187 431.781 318.25 467.719 307.703C467.719 307.703 469.281 231.141 491.547 192.859L380.609 230.359" fill="#3C0A74"/>
<path d="M412.641 335.437C412.641 335.437 414.594 225.672 418.5 220.203C422.406 214.344 456 208.484 456 208.484C456 208.484 442.328 311.219 445.453 317.859C445.844 317.469 431.781 323.328 412.641 335.437Z" fill="#B3690E"/>
<path d="M380.609 354.187C380.609 354.187 344.672 323.719 288.812 307.703C288.812 307.703 293.109 244.812 272.797 196.766L380.609 230.359V354.187Z" fill="#5B11AD"/>
<path d="M311.469 317.859C311.469 317.859 344.281 331.141 346.625 335.437C348.969 339.734 348.969 224.891 348.969 224.891C348.969 224.891 304.047 212.391 300.141 212.391C300.141 212.391 313.812 258.875 311.469 317.859" fill="#E9C243"/>
<path opacity="0.3" d="M380.609 230.359V251.062L481 216.687C483.734 208.094 487.25 199.891 491.156 192.859L380.609 230.359" fill="black"/>
<path opacity="0.3" d="M279.828 218.25C277.875 210.828 275.531 203.797 272.406 196.766L380.219 230.359V251.062L279.828 218.25Z" fill="black"/>
<path d="M263.812 185.828L375.141 210.438L498.188 180.75L377.484 174.109L263.812 185.828Z" fill="#6C15CC"/>
<path d="M263.812 185.828L272.797 210.438L375.141 239.344V210.438L263.812 185.828Z" fill="#5B11AD"/>
<path d="M375.141 239.344C375.141 239.344 468.109 204.969 491.156 203.406C491.156 203.406 492.719 189.734 498.188 181.141L375.141 210.437V239.344Z" fill="#3C0A74"/>
<path d="M297.016 193.25L319.672 214.734L344.672 203.406L381 192.469L426.313 197.937L450.141 202.625L469.281 187.781L297.016 193.25Z" fill="#F0AE11"/>
<path d="M344.672 203.406L381 192.469L426.313 197.937L469.281 187.781L378.656 179.187L297.016 193.25L344.672 203.406Z" fill="#F0AE11"/>
<path d="M297.016 193.25V220.594L342.719 233.094L344.672 203.406L297.016 193.25Z" fill="#F8D048"/>
<path d="M426.313 197.938L427.094 224.109L466.156 212.391L469.281 187.781L426.313 197.938Z" fill="#C47116"/>
<path d="M401.703 179.578C401.703 179.578 401.703 152.234 428.266 128.406C428.266 128.406 412.25 134.266 404.437 132.703C395.062 131.141 391.937 119.812 391.937 119.812C391.937 119.812 369.281 169.031 375.922 175.281C382.562 181.922 401.703 179.578 401.703 179.578Z" fill="#EA9F07"/>
<path d="M366.938 195.594C366.938 195.594 351.703 164.344 319.281 147.938C319.281 147.938 344.672 145.594 350.531 142.469C357.953 138.953 362.25 129.188 362.25 129.188C362.25 129.188 390.375 178.406 388.031 185.828C385.688 193.25 366.938 195.594 366.938 195.594Z" fill="#F8D048"/>
<path d="M383.344 192.078C383.344 192.078 359.516 201.453 329.047 201.453C264.984 201.063 256 154.969 319.281 159.266C371.234 163.172 383.344 192.078 383.344 192.078" fill="#EA9F07"/>
<path d="M379.047 191.687C379.047 191.687 407.172 194.031 433.344 187.391C488.031 173.328 467.719 131.922 416.156 149.5C373.969 163.953 379.047 191.687 379.047 191.687Z" fill="#F0AE11"/>
<path d="M383.344 192.078C383.344 192.078 368.5 197.938 349.359 197.938C309.516 197.938 303.656 169.031 343.109 171.766C375.531 174.109 383.344 192.078 383.344 192.078" fill="#824000"/>
<path d="M383.344 192.078C383.344 192.078 402.875 193.641 421.234 188.953C459.516 179.188 445.062 150.281 409.516 162.391C379.828 172.547 383.344 192.078 383.344 192.078" fill="#824000"/>
</svg>
