<svg width="692" height="501" viewBox="0 0 807 751" fill="none" xmlns="http://www.w3.org/2000/svg">
<rect x="81" width="692" height="501" rx="10" fill="url(#paint0_linear)"/>
<g clip-path="url(#clip0)">
<path d="M657.57 575.548H16.7316C12.357 575.543 8.16304 573.803 5.06976 570.71C1.97648 567.616 0.236512 563.422 0.231567 559.048V163.894C0.235132 160.689 1.50981 157.617 3.77594 155.35C6.04207 153.084 9.1146 151.809 12.3195 151.806H661.773C665.033 151.809 668.159 153.106 670.464 155.412C672.77 157.717 674.066 160.843 674.07 164.103V559.048C674.065 563.422 672.325 567.616 669.232 570.71C666.139 573.803 661.945 575.543 657.57 575.548V575.548Z" fill="#F2F2F2"/>
<path d="M636.85 554.716H39.6055C30.8505 554.716 23.728 548.046 23.728 539.847V195.742C23.728 189.662 29.006 184.716 35.4936 184.716H640.767C647.362 184.716 652.728 189.744 652.728 195.924V539.847C652.728 548.046 645.605 554.716 636.85 554.716Z" fill="white"/>
<path d="M673.84 165.95H0V157.55C0.00634366 153.161 1.75342 148.953 4.85796 145.851C7.96249 142.748 12.1709 141.004 16.5601 141H657.28C661.669 141.004 665.878 142.748 668.982 145.851C672.087 148.953 673.834 153.161 673.84 157.55V165.95Z" fill="#3F3D56"/>
<path d="M30.0954 157.783C32.461 157.783 34.3788 155.866 34.3788 153.5C34.3788 151.134 32.461 149.217 30.0954 149.217C27.7297 149.217 25.812 151.134 25.812 153.5C25.812 155.866 27.7297 157.783 30.0954 157.783Z" fill="white"/>
<path d="M46.3542 157.783C48.7198 157.783 50.6376 155.866 50.6376 153.5C50.6376 151.134 48.7198 149.217 46.3542 149.217C43.9885 149.217 42.0707 151.134 42.0707 153.5C42.0707 155.866 43.9885 157.783 46.3542 157.783Z" fill="white"/>
<path d="M62.613 157.783C64.9786 157.783 66.8964 155.866 66.8964 153.5C66.8964 151.134 64.9786 149.217 62.613 149.217C60.2473 149.217 58.3296 151.134 58.3296 153.5C58.3296 155.866 60.2473 157.783 62.613 157.783Z" fill="white"/>
<path d="M192.348 238.766H86.7977C84.6964 238.765 82.6156 239.178 80.6741 239.982C78.7327 240.786 76.9686 241.965 75.4828 243.451C73.9969 244.936 72.8184 246.7 72.0145 248.642C71.2106 250.583 70.7972 252.664 70.7977 254.766V326.596C70.7972 328.697 71.2106 330.778 72.0145 332.719C72.8184 334.661 73.9969 336.425 75.4828 337.91C76.9686 339.396 78.7327 340.575 80.6741 341.379C82.6156 342.183 84.6964 342.596 86.7977 342.596H192.348C196.591 342.595 200.661 340.909 203.661 337.909C206.662 334.908 208.347 330.839 208.348 326.596V254.766C208.347 250.522 206.662 246.453 203.661 243.452C200.661 240.452 196.591 238.766 192.348 238.766V238.766Z" fill="#2D24BB"/>
<path d="M266.797 254.762V326.6C266.797 330.844 268.482 334.913 271.483 337.914C274.483 340.915 278.553 342.6 282.797 342.6H388.344C392.588 342.6 396.658 340.915 399.658 337.914C402.659 334.913 404.344 330.844 404.344 326.6V254.762C404.344 250.518 402.659 246.449 399.658 243.448C396.658 240.447 392.588 238.762 388.344 238.762H282.797C278.553 238.762 274.483 240.447 271.483 243.448C268.482 246.449 266.797 250.518 266.797 254.762Z" fill="#C463FF"/>
<path d="M462.797 254.762V326.6C462.797 330.844 464.482 334.913 467.483 337.914C470.483 340.915 474.553 342.6 478.797 342.6H584.344C588.588 342.6 592.658 340.915 595.658 337.914C598.659 334.913 600.344 330.844 600.344 326.6V254.762C600.344 250.518 598.659 246.449 595.658 243.448C592.658 240.447 588.588 238.762 584.344 238.762H478.797C474.553 238.762 470.483 240.447 467.483 243.448C464.482 246.449 462.797 250.518 462.797 254.762Z" fill="#E6E6E6"/>
<path d="M70.7965 413.762V485.6C70.7965 489.844 72.4822 493.913 75.4828 496.914C78.4834 499.915 82.553 501.6 86.7965 501.6H192.344C196.588 501.6 200.657 499.915 203.658 496.914C206.659 493.913 208.344 489.844 208.344 485.6V413.762C208.344 409.518 206.659 405.449 203.658 402.448C200.657 399.447 196.588 397.762 192.344 397.762H86.7965C82.553 397.762 78.4834 399.447 75.4828 402.448C72.4822 405.449 70.7965 409.518 70.7965 413.762Z" fill="#E6E6E6"/>
<path d="M266.797 413.762V485.6C266.797 489.844 268.482 493.913 271.483 496.914C274.483 499.915 278.553 501.6 282.797 501.6H388.344C392.588 501.6 396.658 499.915 399.658 496.914C402.659 493.913 404.344 489.844 404.344 485.6V413.762C404.344 409.518 402.659 405.449 399.658 402.448C396.658 399.447 392.588 397.762 388.344 397.762H282.797C278.553 397.762 274.483 399.447 271.483 402.448C268.482 405.449 266.797 409.518 266.797 413.762Z" fill="#E6E6E6"/>
<path d="M462.797 413.762V485.6C462.797 489.844 464.482 493.913 467.483 496.914C470.483 499.915 474.553 501.6 478.797 501.6H584.344C588.588 501.6 592.658 499.915 595.658 496.914C598.659 493.913 600.344 489.844 600.344 485.6V413.762C600.344 409.518 598.659 405.449 595.658 402.448C592.658 399.447 588.588 397.762 584.344 397.762H478.797C474.553 397.762 470.483 399.447 467.483 402.448C464.482 405.449 462.797 409.518 462.797 413.762Z" fill="#22BA68"/>
<path d="M139.57 312.681C151.721 312.681 161.57 302.831 161.57 290.681C161.57 278.531 151.721 268.681 139.57 268.681C127.42 268.681 117.57 278.531 117.57 290.681C117.57 302.831 127.42 312.681 139.57 312.681Z" fill="white"/>
<path d="M173.188 344.596H105.948C107.519 341.564 109.546 338.792 111.958 336.376C115.019 333.308 118.655 330.875 122.659 329.218C126.663 327.56 130.955 326.709 135.288 326.716H143.848C149.909 326.713 155.854 328.38 161.03 331.534C166.205 334.688 170.412 339.207 173.188 344.596V344.596Z" fill="white"/>
<path d="M335.57 312.681C347.721 312.681 357.57 302.831 357.57 290.681C357.57 278.531 347.721 268.681 335.57 268.681C323.42 268.681 313.57 278.531 313.57 290.681C313.57 302.831 323.42 312.681 335.57 312.681Z" fill="white"/>
<path d="M369.188 344.596H301.948C303.519 341.564 305.546 338.792 307.958 336.376C311.019 333.308 314.655 330.875 318.659 329.218C322.663 327.56 326.955 326.709 331.288 326.716H339.848C345.909 326.713 351.854 328.38 357.03 331.534C362.205 334.688 366.412 339.207 369.188 344.596V344.596Z" fill="white"/>
<path d="M531.57 312.681C543.721 312.681 553.57 302.831 553.57 290.681C553.57 278.531 543.721 268.681 531.57 268.681C519.42 268.681 509.57 278.531 509.57 290.681C509.57 302.831 519.42 312.681 531.57 312.681Z" fill="white"/>
<path d="M565.188 344.596H497.948C499.519 341.564 501.546 338.792 503.958 336.376C507.019 333.308 510.655 330.875 514.659 329.218C518.663 327.56 522.955 326.709 527.288 326.716H535.848C541.909 326.713 547.854 328.38 553.03 331.534C558.205 334.688 562.412 339.207 565.188 344.596V344.596Z" fill="white"/>
<path d="M139.57 471.681C151.721 471.681 161.57 461.831 161.57 449.681C161.57 437.531 151.721 427.681 139.57 427.681C127.42 427.681 117.57 437.531 117.57 449.681C117.57 461.831 127.42 471.681 139.57 471.681Z" fill="white"/>
<path d="M173.188 503.596H105.948C107.519 500.564 109.546 497.792 111.958 495.376C115.019 492.308 118.655 489.875 122.659 488.218C126.663 486.56 130.955 485.709 135.288 485.716H143.848C149.909 485.713 155.854 487.38 161.03 490.534C166.205 493.688 170.412 498.207 173.188 503.596V503.596Z" fill="white"/>
<path d="M335.57 471.681C347.721 471.681 357.57 461.831 357.57 449.681C357.57 437.531 347.721 427.681 335.57 427.681C323.42 427.681 313.57 437.531 313.57 449.681C313.57 461.831 323.42 471.681 335.57 471.681Z" fill="white"/>
<path d="M369.188 503.596H301.948C303.519 500.564 305.546 497.792 307.958 495.376C311.019 492.308 314.655 489.875 318.659 488.218C322.663 486.56 326.955 485.709 331.288 485.716H339.848C345.909 485.713 351.854 487.38 357.03 490.534C362.205 493.688 366.412 498.207 369.188 503.596V503.596Z" fill="white"/>
<path d="M531.57 471.681C543.721 471.681 553.57 461.831 553.57 449.681C553.57 437.531 543.721 427.681 531.57 427.681C519.42 427.681 509.57 437.531 509.57 449.681C509.57 461.831 519.42 471.681 531.57 471.681Z" fill="white"/>
<path d="M565.188 503.596H497.948C499.519 500.564 501.546 497.792 503.958 495.376C507.019 492.308 510.655 489.875 514.659 488.218C518.663 486.56 522.955 485.709 527.288 485.716H535.848C541.909 485.713 547.854 487.38 553.03 490.534C558.205 493.688 562.412 498.207 565.188 503.596V503.596Z" fill="white"/>
</g>
<defs>
<linearGradient id="paint0_linear" x1="427" y1="0" x2="427" y2="501" gradientUnits="userSpaceOnUse">
<stop stop-color="#C4C4C4" stop-opacity="0"/>
<stop offset="1" stop-color="#635AFA"/>
</linearGradient>
<clipPath id="clip0">
<rect width="806.008" height="609.716" fill="white" transform="translate(0 141)"/>
</clipPath>
</defs>
</svg>
