<svg width="692" height="501" viewBox="0 0 836 774" fill="none" xmlns="http://www.w3.org/2000/svg">
<rect x="117" y="43" width="692" height="501" rx="10" fill="url(#paint0_linear)"/>
<g clip-path="url(#clip0)">
<path d="M686.57 598.548H45.7316C41.357 598.543 37.163 596.803 34.0698 593.71C30.9765 590.616 29.2365 586.422 29.2316 582.048V186.894C29.2351 183.689 30.5098 180.617 32.7759 178.35C35.0421 176.084 38.1146 174.809 41.3195 174.806H690.773C694.033 174.809 697.159 176.106 699.464 178.412C701.77 180.717 703.066 183.843 703.07 187.103V582.048C703.065 586.422 701.325 590.616 698.232 593.71C695.139 596.803 690.945 598.543 686.57 598.548Z" fill="#F2F2F2"/>
<path d="M665.85 577.716H68.6055C59.8505 577.716 52.728 571.046 52.728 562.847V218.742C52.728 212.662 58.006 207.716 64.4936 207.716H669.767C676.362 207.716 681.728 212.744 681.728 218.924V562.847C681.728 571.046 674.605 577.716 665.85 577.716Z" fill="white"/>
<path d="M702.84 188.95H29V180.55C29.0063 176.161 30.7534 171.953 33.858 168.851C36.9625 165.748 41.1709 164.004 45.5601 164H686.28C690.669 164.004 694.878 165.748 697.982 168.851C701.087 171.953 702.834 176.161 702.84 180.55V188.95Z" fill="#3F3D56"/>
<path d="M59.0954 180.783C61.461 180.783 63.3788 178.866 63.3788 176.5C63.3788 174.134 61.461 172.217 59.0954 172.217C56.7297 172.217 54.812 174.134 54.812 176.5C54.812 178.866 56.7297 180.783 59.0954 180.783Z" fill="white"/>
<path d="M75.3542 180.783C77.7198 180.783 79.6376 178.866 79.6376 176.5C79.6376 174.134 77.7198 172.217 75.3542 172.217C72.9885 172.217 71.0707 174.134 71.0707 176.5C71.0707 178.866 72.9885 180.783 75.3542 180.783Z" fill="white"/>
<path d="M91.613 180.783C93.9786 180.783 95.8964 178.866 95.8964 176.5C95.8964 174.134 93.9786 172.217 91.613 172.217C89.2473 172.217 87.3296 174.134 87.3296 176.5C87.3296 178.866 89.2473 180.783 91.613 180.783Z" fill="white"/>
<path d="M398.188 526.596H330.948C332.519 523.564 334.546 520.792 336.958 518.376C340.019 515.308 343.655 512.875 347.659 511.218C351.663 509.56 355.955 508.709 360.288 508.716H368.848C374.909 508.713 380.854 510.38 386.03 513.534C391.205 516.688 395.412 521.207 398.188 526.596Z" fill="white"/>
<path d="M594.188 526.596H526.948C528.519 523.564 530.546 520.792 532.958 518.376C536.019 515.308 539.655 512.875 543.659 511.218C547.663 509.56 551.955 508.709 556.288 508.716H564.848C570.909 508.713 576.854 510.38 582.03 513.534C587.205 516.688 591.412 521.207 594.188 526.596Z" fill="white"/>
</g>
<g opacity="0.7">
<path opacity="0.7" d="M348.79 206.603C348.838 192.081 345.358 177.764 338.647 164.881C335.461 158.831 332.556 155.07 330.294 152.764C329.442 151.86 328.328 151.245 327.108 151.005C325.889 150.764 324.625 150.91 323.493 151.423C322.588 151.742 321.77 152.268 321.106 152.96C318.081 156.089 315.348 160.226 312.962 164.631C305.902 177.814 302.238 192.546 302.3 207.497V216.474H296.536V112.168C296.536 90.3051 291.638 68.7347 282.044 49.5841C277.498 40.5184 273.351 34.8859 270.159 31.4229C269.386 30.5426 268.433 29.8373 267.365 29.3541C266.297 28.8709 265.138 28.6209 263.966 28.6209C262.793 28.6209 261.634 28.8709 260.566 29.3541C259.498 29.8373 258.546 30.5426 257.773 31.4229C253.453 36.1137 249.557 42.3125 246.15 48.9046C236.061 68.4486 230.936 90.627 230.936 113.139V216.474H225.954V207.068C226.016 192.117 222.351 177.385 215.292 164.201C212.905 159.803 210.173 155.666 207.148 152.531C206.277 151.615 205.137 150.999 203.893 150.772C202.649 150.545 201.365 150.718 200.227 151.268L200.435 151.381C199.705 151.703 199.044 152.165 198.49 152.74C196.253 155.046 193.347 158.807 190.137 164.857C183.427 177.74 179.947 192.057 179.995 206.58V362.526H197.774L195.835 375.347V413.678H210.37V375.347L208.43 362.526H225.954V220.509H230.936V361.888H245.136L243.095 375.341V413.678H257.635V375.347L255.595 361.894H274.729L272.689 375.347V413.678H287.229V375.347L285.188 361.894H296.524V220.509H302.288V362.74H306.96V362.526H322.407L320.468 375.347V413.678H335.008V375.347L333.069 362.526H348.79V206.603Z" fill="url(#paint1_linear)"/>
</g>
<path d="M213.263 367.872H199.499L201.957 351.177H210.805L213.263 367.872Z" fill="#535461"/>
<g opacity="0.1">
<path opacity="0.1" d="M201.271 357.805H211.491L210.805 353.138H201.957L201.271 357.805Z" fill="black"/>
</g>
<path d="M331.255 367.872H317.49L319.949 351.177H328.797L331.255 367.872Z" fill="#535461"/>
<g opacity="0.1">
<path opacity="0.1" d="M319.262 357.805H329.483L328.797 353.138H319.949L319.262 357.805Z" fill="black"/>
</g>
<path d="M258.005 367.872H244.235L246.693 351.177H255.547L258.005 367.872Z" fill="#535461"/>
<g opacity="0.1">
<path opacity="0.1" d="M246.007 357.805H256.233L255.547 353.138H246.693L246.007 357.805Z" fill="black"/>
</g>
<path d="M286.024 367.872H272.259L274.717 351.177H283.565L286.024 367.872Z" fill="#535461"/>
<g opacity="0.1">
<path opacity="0.1" d="M274.031 357.805H284.257L283.565 353.138H274.717L274.031 357.805Z" fill="black"/>
</g>
<path d="M311.59 213.166H213.263V217.094H311.59V213.166Z" fill="#535461"/>
<path d="M326.792 151.101C326.272 150.528 325.638 150.07 324.931 149.756C324.223 149.443 323.458 149.281 322.684 149.281C321.91 149.281 321.145 149.443 320.437 149.756C319.73 150.07 319.096 150.528 318.576 151.101C315.712 154.146 313.129 158.176 310.868 162.461C304.176 175.349 300.714 189.665 300.779 204.183V355.391H344.292V203.558C344.346 189.438 341.052 175.506 334.68 162.902C331.661 157.013 328.91 153.348 326.792 151.101Z" fill="#E0E0E0"/>
<path d="M202.017 151.101C202.536 150.528 203.17 150.07 203.878 149.756C204.585 149.443 205.35 149.281 206.124 149.281C206.898 149.281 207.664 149.443 208.371 149.756C209.079 150.07 209.713 150.528 210.232 151.101C213.096 154.146 215.68 158.176 217.941 162.461C224.632 175.349 228.094 189.665 228.03 204.183V355.391H184.505V203.558C184.45 189.438 187.744 175.506 194.117 162.902C197.13 157.013 199.881 153.348 202.017 151.101Z" fill="#E0E0E0"/>
<path d="M184.75 206.782L195.072 206.83V219.549H184.75V206.782Z" fill="#535461"/>
<path d="M217.69 206.782L228.012 206.83V219.549H217.69V206.782Z" fill="#535461"/>
<path d="M300.772 206.782L311.1 206.83V219.549H300.772V206.782Z" fill="#535461"/>
<path d="M333.713 206.782L344.041 206.83V219.549H333.713V206.782Z" fill="#535461"/>
<g opacity="0.1">
<path opacity="0.1" d="M217.923 162.264C215.668 157.979 213.078 153.95 210.214 150.904C209.405 150.011 208.326 149.407 207.141 149.184C205.956 148.962 204.73 149.132 203.651 149.67C204.273 149.98 204.835 150.398 205.31 150.904C208.174 153.95 210.757 157.979 213.019 162.264C219.71 175.152 223.172 189.469 223.108 203.987V355.183H228.024V204.005C228.088 189.48 224.621 175.156 217.923 162.264V162.264Z" fill="black"/>
</g>
<g opacity="0.1">
<path opacity="0.1" d="M314.782 162.682C317.037 158.396 319.626 154.367 322.49 151.321C323.027 150.745 323.674 150.282 324.393 149.962C323.33 149.497 322.147 149.378 321.012 149.622C319.877 149.866 318.847 150.46 318.069 151.321C315.205 154.367 312.622 158.396 310.361 162.682C303.669 175.569 300.207 189.886 300.271 204.404V355.6H304.698V204.428C304.628 189.902 308.088 175.577 314.782 162.682V162.682Z" fill="black"/>
</g>
<path d="M213.263 367.872H199.499V405.196H213.263V367.872Z" fill="url(#paint2_linear)"/>
<path d="M257.999 367.872H244.235V405.196H257.999V367.872Z" fill="url(#paint3_linear)"/>
<path d="M286.024 367.872H272.259V405.196H286.024V367.872Z" fill="url(#paint4_linear)"/>
<path d="M331.255 367.872H317.49V405.196H331.255V367.872Z" fill="url(#paint5_linear)"/>
<path d="M269.855 32.5494C269.136 31.6956 268.238 31.0093 267.226 30.5384C266.213 30.0675 265.11 29.8235 263.993 29.8235C262.876 29.8235 261.772 30.0675 260.76 30.5384C259.747 31.0093 258.85 31.6956 258.131 32.5494C254.044 37.1151 250.374 43.1529 247.129 49.5782C237.582 68.6155 232.726 90.2217 232.726 112.132V354.771H294.83V111.154C294.83 89.8641 290.194 68.836 281.107 50.2338C276.805 41.4065 272.88 35.923 269.855 32.5494Z" fill="#EEEEEE"/>
<path d="M272.987 59.5021H253.71C250.085 59.5021 247.146 62.4375 247.146 66.0585V67.781C247.146 71.402 250.085 74.3374 253.71 74.3374H272.987C276.612 74.3374 279.55 71.402 279.55 67.781V66.0585C279.55 62.4375 276.612 59.5021 272.987 59.5021Z" fill="#6C63FF"/>
<g opacity="0.7">
<path opacity="0.7" d="M408.454 401.119C406.416 388.844 399.823 377.787 389.988 370.152C380.154 362.517 367.8 358.864 355.39 359.922C342.98 360.98 331.424 366.671 323.027 375.86C314.629 385.05 310.007 397.063 310.08 409.505C310.08 409.75 310.08 409.988 310.08 410.232C308.248 410.51 306.435 410.898 304.651 411.395C302.365 402.302 297.306 394.144 290.174 388.051C283.042 381.957 274.19 378.23 264.844 377.384C255.497 376.539 246.119 378.618 238.008 383.333C229.896 388.047 223.453 395.165 219.57 403.7C215.567 402.157 211.364 401.198 207.088 400.851V400.851C206.406 396.983 205.262 393.211 203.681 389.616C202.939 378.271 197.943 367.622 189.689 359.795C181.435 351.968 170.53 347.537 159.151 347.386C147.771 347.236 136.753 351.377 128.294 358.983C119.836 366.59 114.559 377.102 113.517 388.424C111.174 393.379 109.678 398.692 109.09 404.141C98.7329 408.446 90.3446 416.438 85.5506 426.569C80.7565 436.7 79.8982 448.249 83.1419 458.976H445.649C447.538 452.719 448.048 446.127 447.142 439.655C446.236 433.182 443.936 426.983 440.4 421.483C436.865 415.984 432.179 411.316 426.664 407.8C421.148 404.285 414.936 402.005 408.454 401.119V401.119Z" fill="url(#paint6_linear)"/>
</g>
<path d="M162.71 436.404C186.708 436.404 206.163 416.969 206.163 392.995C206.163 369.021 186.708 349.586 162.71 349.586C138.711 349.586 119.257 369.021 119.257 392.995C119.257 416.969 138.711 436.404 162.71 436.404Z" fill="url(#paint7_linear)"/>
<path d="M162.495 456.807C188.774 456.807 210.077 435.525 210.077 409.273C210.077 383.021 188.774 361.739 162.495 361.739C136.216 361.739 114.913 383.021 114.913 409.273C114.913 435.525 136.216 456.807 162.495 456.807Z" fill="url(#paint8_linear)"/>
<path d="M355.866 456.807C382.145 456.807 403.448 435.525 403.448 409.273C403.448 383.021 382.145 361.739 355.866 361.739C329.587 361.739 308.284 383.021 308.284 409.273C308.284 435.525 329.587 456.807 355.866 456.807Z" fill="url(#paint9_linear)"/>
<path d="M353.474 456.807C377.472 456.807 396.927 437.372 396.927 413.397C396.927 389.423 377.472 369.988 353.474 369.988C329.475 369.988 310.02 389.423 310.02 413.397C310.02 437.372 329.475 456.807 353.474 456.807Z" fill="url(#paint10_linear)"/>
<path d="M304.37 421.646C304.377 428.511 302.752 435.279 299.627 441.393C296.503 447.507 291.969 452.792 286.399 456.812H235.428C229.396 452.457 224.583 446.626 221.453 439.879C218.322 433.133 216.979 425.696 217.55 418.282C218.122 410.868 220.589 403.724 224.717 397.536C228.845 391.348 234.494 386.322 241.123 382.94C247.753 379.558 255.14 377.934 262.578 378.222C270.017 378.51 277.256 380.702 283.603 384.586C289.95 388.471 295.193 393.919 298.828 400.408C302.463 406.897 304.369 414.21 304.364 421.646H304.37Z" fill="url(#paint11_linear)"/>
<path d="M358.259 452.903C358.259 454.202 358.201 455.487 358.086 456.759C358.09 456.776 358.09 456.795 358.086 456.813H271.525C271.406 455.525 271.346 454.22 271.346 452.909C271.339 442.521 275.064 432.476 281.844 424.6C288.624 416.725 298.008 411.542 308.29 409.994C310.439 409.671 312.609 409.508 314.782 409.505C315.891 409.505 316.995 409.547 318.087 409.625C325.875 410.22 333.36 412.899 339.753 417.382C346.147 421.864 351.214 427.984 354.422 435.099C354.601 435.492 354.774 435.892 354.936 436.291C357.13 441.555 358.259 447.201 358.259 452.903V452.903Z" fill="url(#paint12_linear)"/>
<path d="M440.386 444.218C440.391 448.483 439.764 452.725 438.525 456.807H355.353C353.342 450.131 352.96 443.073 354.238 436.22C354.309 435.844 354.381 435.463 354.464 435.093C356.558 425.388 361.917 416.692 369.649 410.455C377.381 404.218 387.019 400.816 396.957 400.815C398.323 400.815 399.666 400.875 400.996 401.006C401.593 401.054 402.19 401.125 402.786 401.203C413.201 402.618 422.749 407.756 429.663 415.665C436.576 423.574 440.386 433.718 440.386 444.218V444.218Z" fill="url(#paint13_linear)"/>
<path d="M173.455 456.813C173.599 456.36 173.724 455.907 173.849 455.448C175.827 448.057 175.816 440.275 173.818 432.89C171.819 425.505 167.903 418.778 162.467 413.39C157.03 408.002 150.265 404.143 142.857 402.205C135.448 400.267 127.659 400.318 120.277 402.353C118.548 402.827 116.852 403.412 115.199 404.105C105.248 408.241 97.1879 415.921 92.5822 425.656C87.9765 435.391 87.1531 446.488 90.2717 456.795H173.455V456.813Z" fill="url(#paint14_linear)"/>
<g opacity="0.7">
<path opacity="0.7" d="M423.871 367.533C428.274 367.533 431.843 363.967 431.843 359.57C431.843 355.172 428.274 351.607 423.871 351.607C419.469 351.607 415.9 355.172 415.9 359.57C415.9 363.967 419.469 367.533 423.871 367.533Z" fill="url(#paint15_linear)"/>
</g>
<path d="M423.871 366.948C427.951 366.948 431.258 363.645 431.258 359.57C431.258 355.494 427.951 352.191 423.871 352.191C419.792 352.191 416.485 355.494 416.485 359.57C416.485 363.645 419.792 366.948 423.871 366.948Z" fill="url(#paint16_linear)"/>
<g opacity="0.7">
<path opacity="0.7" d="M460.374 445.089C465.175 445.089 469.067 441.2 469.067 436.404C469.067 431.608 465.175 427.72 460.374 427.72C455.573 427.72 451.681 431.608 451.681 436.404C451.681 441.2 455.573 445.089 460.374 445.089Z" fill="url(#paint17_linear)"/>
</g>
<path d="M460.374 444.653C464.934 444.653 468.631 440.96 468.631 436.404C468.631 431.848 464.934 428.155 460.374 428.155C455.813 428.155 452.116 431.848 452.116 436.404C452.116 440.96 455.813 444.653 460.374 444.653Z" fill="url(#paint18_linear)"/>
<g opacity="0.7">
<path opacity="0.7" d="M88.4042 396.458C93.6798 396.458 97.9565 392.186 97.9565 386.916C97.9565 381.645 93.6798 377.373 88.4042 377.373C83.1287 377.373 78.852 381.645 78.852 386.916C78.852 392.186 83.1287 396.458 88.4042 396.458Z" fill="url(#paint19_linear)"/>
</g>
<path d="M88.4043 396.029C93.4425 396.029 97.5269 391.949 97.5269 386.916C97.5269 381.882 93.4425 377.802 88.4043 377.802C83.366 377.802 79.2816 381.882 79.2816 386.916C79.2816 391.949 83.366 396.029 88.4043 396.029Z" fill="url(#paint20_linear)"/>
<g opacity="0.4">
<path opacity="0.4" d="M448.268 10.4127C446.151 7.6177 443.498 5.27146 440.464 3.51066C436.984 1.51259 433.09 0.340058 429.084 0.0835274C425.078 -0.173003 421.066 0.493332 417.359 2.03111C413.652 3.56889 410.348 5.937 407.702 8.95271C405.056 11.9684 403.138 15.5511 402.098 19.4243C401.058 23.2975 400.923 27.3577 401.702 31.2915C402.482 35.2253 404.156 38.9277 406.594 42.1128C409.033 45.2979 412.172 47.8807 415.769 49.6618C419.366 51.4429 423.324 52.3748 427.338 52.3855C427.893 52.3855 428.448 52.3855 428.997 52.3318C433.719 52.0342 438.273 50.4642 442.175 47.7886C446.076 45.1129 449.179 41.4316 451.155 37.1356C453.13 32.8396 453.903 28.0894 453.393 23.3895C452.883 18.6896 451.107 14.2155 448.256 10.4425L448.268 10.4127Z" fill="url(#paint21_linear)"/>
</g>
<path opacity="0.2" d="M452.116 26.1778C452.117 32.4686 449.719 38.5234 445.409 43.1106C441.1 47.6978 435.204 50.4729 428.919 50.8715C428.4 50.9073 427.875 50.9251 427.35 50.9251C423.552 50.9229 419.806 50.0482 416.401 48.3687C412.995 46.6892 410.022 44.2499 407.711 41.2393C405.4 38.2288 403.813 34.7276 403.073 31.0065C402.333 27.2855 402.459 23.4442 403.442 19.7797C404.425 16.1151 406.238 12.7255 408.742 9.87284C411.246 7.02019 414.373 4.78093 417.881 3.32818C421.389 1.87543 425.185 1.2481 428.974 1.49471C432.764 1.74132 436.446 2.85524 439.736 4.75037V4.75037C442.605 6.41504 445.114 8.63368 447.117 11.2769V11.2769C450.368 15.5647 452.124 20.7985 452.116 26.1778V26.1778Z" fill="#6C63FF"/>
<path opacity="0.05" d="M421.252 10.4842C419.973 11.0356 418.738 11.6852 417.559 12.4273C416.772 12.8635 416.096 13.4754 415.584 14.2154C415.334 14.5865 415.197 15.0218 415.188 15.469C415.18 15.9162 415.301 16.3563 415.536 16.7366C416.133 17.5592 417.326 17.6903 418.323 17.7439C419.238 17.9382 420.189 17.8861 421.078 17.5929C421.967 17.2996 422.762 16.7758 423.382 16.075L425.512 14.1439C426.252 13.4763 427.064 12.5525 426.741 11.6107C426.497 10.8895 425.685 10.5379 424.951 10.4187C423.121 10.0587 421.221 10.3923 419.623 11.3544" fill="#F55F44"/>
<path opacity="0.05" d="M412.356 37.2462C413.075 37.2462 413.657 36.6644 413.657 35.9468C413.657 35.2292 413.075 34.6475 412.356 34.6475C411.638 34.6475 411.056 35.2292 411.056 35.9468C411.056 36.6644 411.638 37.2462 412.356 37.2462Z" fill="#F55F44"/>
<path opacity="0.05" d="M438.865 32.4719C441.504 32.4719 443.644 30.3344 443.644 27.6977C443.644 25.061 441.504 22.9235 438.865 22.9235C436.226 22.9235 434.086 25.061 434.086 27.6977C434.086 30.3344 436.226 32.4719 438.865 32.4719Z" fill="#F55F44"/>
<path opacity="0.05" d="M447.123 11.271C447.104 12.5185 446.727 13.7343 446.036 14.774C445.346 15.8136 444.371 16.6333 443.228 17.1356C442.085 17.638 440.821 17.8019 439.587 17.6078C438.354 17.4136 437.202 16.8697 436.268 16.0407C435.335 15.2116 434.66 14.1323 434.323 12.931C433.986 11.7297 434.001 10.4569 434.367 9.26404C434.733 8.07116 435.434 7.0083 436.387 6.20182C437.339 5.39535 438.504 4.87917 439.742 4.71466V4.71466C442.614 6.38807 445.123 8.61702 447.123 11.271V11.271Z" fill="#F55F44"/>
<path opacity="0.05" d="M447.6 40.429C445.469 43.4576 442.684 45.9687 439.45 47.7763C436.217 49.5839 432.617 50.6418 428.919 50.8715C428.889 50.5318 428.871 50.1861 428.871 49.8404C428.872 47.6687 429.477 45.5398 430.618 43.6912C431.759 41.8427 433.391 40.347 435.333 39.3711C437.275 38.3952 439.451 37.9773 441.617 38.1641C443.783 38.3509 445.854 39.135 447.6 40.429V40.429Z" fill="#F55F44"/>
<path opacity="0.25" d="M431.258 208.505C432.938 208.505 434.301 207.144 434.301 205.465C434.301 203.786 432.938 202.425 431.258 202.425C429.577 202.425 428.215 203.786 428.215 205.465C428.215 207.144 429.577 208.505 431.258 208.505Z" fill="#535461"/>
<path opacity="0.25" d="M25.5422 288.373C27.2227 288.373 28.585 287.012 28.585 285.333C28.585 283.655 27.2227 282.294 25.5422 282.294C23.8616 282.294 22.4993 283.655 22.4993 285.333C22.4993 287.012 23.8616 288.373 25.5422 288.373Z" fill="#535461"/>
<path opacity="0.25" d="M548.796 305.658C550.477 305.658 551.839 304.297 551.839 302.618C551.839 300.94 550.477 299.579 548.796 299.579C547.116 299.579 545.753 300.94 545.753 302.618C545.753 304.297 547.116 305.658 548.796 305.658Z" fill="#535461"/>
<path opacity="0.25" d="M172.268 161.621C173.949 161.621 175.311 160.26 175.311 158.581C175.311 156.902 173.949 155.541 172.268 155.541C170.588 155.541 169.225 156.902 169.225 158.581C169.225 160.26 170.588 161.621 172.268 161.621Z" fill="#535461"/>
<path opacity="0.25" d="M162.274 91.7296C163.955 91.7296 165.317 90.3687 165.317 88.6899C165.317 87.011 163.955 85.6501 162.274 85.6501C160.594 85.6501 159.231 87.011 159.231 88.6899C159.231 90.3687 160.594 91.7296 162.274 91.7296Z" fill="#535461"/>
<path opacity="0.25" d="M76.2328 230.206C77.9133 230.206 79.2756 228.845 79.2756 227.167C79.2756 225.488 77.9133 224.127 76.2328 224.127C74.5522 224.127 73.1899 225.488 73.1899 227.167C73.1899 228.845 74.5522 230.206 76.2328 230.206Z" fill="#535461"/>
<path opacity="0.25" d="M506.655 230.737H503.947V228.037H502.843V230.737H500.134V231.845H502.843V234.545H503.947V231.845H506.655V230.737Z" fill="#535461"/>
<path opacity="0.25" d="M552 137.159H549.291V134.459H548.187V137.159H545.479V138.268H548.187V140.968H549.291V138.268H552V137.159Z" fill="#535461"/>
<path opacity="0.25" d="M358.909 84.8812H356.2V82.1752H355.097V84.8812H352.388V85.9839H355.097V88.6899H356.2V85.9839H358.909V84.8812Z" fill="#535461"/>
<path opacity="0.25" d="M477.104 215.544H474.395V212.844H473.291V215.544H470.588V216.652H473.291V219.352H474.395V216.652H477.104V215.544Z" fill="#535461"/>
<path opacity="0.25" d="M378.026 305.402H375.323V302.702H374.219V305.402H371.51V306.511H374.219V309.211H375.323V306.511H378.026V305.402Z" fill="#535461"/>
<path opacity="0.25" d="M100.791 120.041H98.0818V117.341H96.978V120.041H94.2692V121.144H96.978V123.85H98.0818V121.144H100.791V120.041Z" fill="#535461"/>
<path opacity="0.25" d="M6.52128 155.207H3.81253V152.507H2.70875V155.207H0V156.31H2.70875V159.016H3.81253V156.31H6.52128V155.207Z" fill="#535461"/>
<path opacity="0.25" d="M138.158 265.903H135.449V263.197H134.346V265.903H131.643V267.005H134.346V269.711H135.449V267.005H138.158V265.903Z" fill="#535461"/>
<path d="M460.374 444.653C464.934 444.653 468.631 440.96 468.631 436.404C468.631 431.848 464.934 428.155 460.374 428.155C455.813 428.155 452.116 431.848 452.116 436.404C452.116 440.96 455.813 444.653 460.374 444.653Z" fill="url(#paint22_linear)"/>
<g opacity="0.4">
<path opacity="0.4" d="M160.472 207.611C159.464 206.278 158.201 205.16 156.755 204.321C155.098 203.357 153.24 202.787 151.326 202.657C149.413 202.526 147.495 202.838 145.722 203.568C143.948 204.298 142.367 205.426 141.101 206.865C139.835 208.305 138.918 210.016 138.421 211.867C137.924 213.717 137.861 215.658 138.236 217.537C138.611 219.416 139.415 221.183 140.585 222.702C141.754 224.22 143.259 225.449 144.981 226.292C146.703 227.136 148.597 227.572 150.515 227.566C150.777 227.566 151.046 227.566 151.302 227.566C153.55 227.422 155.718 226.673 157.575 225.399C159.431 224.124 160.908 222.371 161.848 220.326C162.788 218.281 163.157 216.019 162.915 213.782C162.672 211.544 161.829 209.414 160.472 207.617V207.611Z" fill="url(#paint23_linear)"/>
</g>
<path opacity="0.2" d="M162.304 215.121C162.304 218.117 161.162 221 159.109 223.185C157.056 225.37 154.248 226.691 151.254 226.88C151.01 226.88 150.759 226.88 150.509 226.88C148.7 226.879 146.917 226.461 145.295 225.661C143.674 224.861 142.259 223.699 141.159 222.265C140.059 220.831 139.303 219.164 138.951 217.392C138.599 215.62 138.659 213.791 139.127 212.046C139.595 210.301 140.459 208.687 141.651 207.329C142.843 205.97 144.332 204.904 146.002 204.212C147.673 203.52 149.48 203.221 151.284 203.338C153.089 203.455 154.842 203.985 156.409 204.887V204.887C157.775 205.679 158.969 206.735 159.924 207.992V207.992C161.479 210.043 162.315 212.548 162.304 215.121V215.121Z" fill="#6C63FF"/>
<path opacity="0.1" d="M147.603 207.646C146.983 207.907 146.384 208.216 145.813 208.57C145.438 208.775 145.116 209.062 144.87 209.411C144.757 209.589 144.696 209.796 144.696 210.007C144.696 210.218 144.757 210.425 144.87 210.603C145.044 210.773 145.252 210.903 145.48 210.986C145.709 211.068 145.953 211.1 146.195 211.08C146.627 211.168 147.075 211.141 147.494 211.002C147.913 210.863 148.288 210.616 148.581 210.287L149.596 209.369C149.948 209.047 150.336 208.612 150.192 208.177C150.112 208.012 149.991 207.871 149.841 207.767C149.69 207.662 149.516 207.598 149.333 207.581C148.462 207.411 147.558 207.57 146.797 208.028" fill="#F55F44"/>
<path opacity="0.1" d="M143.367 220.39C143.709 220.39 143.987 220.112 143.987 219.77C143.987 219.427 143.709 219.15 143.367 219.15C143.024 219.15 142.746 219.427 142.746 219.77C142.746 220.112 143.024 220.39 143.367 220.39Z" fill="#F55F44"/>
<path opacity="0.1" d="M155.992 218.119C157.25 218.119 158.271 217.099 158.271 215.842C158.271 214.584 157.25 213.565 155.992 213.565C154.733 213.565 153.713 214.584 153.713 215.842C153.713 217.099 154.733 218.119 155.992 218.119Z" fill="#F55F44"/>
<path opacity="0.1" d="M159.924 208.046C159.916 208.639 159.738 209.219 159.41 209.714C159.083 210.21 158.62 210.601 158.076 210.841C157.533 211.081 156.932 211.16 156.344 211.069C155.757 210.978 155.208 210.72 154.764 210.326C154.319 209.932 153.996 209.419 153.835 208.847C153.674 208.276 153.68 207.67 153.854 207.102C154.027 206.534 154.36 206.028 154.813 205.644C155.266 205.26 155.82 205.013 156.409 204.934V204.934C157.775 205.729 158.97 206.786 159.924 208.046V208.046Z" fill="#F55F44"/>
<path opacity="0.1" d="M160.156 221.909C159.142 223.352 157.816 224.549 156.276 225.411C154.736 226.272 153.022 226.776 151.26 226.886C151.26 226.725 151.26 226.559 151.26 226.392C151.257 225.352 151.544 224.333 152.089 223.448C152.634 222.563 153.415 221.847 154.345 221.381C155.275 220.915 156.317 220.718 157.353 220.811C158.389 220.905 159.378 221.285 160.21 221.909H160.156Z" fill="#F55F44"/>
<g opacity="0.1">
<path opacity="0.1" d="M294.496 120.429H233.042V122.813H294.496V120.429Z" fill="black"/>
</g>
<defs>
<linearGradient id="paint0_linear" x1="463" y1="43" x2="463" y2="544" gradientUnits="userSpaceOnUse">
<stop stop-color="#C4C4C4" stop-opacity="0"/>
<stop offset="1" stop-color="#635AFA"/>
</linearGradient>
<linearGradient id="paint1_linear" x1="264.395" y1="413.678" x2="264.395" y2="28.6395" gradientUnits="userSpaceOnUse">
<stop stop-color="#808080" stop-opacity="0.25"/>
<stop offset="0.54" stop-color="#808080" stop-opacity="0.12"/>
<stop offset="1" stop-color="#808080" stop-opacity="0.1"/>
</linearGradient>
<linearGradient id="paint2_linear" x1="206.378" y1="367.872" x2="206.378" y2="405.202" gradientUnits="userSpaceOnUse">
<stop stop-color="#E0E0E0"/>
<stop offset="0.31" stop-color="#FCCC63"/>
<stop offset="0.77" stop-color="#F55F44"/>
</linearGradient>
<linearGradient id="paint3_linear" x1="6037.57" y1="23404" x2="6037.57" y2="25741.6" gradientUnits="userSpaceOnUse">
<stop stop-color="#E0E0E0"/>
<stop offset="0.31" stop-color="#FCCC63"/>
<stop offset="0.77" stop-color="#F55F44"/>
</linearGradient>
<linearGradient id="paint4_linear" x1="6712.12" y1="23404" x2="6712.12" y2="25741.6" gradientUnits="userSpaceOnUse">
<stop stop-color="#E0E0E0"/>
<stop offset="0.31" stop-color="#FCCC63"/>
<stop offset="0.77" stop-color="#F55F44"/>
</linearGradient>
<linearGradient id="paint5_linear" x1="7800.82" y1="23404" x2="7800.82" y2="25741.6" gradientUnits="userSpaceOnUse">
<stop stop-color="#E0E0E0"/>
<stop offset="0.31" stop-color="#FCCC63"/>
<stop offset="0.77" stop-color="#F55F44"/>
</linearGradient>
<linearGradient id="paint6_linear" x1="212777" y1="93533.7" x2="212777" y2="72636.6" gradientUnits="userSpaceOnUse">
<stop stop-color="#808080" stop-opacity="0.25"/>
<stop offset="0.54" stop-color="#808080" stop-opacity="0.12"/>
<stop offset="1" stop-color="#808080" stop-opacity="0.1"/>
</linearGradient>
<linearGradient id="paint7_linear" x1="162.71" y1="349.586" x2="162.71" y2="436.404" gradientUnits="userSpaceOnUse">
<stop stop-color="#F2F2F2"/>
<stop offset="0.31" stop-color="#E6E6E6"/>
<stop offset="0.77" stop-color="#CCCCCC"/>
</linearGradient>
<linearGradient id="paint8_linear" x1="26032.9" y1="58059.1" x2="26032.9" y2="73222.4" gradientUnits="userSpaceOnUse">
<stop stop-color="#F2F2F2"/>
<stop offset="0.31" stop-color="#E6E6E6"/>
<stop offset="0.77" stop-color="#CCCCCC"/>
</linearGradient>
<linearGradient id="paint9_linear" x1="57068.9" y1="58059.1" x2="57068.9" y2="73222.4" gradientUnits="userSpaceOnUse">
<stop stop-color="#F2F2F2"/>
<stop offset="0.31" stop-color="#E6E6E6"/>
<stop offset="0.77" stop-color="#CCCCCC"/>
</linearGradient>
<linearGradient id="paint10_linear" x1="51797" y1="54262.5" x2="51797" y2="66908.4" gradientUnits="userSpaceOnUse">
<stop stop-color="#F2F2F2"/>
<stop offset="0.31" stop-color="#E6E6E6"/>
<stop offset="0.77" stop-color="#CCCCCC"/>
</linearGradient>
<linearGradient id="paint11_linear" x1="50188.4" y1="55378.4" x2="50188.4" y2="65743.3" gradientUnits="userSpaceOnUse">
<stop stop-color="#F2F2F2"/>
<stop offset="0.31" stop-color="#E6E6E6"/>
<stop offset="0.77" stop-color="#CCCCCC"/>
</linearGradient>
<linearGradient id="paint12_linear" x1="58070.9" y1="35983.6" x2="58070.9" y2="39739.3" gradientUnits="userSpaceOnUse">
<stop stop-color="#F2F2F2"/>
<stop offset="0.31" stop-color="#E6E6E6"/>
<stop offset="0.77" stop-color="#CCCCCC"/>
</linearGradient>
<linearGradient id="paint13_linear" x1="70097.8" y1="41689.5" x2="70097.8" y2="46950.4" gradientUnits="userSpaceOnUse">
<stop stop-color="#F2F2F2"/>
<stop offset="0.31" stop-color="#E6E6E6"/>
<stop offset="0.77" stop-color="#CCCCCC"/>
</linearGradient>
<linearGradient id="paint14_linear" x1="31239.1" y1="41713.5" x2="31239.1" y2="46977.6" gradientUnits="userSpaceOnUse">
<stop stop-color="#F2F2F2"/>
<stop offset="0.31" stop-color="#E6E6E6"/>
<stop offset="0.77" stop-color="#CCCCCC"/>
</linearGradient>
<linearGradient id="paint15_linear" x1="11741.7" y1="10172.1" x2="11741.7" y2="9746.55" gradientUnits="userSpaceOnUse">
<stop stop-color="#808080" stop-opacity="0.25"/>
<stop offset="0.54" stop-color="#808080" stop-opacity="0.12"/>
<stop offset="1" stop-color="#808080" stop-opacity="0.1"/>
</linearGradient>
<linearGradient id="paint16_linear" x1="10911.5" y1="9072.45" x2="10911.5" y2="9437.86" gradientUnits="userSpaceOnUse">
<stop stop-color="#F2F2F2"/>
<stop offset="0.31" stop-color="#E6E6E6"/>
<stop offset="0.77" stop-color="#CCCCCC"/>
</linearGradient>
<linearGradient id="paint17_linear" x1="13867" y1="13397.6" x2="13867" y2="12891.7" gradientUnits="userSpaceOnUse">
<stop stop-color="#808080" stop-opacity="0.25"/>
<stop offset="0.54" stop-color="#808080" stop-opacity="0.12"/>
<stop offset="1" stop-color="#808080" stop-opacity="0.1"/>
</linearGradient>
<linearGradient id="paint18_linear" x1="460.374" y1="428.155" x2="460.374" y2="444.653" gradientUnits="userSpaceOnUse">
<stop stop-color="#F2F2F2"/>
<stop offset="0.31" stop-color="#E0E0E0"/>
<stop offset="0.77" stop-color="#B3B3B3"/>
</linearGradient>
<linearGradient id="paint19_linear" x1="2909.56" y1="13071.9" x2="2909.56" y2="12460.8" gradientUnits="userSpaceOnUse">
<stop stop-color="#808080" stop-opacity="0.25"/>
<stop offset="0.54" stop-color="#808080" stop-opacity="0.12"/>
<stop offset="1" stop-color="#808080" stop-opacity="0.1"/>
</linearGradient>
<linearGradient id="paint20_linear" x1="2782.68" y1="11931" x2="2782.68" y2="12488.6" gradientUnits="userSpaceOnUse">
<stop stop-color="#F2F2F2"/>
<stop offset="0.31" stop-color="#E6E6E6"/>
<stop offset="0.77" stop-color="#CCCCCC"/>
</linearGradient>
<linearGradient id="paint21_linear" x1="45084.4" y1="7999.43" x2="45084.4" y2="3400.52" gradientUnits="userSpaceOnUse">
<stop stop-color="#808080" stop-opacity="0.25"/>
<stop offset="0.54" stop-color="#808080" stop-opacity="0.12"/>
<stop offset="1" stop-color="#808080" stop-opacity="0.1"/>
</linearGradient>
<linearGradient id="paint22_linear" x1="13195.3" y1="12279.5" x2="13195.3" y2="12736.2" gradientUnits="userSpaceOnUse">
<stop stop-color="#F2F2F2"/>
<stop offset="0.31" stop-color="#E6E6E6"/>
<stop offset="0.77" stop-color="#CCCCCC"/>
</linearGradient>
<linearGradient id="paint23_linear" x1="9876.81" y1="11344.7" x2="9876.81" y2="10301.3" gradientUnits="userSpaceOnUse">
<stop stop-color="#808080" stop-opacity="0.25"/>
<stop offset="0.54" stop-color="#808080" stop-opacity="0.12"/>
<stop offset="1" stop-color="#808080" stop-opacity="0.1"/>
</linearGradient>
<clipPath id="clip0">
<rect width="806.008" height="609.716" fill="white" transform="translate(29 164)"/>
</clipPath>
</defs>
</svg>
