<svg width="80" height="80" viewBox="0 0 80 80" fill="none" xmlns="http://www.w3.org/2000/svg">
<g filter="url(#filter0_d)">
<rect x="20" y="17" width="40" height="46" rx="3" fill="white"/>
<rect x="41" y="53" width="15" height="6" rx="3" fill="white" stroke="url(#paint0_linear)" stroke-width="2"/>
<path d="M26 24H45" stroke="#BC517C" stroke-width="2" stroke-linecap="round"/>
<path d="M55 24H50" stroke="#E5CEE3" stroke-width="2" stroke-linecap="round"/>
<path d="M26 30H45" stroke="#BC517C" stroke-width="2" stroke-linecap="round"/>
<path d="M55 30H50" stroke="#E5CEE3" stroke-width="2" stroke-linecap="round"/>
<path d="M26 36H45" stroke="#BC517C" stroke-width="2" stroke-linecap="round"/>
<path d="M55 36H50" stroke="#E5CEE3" stroke-width="2" stroke-linecap="round"/>
<path d="M26 42H45" stroke="#BC517C" stroke-width="2" stroke-linecap="round"/>
<path d="M55 42H50" stroke="#E5CEE3" stroke-width="2" stroke-linecap="round"/>
<path d="M20 49H60" stroke="url(#paint1_linear)" stroke-width="2"/>
<rect x="19" y="16" width="42" height="48" rx="4" stroke="url(#paint2_linear)" stroke-width="2"/>
</g>
<defs>
<filter id="filter0_d" x="12" y="11" width="56" height="62" filterUnits="userSpaceOnUse" color-interpolation-filters="sRGB">
<feFlood flood-opacity="0" result="BackgroundImageFix"/>
<feColorMatrix in="SourceAlpha" type="matrix" values="0 0 0 0 0 0 0 0 0 0 0 0 0 0 0 0 0 0 127 0"/>
<feOffset dy="2"/>
<feGaussianBlur stdDeviation="3"/>
<feColorMatrix type="matrix" values="0 0 0 0 0 0 0 0 0 0 0 0 0 0 0 0 0 0 0.2 0"/>
<feBlend mode="normal" in2="BackgroundImageFix" result="effect1_dropShadow"/>
<feBlend mode="normal" in="SourceGraphic" in2="effect1_dropShadow" result="shape"/>
</filter>
<linearGradient id="paint0_linear" x1="41" y1="59" x2="45.1379" y2="48.6552" gradientUnits="userSpaceOnUse">
<stop stop-color="#EDC2CA"/>
<stop offset="1" stop-color="#E3CFE6"/>
</linearGradient>
<linearGradient id="paint1_linear" x1="20" y1="50" x2="20.05" y2="48.0012" gradientUnits="userSpaceOnUse">
<stop stop-color="#EDC2CA"/>
<stop offset="1" stop-color="#E3CFE6"/>
</linearGradient>
<linearGradient id="paint2_linear" x1="20" y1="63" x2="65.5544" y2="23.3875" gradientUnits="userSpaceOnUse">
<stop stop-color="#DA566C"/>
<stop offset="1" stop-color="#8C4794"/>
</linearGradient>
</defs>
</svg>
