<svg width="80" height="80" viewBox="0 0 80 80" fill="none" xmlns="http://www.w3.org/2000/svg">
<g clip-path="url(#clip0)">
<path d="M42.7609 57.8255C42.3129 58.3757 41.4976 58.4684 40.9427 58.0346L39.8013 57.1424C39.2451 56.7076 39.1366 55.8983 39.5647 55.3272L39.6016 55.2779C40.0271 54.7102 40.0905 53.7522 39.7386 53.1303L39.5802 52.8503C39.2304 52.232 38.3789 51.7889 37.6688 51.8616L37.6075 51.8679C36.9017 51.9402 36.2595 51.4293 36.1735 50.7302L35.9966 49.2924C35.9103 48.5917 36.4056 47.9427 37.1122 47.8415L37.1733 47.8328C37.8757 47.7322 38.5979 47.0995 38.7867 46.4189L38.8771 46.0927C39.0658 45.4124 38.776 44.5004 38.2224 44.0498L38.1746 44.0108C37.6243 43.5629 37.5317 42.7476 37.9655 42.1926L38.8577 41.0513C39.2924 40.4951 40.1017 40.3866 40.6728 40.8146L40.7222 40.8516C41.2899 41.2771 42.2478 41.3404 42.8698 40.9886L43.1497 40.8302C43.7681 40.4803 44.2112 39.6288 44.1384 38.9188L44.1321 38.8575C44.0598 38.1517 44.5707 37.5095 45.2699 37.4234L46.7077 37.2465C47.4084 37.1603 48.0573 37.6556 48.1585 38.3622L48.1673 38.4232C48.2678 39.1256 48.9005 39.8479 49.5811 40.0366L49.9074 40.1271C50.5877 40.3158 51.4996 40.0259 51.9503 39.4724L51.9892 39.4245C52.4372 38.8743 53.2524 38.7816 53.8074 39.2155L54.9487 40.1076C55.5049 40.5424 55.6135 41.3517 55.1854 41.9228L55.1484 41.9721C54.723 42.5399 54.6596 43.4978 55.0115 44.1197L55.1699 44.3997C55.5197 45.018 56.3712 45.4611 57.0813 45.3884L57.1426 45.3821C57.8484 45.3098 58.4906 45.8207 58.5766 46.5199L58.7535 47.9577C58.8397 48.6583 58.3445 49.3073 57.6379 49.4085L57.5768 49.4172C56.8744 49.5178 56.1522 50.1505 55.9634 50.8311L55.8729 51.1574C55.6843 51.8376 55.9741 52.7496 56.5277 53.2002L56.5755 53.2392C57.1258 53.6872 57.2184 54.5024 56.7846 55.0574L55.8924 56.1987C55.4576 56.7549 54.6484 56.8634 54.0772 56.4354L54.0279 56.3984C53.4602 55.9729 52.5022 55.9096 51.8803 56.2615L51.6004 56.4198C50.982 56.7697 50.5389 57.6212 50.6117 58.3312L50.618 58.3926C50.6903 59.0983 50.1794 59.7406 49.4802 59.8266L48.0424 60.0035C47.3417 60.0897 46.6928 59.5944 46.5916 58.8878L46.5828 58.8268C46.4822 58.1244 45.8495 57.4021 45.169 57.2134L44.8427 57.1229C44.1624 56.9343 43.2505 57.2241 42.7998 57.7777L42.7609 57.8255ZM47.9692 53.4637C50.6415 53.1356 52.5418 50.7032 52.2137 48.0309C51.8856 45.3586 49.4533 43.4582 46.7809 43.7863C44.1086 44.1145 42.2083 46.5468 42.5364 49.2191C42.8645 51.8914 45.2968 53.7918 47.9692 53.4637ZM60.3362 42.1281C59.9692 42.7354 59.1748 42.9406 58.5648 42.5882L57.3104 41.8636C56.6991 41.5104 56.479 40.7241 56.8234 40.099L56.8532 40.045C57.1955 39.4236 57.1249 38.4661 56.6899 37.8992L56.4941 37.644C56.0616 37.0804 55.1567 36.7601 54.4637 36.931L54.4039 36.9457C53.715 37.1156 53.008 36.699 52.8255 36.0186L52.4502 34.6194C52.2673 33.9376 52.6674 33.226 53.3531 33.0275L53.4123 33.0103C54.0939 32.813 54.721 32.0859 54.8132 31.3857L54.8574 31.05C54.9496 30.3501 54.5356 29.4873 53.9247 29.1181L53.872 29.0862C53.2647 28.7192 53.0595 27.9247 53.4119 27.3148L54.1365 26.0604C54.4896 25.4491 55.2759 25.229 55.9011 25.5734L55.9551 25.6032C56.5765 25.9455 57.5339 25.8749 58.1008 25.4399L58.356 25.2441C58.9197 24.8116 59.2399 23.9067 59.0691 23.2137L59.0543 23.1538C58.8845 22.465 59.301 21.7579 59.9814 21.5754L61.3806 21.2001C62.0625 21.0172 62.774 21.4174 62.9726 22.103L62.9897 22.1623C63.1871 22.8438 63.9142 23.471 64.6144 23.5632L64.9501 23.6074C65.65 23.6995 66.5127 23.2856 66.882 22.6747L66.9138 22.6219C67.2809 22.0147 68.0753 21.8094 68.6853 22.1618L69.9396 22.8865C70.5509 23.2396 70.771 24.0259 70.4266 24.651L70.3969 24.705C70.0546 25.3265 70.1252 26.2839 70.5602 26.8508L70.756 27.106C71.1885 27.6696 72.0934 27.9899 72.7863 27.819L72.8462 27.8043C73.535 27.6344 74.2421 28.051 74.4246 28.7314L74.7999 30.1306C74.9828 30.8124 74.5827 31.524 73.897 31.7226L73.8378 31.7397C73.1562 31.9371 72.5291 32.6641 72.4369 33.3644L72.3927 33.7C72.3005 34.4 72.7144 35.2627 73.3254 35.6319L73.3781 35.6638C73.9854 36.0308 74.1906 36.8253 73.8382 37.4352L73.1136 38.6896C72.7604 39.3009 71.9742 39.521 71.349 39.1766L71.295 39.1469C70.6736 38.8045 69.7162 38.8751 69.1493 39.3101L68.8941 39.5059C68.3304 39.9384 68.0102 40.8433 68.181 41.5363L68.1958 41.5962C68.3656 42.285 67.949 42.9921 67.2687 43.1746L65.8695 43.5499C65.1876 43.7328 64.476 43.3326 64.2775 42.647L64.2603 42.5877C64.063 41.9062 63.3359 41.279 62.6357 41.1868L62.3 41.1426C61.6001 41.0505 60.7374 41.4644 60.3681 42.0753L60.3362 42.1281ZM64.8868 37.0839C67.4874 36.3871 69.0308 33.7139 68.3339 31.1133C67.6371 28.5126 64.9639 26.9693 62.3633 27.6661C59.7627 28.363 58.2193 31.0361 58.9162 33.6368C59.613 36.2374 62.2861 37.7807 64.8868 37.0839Z" fill="url(#paint0_linear)"/>
</g>
<g filter="url(#filter0_d)">
<rect x="9" y="21" width="40" height="26" rx="3" fill="white"/>
<rect x="8" y="20" width="42" height="28" rx="4" stroke="url(#paint1_linear)" stroke-width="2"/>
</g>
<path d="M9 27.5H49" stroke="url(#paint2_linear)" stroke-width="2"/>
<rect opacity="0.9" x="33" y="37" width="12" height="6" rx="3" fill="url(#paint3_linear)"/>
<defs>
<filter id="filter0_d" x="1" y="15" width="56" height="42" filterUnits="userSpaceOnUse" color-interpolation-filters="sRGB">
<feFlood flood-opacity="0" result="BackgroundImageFix"/>
<feColorMatrix in="SourceAlpha" type="matrix" values="0 0 0 0 0 0 0 0 0 0 0 0 0 0 0 0 0 0 127 0"/>
<feOffset dy="2"/>
<feGaussianBlur stdDeviation="3"/>
<feColorMatrix type="matrix" values="0 0 0 0 0 0 0 0 0 0 0 0 0 0 0 0 0 0 0.2 0"/>
<feBlend mode="normal" in2="BackgroundImageFix" result="effect1_dropShadow"/>
<feBlend mode="normal" in="SourceGraphic" in2="effect1_dropShadow" result="shape"/>
</filter>
<linearGradient id="paint0_linear" x1="35.9868" y1="60.0132" x2="74.8442" y2="21.1559" gradientUnits="userSpaceOnUse">
<stop stop-color="#EDC2CA"/>
<stop offset="1" stop-color="#E3CFE6"/>
</linearGradient>
<linearGradient id="paint1_linear" x1="9" y1="47" x2="32.761" y2="10.4446" gradientUnits="userSpaceOnUse">
<stop stop-color="#DA566C"/>
<stop offset="1" stop-color="#8C4794"/>
</linearGradient>
<linearGradient id="paint2_linear" x1="9" y1="28.5" x2="9.04997" y2="26.5012" gradientUnits="userSpaceOnUse">
<stop stop-color="#EDC2CA"/>
<stop offset="1" stop-color="#E3CFE6"/>
</linearGradient>
<linearGradient id="paint3_linear" x1="33" y1="43" x2="37.8" y2="33.4" gradientUnits="userSpaceOnUse">
<stop stop-color="#DA566C"/>
<stop offset="1" stop-color="#8C4794"/>
</linearGradient>
<clipPath id="clip0">
<path d="M36 21H75V60H36V21Z" fill="white"/>
</clipPath>
</defs>
</svg>
