<svg id="Capa_1" enable-background="new 0 0 512.013 512.013" height="512" viewBox="0 0 512.013 512.013" width="512" xmlns="http://www.w3.org/2000/svg"><g><path d="m383.836 464.426 8.283-4.574c67.552-37.301 112.378-105.5 119.827-182.306.815-8.401-5.964-15.593-14.399-15.276l-.384.014c-8.602.323-15.876 6.263-17.894 14.55l-8.278 33.992c-8.381 34.412-31.633 63.314-63.452 78.871-13.133 6.421-28.008-4.758-25.494-19.158l6.534-37.427c1.232-7.058-3.389-13.812-10.415-15.218-5.335-1.068-10.78 1.245-13.714 5.828l-47.352 73.968.799 20.812 45.858 45.858z" fill="#ffddce"/><path d="m374.365 319.948-6.534 37.428c-1.811 10.373 5.402 19.073 14.487 20.728-.603-2.352-.736-4.903-.271-7.566l6.534-37.427c1.232-7.058-3.389-13.812-10.415-15.219-1.21-.242-2.424-.302-3.614-.21-.003.749-.055 1.505-.187 2.266z" fill="#ffcbbe"/><path d="m497.758 262.273c.037.694.042 1.395-.028 2.111-7.449 76.806-52.275 145.005-119.827 182.306l-8.283 4.574-19.024-.064 13.159 13.159 20.081.067 8.283-4.574c67.552-37.301 112.378-105.5 119.827-182.306.808-8.33-5.853-15.462-14.188-15.273z" fill="#ffcbbe"/><path d="m360.964 510.976 29.213-29.213c3.036-3.036 3.036-7.959 0-10.996l-78.082-78.082c-3.036-3.036-7.959-3.036-10.996 0l-29.213 29.213c-.81.809-.81 2.122 0 2.931l86.146 86.146c.81.811 2.123.811 2.932.001z" fill="#80b4fb"/><path d="m390.177 470.767-78.082-78.082c-3.036-3.036-7.959-3.036-10.996 0l-6.149 6.149 70.322 70.322c3.036 3.036 3.036 7.959 0 10.996l-19.032 19.031 11.792 11.792c.81.81 2.122.81 2.931 0l29.213-29.213c3.038-3.035 3.038-7.958.001-10.995z" fill="#61a2f9"/><path d="m128.177 464.426-8.283-4.574c-67.552-37.301-112.379-105.5-119.827-182.306-.815-8.401 5.964-15.593 14.399-15.276l.383.014c8.602.323 15.876 6.263 17.894 14.55l8.278 33.992c8.381 34.412 31.633 63.314 63.452 78.871 13.133 6.421 28.008-4.758 25.494-19.158l-6.534-37.427c-1.232-7.058 3.389-13.812 10.415-15.218 5.335-1.068 10.78 1.245 13.714 5.828l47.352 73.968-.799 20.812-45.858 45.858z" fill="#ffddce"/><path d="m1.333 274.663.384.014c8.602.323 15.876 6.263 17.894 14.55l8.278 33.992c8.381 34.412 31.633 63.314 63.452 78.871 10.506 5.136 22.117-.994 25.058-11.022-3.778.899-7.932.582-11.926-1.371-31.819-15.556-55.071-44.458-63.452-78.871l-8.278-33.992c-2.018-8.287-9.292-14.227-17.894-14.55l-.384-.014c-7.456-.28-13.609 5.311-14.375 12.415.411-.021.823-.038 1.243-.022z" fill="#ffcbbe"/><path d="m147.562 323.72c-2.934-4.583-8.378-6.897-13.714-5.828-5.993 1.2-10.223 6.294-10.576 12.145 4.455-.013 8.693 2.226 11.157 6.077l47.352 73.968-.799 20.812-33.467 33.467.741-.003 45.858-45.858.799-20.812z" fill="#ffcbbe"/><path d="m151.048 510.976-29.213-29.213c-3.036-3.036-3.036-7.959 0-10.996l78.082-78.082c3.036-3.036 7.959-3.036 10.996 0l29.213 29.213c.81.809.81 2.122 0 2.931l-86.146 86.146c-.81.811-2.122.811-2.932.001z" fill="#80b4fb"/><path d="m127.509 487.436 70.798-70.798c3.036-3.036 7.959-3.036 10.996 0l19.508 19.508 11.316-11.316c.809-.81.809-2.122 0-2.931l-29.213-29.213c-3.036-3.036-7.959-3.036-10.996 0l-78.082 78.082c-3.036 3.036-3.036 7.959 0 10.996z" fill="#61a2f9"/><g><path d="m342.327 69.234 10.275 5.696c2.627 1.456 4.256 4.223 4.256 7.226v26.883c0 3.003-1.63 5.77-4.256 7.226l-10.275 5.696c-1.311.727-2.4 1.797-3.15 3.095l-16.074 27.84c-.75 1.298-1.132 2.776-1.106 4.275l.205 11.746c.052 3.003-1.529 5.798-4.13 7.299l-23.281 13.442c-2.601 1.502-5.812 1.474-8.386-.073l-10.07-6.051c-1.285-.772-2.756-1.18-4.255-1.18h-32.147c-1.499 0-2.97.408-4.255 1.18l-10.07 6.051c-2.574 1.547-5.785 1.575-8.386.073l-23.281-13.442c-2.601-1.502-4.182-4.296-4.13-7.299l.205-11.746c.026-1.499-.356-2.977-1.106-4.275l-16.074-27.84c-.75-1.298-1.838-2.368-3.15-3.095l-10.275-5.696c-2.627-1.456-4.256-4.223-4.256-7.226v-26.883c0-3.003 1.63-5.77 4.256-7.226l10.275-5.696c1.311-.727 2.4-1.797 3.15-3.095l16.074-27.84c.75-1.298 1.132-2.776 1.106-4.275l-.205-11.746c-.052-3.003 1.529-5.798 4.13-7.299l23.281-13.442c2.601-1.502 5.812-1.474 8.386.073l10.07 6.051c1.285.772 2.756 1.18 4.255 1.18h32.147c1.499 0 2.97-.408 4.255-1.18l10.07-6.051c2.574-1.547 5.785-1.575 8.386-.073l23.281 13.442c2.601 1.502 4.182 4.296 4.13 7.299l-.205 11.746c-.026 1.499.356 2.977 1.106 4.275l16.074 27.84c.75 1.298 1.839 2.368 3.15 3.095zm-86.321-12.638c-21.54 0-39.002 17.462-39.002 39.002s17.462 39.002 39.002 39.002 39.002-17.462 39.002-39.002-17.462-39.002-39.002-39.002z" fill="#80b4fb"/><g><path d="m352.602 74.93-10.275-5.696c-1.311-.727-2.4-1.797-3.149-3.095l-16.074-27.84c-.75-1.298-1.132-2.776-1.106-4.275l.205-11.746c.053-3.003-1.529-5.798-4.13-7.299l-23.281-13.443c-2.601-1.502-5.812-1.474-8.386.073l-8.573 5.151 14.233 8.218c2.601 1.502 4.182 4.297 4.13 7.299l-.205 11.746c-.026 1.499.356 2.977 1.106 4.275l16.074 27.84c.75 1.298 1.838 2.368 3.15 3.095l10.275 5.696c2.627 1.456 4.256 4.223 4.256 7.226v26.883c0 3.003-1.63 5.77-4.256 7.226l-10.275 5.696c-1.311.727-2.4 1.797-3.15 3.095l-16.074 27.84c-.75 1.298-1.132 2.776-1.106 4.275l.205 11.746c.052 3.003-1.529 5.798-4.13 7.299l-14.233 8.218 8.573 5.151c2.574 1.547 5.785 1.575 8.386.073l23.281-13.442c2.601-1.502 4.182-4.297 4.13-7.299l-.205-11.746c-.026-1.499.356-2.977 1.106-4.275l16.074-27.84c.75-1.298 1.838-2.368 3.149-3.095l10.275-5.696c2.627-1.456 4.257-4.223 4.257-7.226v-26.882c0-3.003-1.63-5.77-4.257-7.226z" fill="#61a2f9"/></g></g><g><g><path d="m456.427 194.27 7.124 3.949c1.821 1.01 2.951 2.928 2.951 5.01v18.64c0 2.082-1.13 4.001-2.951 5.01l-7.124 3.949c-.909.504-1.664 1.246-2.184 2.146l-11.145 19.303c-.52.9-.785 1.925-.767 2.964l.142 8.144c.036 2.082-1.06 4.02-2.863 5.061l-16.142 9.32c-1.803 1.041-4.03 1.022-5.815-.051l-6.982-4.195c-.891-.535-1.911-.818-2.95-.818h-22.29c-1.039 0-2.059.283-2.95.818l-6.982 4.195c-1.785 1.072-4.011 1.092-5.815.051l-16.142-9.32c-1.803-1.041-2.9-2.979-2.863-5.061l.142-8.144c.018-1.039-.247-2.064-.767-2.964l-11.145-19.303c-.52-.9-1.275-1.642-2.184-2.146l-7.124-3.949c-1.821-1.01-2.951-2.928-2.951-5.01v-18.64c0-2.082 1.13-4.001 2.951-5.01l7.124-3.949c.909-.504 1.664-1.246 2.184-2.146l11.145-19.303c.52-.9.785-1.925.767-2.964l-.142-8.144c-.036-2.082 1.06-4.02 2.863-5.061l16.142-9.32c1.803-1.041 4.03-1.022 5.815.051l6.982 4.195c.891.535 1.911.818 2.95.818h22.29c1.039 0 2.059-.283 2.95-.818l6.982-4.195c1.785-1.072 4.011-1.092 5.815-.051l16.142 9.32c1.803 1.041 2.9 2.979 2.863 5.061l-.142 8.144c-.018 1.039.247 2.064.767 2.964l11.145 19.303c.52.9 1.275 1.642 2.184 2.146zm-59.852-8.763c-14.935 0-27.042 12.107-27.042 27.042s12.107 27.042 27.042 27.042 27.042-12.107 27.042-27.042-12.107-27.042-27.042-27.042z" fill="#80b4fb"/><g><path d="m463.551 198.219-7.124-3.949c-.909-.504-1.664-1.246-2.184-2.146l-11.145-19.303c-.52-.9-.785-1.925-.767-2.964l.142-8.144c.036-2.082-1.06-4.02-2.863-5.061l-16.142-9.32c-1.803-1.041-4.03-1.022-5.815.051l-5.944 3.571 9.869 5.698c1.803 1.041 2.9 2.979 2.863 5.061l-.142 8.144c-.018 1.039.247 2.064.767 2.964l11.145 19.303c.52.9 1.275 1.642 2.184 2.146l7.124 3.949c1.821 1.01 2.951 2.928 2.951 5.01v18.64c0 2.082-1.13 4.001-2.951 5.01l-7.124 3.949c-.909.504-1.664 1.246-2.184 2.146l-11.145 19.303c-.52.9-.785 1.925-.767 2.964l.142 8.144c.036 2.082-1.06 4.02-2.863 5.061l-9.869 5.698 5.944 3.571c1.785 1.073 4.011 1.092 5.815.051l16.142-9.32c1.803-1.041 2.9-2.979 2.863-5.061l-.142-8.144c-.018-1.039.247-2.064.767-2.964l11.145-19.303c.52-.9 1.274-1.642 2.184-2.146l7.124-3.949c1.821-1.01 2.951-2.928 2.951-5.01v-18.64c0-2.082-1.13-4-2.951-5.01z" fill="#61a2f9"/></g></g><g><path d="m175.288 194.27 7.124 3.949c1.821 1.01 2.951 2.928 2.951 5.01v18.64c0 2.082-1.13 4.001-2.951 5.01l-7.124 3.949c-.909.504-1.664 1.246-2.184 2.146l-11.145 19.303c-.52.9-.785 1.925-.767 2.964l.142 8.144c.036 2.082-1.06 4.02-2.863 5.061l-16.142 9.32c-1.803 1.041-4.03 1.022-5.815-.051l-6.982-4.195c-.891-.535-1.911-.818-2.95-.818h-22.29c-1.039 0-2.059.283-2.95.818l-6.982 4.195c-1.785 1.072-4.011 1.092-5.815.051l-16.142-9.32c-1.803-1.041-2.9-2.979-2.863-5.061l.142-8.144c.018-1.039-.247-2.064-.767-2.964l-11.145-19.302c-.52-.9-1.275-1.642-2.184-2.146l-7.124-3.949c-1.821-1.01-2.951-2.928-2.951-5.01v-18.64c0-2.082 1.13-4.001 2.951-5.01l7.124-3.949c.909-.504 1.664-1.246 2.184-2.146l11.145-19.303c.52-.9.785-1.925.767-2.964l-.142-8.144c-.036-2.082 1.06-4.02 2.863-5.061l16.142-9.32c1.803-1.041 4.03-1.022 5.815.051l6.982 4.195c.891.535 1.911.818 2.95.818h22.29c1.039 0 2.059-.283 2.95-.818l6.982-4.195c1.785-1.072 4.011-1.092 5.815-.051l16.142 9.32c1.803 1.041 2.9 2.979 2.863 5.061l-.142 8.144c-.018 1.039.247 2.064.767 2.964l11.145 19.303c.52.899 1.275 1.641 2.184 2.145zm-59.851-8.763c-14.935 0-27.042 12.107-27.042 27.042s12.107 27.042 27.042 27.042 27.042-12.107 27.042-27.042-12.107-27.042-27.042-27.042z" fill="#80b4fb"/><g><path d="m182.413 198.219-7.124-3.949c-.909-.504-1.664-1.246-2.184-2.146l-11.145-19.304c-.52-.9-.785-1.925-.767-2.964l.142-8.144c.036-2.082-1.06-4.02-2.863-5.061l-16.142-9.32c-1.803-1.041-4.03-1.022-5.815.051l-5.944 3.571 9.869 5.698c1.803 1.041 2.9 2.979 2.863 5.061l-.142 8.144c-.018 1.039.247 2.064.767 2.964l11.145 19.303c.52.9 1.275 1.642 2.184 2.146l7.124 3.949c1.821 1.01 2.951 2.928 2.951 5.01v18.64c0 2.082-1.13 4.001-2.951 5.01l-7.124 3.949c-.909.504-1.664 1.246-2.184 2.146l-11.145 19.303c-.52.9-.785 1.925-.767 2.964l.142 8.144c.036 2.082-1.06 4.02-2.863 5.061l-9.869 5.698 5.944 3.571c1.785 1.073 4.011 1.092 5.815.051l16.142-9.32c1.803-1.041 2.9-2.979 2.863-5.061l-.142-8.144c-.018-1.039.247-2.064.767-2.964l11.145-19.303c.52-.9 1.274-1.642 2.184-2.146l7.124-3.949c1.821-1.01 2.951-2.928 2.951-5.01v-18.64c0-2.081-1.13-3.999-2.951-5.009z" fill="#61a2f9"/></g></g></g></g></svg>