<svg width="80" height="80" viewBox="0 0 80 80" fill="none" xmlns="http://www.w3.org/2000/svg">
<g filter="url(#filter0_d)">
<path d="M39.1922 16.1072C39.5916 15.5597 40.4084 15.5597 40.8078 16.1072L45.675 22.7779C45.9144 23.1061 46.3285 23.2568 46.7228 23.1593L54.7392 21.1778C55.3971 21.0152 56.0228 21.5402 55.9768 22.2163L55.4174 30.455C55.3899 30.8602 55.6103 31.2418 55.975 31.4206L63.3896 35.0555C63.998 35.3538 64.1399 36.1582 63.6701 36.6466L57.9459 42.5982C57.6643 42.891 57.5878 43.3249 57.7523 43.6963L61.0957 51.2468C61.3701 51.8665 60.9617 52.5738 60.2879 52.646L52.0772 53.5257C51.6734 53.569 51.3358 53.8523 51.2231 54.2425L48.9309 62.1756C48.7428 62.8267 47.9753 63.106 47.4127 62.7282L40.5575 58.1244C40.2203 57.898 39.7797 57.898 39.4425 58.1244L32.5873 62.7282C32.0247 63.106 31.2572 62.8267 31.0691 62.1756L28.7769 54.2425C28.6642 53.8523 28.3266 53.569 27.9228 53.5257L19.7121 52.646C19.0383 52.5738 18.6299 51.8665 18.9043 51.2468L22.2477 43.6963C22.4122 43.3249 22.3357 42.891 22.0541 42.5982L16.3299 36.6466C15.8601 36.1582 16.002 35.3538 16.6104 35.0555L24.025 31.4206C24.3897 31.2418 24.6101 30.8602 24.5826 30.455L24.0232 22.2163C23.9772 21.5402 24.6029 21.0152 25.2608 21.1778L33.2772 23.1593C33.6715 23.2568 34.0856 23.1061 34.325 22.7779L39.1922 16.1072Z" fill="white"/>
<path d="M46.4828 22.1885L41.6157 15.5178C40.8168 14.4229 39.1832 14.4229 38.3843 15.5178L33.5172 22.1885L25.5008 20.207C24.185 19.8818 22.9336 20.9318 23.0255 22.284L23.5849 30.5227L16.1703 34.1576C14.9533 34.7542 14.6696 36.363 15.6091 37.3398L21.3334 43.2914L17.9899 50.8419C17.4412 52.0812 18.258 53.4959 19.6056 53.6403L27.8162 54.5201L30.1084 62.4532C30.4846 63.7553 32.0196 64.314 33.1448 63.5584L40 58.9546L46.8552 63.5584C47.9804 64.314 49.5154 63.7553 49.8916 62.4532L52.1838 54.5201L60.3944 53.6403C61.742 53.4959 62.5588 52.0812 62.0101 50.8419L58.6666 43.2914L64.3909 37.3398C65.3304 36.363 65.0467 34.7542 63.8297 34.1576L56.4151 30.5227L56.9745 22.284C57.0664 20.9318 55.815 19.8818 54.4992 20.207L46.4828 22.1885Z" stroke="url(#paint0_linear)" stroke-width="2"/>
</g>
<path opacity="0.6" d="M32.8735 49.156L48.1984 30.9578" stroke="#BC517C" stroke-width="2" stroke-linecap="round"/>
<circle cx="34.0601" cy="34.3101" r="4.31012" fill="url(#paint1_linear)"/>
<circle cx="47.0113" cy="45.8038" r="4.31012" fill="url(#paint2_linear)"/>
<defs>
<filter id="filter0_d" x="8.05029" y="9.69653" width="63.8999" height="63.2032" filterUnits="userSpaceOnUse" color-interpolation-filters="sRGB">
<feFlood flood-opacity="0" result="BackgroundImageFix"/>
<feColorMatrix in="SourceAlpha" type="matrix" values="0 0 0 0 0 0 0 0 0 0 0 0 0 0 0 0 0 0 127 0"/>
<feOffset dy="2"/>
<feGaussianBlur stdDeviation="3"/>
<feColorMatrix type="matrix" values="0 0 0 0 0 0 0 0 0 0 0 0 0 0 0 0 0 0 0.2 0"/>
<feBlend mode="normal" in2="BackgroundImageFix" result="effect1_dropShadow"/>
<feBlend mode="normal" in="SourceGraphic" in2="effect1_dropShadow" result="shape"/>
</filter>
<linearGradient id="paint0_linear" x1="15" y1="65" x2="65" y2="15" gradientUnits="userSpaceOnUse">
<stop stop-color="#DA566C"/>
<stop offset="1" stop-color="#8C4794"/>
</linearGradient>
<linearGradient id="paint1_linear" x1="29.75" y1="38.6202" x2="38.3702" y2="30" gradientUnits="userSpaceOnUse">
<stop stop-color="#DA566C"/>
<stop offset="1" stop-color="#8C4794"/>
</linearGradient>
<linearGradient id="paint2_linear" x1="42.7012" y1="50.1139" x2="51.3214" y2="41.4937" gradientUnits="userSpaceOnUse">
<stop stop-color="#DA566C"/>
<stop offset="1" stop-color="#8C4794"/>
</linearGradient>
</defs>
</svg>
