<svg width="299" height="309" viewBox="0 0 299 309" fill="none" xmlns="http://www.w3.org/2000/svg">
<path d="M138.342 245.591H194.751V238.142H138.342V245.591Z" fill="#F7993F"/>
<path d="M138.342 245.591H194.751V238.142H138.342V245.591Z" fill="url(#paint0_linear)"/>
<path d="M161.009 245.068H194.706V238.749H161.009V245.068Z" fill="white"/>
<path d="M145.657 238.18H190.87V233.399H145.657V238.18Z" fill="#F7993F"/>
<path d="M145.657 238.18H190.87V233.399H145.657V238.18Z" fill="#7EC1E8"/>
<path d="M170.076 238.18H190.876V233.322H170.076V238.18Z" fill="white"/>
<path d="M138.553 233.354H195.39V228.179H138.553V233.354Z" fill="#F7993F"/>
<path d="M174.552 232.107H196.35V229.167H174.552V232.107Z" fill="white"/>
<path d="M146.718 195.634C146.789 199.789 150.063 217.24 150.069 221.401C150.069 224.134 147.025 224.069 145.229 225.097C144.289 225.633 142.933 227.293 143.86 228.043C146.45 228.179 152.569 227.972 155.152 228.108C155.696 228.108 152.595 204.512 154.717 198.077C155.996 194.2 172.825 182.021 171.47 178.332C171.086 177.278 174.354 170.456 172.033 170.43C166.572 170.365 160.964 171.011 159.155 171.625C159.155 171.631 146.61 189.503 146.718 195.634Z" fill="#3F52F4"/>
<path d="M169.238 170.527C168.344 170.496 167.465 170.772 166.745 171.308C165.722 172.278 165.99 173.964 166.348 175.334C167.467 179.65 169.174 189.548 172.589 200.907C176.157 212.775 181.432 226.021 181.764 227.003C181.911 227.449 181.867 227.759 182.244 228.036C182.621 228.314 192.187 228.179 192.27 228.036C192.27 228.036 193.063 225.898 190.019 224.709C189.233 224.399 187.091 224.935 186.733 223.83C183.657 214.358 182.385 193.709 182.73 189.884C183.165 185.077 184.802 172.794 181.707 170.229C178.318 170.087 172.64 170.268 169.238 170.527Z" fill="#3F52F4"/>
<path d="M140.727 41.1505H138.125V7.37853L140.727 5.41437V41.1505Z" fill="#F7993F"/>
<path d="M140.727 41.1505H138.125V7.55297L140.727 5.58881V41.1505Z" fill="url(#paint1_linear)"/>
<path d="M27.974 298.132H101.627V283.388H27.974V298.132Z" fill="#F7993F"/>
<path d="M27.974 298.132H101.627V283.388H27.974V298.132Z" fill="#7EC1E8"/>
<path d="M28.1085 295.354H54.5864V285.701H28.1085V295.354Z" fill="white"/>
<path d="M24.924 283.408H110.176V265.033H24.924V283.408Z" fill="#F7993F"/>
<path d="M24.924 283.408H110.176V265.033H24.924V283.408Z" fill="url(#paint2_linear)"/>
<path d="M64.203 280.959H110.023V267.468H64.203V280.959Z" fill="white"/>
<path d="M28.2618 265.129H101.078V251.787H28.2618V265.129Z" fill="#F7993F"/>
<path d="M28.2618 265.129H101.078V251.787H28.2618V265.129Z" fill="#7EC1E8"/>
<path d="M57.1631 263.85H101.078V253.228H57.1631V263.85Z" fill="white"/>
<path d="M37.7061 251.813H96.0713V241.799H37.7061V251.813Z" fill="#F7993F"/>
<path d="M37.7061 251.813H96.0713V241.799H37.7061V251.813Z" fill="#7EC1E8"/>
<path d="M69.2161 251.057H96.0713V242.354H69.2161V251.057Z" fill="white"/>
<path d="M28.5366 241.799H101.909V232.533H28.5366V241.799Z" fill="#F7993F"/>
<path d="M28.5366 241.799H101.909V232.533H28.5366V241.799Z" fill="url(#paint3_linear)"/>
<path d="M75.0026 239.576H101.877V234.31H75.0026V239.576Z" fill="white"/>
<path d="M34.6623 232.456H91.8638V221.007H34.6623V232.456Z" fill="#F7993F"/>
<path d="M34.6623 232.456H91.8638V221.007H34.6623V232.456Z" fill="#7EC1E8"/>
<path d="M57.5083 232.456H91.8701V221.007H57.5083V232.456Z" fill="#7EC1E8"/>
<path d="M34.7648 230.543H55.3281V223.049H34.7648V230.543Z" fill="white"/>
<path d="M32.2966 221.039H98.5073V209.59H32.2966V221.039Z" fill="#F7993F"/>
<path d="M62.7962 220.044H96.5762V210.818H62.7962V220.044Z" fill="white"/>
<path d="M34.8799 209.545H91.4355V199.181H34.8799V209.545Z" fill="#F7993F"/>
<path d="M34.8799 209.545H91.4355V199.181H34.8799V209.545Z" fill="url(#paint4_linear)"/>
<path d="M57.6107 208.802H91.3906V200.015H57.6107V208.802Z" fill="white"/>
<path d="M42.2202 199.233H87.5479V192.578H42.2202V199.233Z" fill="#F7993F"/>
<path d="M42.2202 199.233H87.5479V192.578H42.2202V199.233Z" fill="#7EC1E8"/>
<path d="M66.6967 199.233H87.5542V192.475H66.6967V199.233Z" fill="white"/>
<path d="M35.097 192.514H92.0811V185.316H35.097V192.514Z" fill="#F7993F"/>
<path d="M71.1851 190.789H93.04V186.699H71.1851V190.789Z" fill="white"/>
<path d="M281.896 283.388H208.242V298.132H281.896V283.388Z" fill="#F7993F"/>
<path d="M281.896 283.388H208.242V298.132H281.896V283.388Z" fill="#7EC1E8"/>
<path d="M281.768 285.701H255.29V295.354H281.768V285.701Z" fill="white"/>
<path d="M284.946 265.033H199.693V283.408H284.946V265.033Z" fill="#F7993F"/>
<path d="M284.946 265.033H199.693V283.408H284.946V265.033Z" fill="url(#paint5_linear)"/>
<path d="M245.673 267.468H199.854V280.959H245.673V267.468Z" fill="white"/>
<path d="M281.615 251.787H208.799V265.129H281.615V251.787Z" fill="#F7993F"/>
<path d="M281.615 251.787H208.799V265.129H281.615V251.787Z" fill="#7EC1E8"/>
<path d="M252.707 253.228H208.792V263.85H252.707V253.228Z" fill="white"/>
<path d="M272.164 241.799H213.799V251.813H272.164V241.799Z" fill="#F7993F"/>
<path d="M272.164 241.799H213.799V251.813H272.164V241.799Z" fill="#7EC1E8"/>
<path d="M240.654 242.348H213.799V251.051H240.654V242.348Z" fill="white"/>
<path d="M281.333 232.533H207.961V241.799H281.333V232.533Z" fill="#F7993F"/>
<path d="M281.333 232.533H207.961V241.799H281.333V232.533Z" fill="url(#paint6_linear)"/>
<path d="M234.867 234.31H207.993V239.576H234.867V234.31Z" fill="white"/>
<path d="M275.208 221H218.006V232.449H275.208V221Z" fill="#F7993F"/>
<path d="M275.208 221H218.006V232.449H275.208V221Z" fill="#7EC1E8"/>
<path d="M252.368 221H218.006V232.449H252.368V221Z" fill="#7EC1E8"/>
<path d="M275.105 223.049H254.542V230.543H275.105V223.049Z" fill="white"/>
<path d="M277.58 209.59H211.369V221.039H277.58V209.59Z" fill="#F7993F"/>
<path d="M247.08 210.818H213.3V220.044H247.08V210.818Z" fill="white"/>
<path d="M274.99 199.181H218.435V209.545H274.99V199.181Z" fill="#F7993F"/>
<path d="M274.99 199.181H218.435V209.545H274.99V199.181Z" fill="#7EC1E8"/>
<path d="M252.259 200.021H218.479V208.808H252.259V200.021Z" fill="white"/>
<path d="M267.65 192.578H222.322V199.233H267.65V192.578Z" fill="#F7993F"/>
<path d="M267.65 192.578H222.322V199.233H267.65V192.578Z" fill="#7EC1E8"/>
<path d="M243.18 192.468H222.322V199.227H243.18V192.468Z" fill="white"/>
<path d="M274.773 185.322H217.789V192.52H274.773V185.322Z" fill="#F7993F"/>
<path d="M238.685 186.699H216.83V190.789H238.685V186.699Z" fill="white"/>
<path d="M155.9 173.699C156.214 176.361 166.01 173.227 166.898 173.169C168.861 173.04 182.41 173.815 184.162 172.943C188.299 170.96 177.551 135.76 174.942 134.177C172.5 132.697 169.52 132.393 166.668 132.465C160.696 132.62 155.734 135.63 154.065 141.743C153.375 144.269 154.571 146.866 155.229 149.276C156.207 152.746 155.478 170.12 155.9 173.699Z" fill="#F7993F"/>
<path d="M159.558 131.327C158.752 129.635 156.54 129.163 155.357 127.709C154.264 126.385 154.232 124.479 154.289 122.767C154.366 120.492 154.532 118.127 155.677 116.163C156.821 114.199 159.245 112.823 161.355 113.579C162.329 114.018 163.187 114.682 163.861 115.517C164.759 116.389 165.476 117.432 165.971 118.586C166.611 120.357 166.304 122.334 165.773 124.136C165.242 125.939 164.494 127.703 164.29 129.576C164.149 130.927 164.29 132.316 164.008 133.647C163.727 134.978 162.87 136.335 161.547 136.593C159.245 137.065 160.127 132.594 159.558 131.327Z" fill="url(#paint7_linear)"/>
<path d="M158.043 146.763C158.087 147.661 158.075 148.701 157.403 149.296C157.046 149.578 156.615 149.748 156.163 149.787C153.675 150.142 127.575 131.618 124.442 118.127C124.327 117.643 126.143 116.28 127.568 115.834C128.265 115.621 128.847 115.621 129.122 116.041C139.282 132.6 156.617 134.519 158.439 135.301C158.754 135.472 159.015 135.728 159.194 136.041C159.372 136.353 159.461 136.71 159.449 137.071C159.743 139.74 157.947 144.592 158.043 146.763Z" fill="#F7993F"/>
<path d="M172.928 80.6921C172.916 88.716 169.949 96.4483 164.606 102.384C159.262 108.319 151.924 112.032 144.019 112.801C136.115 113.569 128.211 111.338 121.845 106.541C115.48 101.744 111.108 94.7254 109.583 86.851C108.057 78.9766 109.486 70.8103 113.591 63.942C117.697 57.0736 124.185 51.9949 131.792 49.6946C139.399 47.3943 147.582 48.037 154.746 51.4977C161.91 54.9583 167.543 60.9892 170.549 68.4161C172.124 72.3129 172.932 76.4828 172.928 80.6921Z" fill="#7EC1E8"/>
<path d="M156.604 92.5869C156.88 94.1063 157.049 95.6436 157.109 97.1872C157.071 100.179 155.734 103.002 153.912 105.38C151.999 107.663 149.844 109.728 147.486 111.537C149.813 112.054 152.237 111.337 154.398 110.335C159.74 107.85 164.153 103.699 166.988 98.4923C167.249 98.1161 167.365 97.6566 167.314 97.2001C167.213 96.8932 167.042 96.6144 166.815 96.386C165.197 94.3702 164.52 91.7535 163.266 89.4856C162.378 87.8898 159.737 84.6528 157.512 85.6736C155.44 86.6105 156.361 90.7649 156.604 92.5869Z" fill="url(#paint8_linear)"/>
<path d="M165.012 129.809C165.253 129.828 165.494 129.789 165.717 129.694C165.939 129.6 166.136 129.453 166.291 129.266C166.617 128.917 166.854 128.491 167.161 128.129C167.865 127.454 168.631 126.848 169.45 126.32C170.51 125.466 171.29 124.309 171.688 122.999C171.815 122.672 171.822 122.31 171.707 121.978C171.534 121.688 171.306 121.435 171.035 121.235C170.262 120.466 170.147 119.297 170.012 118.166C169.878 117.036 169.609 115.86 168.676 115.278C168.823 114.33 168.735 113.36 168.42 112.455C168.251 112.007 167.929 111.636 167.513 111.406C167.098 111.176 166.614 111.104 166.15 111.201C166.046 111.249 165.933 111.275 165.818 111.279C165.524 111.279 165.415 110.885 165.332 110.594C165.204 110.11 164.968 109.661 164.642 109.284C164.315 108.906 163.908 108.609 163.451 108.415C162.993 108.221 162.498 108.135 162.003 108.164C161.507 108.194 161.026 108.338 160.594 108.585C160.34 108.752 160.075 108.901 159.801 109.03C159.162 109.263 158.465 109.063 157.793 109.121C156.61 109.218 155.658 110.103 154.846 110.975C154.673 111.197 154.455 111.377 154.206 111.505C153.975 111.579 153.732 111.612 153.49 111.602C152.512 111.602 151.342 111.951 151.086 112.894C151.005 113.257 151.029 113.636 151.156 113.986C151.421 114.788 151.922 115.488 152.594 115.992C153.265 116.496 154.074 116.779 154.909 116.803C155.709 116.803 156.361 116.241 157.077 115.885C157.18 115.822 157.296 115.782 157.416 115.769C157.562 115.771 157.707 115.807 157.838 115.873C159.213 116.396 160.734 116.157 162.199 116.073C162.515 116.031 162.836 116.062 163.139 116.163C163.437 116.305 163.69 116.529 163.868 116.809C165.025 118.386 164.737 120.563 164.398 122.502C164.608 122.53 164.821 122.516 165.025 122.461C165.229 122.406 165.42 122.31 165.588 122.179C165.723 122.413 165.806 122.675 165.832 122.945C165.858 123.215 165.827 123.488 165.739 123.745C165.652 124.002 165.511 124.236 165.326 124.433C165.141 124.63 164.916 124.784 164.667 124.886C164.468 124.926 164.28 125.01 164.117 125.131C164.001 125.264 163.925 125.428 163.9 125.603C163.798 126.344 163.844 127.097 164.035 127.82C164.226 128.542 164.559 129.218 165.012 129.809Z" fill="#3F3D56"/>
<path d="M136.322 92.2574C136.264 94.2375 135.913 96.1976 135.28 98.0724C134.583 99.875 133.361 101.51 133.17 103.442C133.08 104.365 133.246 105.302 133.17 106.226C133.166 106.692 133.041 107.148 132.809 107.551C132.577 107.953 132.245 108.287 131.846 108.52C131.377 108.672 130.874 108.676 130.403 108.533C129.931 108.39 129.514 108.106 129.205 107.719C128.605 106.935 128.126 106.064 127.786 105.134C126.969 103.348 125.863 101.712 124.512 100.295C123.277 99.1578 122.099 97.9589 120.982 96.7026C119.953 95.4104 119.224 93.6789 119.563 92.0184C119.78 90.9587 120.42 89.925 120.202 88.8589C120.021 88.2687 119.742 87.7138 119.377 87.2178C118.837 86.2691 118.536 85.2003 118.501 84.106C118.467 83.0118 118.7 81.9258 119.179 80.9441C119.768 79.7682 120.739 78.6698 120.656 77.3518C120.603 76.8863 120.483 76.4312 120.298 76.0014C119.819 74.7092 119.077 73.2619 117.741 73.1715C116.602 73.0875 115.714 74.0695 114.761 74.7027C113.808 75.3359 112.146 75.3488 111.903 74.2375C111.494 72.5341 111.182 70.8083 110.969 69.0687C113.929 61.2944 119.729 54.9645 127.172 51.3848C128.136 52.2236 128.879 53.2916 129.333 54.4926C126.43 57.6391 126.27 62.5689 123.674 65.9674C122.837 67.0722 121.756 67.9832 121.014 69.1527C120.273 70.3221 119.927 71.8986 120.663 73.0681C121.903 75.0581 124.921 74.3603 127.057 75.3488C128.444 75.9949 129.55 77.3453 131.072 77.4422C131.884 77.4874 132.703 77.1515 133.496 77.3324C134.627 77.5844 135.267 78.7797 135.638 79.9168C136.948 83.858 136.641 88.1159 136.322 92.2574Z" fill="url(#paint9_linear)"/>
<path d="M137.217 35.9816C139.953 35.9904 142.677 36.3464 145.325 37.0412C146.245 37.2057 147.102 37.6263 147.799 38.2559C148.137 38.579 148.348 39.0154 148.392 39.4837C148.435 39.9521 148.309 40.4205 148.036 40.8016C148.55 40.7789 149.06 40.9033 149.507 41.1604C149.955 41.4175 150.321 41.7968 150.565 42.2549C150.809 42.7131 150.92 43.2313 150.885 43.7502C150.851 44.2692 150.672 44.7677 150.369 45.1886C150.995 45.4303 151.567 45.7951 152.053 46.2621C152.538 46.7291 152.926 47.2888 153.196 47.9087C153.418 48.3507 153.529 48.841 153.521 49.3366C153.512 49.8322 153.382 50.3181 153.144 50.7516C152.281 52.0438 150.408 51.9857 148.867 51.8306C142.508 51.2089 136.091 51.6256 129.864 53.0647C128.47 53.3877 126.699 53.6332 125.874 52.4185C124.947 51.0876 126.11 49.3302 127.21 48.1478C126.193 48.2706 125.401 47.0688 125.567 46.0415C125.832 45.0307 126.477 44.1641 127.364 43.625C128.241 43.0948 129.039 42.4423 129.736 41.6867C128.706 41.6027 128.137 40.2588 128.534 39.2961C129.506 36.9055 135.081 35.9752 137.217 35.9816Z" fill="#F7993F"/>
<path d="M153.407 50.183C153.35 50.3854 153.261 50.5774 153.145 50.7516C152.282 52.0438 150.408 51.9857 148.867 51.8371C142.509 51.21 136.092 51.6245 129.864 53.0647C128.515 53.3683 126.82 53.6138 125.976 52.5672C125.939 52.5317 125.904 52.4928 125.874 52.4509C124.953 51.1199 126.111 49.356 127.21 48.1736C126.194 48.2964 125.401 47.0946 125.567 46.0673C125.834 45.0554 126.477 44.1871 127.364 43.6444C128.24 43.116 129.037 42.4632 129.73 41.7061C128.707 41.6221 128.137 40.2782 128.534 39.3155C129.519 36.9185 135.081 35.9881 137.217 35.9945C139.955 36.0014 142.681 36.3575 145.331 37.0542C146.25 37.2174 147.105 37.6383 147.799 38.2688C148.138 38.5919 148.348 39.0283 148.392 39.4967C148.435 39.965 148.309 40.4334 148.036 40.8145C148.551 40.7906 149.062 40.914 149.51 41.1706C149.958 41.4272 150.326 41.8064 150.57 42.2648C150.815 42.7231 150.926 43.2419 150.892 43.7615C150.858 44.281 150.679 44.7802 150.376 45.2015C151.634 45.6966 152.648 46.6744 153.196 47.9217C153.522 48.6284 153.596 49.4272 153.407 50.183Z" fill="url(#paint10_linear)"/>
<path d="M172.346 116.409C170.863 109.36 165.313 103.836 163.331 96.9094C163.247 96.6057 162.301 95.0938 162.461 94.8289C162.806 94.2862 166.937 91.8697 167.404 92.2833C173.241 97.3164 175.128 104.01 178.446 111.02C181.765 118.031 182.992 137.763 179.213 144.508C178.299 146.149 177.615 139.572 175.754 139.449C171.138 139.139 170.032 135.062 170.824 131.528C171.931 126.449 173.433 121.655 172.346 116.409Z" fill="#F7993F"/>
<path d="M170.55 68.429C170.505 68.5776 170.466 68.7327 170.428 68.8878C170.278 69.3655 170.002 69.7927 169.629 70.123C169.255 70.4533 168.8 70.6741 168.312 70.7615C167.332 70.9186 166.332 70.8879 165.364 70.671C165.127 73.9016 168.19 76.7638 167.519 79.9039C166.975 82.4172 164.271 83.8451 163.196 86.184C162.838 86.9787 162.672 87.8574 162.244 88.6198C161.336 90.2286 159.469 90.9781 157.768 91.6113C157.383 91.7928 156.957 91.8707 156.534 91.8374C156.014 91.6986 155.551 91.398 155.21 90.9781C153.641 89.5381 152.262 87.9009 151.105 86.1065C149.942 84.2937 149.505 82.1013 149.884 79.9749C150.165 78.7344 150.805 77.6037 151.195 76.3955C151.585 75.1873 151.681 73.7594 150.952 72.7256C150.619 72.254 150.133 71.9051 149.814 71.4334C149.635 71.2053 149.538 70.923 149.538 70.6323C149.538 70.3415 149.635 70.0592 149.814 69.8311C150.094 69.6163 150.434 69.4945 150.785 69.4822L155.511 68.8361C156.405 68.7991 157.268 68.4956 157.992 67.9638C158.631 67.3565 158.791 66.116 158.043 65.6314C156.021 67.0181 153.726 67.9461 151.316 68.3515C150.555 66.6006 149.788 64.5718 150.555 62.8144C150.851 62.2423 151.223 61.714 151.661 61.2444C153.72 58.7892 155.777 56.334 157.832 53.8788C157.955 53.722 158.107 53.5904 158.279 53.4911C163.786 57.0846 168.068 62.2985 170.55 68.429Z" fill="#293B67"/>
<path d="M121.398 110.749C121.791 112.601 122.396 114.401 123.201 116.112C123.782 116.76 124.41 117.362 125.081 117.914C125.663 118.431 126.769 117.52 127.408 117.023C128.847 115.898 128.112 112.377 128.687 110.562C127.632 109.857 126.82 110.478 125.803 109.715C125.076 109.267 124.52 108.584 124.224 107.777C124.184 107.517 124.12 107.262 124.032 107.014C123.915 106.796 123.759 106.601 123.572 106.439C123.303 106.181 122.549 105.147 122.172 105.238C121.794 105.328 121.532 106.53 121.481 106.885C121.167 108.151 121.138 109.471 121.398 110.749Z" fill="url(#paint11_linear)"/>
<path d="M167.18 86.4037C167.045 86.1259 166.783 85.8158 166.495 85.9256C166.355 86.002 166.248 86.1287 166.195 86.2809L165.108 88.4389L163.273 85.0534C162.723 84.039 162.051 82.9212 160.939 82.6434C160.875 82.6185 160.807 82.6091 160.739 82.6158C160.672 82.6226 160.606 82.6453 160.549 82.6821C160.402 82.8049 160.453 83.0375 160.51 83.2249L160.964 84.5688C159.913 83.7318 158.631 83.2423 157.294 83.1667C157.172 83.1454 157.047 83.1517 156.927 83.1852C156.808 83.2187 156.697 83.2786 156.604 83.3605C156.38 83.619 156.521 84.0067 156.668 84.3168C157.166 85.3161 157.699 86.2939 158.266 87.2501C158.087 86.8818 157.473 87.024 157.307 87.3923C157.187 87.7854 157.226 88.2105 157.416 88.5746C158.439 91.2785 160.085 93.6971 162.218 95.6301C162.486 95.8756 162.857 96.1211 163.177 95.979C163.389 95.839 163.548 95.629 163.624 95.3846C164.067 94.4496 164.778 93.6707 165.664 93.1491C168.068 91.7341 168.42 88.9623 167.18 86.4037Z" fill="url(#paint12_linear)"/>
<path d="M153.407 50.183C153.35 50.3854 153.261 50.5774 153.145 50.7516C152.281 52.0438 150.408 51.9857 148.867 51.8371C142.508 51.21 136.091 51.6245 129.864 53.0647C128.515 53.3683 126.82 53.6139 125.976 52.5672C125.993 52.406 126.043 52.2502 126.124 52.11C126.204 51.9697 126.313 51.8481 126.443 51.7531C126.619 51.6425 126.811 51.5597 127.012 51.5076C129.746 50.5677 132.549 49.8461 135.395 49.3496C136.758 49.1622 138.13 49.0458 139.506 49.0007C140.644 48.9684 141.789 48.9684 142.933 48.9684C144.92 48.9942 146.906 49.1062 148.892 49.3043C149.871 49.4012 150.855 49.524 151.827 49.6661C152.301 49.7178 153.164 49.692 153.407 50.183Z" fill="url(#paint13_linear)"/>
<path d="M135.446 41.4606H146.047C146.744 41.5368 147.447 41.3875 148.055 41.0342C148.25 40.9165 148.395 40.7291 148.46 40.5089C148.525 40.2888 148.506 40.052 148.407 39.8453C148.251 39.6672 148.046 39.541 147.818 39.4835C144.768 38.3851 141.424 38.4045 138.227 38.5984C136.715 38.6303 135.212 38.8473 133.751 39.2445C132.831 39.5287 130.407 40.4204 130.273 41.5575C130.97 41.732 132.019 41.4541 132.773 41.4283C133.636 41.4606 134.544 41.4606 135.446 41.4606Z" fill="url(#paint14_linear)"/>
<path d="M135.26 46.1061C136.878 45.88 138.508 45.8089 140.139 45.7378C143.029 45.6086 145.894 45.4858 148.816 45.5181C149.251 45.5622 149.691 45.4955 150.094 45.3243C150.292 45.2348 150.45 45.0763 150.541 44.878C150.631 44.6796 150.647 44.4549 150.587 44.2453C150.401 43.806 149.832 43.7155 149.359 43.6897C145.398 43.4754 141.428 43.5164 137.473 43.8124C136.301 43.8745 135.136 44.0279 133.988 44.2712C131.953 44.83 129.992 45.6303 128.144 46.6553C127.677 46.8879 126.762 47.4758 127.613 47.857C128.252 48.1284 129.429 47.4629 130.03 47.2885C131.742 46.7662 133.491 46.3711 135.26 46.1061Z" fill="url(#paint15_linear)"/>
<path d="M208.441 286.845H134.787V301.589H208.441V286.845Z" fill="#F7993F"/>
<path d="M208.441 286.845H134.787V301.589H208.441V286.845Z" fill="url(#paint16_linear)"/>
<path d="M208.306 289.158H181.829V298.811H208.306V289.158Z" fill="white"/>
<path d="M211.491 268.489H126.238V286.864H211.491V268.489Z" fill="#F7993F"/>
<path d="M211.491 268.489H126.238V286.864H211.491V268.489Z" fill="url(#paint17_linear)"/>
<path d="M172.212 270.925H126.392V284.416H172.212V270.925Z" fill="white"/>
<path d="M208.16 255.244H135.344V268.586H208.16V255.244Z" fill="#F7993F"/>
<path d="M208.16 255.244H135.344V268.586H208.16V255.244Z" fill="#7EC1E8"/>
<path d="M179.251 256.685H135.337V267.307H179.251V256.685Z" fill="white"/>
<path d="M198.709 245.255H140.344V255.27H198.709V245.255Z" fill="#F7993F"/>
<path d="M198.709 245.255H140.344V255.27H198.709V245.255Z" fill="#7EC1E8"/>
<path d="M167.199 245.804H140.344V254.507H167.199V245.804Z" fill="white"/>
<path d="M159.456 137.039C158.899 137.64 157.857 137.743 156.981 137.685C149.091 137.2 142.07 132.516 136.207 127.141C133.696 124.847 131.306 122.423 129.045 119.878C128.272 119.013 126.929 118.05 127.127 116.771C127.181 116.408 127.339 116.068 127.581 115.795C128.278 115.582 128.86 115.582 129.135 116.002C139.295 132.561 156.629 134.48 158.452 135.262C158.766 135.434 159.027 135.692 159.205 136.006C159.382 136.32 159.469 136.678 159.456 137.039Z" fill="url(#paint18_linear)"/>
<defs>
<linearGradient id="paint0_linear" x1="29071.4" y1="3012.23" x2="29075" y2="3433.56" gradientUnits="userSpaceOnUse">
<stop stop-opacity="0"/>
<stop offset="0.99"/>
</linearGradient>
<linearGradient id="paint1_linear" x1="705.107" y1="1056.44" x2="1576.72" y2="3354.86" gradientUnits="userSpaceOnUse">
<stop stop-opacity="0"/>
<stop offset="0.99"/>
</linearGradient>
<linearGradient id="paint2_linear" x1="11471.7" y1="8034.46" x2="11461.4" y2="9127.61" gradientUnits="userSpaceOnUse">
<stop stop-opacity="0"/>
<stop offset="0.99"/>
</linearGradient>
<linearGradient id="paint3_linear" x1="9575.71" y1="3505.55" x2="9578.65" y2="4582.2" gradientUnits="userSpaceOnUse">
<stop stop-opacity="0"/>
<stop offset="0.99"/>
</linearGradient>
<linearGradient id="paint4_linear" x1="7211.23" y1="3445.45" x2="7220.11" y2="4184.64" gradientUnits="userSpaceOnUse">
<stop stop-opacity="0"/>
<stop offset="0.99"/>
</linearGradient>
<linearGradient id="paint5_linear" x1="-136720" y1="8033.04" x2="-136709" y2="9126.19" gradientUnits="userSpaceOnUse">
<stop stop-opacity="0"/>
<stop offset="0.99"/>
</linearGradient>
<linearGradient id="paint6_linear" x1="-117221" y1="3504.11" x2="-117224" y2="4580.76" gradientUnits="userSpaceOnUse">
<stop stop-opacity="0"/>
<stop offset="0.99"/>
</linearGradient>
<linearGradient id="paint7_linear" x1="154.238" y1="125.015" x2="166.304" y2="125.015" gradientUnits="userSpaceOnUse">
<stop stop-color="#ECC4D7"/>
<stop offset="0.42" stop-color="#EFD4D1"/>
<stop offset="1" stop-color="#F2EAC9"/>
</linearGradient>
<linearGradient id="paint8_linear" x1="5894.45" y1="3543.27" x2="2118.82" y2="8304.68" gradientUnits="userSpaceOnUse">
<stop stop-opacity="0"/>
<stop offset="0.99"/>
</linearGradient>
<linearGradient id="paint9_linear" x1="4898.73" y1="6330.25" x2="11153.1" y2="7392.27" gradientUnits="userSpaceOnUse">
<stop stop-opacity="0"/>
<stop offset="0.99"/>
</linearGradient>
<linearGradient id="paint10_linear" x1="138.63" y1="32.8803" x2="140.53" y2="68.9827" gradientUnits="userSpaceOnUse">
<stop stop-color="white" stop-opacity="0"/>
<stop offset="0.99" stop-color="white"/>
</linearGradient>
<linearGradient id="paint11_linear" x1="3111.77" y1="2232.14" x2="3199.33" y2="2234.14" gradientUnits="userSpaceOnUse">
<stop stop-color="#ECC4D7"/>
<stop offset="0.42" stop-color="#EFD4D1"/>
<stop offset="1" stop-color="#F2EAC9"/>
</linearGradient>
<linearGradient id="paint12_linear" x1="3268.89" y1="1965.65" x2="3471.79" y2="1965.65" gradientUnits="userSpaceOnUse">
<stop stop-color="#ECC4D7"/>
<stop offset="0.42" stop-color="#EFD4D1"/>
<stop offset="1" stop-color="#F2EAC9"/>
</linearGradient>
<linearGradient id="paint13_linear" x1="6311.03" y1="403.575" x2="7487.8" y2="403.575" gradientUnits="userSpaceOnUse">
<stop stop-color="white" stop-opacity="0"/>
<stop offset="0.99" stop-color="white"/>
</linearGradient>
<linearGradient id="paint14_linear" x1="4608.12" y1="221.601" x2="4609.32" y2="286.784" gradientUnits="userSpaceOnUse">
<stop stop-color="white" stop-opacity="0"/>
<stop offset="0.99" stop-color="white"/>
</linearGradient>
<linearGradient id="paint15_linear" x1="5859.23" y1="303.581" x2="5860.06" y2="463.254" gradientUnits="userSpaceOnUse">
<stop stop-color="white" stop-opacity="0"/>
<stop offset="0.99" stop-color="white"/>
</linearGradient>
<linearGradient id="paint16_linear" x1="-126053" y1="6908.03" x2="-126048" y2="8144.69" gradientUnits="userSpaceOnUse">
<stop stop-opacity="0"/>
<stop offset="0.99"/>
</linearGradient>
<linearGradient id="paint17_linear" x1="-146441" y1="8134.61" x2="-146431" y2="9227.94" gradientUnits="userSpaceOnUse">
<stop stop-opacity="0"/>
<stop offset="0.99"/>
</linearGradient>
<linearGradient id="paint18_linear" x1="8573.89" y1="4041.6" x2="6682.27" y2="10667.5" gradientUnits="userSpaceOnUse">
<stop stop-opacity="0"/>
<stop offset="0.99"/>
</linearGradient>
</defs>
</svg>
