<svg width="264" height="262" viewBox="0 0 264 262" fill="none" xmlns="http://www.w3.org/2000/svg">
<path d="M135.334 261.936C132.939 261.936 130.624 261.89 128.469 261.822C118.388 261.537 106.495 260.864 94.6464 258.013C60.1056 249.7 29.5103 223.06 12.7929 186.738C1.1158 161.364 -2.73855 133.732 1.93684 108.905C2.51842 105.815 5.52891 103.694 8.59643 104.367C11.6867 104.948 13.728 107.925 13.1464 111.027C8.90432 133.55 12.4508 158.741 23.1472 181.982C38.4049 215.145 66.1266 239.425 97.292 246.928C108.125 249.528 119.289 250.156 128.777 250.429C133.886 250.566 139.895 250.646 145.711 250.11C162.234 248.593 178.279 242.207 193.788 236.026C199.717 233.665 221.099 217.745 224.292 213.309C250.725 176.702 259.289 134.063 247.201 99.2234C243.666 89.0624 238.158 78.6392 229.822 66.4369C212.637 41.2454 194.688 25.7245 174.972 18.9847C166.476 16.0767 157.399 14.7424 148.083 13.5222C135.117 11.823 122.448 10.4431 110.132 12.2905C94.6236 14.5942 79.0238 22.1436 63.7775 34.7223C49.8767 46.1833 37.9716 60.2901 26.4655 73.9293C24.4243 76.3355 20.8437 76.6435 18.4262 74.6249C16.02 72.5836 15.7121 68.9914 17.7419 66.5851C29.5787 52.5582 41.8259 38.0408 56.5135 25.9298C73.3905 12.0169 90.8719 3.63489 108.445 1.00056C122.22 -1.05216 135.767 0.407554 149.565 2.20939C159.486 3.49804 169.168 4.93495 178.655 8.17369C200.789 15.7346 220.608 32.6809 239.242 59.9936C248.148 73.0626 254.1 84.3412 257.977 95.4715C271.285 133.812 262.151 180.363 233.54 219.981C228.705 226.675 205.487 243.633 197.995 246.62C181.734 253.098 164.914 259.804 146.749 261.469C142.894 261.822 139.006 261.936 135.334 261.936Z" fill="#81C1EA"/>
<path d="M131.104 204.574C171.599 204.574 204.427 171.744 204.427 131.246C204.427 90.748 171.599 57.918 131.104 57.918C90.608 57.918 57.7798 90.748 57.7798 131.246C57.7798 171.744 90.608 204.574 131.104 204.574Z" fill="#c699ff"/>
<path d="M128.262 165.561C126.791 165.561 125.354 164.979 124.293 163.93L98.3051 138.328C96.0814 136.139 96.0472 132.546 98.248 130.334C100.426 128.11 104.018 128.076 106.253 130.266L127.304 150.998L160.625 99.6115C162.312 97 165.825 96.2131 168.447 97.9465C171.07 99.6343 171.811 103.147 170.112 105.77L133.017 162.984C132.093 164.409 130.577 165.344 128.889 165.538C128.661 165.55 128.467 165.561 128.262 165.561Z" fill="white"/>
</svg>
