<svg id="Layer_1" data-name="Layer 1" xmlns="http://www.w3.org/2000/svg" xmlns:xlink="http://www.w3.org/1999/xlink" viewBox="0 0 1200 833">
    <defs>
        <style>
            .cls-1,
            .cls-10,
            .cls-12 {
                fill: none;
            }

            .cls-2 {
                clip-path: url(#clip-path);
            }

            .cls-3 {
                fill: #533fbf;
            }

            .cls-4,
            .cls-5 {
                opacity: 0.4;
            }

            .cls-4 {
                fill: url(#linear-gradient);
            }

            .cls-6 {
                fill: url(#linear-gradient-2);
            }

            .cls-12,
            .cls-7 {
                opacity: 0.2;
            }

            .cls-8 {
                fill: #fffffd;
            }

            .cls-9 {
                fill: #eb7f3a;
            }

            .cls-10 {
                stroke: #fffffd;
                stroke-width: 4px;
            }

            .cls-10,
            .cls-12 {
                stroke-linecap: round;
                stroke-miterlimit: 10;
            }

            .cls-11 {
                clip-path: url(#clip-path-2);
            }

            .cls-12 {
                stroke: #d4530f;
                stroke-width: 3.08px;
            }
        </style>
        <clipPath id="clip-path">
            <path class="cls-1" d="M0,0H1200a0,0,0,0,1,0,0V773a60,60,0,0,1-60,60H60A60,60,0,0,1,0,773V0A0,0,0,0,1,0,0Z" />
        </clipPath>
        <linearGradient id="linear-gradient" x1="324.12" y1="958.1" x2="473.17" y2="506.14" gradientUnits="userSpaceOnUse">
            <stop offset="0" stop-color="#533fbf" />
            <stop offset="0.18" stop-color="#533fbf" />
            <stop offset="0.43" stop-color="#533fbf" />
            <stop offset="0.71" stop-color="#533fbf" />
            <stop offset="1" stop-color="#533fbf" />
        </linearGradient>
        <linearGradient id="linear-gradient-2" x1="634.86" y1="49.67" x2="312.81" y2="412.4" gradientUnits="userSpaceOnUse">
            <stop offset="0" stop-color="#f9e6de" />
            <stop offset="0.09" stop-color="#5e47dc" stop-opacity="0.97" />
            <stop offset="0.22" stop-color="#5e47dc" stop-opacity="0.9" />
            <stop offset="0.37" stop-color="#5e47dc" stop-opacity="0.78" />
            <stop offset="0.54" stop-color="#5e47dc" stop-opacity="0.62" />
            <stop offset="0.71" stop-color="#5e47dc" stop-opacity="0.4" />
            <stop offset="0.9" stop-color="#5e47dc" stop-opacity="0.15" />
            <stop offset="1" stop-color="#5e47dc" stop-opacity="0" />
        </linearGradient>
        <clipPath id="clip-path-2">
            <circle class="cls-1" cx="-22.8" cy="229.7" r="79.3" />
        </clipPath>
    </defs>
    <title>Packers and Movers</title>
    <g class="cls-2">
        <path class="cls-3" d="M-18-1.4H1222a0,0,0,0,1,0,0V791.7a61.7,61.7,0,0,1-61.7,61.7H43.8A61.7,61.7,0,0,1-18,791.7V-1.4A0,0,0,0,1-18-1.4Z" />
        <polygon class="cls-4" points="174.6 851.8 -18 855.6 -18 -0.3 1224.4 -0.3 1222 231.3 600 851.4 174.6 851.8" />
        <g class="cls-5">
            <polygon class="cls-6" points="329.2 580.3 888.3 0.7 518.2 0.7 64.6 455.6 329.2 580.3" />
        </g>
        <g class="cls-7">
            <circle class="cls-8" cx="1075.5" cy="272.2" r="3.5" />
            <circle class="cls-8" cx="1099.5" cy="272.2" r="3.5" />
            <circle class="cls-8" cx="1123.4" cy="272.2" r="3.5" />
            <circle class="cls-8" cx="1147.4" cy="272.2" r="3.5" />
            <circle class="cls-8" cx="1171.4" cy="272.2" r="3.5" />
            <circle class="cls-8" cx="1195.3" cy="272.2" r="3.5" />
            <circle class="cls-8" cx="1075.5" cy="298.7" r="3.5" />
            <circle class="cls-8" cx="1099.5" cy="298.7" r="3.5" />
            <circle class="cls-8" cx="1123.4" cy="298.7" r="3.5" />
            <circle class="cls-8" cx="1147.4" cy="298.7" r="3.5" />
            <circle class="cls-8" cx="1171.4" cy="298.7" r="3.5" />
            <circle class="cls-8" cx="1195.3" cy="298.7" r="3.5" />
            <circle class="cls-9" cx="1075.5" cy="325.3" r="3.5" />
            <circle class="cls-9" cx="1099.5" cy="325.3" r="3.5" />
            <circle class="cls-9" cx="1123.4" cy="325.3" r="3.5" />
            <circle class="cls-8" cx="1147.4" cy="325.3" r="3.5" />
            <circle class="cls-8" cx="1171.4" cy="325.3" r="3.5" />
            <circle class="cls-8" cx="1195.3" cy="325.3" r="3.5" />
            <circle class="cls-9" cx="1075.5" cy="351.8" r="3.5" />
            <circle class="cls-9" cx="1099.5" cy="351.8" r="3.5" />
            <circle class="cls-9" cx="1123.4" cy="351.8" r="3.5" />
            <circle class="cls-8" cx="1147.4" cy="351.8" r="3.5" />
            <circle class="cls-8" cx="1171.4" cy="351.8" r="3.5" />
            <circle class="cls-8" cx="1195.3" cy="351.8" r="3.5" />
            <circle class="cls-8" cx="1075.5" cy="378.3" r="3.5" />
            <circle class="cls-8" cx="1099.5" cy="378.3" r="3.5" />
            <circle class="cls-8" cx="1123.4" cy="378.3" r="3.5" />
            <circle class="cls-8" cx="1147.4" cy="378.3" r="3.5" />
            <circle class="cls-8" cx="1171.4" cy="378.3" r="3.5" />
            <circle class="cls-8" cx="1195.3" cy="378.3" r="3.5" />
            <circle class="cls-8" cx="1075.5" cy="404.8" r="3.5" />
            <circle class="cls-8" cx="1099.5" cy="404.8" r="3.5" />
            <circle class="cls-8" cx="1123.4" cy="404.8" r="3.5" />
            <circle class="cls-8" cx="1147.4" cy="404.8" r="3.5" />
            <circle class="cls-8" cx="1171.4" cy="404.8" r="3.5" />
            <circle class="cls-8" cx="1195.3" cy="404.8" r="3.5" />
            <circle class="cls-8" cx="1075.5" cy="431.3" r="3.5" />
            <circle class="cls-8" cx="1099.5" cy="431.3" r="3.5" />
            <circle class="cls-8" cx="1123.4" cy="431.3" r="3.5" />
            <circle class="cls-8" cx="1147.4" cy="431.3" r="3.5" />
            <circle class="cls-8" cx="1171.4" cy="431.3" r="3.5" />
            <circle class="cls-8" cx="1195.3" cy="431.3" r="3.5" />
            <circle class="cls-9" cx="1075.5" cy="457.9" r="3.5" />
            <circle class="cls-9" cx="1099.5" cy="457.9" r="3.5" />
            <circle class="cls-9" cx="1123.4" cy="457.9" r="3.5" />
            <circle class="cls-8" cx="1147.4" cy="457.9" r="3.5" />
            <circle class="cls-8" cx="1171.4" cy="457.9" r="3.5" />
            <circle class="cls-8" cx="1195.3" cy="457.9" r="3.5" />
            <circle class="cls-9" cx="1075.5" cy="484.4" r="3.5" />
            <circle class="cls-9" cx="1099.5" cy="484.4" r="3.5" />
            <circle class="cls-9" cx="1123.4" cy="484.4" r="3.5" />
            <circle class="cls-8" cx="1147.4" cy="484.4" r="3.5" />
            <circle class="cls-8" cx="1171.4" cy="484.4" r="3.5" />
            <circle class="cls-8" cx="1195.3" cy="484.4" r="3.5" />
            <circle class="cls-9" cx="1075.5" cy="510.9" r="3.5" />
            <circle class="cls-9" cx="1099.5" cy="510.9" r="3.5" />
            <circle class="cls-9" cx="1123.4" cy="510.9" r="3.5" />
            <circle class="cls-8" cx="1147.4" cy="510.9" r="3.5" />
            <circle class="cls-8" cx="1171.4" cy="510.9" r="3.5" />
            <circle class="cls-8" cx="1195.3" cy="510.9" r="3.5" />
            <circle class="cls-8" cx="1075.5" cy="537.4" r="3.5" />
            <circle class="cls-8" cx="1099.5" cy="537.4" r="3.5" />
            <circle class="cls-8" cx="1123.4" cy="537.4" r="3.5" />
            <circle class="cls-8" cx="1147.4" cy="537.4" r="3.5" />
            <circle class="cls-8" cx="1171.4" cy="537.4" r="3.5" />
            <circle class="cls-8" cx="1195.3" cy="537.4" r="3.5" />
            <circle class="cls-8" cx="1075.5" cy="564" r="3.5" />
            <circle class="cls-8" cx="1099.5" cy="564" r="3.5" />
            <circle class="cls-8" cx="1123.4" cy="564" r="3.5" />
            <circle class="cls-8" cx="1147.4" cy="564" r="3.5" />
            <circle class="cls-8" cx="1171.4" cy="564" r="3.5" />
            <circle class="cls-8" cx="1195.3" cy="564" r="3.5" />
            <circle class="cls-8" cx="1075.5" cy="590.5" r="3.5" />
            <circle class="cls-8" cx="1099.5" cy="590.5" r="3.5" />
            <circle class="cls-8" cx="1123.4" cy="590.5" r="3.5" />
            <circle class="cls-8" cx="1147.4" cy="590.5" r="3.5" />
            <circle class="cls-8" cx="1171.4" cy="590.5" r="3.5" />
            <circle class="cls-8" cx="1195.3" cy="590.5" r="3.5" />
            <circle class="cls-8" cx="1075.5" cy="617" r="3.5" />
            <circle class="cls-8" cx="1099.5" cy="617" r="3.5" />
            <circle class="cls-8" cx="1123.4" cy="617" r="3.5" />
            <circle class="cls-9" cx="1147.4" cy="617" r="3.5" />
            <circle class="cls-9" cx="1171.4" cy="617" r="3.5" />
            <circle class="cls-9" cx="1195.3" cy="617" r="3.5" />
            <circle class="cls-8" cx="1075.5" cy="643.5" r="3.5" />
            <circle class="cls-8" cx="1099.5" cy="643.5" r="3.5" />
            <circle class="cls-8" cx="1123.4" cy="643.5" r="3.5" />
            <circle class="cls-9" cx="1147.4" cy="643.5" r="3.5" />
            <circle class="cls-9" cx="1171.4" cy="643.5" r="3.5" />
            <circle class="cls-9" cx="1195.3" cy="643.5" r="3.5" />
        </g>
        <g class="cls-7">
            <path class="cls-10" d="M761.1,310l-1.6,1.1a5,5,0,0,1-6.3-.6l-3.3-3.3a4.8,4.8,0,0,0-7,0l-1.8,1.8a5,5,0,0,1-7,0l-1.8-1.8a4.8,4.8,0,0,0-7,0l-1.8,1.8a5,5,0,0,1-7,0l-1.8-1.8a4.8,4.8,0,0,0-7,0l-1.8,1.8a5,5,0,0,1-7,0l-1.8-1.8a4.8,4.8,0,0,0-7,0l-1.8,1.8a5,5,0,0,1-7,0l-1.8-1.8a4.8,4.8,0,0,0-7,0l-1.8,1.8a5,5,0,0,1-7,0l-1.9-1.8a4.8,4.8,0,0,0-7,0L653,309a5,5,0,0,1-7,0l-1.8-1.8a4.8,4.8,0,0,0-7,0l-4.7,4.7a4.7,4.7,0,0,1-3.5,1.5h-3.2" />
            <path class="cls-10" d="M761.1,328.6l-1.6,1.1a5.1,5.1,0,0,1-6.3-.6l-3.3-3.3a4.8,4.8,0,0,0-7,0l-1.8,1.8a5,5,0,0,1-7,0l-1.8-1.8a4.8,4.8,0,0,0-7,0l-1.8,1.8a5,5,0,0,1-7,0l-1.8-1.8a4.8,4.8,0,0,0-7,0l-1.8,1.8a5,5,0,0,1-7,0l-1.8-1.8a4.8,4.8,0,0,0-7,0l-1.8,1.8a5,5,0,0,1-7,0l-1.8-1.8a4.8,4.8,0,0,0-7,0l-1.8,1.8a5,5,0,0,1-7,0l-1.9-1.8a4.8,4.8,0,0,0-7,0l-1.8,1.8a5,5,0,0,1-7,0l-1.8-1.8a4.8,4.8,0,0,0-7,0l-4.7,4.7A5.1,5.1,0,0,1,629,332h-3.2" />
        </g>
        
       
    </g>
</svg>