<svg xmlns="http://www.w3.org/2000/svg" xmlns:xlink="http://www.w3.org/1999/xlink" viewBox="0 0 512 512"><defs><style>.cls-1{isolation:isolate;}.cls-2{fill:url(#Degradado_sin_nombre_15);}.cls-3{mix-blend-mode:multiply;}.cls-4{fill:#b3b3b3;}.cls-5{fill:#8ac9fe;}.cls-6{fill:#60b7ff;}.cls-7{fill:#f5f8f9;}.cls-8{fill:#e8edf2;}.cls-9{fill:#685e68;}.cls-10{fill:#554e56;}.cls-11{fill:#fff;}.cls-12{fill:url(#Degradado_sin_nombre_18);}.cls-13{fill:url(#Degradado_sin_nombre_18-2);}</style><linearGradient id="Degradado_sin_nombre_15" x1="37.21" y1="255.88" x2="497.94" y2="255.88" gradientUnits="userSpaceOnUse"><stop offset="0" stop-color="#5b57a5"/><stop offset="0.5" stop-color="#2e3092"/><stop offset="1" stop-color="#474374"/></linearGradient><linearGradient id="Degradado_sin_nombre_18" x1="129.08" y1="189.42" x2="221" y2="189.42" gradientUnits="userSpaceOnUse"><stop offset="0" stop-color="#f074ac"/><stop offset="0.5" stop-color="#eb008b"/><stop offset="1" stop-color="#cd118c"/></linearGradient><linearGradient id="Degradado_sin_nombre_18-2" x1="166.13" y1="173.73" x2="183.56" y2="173.73" xlink:href="#Degradado_sin_nombre_18"/></defs><g class="cls-1"><g id="Layer_1" data-name="Layer 1"><path class="cls-2" d="M497.94,255.88c0,127.22-103.14,230.36-230.37,230.36S37.21,383.1,37.21,255.88,140.35,25.51,267.57,25.51,497.94,128.65,497.94,255.88Z"/><g class="cls-3"><path class="cls-4" d="M495.7,288C470,261.94,391.63,179.57,390.83,179.07l-30.33,54c-14.72-14.54-10.59,15.3,25.75,9.86,1.44-.22,8,3.55,7.2,4.79L388.3,256l-2.87-.69c-.75-.19-1.52-.31-2.28-.46a5.19,5.19,0,0,0-1.94-1.12l-.83-.83h0l-.1-.1a5.36,5.36,0,0,0-3.57-3.57l-.82-.82-.12-.13a5.38,5.38,0,0,0-3.56-3.56l-.95-.95a5.34,5.34,0,0,0-3.56-3.55L300.15,182l-4,3.41s-2.35,4.06-2.35,4.06l2.35,9-19.33-10.77c-1.59-1.6-7-2.87-9.26-2.87s10.85,1.27,9.26,2.87l-13.64-2.87c42.64,129.28,11.19,47.75-1.9,10.8-.86-2-13.69-5.31-15.72-6.17,17.27,38.08,2.62,22.45-8,6.74l-8.53,1.13-5,1.71c-4.64,0-7.54-7.49-7.54-2.84l9.66-8.5-12.79,13.68c-4.35,1.43-3.51-9.57-7.67-7.46l-10.85-13.64-6.77,7.42c-1.6-1.6,43.29,65.78,15.91,10.77-1-2-3.53,10.34-5.11,11.94L174.65,221c-3.28,3.28-27.84-.93-24.56,2.36L167.9,253,229,265.47V205.25l5,34.81a92.46,92.46,0,0,0-5.33,12.84l-1.43,4.31h-15.1a8.44,8.44,0,0,0-8.43,8.43v33.1a8.45,8.45,0,0,0,5.17,7.78c.85,2-31-4.6-30.41-3.9L174.65,328c-3.28,3.3-17.25-6.6-14-3.31l-6.11,4.45V347s-24.25,19.72-13.93,26.54l104,111.54C326.86,495.34,466.13,450.81,495.7,288Z"/></g><path class="cls-5" d="M396.05,189.42V349.7h-257V189.42a13,13,0,0,1,12.3-13l.51,0H383.07a13,13,0,0,1,13,13Zm0,0"/><path class="cls-6" d="M167.9,176.44a13.33,13.33,0,0,0-13.33,13.33V349.7H139.09V189.42a13,13,0,0,1,12.3-13l.51,0Zm0,0"/><path class="cls-7" d="M386.25,376.36H148.9a13.6,13.6,0,0,1-13.6-13.61v-6.91a13.6,13.6,0,0,1,13.6-13.6h64.56L260.68,351l61-8.79h64.56a13.6,13.6,0,0,1,13.6,13.6v6.91a13.6,13.6,0,0,1-13.6,13.61Zm0,0"/><path class="cls-8" d="M164.89,376.36h-16a13.6,13.6,0,0,1-13.6-13.61v-6.91a13.59,13.59,0,0,1,13.6-13.6h16a13.6,13.6,0,0,0-13.6,13.6v6.91a13.6,13.6,0,0,0,13.6,13.61Zm0,0"/><path class="cls-9" d="M321.69,342.24V354.5a5.34,5.34,0,0,1-5.34,5.33H218.8a5.34,5.34,0,0,1-5.34-5.33V342.24Zm0,0"/><path class="cls-10" d="M234.79,359.83h-16a5.33,5.33,0,0,1-5.33-5.33V342.24h16V354.5a5.33,5.33,0,0,0,5.33,5.33Zm0,0"/><path class="cls-11" d="M220,199H353.51a4.76,4.76,0,0,1,4.76,4.76h0a4.76,4.76,0,0,1-4.76,4.77H220a4.76,4.76,0,0,1-4.77-4.77h0A4.76,4.76,0,0,1,220,199Z"/><path class="cls-11" d="M220,218.06H267.7a4.77,4.77,0,0,1,4.76,4.77h0a4.77,4.77,0,0,1-4.76,4.77H220a4.77,4.77,0,0,1-4.77-4.77h0A4.77,4.77,0,0,1,220,218.06Z"/><path class="cls-11" d="M220,237.13H267.7a4.77,4.77,0,0,1,4.76,4.77h0a4.77,4.77,0,0,1-4.76,4.77H220a4.77,4.77,0,0,1-4.77-4.77h0A4.77,4.77,0,0,1,220,237.13Z"/><path class="cls-11" d="M220,275.27h19.06a4.76,4.76,0,0,1,4.77,4.76h0a4.76,4.76,0,0,1-4.77,4.77H220a4.76,4.76,0,0,1-4.77-4.77h0A4.76,4.76,0,0,1,220,275.27Z"/><path class="cls-11" d="M220,256.2h19.06a4.77,4.77,0,0,1,4.77,4.77h0a4.77,4.77,0,0,1-4.77,4.77H220a4.77,4.77,0,0,1-4.77-4.77h0A4.77,4.77,0,0,1,220,256.2Z"/><path class="cls-11" d="M191.42,313.41H201a4.77,4.77,0,0,1,4.77,4.76h0a4.77,4.77,0,0,1-4.77,4.77h-9.54a4.76,4.76,0,0,1-4.76-4.77h0A4.76,4.76,0,0,1,191.42,313.41Z"/><path class="cls-11" d="M191.42,294.34H201a4.77,4.77,0,0,1,4.77,4.76h0a4.77,4.77,0,0,1-4.77,4.77h-9.54a4.76,4.76,0,0,1-4.76-4.77h0A4.76,4.76,0,0,1,191.42,294.34Z"/><path class="cls-11" d="M191.42,256.2H201a4.78,4.78,0,0,1,4.77,4.77h0a4.78,4.78,0,0,1-4.77,4.77h-9.54a4.77,4.77,0,0,1-4.76-4.77h0A4.77,4.77,0,0,1,191.42,256.2Z"/><path class="cls-11" d="M191.42,275.27H201a4.77,4.77,0,0,1,4.77,4.76h0A4.77,4.77,0,0,1,201,284.8h-9.54a4.76,4.76,0,0,1-4.76-4.77h0A4.76,4.76,0,0,1,191.42,275.27Z"/><path class="cls-11" d="M191.42,237.13H201a4.78,4.78,0,0,1,4.77,4.77h0a4.78,4.78,0,0,1-4.77,4.77h-9.54a4.77,4.77,0,0,1-4.76-4.77h0A4.77,4.77,0,0,1,191.42,237.13Z"/><path class="cls-11" d="M191.42,218.06H201a4.78,4.78,0,0,1,4.77,4.77h0A4.78,4.78,0,0,1,201,227.6h-9.54a4.77,4.77,0,0,1-4.76-4.77h0A4.77,4.77,0,0,1,191.42,218.06Z"/><path class="cls-11" d="M191.42,199H201a4.77,4.77,0,0,1,4.77,4.76h0a4.77,4.77,0,0,1-4.77,4.77h-9.54a4.76,4.76,0,0,1-4.76-4.77h0A4.76,4.76,0,0,1,191.42,199Z"/><path class="cls-11" d="M220,313.41h9.53a4.77,4.77,0,0,1,4.77,4.76h0a4.77,4.77,0,0,1-4.77,4.77H220a4.76,4.76,0,0,1-4.77-4.77h0A4.76,4.76,0,0,1,220,313.41Z"/><path class="cls-11" d="M220,294.34h28.6a4.76,4.76,0,0,1,4.76,4.76h0a4.76,4.76,0,0,1-4.76,4.77H220a4.76,4.76,0,0,1-4.77-4.77h0A4.76,4.76,0,0,1,220,294.34Z"/><path class="cls-11" d="M267.7,294.34h28.6a4.77,4.77,0,0,1,4.77,4.76h0a4.77,4.77,0,0,1-4.77,4.77H267.7a4.77,4.77,0,0,1-4.77-4.77h0A4.77,4.77,0,0,1,267.7,294.34Z"/><path class="cls-11" d="M286.76,237.13h47.68a4.77,4.77,0,0,1,4.76,4.77h0a4.77,4.77,0,0,1-4.76,4.77H286.76A4.77,4.77,0,0,1,282,241.9h0A4.77,4.77,0,0,1,286.76,237.13Z"/><circle class="cls-12" cx="175.04" cy="189.42" r="45.96"/><path class="cls-11" d="M191.31,173.73a16.47,16.47,0,1,0-16.46,16.47,16.49,16.49,0,0,0,16.46-16.47Z"/><path class="cls-13" d="M183.56,173.73a8.72,8.72,0,1,1-8.71-8.71,8.73,8.73,0,0,1,8.71,8.71Z"/><path class="cls-11" d="M194.41,221.58a3.87,3.87,0,0,1-3.87-3.87,13.92,13.92,0,0,0-13.86-14H173.4a13.92,13.92,0,0,0-13.86,14,3.88,3.88,0,0,1-7.75,0A21.68,21.68,0,0,1,173.4,196h3.28a21.67,21.67,0,0,1,21.6,21.7,3.87,3.87,0,0,1-3.87,3.87Z"/></g></g></svg>