<svg xmlns="http://www.w3.org/2000/svg" xmlns:xlink="http://www.w3.org/1999/xlink" viewBox="0 0 512 512"><defs><style>.cls-1{isolation:isolate;}.cls-2{fill:url(#Degradado_sin_nombre_15);}.cls-3{mix-blend-mode:multiply;}.cls-4{fill:#b3b3b3;}.cls-5{fill:url(#Degradado_sin_nombre_22);}.cls-6{fill:url(#Degradado_sin_nombre_22-2);}.cls-7{fill:url(#Degradado_sin_nombre_22-3);}.cls-8{fill:#fff;}.cls-9{fill:url(#Degradado_sin_nombre_29);}.cls-10{fill:url(#Degradado_sin_nombre_22-4);}.cls-11{fill:url(#Degradado_sin_nombre_22-5);}.cls-12{fill:url(#Degradado_sin_nombre_29-2);}.cls-13{fill:url(#Degradado_sin_nombre_9);}.cls-14{fill:url(#Degradado_sin_nombre_12);}</style><linearGradient id="Degradado_sin_nombre_15" x1="25.64" y1="256" x2="486.36" y2="256" gradientTransform="translate(256 -106.04) rotate(45)" gradientUnits="userSpaceOnUse"><stop offset="0" stop-color="#5b57a5"/><stop offset="0.5" stop-color="#2e3092"/><stop offset="1" stop-color="#474374"/></linearGradient><linearGradient id="Degradado_sin_nombre_22" x1="476.43" y1="415.34" x2="167.26" y2="106.18" gradientUnits="userSpaceOnUse"><stop offset="0" stop-color="#fff33b"/><stop offset="0.04" stop-color="#fee72e"/><stop offset="0.12" stop-color="#fed51b"/><stop offset="0.2" stop-color="#fdca10"/><stop offset="0.28" stop-color="#fdc70c"/><stop offset="0.67" stop-color="#f3903f"/><stop offset="0.89" stop-color="#ed683c"/><stop offset="1" stop-color="#e93e3a"/></linearGradient><linearGradient id="Degradado_sin_nombre_22-2" x1="414.05" y1="291.78" x2="427.42" y2="291.78" xlink:href="#Degradado_sin_nombre_22"/><linearGradient id="Degradado_sin_nombre_22-3" x1="352.23" y1="539.54" x2="43.06" y2="230.38" xlink:href="#Degradado_sin_nombre_22"/><linearGradient id="Degradado_sin_nombre_29" x1="346.92" y1="291.78" x2="395.62" y2="291.78" gradientUnits="userSpaceOnUse"><stop offset="0" stop-color="#40bab8"/><stop offset="0.5" stop-color="#00979f"/><stop offset="1" stop-color="#007e8b"/></linearGradient><linearGradient id="Degradado_sin_nombre_22-4" x1="339.18" y1="552.59" x2="30.02" y2="243.42" xlink:href="#Degradado_sin_nombre_22"/><linearGradient id="Degradado_sin_nombre_22-5" x1="365.61" y1="526.16" x2="56.45" y2="216.99" gradientTransform="translate(69.57 -34.68) rotate(9.38)" xlink:href="#Degradado_sin_nombre_22"/><linearGradient id="Degradado_sin_nombre_29-2" x1="129.57" y1="291.78" x2="178.28" y2="291.78" xlink:href="#Degradado_sin_nombre_29"/><linearGradient id="Degradado_sin_nombre_9" x1="140.87" y1="115.13" x2="378.94" y2="115.13" gradientUnits="userSpaceOnUse"><stop offset="0" stop-color="#2bc4f3"/><stop offset="0.5" stop-color="#00aeee"/><stop offset="1" stop-color="#0095da"/></linearGradient><linearGradient id="Degradado_sin_nombre_12" x1="192.86" y1="232.41" x2="332.33" y2="232.41" gradientUnits="userSpaceOnUse"><stop offset="0" stop-color="#d471ad"/><stop offset="0.5" stop-color="#c7158c"/><stop offset="1" stop-color="#9d248e"/></linearGradient></defs><g class="cls-1"><g id="Layer_1" data-name="Layer 1"><circle class="cls-2" cx="256" cy="256" r="230.36" transform="translate(-106.04 256) rotate(-45)"/><g class="cls-3"><path class="cls-4" d="M374.49,120.41c-.35-.41-.67-.84-1.06-1.22a156.75,156.75,0,0,0-227.77,6.45,18.76,18.76,0,0,0-3.38,19.49,146.53,146.53,0,0,0-27,84.89,9.3,9.3,0,0,0,1.19,4.51,18.8,18.8,0,0,0-12,17.5v79.5a18.72,18.72,0,0,0,7,14.57v21.54c.15,9.94,4.18,25.47,16.07,35.54,1.11,1.3,56,56.2,77.3,77.42A230.83,230.83,0,0,0,256,486.36c127.22,0,230.36-103.13,230.36-230.36A231.9,231.9,0,0,0,485,230.86C451.34,197.2,375.39,121.25,374.49,120.41Z"/></g><path class="cls-5" d="M400.52,239.43a9.4,9.4,0,0,1-9.4-9.41c0-70.86-57.66-128.52-128.53-128.52A128.67,128.67,0,0,0,134.07,230a9.41,9.41,0,1,1-18.81,0c0-81.24,66.09-147.33,147.33-147.33S409.93,148.78,409.93,230A9.41,9.41,0,0,1,400.52,239.43Z"/><path class="cls-6" d="M427.42,291.78c0,11-3,19.93-6.69,19.93s-6.68-8.92-6.68-19.93,3-19.94,6.68-19.94S427.42,280.77,427.42,291.78Z"/><path class="cls-7" d="M111.15,291.78c0,11-3,19.93-6.69,19.93s-6.68-8.92-6.68-19.93,3-19.94,6.68-19.94S111.15,280.77,111.15,291.78Z"/><path class="cls-8" d="M383.07,331.53a18.83,18.83,0,0,0,18.83,18.82h0a18.83,18.83,0,0,0,18.83-18.82V252A18.84,18.84,0,0,0,401.9,233.2h0A18.84,18.84,0,0,0,383.07,252Z"/><path class="cls-9" d="M346.92,343.19a24.35,24.35,0,0,0,24.35,24.35h0a24.35,24.35,0,0,0,24.35-24.35V240.37A24.35,24.35,0,0,0,371.27,216h0a24.35,24.35,0,0,0-24.35,24.35Z"/><path class="cls-10" d="M246.94,413.05H157c-35.44,0-45.27-29.71-45.51-45.41V341.08a6.28,6.28,0,0,1,12.55,0v26.46c.07,3.26,1.65,33,33,33h89.92a6.27,6.27,0,0,1,0,12.54Z"/><circle class="cls-11" cx="246.24" cy="406.78" r="13.68" transform="translate(-62.99 45.56) rotate(-9.38)"/><path class="cls-8" d="M142.12,331.53a18.83,18.83,0,0,1-18.83,18.82h0a18.83,18.83,0,0,1-18.83-18.82V252a18.84,18.84,0,0,1,18.83-18.83h0A18.84,18.84,0,0,1,142.12,252Z"/><path class="cls-12" d="M178.28,343.19a24.36,24.36,0,0,1-24.35,24.35h0a24.36,24.36,0,0,1-24.36-24.35V240.37A24.36,24.36,0,0,1,153.93,216h0a24.35,24.35,0,0,1,24.35,24.35Z"/><path class="cls-13" d="M159.68,157a18.82,18.82,0,0,1-14-31.35,156.75,156.75,0,0,1,227.77-6.45,18.82,18.82,0,0,1-26.61,26.61,119.12,119.12,0,0,0-173.1,4.91A18.77,18.77,0,0,1,159.68,157Z"/><path class="cls-14" d="M303.16,182.82H222A29.17,29.17,0,0,0,192.86,212v6.75A29.17,29.17,0,0,0,222,247.92h52.59L324,282l-18.19-34.2a29.17,29.17,0,0,0,26.55-29V212A29.17,29.17,0,0,0,303.16,182.82Z"/><path class="cls-8" d="M287.62,215.45a5.16,5.16,0,1,0,5.15-5.15A5.16,5.16,0,0,0,287.62,215.45Z"/><path class="cls-8" d="M257.44,215.45a5.16,5.16,0,1,0,5.15-5.15A5.16,5.16,0,0,0,257.44,215.45Z"/><path class="cls-8" d="M227.26,215.45a5.15,5.15,0,1,0,5.15-5.15A5.16,5.16,0,0,0,227.26,215.45Z"/></g></g></svg>