<svg xmlns="http://www.w3.org/2000/svg" xmlns:xlink="http://www.w3.org/1999/xlink" viewBox="0 0 512 512"><defs><style>.cls-1{isolation:isolate;}.cls-2{fill:url(#Degradado_sin_nombre_15);}.cls-3{mix-blend-mode:multiply;}.cls-4{fill:#b3b3b3;}.cls-5{fill:#fff;}.cls-6{fill:#d1d3d4;}.cls-7{fill:#e3e3e3;}.cls-8{fill:#bcbec0;}.cls-9{fill:#0f303f;}.cls-10{fill:url(#Degradado_sin_nombre_18);}.cls-11{fill:#bf352e;}.cls-12{fill:url(#Degradado_sin_nombre_9);}.cls-13{fill:#4b4b55;}.cls-14{fill:#d1d1d1;}.cls-15{fill:none;stroke:#fff;stroke-miterlimit:10;}</style><linearGradient id="Degradado_sin_nombre_15" x1="25.64" y1="256" x2="486.36" y2="256" gradientTransform="translate(485.47 -24.02) rotate(84.33)" gradientUnits="userSpaceOnUse"><stop offset="0" stop-color="#5b57a5"/><stop offset="0.5" stop-color="#2e3092"/><stop offset="1" stop-color="#474374"/></linearGradient><linearGradient id="Degradado_sin_nombre_18" x1="309.39" y1="305.06" x2="361.12" y2="305.06" gradientUnits="userSpaceOnUse"><stop offset="0" stop-color="#f074ac"/><stop offset="0.5" stop-color="#eb008b"/><stop offset="1" stop-color="#cd118c"/></linearGradient><linearGradient id="Degradado_sin_nombre_9" x1="197.17" y1="240.45" x2="346.95" y2="240.45" gradientUnits="userSpaceOnUse"><stop offset="0" stop-color="#2bc4f3"/><stop offset="0.5" stop-color="#00aeee"/><stop offset="1" stop-color="#0095da"/></linearGradient></defs><g class="cls-1"><g id="Layer_1" data-name="Layer 1"><circle class="cls-2" cx="256" cy="256" r="230.36" transform="translate(-24.03 485.47) rotate(-84.33)"/><g class="cls-3"><path class="cls-4" d="M345.43,126.64c-.88-.94-1.68-1.92-2.59-2.83a131.78,131.78,0,0,0-202,167.55V394.67L231.21,485A230.7,230.7,0,0,0,256,486.36c123.45,0,224.21-97.11,230.08-219.11C440.4,221.57,346,127.21,345.43,126.64Z"/></g><path class="cls-5" d="M306,89.88v239a12.58,12.58,0,0,1-12.58,12.58H129.15a12.58,12.58,0,0,1-12.58-12.58V129.17l51.87-51.86H293.37A12.57,12.57,0,0,1,306,89.88Zm0,0"/><path class="cls-6" d="M116.57,129.17l51.87-51.86v39.28a12.58,12.58,0,0,1-12.58,12.58Zm0,0"/><path class="cls-7" d="M357.82,137V376a12.58,12.58,0,0,1-12.58,12.58H181A12.58,12.58,0,0,1,168.44,376V176.3l51.87-51.87H345.24A12.57,12.57,0,0,1,357.82,137Zm0,0"/><path class="cls-8" d="M168.44,176.3l51.87-51.87v39.29a12.58,12.58,0,0,1-12.58,12.58Zm0,0"/><path class="cls-9" d="M427.86,379.21a14.44,14.44,0,0,1,0,20.47h0a14.49,14.49,0,0,1-20.48,0l-58.52-58.53a14.48,14.48,0,0,1,0-20.47h0a14.48,14.48,0,0,1,20.47,0Z"/><path class="cls-10" d="M354.47,292.18a22.71,22.71,0,0,1,0,32.1h0a22.68,22.68,0,0,1-32.09,0L316,317.94a22.71,22.71,0,0,1,0-32.09h0a22.7,22.7,0,0,1,32.11,0Z"/><path class="cls-11" d="M318.84,288.66a18.88,18.88,0,0,0-2.7,3.39,19.38,19.38,0,0,1,24,2.69l5.42,5.41a19.38,19.38,0,0,1,2.69,24,18.73,18.73,0,0,0,3.39-2.69,19.38,19.38,0,0,0,0-27.41l-5.4-5.4A19.37,19.37,0,0,0,318.84,288.66Z"/><path class="cls-5" d="M232.47,279.81c-1-.89-2.06-1.82-3-2.8a51.71,51.71,0,0,1,0-73.12,52.61,52.61,0,0,1,6.58-5.56,64.24,64.24,0,0,0-3.54,81.48Z"/><path class="cls-5" d="M213.22,181.61a83.22,83.22,0,1,0,117.69,0A83.21,83.21,0,0,0,213.22,181.61ZM315.56,284a61.53,61.53,0,1,1,0-87A61.54,61.54,0,0,1,315.56,284Z"/><path class="cls-12" d="M219.1,187.49a74.9,74.9,0,1,0,105.92,0A74.91,74.91,0,0,0,219.1,187.49ZM315.56,284a61.53,61.53,0,1,1,0-87A61.54,61.54,0,0,1,315.56,284Z"/><path class="cls-13" d="M414.71,390.61a4,4,0,0,1,0,5.61h0a4,4,0,0,1-5.62,0l-57.66-57.65a4,4,0,0,1,0-5.62h0a4,4,0,0,1,5.62,0Z"/><path class="cls-14" d="M223.47,295.39A78.48,78.48,0,0,1,268.32,162a78.51,78.51,0,1,0,14.31,156.19A78.31,78.31,0,0,1,223.47,295.39Z"/><line class="cls-15" x1="240.53" y1="208.55" x2="301.97" y2="208.55"/><line class="cls-15" x1="240.53" y1="228.9" x2="301.97" y2="228.9"/><line class="cls-15" x1="240.53" y1="249.25" x2="301.97" y2="249.25"/><line class="cls-15" x1="240.53" y1="269.6" x2="301.97" y2="269.6"/></g></g></svg>