<svg xmlns="http://www.w3.org/2000/svg" xmlns:xlink="http://www.w3.org/1999/xlink" viewBox="0 0 512 512"><defs><style>.cls-1{isolation:isolate;}.cls-2{fill:url(#Degradado_sin_nombre_15);}.cls-3{mix-blend-mode:multiply;}.cls-4{fill:#b3b3b3;}.cls-5{fill:#fff;}.cls-6{fill:#60b7ff;}.cls-7{fill:url(#Degradado_sin_nombre_26);}.cls-8{fill:#c4c4c4;}.cls-9{fill:#e3e3e3;}.cls-10{fill:url(#Degradado_sin_nombre_18);}</style><linearGradient id="Degradado_sin_nombre_15" x1="25.64" y1="256" x2="486.36" y2="256" gradientUnits="userSpaceOnUse"><stop offset="0" stop-color="#5b57a5"/><stop offset="0.5" stop-color="#2e3092"/><stop offset="1" stop-color="#474374"/></linearGradient><linearGradient id="Degradado_sin_nombre_26" x1="109.65" y1="231.35" x2="326.06" y2="231.35" gradientUnits="userSpaceOnUse"><stop offset="0" stop-color="#80e1ff"/><stop offset="0.5" stop-color="#52d0fe"/><stop offset="1" stop-color="#4cb8ea"/></linearGradient><linearGradient id="Degradado_sin_nombre_18" x1="190.43" y1="230.43" x2="321.57" y2="230.43" gradientUnits="userSpaceOnUse"><stop offset="0" stop-color="#f074ac"/><stop offset="0.5" stop-color="#eb008b"/><stop offset="1" stop-color="#cd118c"/></linearGradient></defs><g class="cls-1"><g id="Layer_1" data-name="Layer 1"><path class="cls-2" d="M486.06,244C493,380.71,380.68,493,244,486.06,127,480.11,31.86,385,25.94,268,19,131.3,131.3,19,268,25.94,385,31.86,480.12,127,486.06,244Z"/><g class="cls-3"><path class="cls-4" d="M256,486.36c127.21,0,230.35-103.13,230.35-230.36a230.15,230.15,0,0,0-8.48-61.88L409,136.49l-285.44-7.05a27.68,27.68,0,0,0-27.68,27.68v167"/></g><path class="cls-5" d="M391.86,342.9H120.14a24.29,24.29,0,0,1-24.29-24.29V149.16a19.72,19.72,0,0,1,19.72-19.72H391.86a24.3,24.3,0,0,1,24.29,24.29V318.61A24.29,24.29,0,0,1,391.86,342.9Z"/><path class="cls-6" d="M109.65,308.19V167.53a24.28,24.28,0,0,1,24.29-24.29H378.06a24.28,24.28,0,0,1,24.29,24.29V308.19a11.28,11.28,0,0,1-11.27,11.28H120.92A11.28,11.28,0,0,1,109.65,308.19Z"/><path class="cls-7" d="M326.06,143.24H130.73a21.08,21.08,0,0,0-21.08,21.08V308.57a10.9,10.9,0,0,0,10.89,10.9h32.27Z"/><rect class="cls-8" x="227.1" y="342.9" width="57.8" height="19.3"/><rect class="cls-9" x="214.61" y="362.2" width="82.78" height="20.36"/><path class="cls-10" d="M320.66,219.33a65.6,65.6,0,1,1-53.53-53.56A65.65,65.65,0,0,1,320.66,219.33Z"/><polygon class="cls-5" points="264.58 231.14 264.58 187.76 247.42 187.76 247.42 231.14 233.58 231.14 256 259.34 278.43 231.14 264.58 231.14"/><polygon class="cls-5" points="282.87 259.34 282.87 267.82 229.14 267.82 229.14 259.34 224.29 259.34 224.29 273.07 226.72 273.07 229.14 273.07 282.87 273.07 287.72 273.07 287.72 259.34 282.87 259.34"/></g></g></svg>