<svg xmlns="http://www.w3.org/2000/svg" xmlns:xlink="http://www.w3.org/1999/xlink" viewBox="0 0 512 512"><defs><style>.cls-1{isolation:isolate;}.cls-2{fill:url(#Degradado_sin_nombre_15);}.cls-3{mix-blend-mode:multiply;}.cls-4{fill:#b3b3b3;}.cls-5{fill:#fff;}.cls-6{fill:url(#Degradado_sin_nombre_12);}.cls-7{fill:url(#linear-gradient);}.cls-8{fill:url(#Degradado_sin_nombre_22);}</style><linearGradient id="Degradado_sin_nombre_15" x1="25.64" y1="256" x2="486.36" y2="256" gradientTransform="translate(256 -106.04) rotate(45)" gradientUnits="userSpaceOnUse"><stop offset="0" stop-color="#5b57a5"/><stop offset="0.5" stop-color="#2e3092"/><stop offset="1" stop-color="#474374"/></linearGradient><linearGradient id="Degradado_sin_nombre_12" x1="-651.14" y1="231" x2="-622.31" y2="234.79" gradientTransform="translate(5198.49 -1591.22) scale(7.88)" gradientUnits="userSpaceOnUse"><stop offset="0" stop-color="#d471ad"/><stop offset="0.5" stop-color="#c7158c"/><stop offset="1" stop-color="#9d248e"/></linearGradient><linearGradient id="linear-gradient" x1="-614.96" y1="232.38" x2="-639.95" y2="221.87" gradientTransform="translate(5198.49 -1591.22) scale(7.88)" gradientUnits="userSpaceOnUse"><stop offset="0" stop-color="#29d3da"/><stop offset="0.52" stop-color="#07f"/><stop offset="1" stop-color="#064093"/><stop offset="1" stop-color="#084698"/></linearGradient><linearGradient id="Degradado_sin_nombre_22" x1="-615.88" y1="242.35" x2="-635.42" y2="221.4" gradientTransform="translate(5198.49 -1591.22) scale(7.88)" gradientUnits="userSpaceOnUse"><stop offset="0" stop-color="#fff33b"/><stop offset="0.04" stop-color="#fee72e"/><stop offset="0.12" stop-color="#fed51b"/><stop offset="0.2" stop-color="#fdca10"/><stop offset="0.28" stop-color="#fdc70c"/><stop offset="0.67" stop-color="#f3903f"/><stop offset="0.89" stop-color="#ed683c"/><stop offset="1" stop-color="#e93e3a"/></linearGradient></defs><g class="cls-1"><g id="Layer_1" data-name="Layer 1"><circle class="cls-2" cx="256" cy="256" r="230.36" transform="translate(-106.04 256) rotate(-45)"/><g class="cls-3"><path class="cls-4" d="M350.72,123.36l29.42,28.05c-1.49-1.53,11.12,15.5,9.57,14s-6-9.51-7.56-11-4.76,3.35,3.68.72c-1.49-1.53-8.79-6.74-10.33-8.21s-5.85-5.58-7.39-7c-30.21-31.12-64.33-50.09-111-50.09C165.48,89.86,91,164.38,91,256a165.66,165.66,0,0,0,51,119.66c1.2,1.25,80.83,80.88,110.61,110.64,1.14,0,2.26.08,3.4.08,127.23,0,230.36-103.13,230.36-230.36"/></g><path class="cls-5" d="M423.24,256A166.15,166.15,0,1,1,257.09,89.85,166.14,166.14,0,0,1,423.24,256Z"/><path class="cls-6" d="M199.57,253.24A137.39,137.39,0,0,1,298,121.52,137.34,137.34,0,1,0,298,385,137.37,137.37,0,0,1,199.57,253.24Z"/><path class="cls-7" d="M302.07,199.82a73.89,73.89,0,0,1,70.85,53,73.88,73.88,0,1,0-141.69,0A73.89,73.89,0,0,1,302.07,199.82Z"/><path class="cls-8" d="M327.94,277.06a55,55,0,0,1-39.4,52.69,54.95,54.95,0,1,0,0-105.39A55,55,0,0,1,327.94,277.06Z"/></g></g></svg>