<svg xmlns="http://www.w3.org/2000/svg" xmlns:xlink="http://www.w3.org/1999/xlink" viewBox="0 0 512 512"><defs><style>.cls-1{fill:none;}.cls-2{isolation:isolate;}.cls-3{fill:url(#Degradado_sin_nombre_15);}.cls-4{mix-blend-mode:multiply;}.cls-5{fill:#b3b3b3;}.cls-6{fill:#8ebaff;}.cls-7{fill:#a3d1ff;}.cls-8{fill:#c7e3ff;}.cls-9{clip-path:url(#clip-path);}.cls-10{fill:url(#linear-gradient);}.cls-11{fill:url(#linear-gradient-2);}.cls-12{fill:#e1e6f0;}.cls-13{fill:#cfd7e6;}.cls-14{fill:url(#Degradado_sin_nombre_12);}.cls-15{fill:url(#Degradado_sin_nombre_12-2);}</style><linearGradient id="Degradado_sin_nombre_15" x1="25.64" y1="256" x2="486.36" y2="256" gradientTransform="translate(485.49 -24.01) rotate(84.34)" gradientUnits="userSpaceOnUse"><stop offset="0" stop-color="#5b57a5"/><stop offset="0.5" stop-color="#2e3092"/><stop offset="1" stop-color="#474374"/></linearGradient><clipPath id="clip-path"><rect class="cls-1" x="136.43" y="126.63" width="230.55" height="287.16"/></clipPath><linearGradient id="linear-gradient" x1="136.43" y1="340.75" x2="366.53" y2="340.75" gradientUnits="userSpaceOnUse"><stop offset="0.28" stop-color="#b5eeff"/><stop offset="1" stop-color="#4cb8ea"/></linearGradient><linearGradient id="linear-gradient-2" x1="198.33" y1="200.57" x2="303.84" y2="200.57" xlink:href="#linear-gradient"/><linearGradient id="Degradado_sin_nombre_12" x1="171.68" y1="204.27" x2="199.4" y2="204.27" gradientUnits="userSpaceOnUse"><stop offset="0" stop-color="#d471ad"/><stop offset="0.5" stop-color="#c7158c"/><stop offset="1" stop-color="#9d248e"/></linearGradient><linearGradient id="Degradado_sin_nombre_12-2" x1="299.89" y1="204.27" x2="327.6" y2="204.27" xlink:href="#Degradado_sin_nombre_12"/></defs><g class="cls-2"><g id="Layer_1" data-name="Layer 1"><circle class="cls-3" cx="256" cy="256" r="230.36" transform="translate(-24.01 485.49) rotate(-84.34)"/><g class="cls-4"><path class="cls-5" d="M486.36,256c0,127.23-103.13,230.36-230.36,230.36a232.45,232.45,0,0,1-30.27-2l-84-87.5L186,317.68c-4.11-5.63,41.25-53.73,38.25-60.1,8.68,24.34,31.15-10.08,31.77-10.08,44.93,0-69,17.71-36-8.93,33.15-15.74,29.65-83.34,29.65-119.15l24.52,6.37A89.88,89.88,0,0,1,299.86,137Z"/></g><path class="cls-6" d="M375.66,255.8a2.06,2.06,0,0,0-1.85-1.77c-1.93-.16-3.88-.25-5.85-.25s-3.92.09-5.85.25a2.06,2.06,0,0,0-1.86,1.77l-1.57,11.35,9.28,4.1,9.27-4.1Zm0,0"/><path class="cls-6" d="M341.64,260.79a2,2,0,0,0-2.49-.6c-1.75.82-3.49,1.72-5.19,2.7s-3.36,2-4.94,3.15a2,2,0,0,0-.73,2.45l4.32,10.61L342.69,278l6-8.19Zm0,0"/><path class="cls-6" d="M314.66,282.12a2.05,2.05,0,0,0-2.45.72q-1.66,2.39-3.15,4.94t-2.7,5.19a2.06,2.06,0,0,0,.6,2.5l9,7,8.19-6,1.09-10.08Zm0,0"/><path class="cls-6" d="M302,314.08a2,2,0,0,0-1.76,1.86c-.17,1.92-.26,3.88-.26,5.85s.09,3.92.26,5.84a2,2,0,0,0,1.76,1.86l11.35,1.57,4.1-9.27-4.1-9.28Zm0,0"/><path class="cls-6" d="M307,348.11a2,2,0,0,0-.6,2.49q1.23,2.63,2.7,5.19t3.15,4.94a2.05,2.05,0,0,0,2.45.72l10.62-4.31-1.09-10.09-8.19-6Zm0,0"/><path class="cls-6" d="M328.29,375.08a2.06,2.06,0,0,0,.73,2.46q2.37,1.65,4.94,3.14c1.7,1,3.44,1.88,5.19,2.71a2.06,2.06,0,0,0,2.49-.61l7-9-6-8.19-10.08-1.08Zm0,0"/><path class="cls-6" d="M360.25,387.77a2.06,2.06,0,0,0,1.86,1.77c1.93.16,3.88.25,5.85.25s3.92-.09,5.85-.25a2.05,2.05,0,0,0,1.85-1.77l1.57-11.35-9.27-4.1-9.28,4.1Zm0,0"/><path class="cls-6" d="M394.28,382.78a2.06,2.06,0,0,0,2.49.61q2.63-1.25,5.19-2.71c1.71-1,3.35-2,4.94-3.14a2.06,2.06,0,0,0,.72-2.46l-4.31-10.61-10.08,1.08-6,8.19Zm0,0"/><path class="cls-6" d="M421.25,361.45a2.06,2.06,0,0,0,2.46-.72q1.67-2.39,3.14-4.94t2.71-5.19a2.07,2.07,0,0,0-.6-2.49l-9-7-8.19,6-1.08,10.09Zm0,0"/><path class="cls-6" d="M433.94,329.49a2.05,2.05,0,0,0,1.77-1.86c.16-1.92.25-3.87.25-5.84s-.09-3.93-.25-5.85a2.05,2.05,0,0,0-1.77-1.86l-11.34-1.57-4.11,9.28,4.11,9.27Zm0,0"/><path class="cls-6" d="M429,295.47a2.08,2.08,0,0,0,.6-2.5q-1.23-2.62-2.71-5.19t-3.14-4.94a2.06,2.06,0,0,0-2.46-.72l-10.61,4.32,1.08,10.08,8.19,6Zm0,0"/><path class="cls-6" d="M407.62,268.49a2,2,0,0,0-.72-2.45c-1.59-1.11-3.23-2.16-4.94-3.15s-3.44-1.88-5.19-2.7a2,2,0,0,0-2.49.6l-7,9,6,8.19,10.08,1.08Zm0,0"/><path class="cls-7" d="M368,266.37a55.42,55.42,0,1,0,55.41,55.42A55.42,55.42,0,0,0,368,266.37Zm0,98.52a43.11,43.11,0,1,1,43.1-43.1,43.1,43.1,0,0,1-43.1,43.1Zm0,0"/><path class="cls-8" d="M368,274.58a47.21,47.21,0,1,0,47.2,47.21A47.21,47.21,0,0,0,368,274.58Zm8.21,47.21a8.21,8.21,0,1,1-8.21-8.21,8.22,8.22,0,0,1,8.21,8.21Zm-45.63,11a39,39,0,0,1,28.23-48.91,4.11,4.11,0,0,1,5.08,4v13.8a20.52,20.52,0,0,0-15.36,26.62l-12,6.9a4.11,4.11,0,0,1-6-2.4Zm65.66,15.88a39,39,0,0,1-56.49,0,4.11,4.11,0,0,1,.94-6.38l12-6.9a20.51,20.51,0,0,0,30.72,0l11.95,6.9a4.11,4.11,0,0,1,.93,6.38Zm3.18-13.48-11.95-6.9a20.55,20.55,0,0,0-15.37-26.62v-13.8a4.11,4.11,0,0,1,5.08-4,39.06,39.06,0,0,1,28.24,48.91,4.11,4.11,0,0,1-6,2.4Zm0,0"/><path class="cls-7" d="M368,309.47a12.32,12.32,0,1,0,12.31,12.32A12.32,12.32,0,0,0,368,309.47Zm0,16.42a4.11,4.11,0,1,1,4.1-4.1,4.11,4.11,0,0,1-4.1,4.1Zm0,0"/><g class="cls-9"><path class="cls-10" d="M330.31,292.53c-33-10.79-46.75-24.2-46.75-24.2l-1.11,1.05c-9.8,9.23-20.65,14.66-30.53,14.66H251c-9.88,0-20.73-5.43-30.53-14.66l-1.11-1.05s-13.72,13.41-46.74,24.2c-48.75,18.2-34.12,92.31-34.13,92.88,1.54,8.25,2.43,11.09,3.21,11.41,48.95,21.8,170.58,21.8,219.53,0,.78-.32,1.67-3.16,3.21-11.41,0-.57,14.82-74.38-34.12-92.88Zm0,0"/><path class="cls-11" d="M302.65,198l-.41-.44a34.28,34.28,0,0,1-2.53-2.37s4.78-24.13,1-35.55c-6-18.23-42-30.45-49.21-31.87,0,0-4.39-.89-4.67-.89a22.32,22.32,0,0,0-12.25,1.72c-4.29,1.65-26.68,11.8-33,31-3.83,11.42.95,35.55.95,35.55a34.28,34.28,0,0,1-2.53,2.37l-.41.44c-1.85,2.11-1.4,8.7.63,15.56,1.84,6.87,4.24,8.72,4.81,10.33,5.82,27.32,26.05,50.64,46.67,50.64s39.78-23.32,45.6-50.64c.57-1.61,3-3.46,4.81-10.33,2-6.86,2.54-13.9.63-15.56Zm0,0"/></g><path class="cls-12" d="M318.16,181.43H309a59.38,59.38,0,0,0-118.76,0h-9.14a68.52,68.52,0,0,1,137,0Zm0,0"/><path class="cls-12" d="M309,227.11v14.32a18.33,18.33,0,0,1-18.27,18.27h-27.4a9.16,9.16,0,0,0-9.14,9.13h-9.14a17.61,17.61,0,0,1,4.57-12,18.07,18.07,0,0,1,13.71-6.3h27.4a9.16,9.16,0,0,0,9.14-9.13v-9.75Zm0,0"/><path class="cls-13" d="M309,181.43h9.14a68.59,68.59,0,0,0-68.52-68.51v9.13A59.45,59.45,0,0,1,309,181.43Zm0,0"/><path class="cls-14" d="M199.4,231.68h-14A13.72,13.72,0,0,1,171.68,218V190.57a13.72,13.72,0,0,1,13.71-13.7h14Zm0,0"/><path class="cls-15" d="M313.9,231.68h-14V176.87h14a13.71,13.71,0,0,1,13.7,13.7V218a13.72,13.72,0,0,1-13.7,13.7Zm0,0"/></g></g></svg>