<svg xmlns="http://www.w3.org/2000/svg" xmlns:xlink="http://www.w3.org/1999/xlink" viewBox="0 0 512 512"><defs><style>.cls-1{fill:none;}.cls-2{isolation:isolate;}.cls-3{fill:url(#Degradado_sin_nombre_15);}.cls-4{mix-blend-mode:multiply;}.cls-5{fill:#b3b3b3;}.cls-6{fill:#9abadb;}.cls-7{fill:#d1e8ff;}.cls-8{fill:#f5f5ff;}.cls-9{fill:url(#linear-gradient);}.cls-10{fill:url(#Degradado_sin_nombre_9);}.cls-11{fill:#fff;}.cls-12{clip-path:url(#clip-path);}.cls-13{fill:#00d8e0;}.cls-14{fill:#54e360;}.cls-15{fill:#00acb3;}.cls-16{fill:#00ab5e;}</style><linearGradient id="Degradado_sin_nombre_15" x1="25.64" y1="256" x2="486.36" y2="256" gradientUnits="userSpaceOnUse"><stop offset="0" stop-color="#5b57a5"/><stop offset="0.5" stop-color="#2e3092"/><stop offset="1" stop-color="#474374"/></linearGradient><linearGradient id="linear-gradient" x1="227.55" y1="209.79" x2="385.48" y2="209.79" gradientUnits="userSpaceOnUse"><stop offset="0.82" stop-color="#0084bd"/><stop offset="1" stop-color="#007cb6"/></linearGradient><linearGradient id="Degradado_sin_nombre_9" x1="92.53" y1="209.79" x2="239" y2="209.79" gradientUnits="userSpaceOnUse"><stop offset="0" stop-color="#2bc4f3"/><stop offset="0.5" stop-color="#00aeee"/><stop offset="1" stop-color="#0095da"/></linearGradient><clipPath id="clip-path"><rect class="cls-1" x="331.04" y="265.69" width="91.71" height="104.81"/></clipPath></defs><g class="cls-2"><g id="Layer_1" data-name="Layer 1"><path class="cls-3" d="M486.36,256c0,127.23-103.14,230.36-230.35,230.36S25.64,383.23,25.64,256,128.78,25.64,256,25.64,486.36,128.78,486.36,256Z"/><g class="cls-4"><path class="cls-5" d="M486.36,256a230.15,230.15,0,0,0-8.48-61.88l-109.2-70.2-238,5.52a34.82,34.82,0,0,0-34.82,34.82V342.9l146.25,143c4.61.27,9.23.45,13.91.45C383.22,486.36,486.36,383.23,486.36,256Z"/></g><polygon class="cls-6" points="282.87 381.56 282.87 347.2 227.55 335.75 239 381.56 282.87 381.56"/><polygon class="cls-7" points="195.14 381.56 239 381.56 239 335.75 195.14 347.2 195.14 381.56"/><path class="cls-7" d="M385.48,295.67,227.55,284.21l11.45,63H376.2a9.28,9.28,0,0,0,9.28-9.28Z"/><path class="cls-8" d="M92.53,295.67v42.25a9.27,9.27,0,0,0,9.28,9.28H239v-63Z"/><path class="cls-7" d="M305.92,373H239l-5.72,8.58,5.72,8.58h66.92a2.71,2.71,0,0,0,2.71-2.71V375.69A2.71,2.71,0,0,0,305.92,373Z"/><path class="cls-8" d="M172.08,373H239v17.16H172.08a2.71,2.71,0,0,1-2.71-2.71V375.69A2.71,2.71,0,0,1,172.08,373Z"/><path class="cls-9" d="M365.6,123.92H239l-11.45,85.87L239,295.67H385.48V143.8A19.88,19.88,0,0,0,365.6,123.92Z"/><path class="cls-10" d="M112.41,123.92H239V295.67H92.53V143.8A19.88,19.88,0,0,1,112.41,123.92Z"/><path class="cls-11" d="M315,216.28a3.64,3.64,0,0,0,3.64-3.64V177.33a3.64,3.64,0,0,0-3.64-3.64h-7.36a3.65,3.65,0,0,0,0,7.29h3.72v31.66a3.64,3.64,0,0,0,3.64,3.64Zm0,0"/><path class="cls-11" d="M221.35,216.28a3.64,3.64,0,0,0,3.64-3.64V177.33a3.64,3.64,0,0,0-3.64-3.64H214a3.65,3.65,0,0,0,0,7.29h3.72v31.66a3.64,3.64,0,0,0,3.64,3.64Zm0,0"/><path class="cls-11" d="M295.61,187.14a13.46,13.46,0,0,0-26.91,0v15.69a13.46,13.46,0,0,0,26.91,0Zm-7.29,15.69a6.17,6.17,0,1,1-12.33,0V187.14a6.17,6.17,0,1,1,12.33,0Zm0,0"/><path class="cls-11" d="M246.85,173.69a13.47,13.47,0,0,0-13.45,13.45v15.69a13.45,13.45,0,0,0,26.9,0V187.14a13.47,13.47,0,0,0-13.45-13.45ZM253,202.83a6.17,6.17,0,1,1-12.34,0V187.14a6.17,6.17,0,0,1,12.34,0Zm0,0"/><path class="cls-11" d="M163,173.69h-7.35a3.65,3.65,0,0,0,0,7.29h3.71v31.66a3.64,3.64,0,1,0,7.28,0V177.33a3.64,3.64,0,0,0-3.64-3.64Zm0,0"/><path class="cls-11" d="M201.94,187.14a13.45,13.45,0,0,0-26.9,0v15.69a13.45,13.45,0,1,0,26.9,0Zm-7.28,15.69a6.17,6.17,0,1,1-12.34,0V187.14a6.17,6.17,0,0,1,12.34,0Zm0,0"/><path class="cls-11" d="M289.51,267.28a3.64,3.64,0,0,0,3.64-3.64V228.33a3.64,3.64,0,0,0-3.64-3.64h-7.36a3.64,3.64,0,0,0,0,7.28h3.72v31.67a3.64,3.64,0,0,0,3.64,3.64Zm0,0"/><path class="cls-11" d="M195.85,267.28a3.64,3.64,0,0,0,3.64-3.64V228.33a3.64,3.64,0,0,0-3.64-3.64h-7.36a3.64,3.64,0,0,0,0,7.28h3.72v31.67a3.63,3.63,0,0,0,3.64,3.64Zm0,0"/><path class="cls-11" d="M256.65,224.69a13.47,13.47,0,0,0-13.45,13.45v15.69a13.46,13.46,0,0,0,26.91,0V238.14a13.48,13.48,0,0,0-13.46-13.45Zm6.17,29.14a6.17,6.17,0,1,1-12.34,0V238.14a6.17,6.17,0,0,1,12.34,0Zm0,0"/><path class="cls-11" d="M207.89,253.83a13.45,13.45,0,1,0,26.9,0V238.14a13.45,13.45,0,0,0-26.9,0Zm7.28-15.69a6.17,6.17,0,1,1,12.34,0v15.69a6.17,6.17,0,1,1-12.34,0Zm0,0"/><path class="cls-11" d="M163,224.69a13.47,13.47,0,0,0-13.45,13.45v15.69a13.46,13.46,0,0,0,26.91,0V238.14A13.48,13.48,0,0,0,163,224.69Zm6.17,29.14a6.17,6.17,0,1,1-12.34,0V238.14a6.17,6.17,0,1,1,12.34,0Zm0,0"/><path class="cls-11" d="M301.56,253.83a13.45,13.45,0,0,0,26.9,0V238.14a13.45,13.45,0,0,0-26.9,0Zm7.28-15.69a6.17,6.17,0,0,1,12.34,0v15.69a6.17,6.17,0,1,1-12.34,0Zm0,0"/><circle class="cls-11" cx="376.9" cy="318.09" r="65.57"/><g class="cls-12"><path class="cls-13" d="M406.68,285.5l-17.4-17.41a7,7,0,0,0-4.91-2.4c-2.54,0-5.1,2-5.1,6.54V277a51.69,51.69,0,0,0-48.2,45.25A3.07,3.07,0,0,0,333,325.5a3.22,3.22,0,0,0,1.13.21,3.06,3.06,0,0,0,2.48-1.25,43.56,43.56,0,0,1,35-17.8,42.84,42.84,0,0,1,7.65.69v5.27a8,8,0,0,0,1,4.17,4.72,4.72,0,0,0,4.1,2.38,7,7,0,0,0,4.91-2.41l17.4-17.4a9.81,9.81,0,0,0,0-13.86Zm0,0"/><path class="cls-14" d="M420.76,310.69a3.06,3.06,0,0,0-3.61,1,43.38,43.38,0,0,1-42.68,17.11v-5.27c0-4.53-2.56-6.55-5.09-6.55a7,7,0,0,0-4.91,2.4l-17.41,17.41a9.81,9.81,0,0,0,0,13.86l17.41,17.4a7,7,0,0,0,4.91,2.41c2.53,0,5.09-2,5.09-6.55v-4.78a51.71,51.71,0,0,0,48.21-45.26,3.06,3.06,0,0,0-1.92-3.22Zm0,0"/><path class="cls-15" d="M379.27,312.62a8,8,0,0,0,1,4.17,4.72,4.72,0,0,0,4.1,2.38,7,7,0,0,0,4.91-2.41l17.4-17.4a9.81,9.81,0,0,0,0-13.86l-17.4-17.41a7,7,0,0,0-4.91-2.4c-2.54,0-5.1,2-5.1,6.54V277c-.8.05-1.6.11-2.4.2V307c.8.1,1.61.22,2.4.36Zm0,0"/><path class="cls-16" d="M420.76,310.69a3.06,3.06,0,0,0-3.61,1,43.56,43.56,0,0,1-35,17.79,44.2,44.2,0,0,1-5.26-.32V359a51.71,51.71,0,0,0,45.81-45.06,3.06,3.06,0,0,0-1.92-3.22Zm0,0"/></g></g></g></svg>