<svg xmlns="http://www.w3.org/2000/svg" xmlns:xlink="http://www.w3.org/1999/xlink" viewBox="0 0 512 512"><defs><style>.cls-1{isolation:isolate;}.cls-2{fill:url(#Degradado_sin_nombre_15);}.cls-3{mix-blend-mode:multiply;}.cls-4{fill:#b3b3b3;}.cls-5{fill:#fff;}.cls-6{fill:#d1e8ff;}.cls-7{fill:url(#Degradado_sin_nombre_22);}.cls-8{fill:#c3ea21;}.cls-9{fill:#8adb53;}</style><linearGradient id="Degradado_sin_nombre_15" x1="25.64" y1="256" x2="486.36" y2="256" gradientUnits="userSpaceOnUse"><stop offset="0" stop-color="#5b57a5"/><stop offset="0.5" stop-color="#2e3092"/><stop offset="1" stop-color="#474374"/></linearGradient><linearGradient id="Degradado_sin_nombre_22" x1="169.77" y1="256" x2="345.95" y2="256" gradientUnits="userSpaceOnUse"><stop offset="0" stop-color="#fff33b"/><stop offset="0.04" stop-color="#fee72e"/><stop offset="0.12" stop-color="#fed51b"/><stop offset="0.2" stop-color="#fdca10"/><stop offset="0.28" stop-color="#fdc70c"/><stop offset="0.67" stop-color="#f3903f"/><stop offset="0.89" stop-color="#ed683c"/><stop offset="1" stop-color="#e93e3a"/></linearGradient></defs><g class="cls-1"><g id="Layer_1" data-name="Layer 1"><path class="cls-2" d="M486.36,256c0,127.23-103.13,230.37-230.36,230.37S25.64,383.22,25.64,256,128.77,25.64,256,25.64,486.36,128.76,486.36,256Z"/><g class="cls-3"><path class="cls-4" d="M282.37,484.88c106.82-12,192-98.29,202.8-205.23A230.67,230.67,0,0,0,473.49,180l-58-41.52-303.35-.66A31.44,31.44,0,0,0,80.7,169.29l6.47,199,97.5,106.77A231,231,0,0,0,282.37,484.88Z"/></g><path class="cls-5" d="M80.7,171.72V337.26a36.89,36.89,0,0,0,36.89,36.88h281.5a32.21,32.21,0,0,0,32.21-32.2V167a29.18,29.18,0,0,0-29.18-29.18H114.57A33.87,33.87,0,0,0,80.7,171.72ZM394.48,357.87h-277a21,21,0,0,1-21-21V175.15a21,21,0,0,1,21-21h277a21,21,0,0,1,21,21v161.7A21,21,0,0,1,394.48,357.87Z"/><path class="cls-6" d="M256,154.13H114.91a18.39,18.39,0,0,0-18.39,18.39v167a18.39,18.39,0,0,0,18.39,18.39H397.1a18.39,18.39,0,0,0,18.39-18.39v-167a18.39,18.39,0,0,0-18.39-18.39Z"/><path class="cls-7" d="M339.43,236.67H327.75l-1.1-3.33a71.82,71.82,0,0,0-4.13-9.94l-1.59-3.14,8.28-8.28a6.53,6.53,0,0,0,0-9.21L311.1,184.66a6.53,6.53,0,0,0-9.23,0l-8.27,8.27-3.14-1.59a71.8,71.8,0,0,0-9.93-4.13l-3.34-1.09V174.43a6.53,6.53,0,0,0-6.52-6.52H245.05a6.52,6.52,0,0,0-6.51,6.52v11.69l-3.34,1.09a71.8,71.8,0,0,0-9.93,4.13l-3.14,1.59-8.28-8.27a6.52,6.52,0,0,0-9.22,0l-18.11,18.11a6.53,6.53,0,0,0,0,9.22l8.27,8.27-1.59,3.14a70.85,70.85,0,0,0-4.12,9.94L188,236.67H176.29a6.53,6.53,0,0,0-6.52,6.53v25.6a6.53,6.53,0,0,0,6.52,6.53H188l1.11,3.33a71.35,71.35,0,0,0,4.12,9.94l1.59,3.14L186.52,300a6.54,6.54,0,0,0,0,9.23l18.11,18.1a6.52,6.52,0,0,0,9.22,0l8.28-8.27,3.14,1.59a73,73,0,0,0,9.93,4.13l3.34,1.1v11.68a6.52,6.52,0,0,0,6.51,6.52h25.62a6.53,6.53,0,0,0,6.52-6.52V325.89l3.33-1.1a72.63,72.63,0,0,0,9.93-4.13l3.15-1.59,8.28,8.27a6.52,6.52,0,0,0,9.22,0l18.11-18.1a6.53,6.53,0,0,0,0-9.22l-8.28-8.28,1.59-3.14a71.82,71.82,0,0,0,4.13-9.94l1.1-3.33h11.68A6.53,6.53,0,0,0,346,268.8V243.2A6.53,6.53,0,0,0,339.43,236.67ZM257.86,309a53,53,0,1,1,53-53A53.09,53.09,0,0,1,257.86,309Z"/><path class="cls-8" d="M224.59,289.76s32.54,6.41,53.24-14.28,14.28-53.24,14.28-53.24-32.54-6.41-53.24,14.28S224.59,289.76,224.59,289.76Z"/><path class="cls-9" d="M224.59,289.76s32.54,6.41,53.24-14.28,14.28-53.24,14.28-53.24Z"/></g></g></svg>