<svg xmlns="http://www.w3.org/2000/svg" xmlns:xlink="http://www.w3.org/1999/xlink" viewBox="0 0 512 512"><defs><style>.cls-1{isolation:isolate;}.cls-2{fill:url(#Degradado_sin_nombre_15);}.cls-3{mix-blend-mode:multiply;}.cls-4{fill:#b3b3b3;}.cls-5{fill:#fff;}.cls-6{fill:#a8a291;}.cls-7{fill:#d9d9d9;}.cls-8{fill:#e3e3e3;}.cls-9{fill:#f5f5ff;}.cls-10{fill:#ccc;}.cls-11{fill:url(#Degradado_sin_nombre_25);}.cls-12{fill:url(#Degradado_sin_nombre_25-2);}.cls-13{fill:url(#Degradado_sin_nombre_12);}</style><linearGradient id="Degradado_sin_nombre_15" x1="25.64" y1="256" x2="486.36" y2="256" gradientTransform="translate(256 -106.04) rotate(45)" gradientUnits="userSpaceOnUse"><stop offset="0" stop-color="#5b57a5"/><stop offset="0.5" stop-color="#2e3092"/><stop offset="1" stop-color="#474374"/></linearGradient><linearGradient id="Degradado_sin_nombre_25" x1="215.73" y1="259.43" x2="296.05" y2="259.43" gradientTransform="translate(396.89 -76.58) rotate(67.37)" gradientUnits="userSpaceOnUse"><stop offset="0" stop-color="#25a7cf"/><stop offset="0.5" stop-color="#0093ca"/><stop offset="1" stop-color="#007cb6"/></linearGradient><linearGradient id="Degradado_sin_nombre_25-2" x1="215.72" y1="343.48" x2="229.88" y2="343.48" gradientTransform="matrix(1, 0, 0, 1, 0, 0)" xlink:href="#Degradado_sin_nombre_25"/><linearGradient id="Degradado_sin_nombre_12" x1="270.72" y1="230.88" x2="299.93" y2="230.88" gradientUnits="userSpaceOnUse"><stop offset="0" stop-color="#d471ad"/><stop offset="0.5" stop-color="#c7158c"/><stop offset="1" stop-color="#9d248e"/></linearGradient></defs><g class="cls-1"><g id="Layer_1" data-name="Layer 1"><circle class="cls-2" cx="256" cy="256" r="230.36" transform="translate(-106.04 256) rotate(-45)"/><g class="cls-3"><path class="cls-4" d="M486.36,256a230.78,230.78,0,0,0-6.15-52.8c-30-30.07-96-96.08-97-96.94-4.24-5.06-11.46-10.09-23.82-11.47l-.39-.32L181.65,98.69l-8.13,32.23H131.11l1,278.73L201,479.7a230.14,230.14,0,0,0,55,6.66C383.22,486.36,486.36,383.23,486.36,256Z"/></g><path class="cls-5" d="M376.41,373.55H186.13a12.61,12.61,0,0,1-12.61-12.62V107.09a12.61,12.61,0,0,1,12.61-12.62H354.57a12.59,12.59,0,0,1,7.83,2.73l21.85,17.32a12.63,12.63,0,0,1,4.78,9.89V360.93A12.62,12.62,0,0,1,376.41,373.55Z"/><rect class="cls-6" x="200.62" y="138.09" width="162.64" height="6.37"/><rect class="cls-6" x="200.62" y="163.31" width="162.64" height="6.36"/><rect class="cls-6" x="200.62" y="188.49" width="162.64" height="6.38"/><rect class="cls-6" x="200.62" y="213.69" width="162.64" height="6.37"/><rect class="cls-6" x="200.62" y="238.89" width="162.64" height="6.37"/><rect class="cls-6" x="200.62" y="264.09" width="162.64" height="6.37"/><rect class="cls-6" x="200.62" y="289.29" width="162.64" height="6.36"/><rect class="cls-6" x="200.62" y="314.49" width="162.64" height="6.37"/><rect class="cls-6" x="200.62" y="339.69" width="162.64" height="6.36"/><path class="cls-7" d="M356.4,94.47v23.76a4.33,4.33,0,0,0,4.33,4.34h28.14S386.28,96.24,356.4,94.47Z"/><path class="cls-8" d="M340.87,410h-204a5.74,5.74,0,0,1-5.74-5.74V136.67a5.75,5.75,0,0,1,5.74-5.75h177.7a5.73,5.73,0,0,1,3.57,1.25L344.44,153a5.72,5.72,0,0,1,2.18,4.5V404.26A5.74,5.74,0,0,1,340.87,410Z"/><rect class="cls-9" x="158.21" y="174.54" width="162.64" height="6.37"/><rect class="cls-9" x="158.21" y="199.76" width="162.64" height="6.36"/><rect class="cls-9" x="158.21" y="224.94" width="162.64" height="6.38"/><rect class="cls-9" x="158.21" y="250.14" width="162.64" height="6.37"/><rect class="cls-9" x="158.21" y="275.34" width="162.64" height="6.37"/><rect class="cls-9" x="158.21" y="300.54" width="162.64" height="6.37"/><rect class="cls-9" x="158.21" y="325.74" width="162.64" height="6.36"/><rect class="cls-9" x="158.21" y="350.95" width="162.64" height="6.36"/><rect class="cls-9" x="158.21" y="376.14" width="162.64" height="6.36"/><path class="cls-10" d="M314,130.92V154.2a2.28,2.28,0,0,0,2.28,2.28h30.35S343.87,132.69,314,130.92Z"/><rect class="cls-11" x="169.88" y="251.77" width="172.02" height="15.32" transform="translate(-82.02 395.8) rotate(-67.37)"/><polygon class="cls-12" points="229.88 341.77 217.69 351.08 215.72 335.87 229.88 341.77"/><polygon class="cls-13" points="276.03 262.63 270.72 260.42 292.41 208.39 282.93 204.43 285.14 199.13 299.93 205.29 276.03 262.63"/></g></g></svg>