<svg xmlns="http://www.w3.org/2000/svg" xmlns:xlink="http://www.w3.org/1999/xlink" viewBox="0 0 512 512"><defs><style>.cls-1{isolation:isolate;}.cls-2{fill:url(#Degradado_sin_nombre_15);}.cls-3{mix-blend-mode:multiply;}.cls-4{fill:#b3b3b3;}.cls-5{fill:#fff;}.cls-6{fill:#f6b900;}.cls-7{fill:url(#Degradado_sin_nombre_25);}.cls-8{fill:#ffc73a;}.cls-9{fill:url(#Degradado_sin_nombre_18);}.cls-10{fill:#54e360;}.cls-11{fill:#d1e8ff;}</style><linearGradient id="Degradado_sin_nombre_15" x1="25.64" y1="256" x2="486.36" y2="256" gradientTransform="translate(256 -106.04) rotate(45)" gradientUnits="userSpaceOnUse"><stop offset="0" stop-color="#5b57a5"/><stop offset="0.5" stop-color="#2e3092"/><stop offset="1" stop-color="#474374"/></linearGradient><linearGradient id="Degradado_sin_nombre_25" x1="124.47" y1="255.99" x2="389.71" y2="255.99" gradientUnits="userSpaceOnUse"><stop offset="0" stop-color="#25a7cf"/><stop offset="0.5" stop-color="#0093ca"/><stop offset="1" stop-color="#007cb6"/></linearGradient><linearGradient id="Degradado_sin_nombre_18" x1="157.79" y1="301.62" x2="200.3" y2="301.62" gradientUnits="userSpaceOnUse"><stop offset="0" stop-color="#f074ac"/><stop offset="0.5" stop-color="#eb008b"/><stop offset="1" stop-color="#cd118c"/></linearGradient></defs><g class="cls-1"><g id="Layer_1" data-name="Layer 1"><circle class="cls-2" cx="256" cy="256" r="230.36" transform="translate(-106.04 256) rotate(-45)"/><g class="cls-3"><path class="cls-4" d="M350.72,123.36l29.42,28.05c-1.49-1.53,11.12,15.5,9.57,14s-6-9.51-7.56-11-4.76,3.35,3.68.72c-1.49-1.53-8.79-6.74-10.33-8.21s-5.85-5.58-7.39-7c-30.21-31.12-64.33-50.09-111-50.09C165.48,89.86,91,164.38,91,256a165.66,165.66,0,0,0,51,119.66c1.2,1.25,80.83,80.88,110.61,110.64,1.14,0,2.26.08,3.4.08,127.23,0,230.36-103.13,230.36-230.36"/></g><path class="cls-5" d="M419.46,256A162.37,162.37,0,1,1,257.09,93.62,162.37,162.37,0,0,1,419.46,256Z"/><path class="cls-6" d="M257.09,422.14C165.48,422.14,91,347.6,91,256S165.48,89.86,257.09,89.86,423.24,164.38,423.24,256,348.7,422.14,257.09,422.14Zm0-324.75C169.63,97.39,98.48,168.53,98.48,256S169.63,414.6,257.09,414.6,415.7,343.45,415.7,256,344.55,97.39,257.09,97.39Z"/><path class="cls-7" d="M389.71,256A132.62,132.62,0,1,1,257.09,123.36,132.62,132.62,0,0,1,389.71,256Z"/><path class="cls-5" d="M305.19,180.64a3.54,3.54,0,1,0-3.71,6,85,85,0,0,1,37.66,94.23,3.55,3.55,0,0,0,6.86,1.81,92.49,92.49,0,0,0,3.08-23.6,91.56,91.56,0,0,0-43.89-78.47Zm0,0"/><path class="cls-5" d="M289.47,337.69a85.08,85.08,0,0,1-95.3-21.31,3.54,3.54,0,0,0-5.23,4.78,92.11,92.11,0,0,0,103.24,23.07,3.54,3.54,0,1,0-2.71-6.54Zm0,0"/><path class="cls-5" d="M236.74,176.53a3.54,3.54,0,0,0-1.68-6.88,91.67,91.67,0,0,0-69.92,82.89,3.53,3.53,0,0,0,3.28,3.78h.26A3.53,3.53,0,0,0,172.2,253a84.63,84.63,0,0,1,64.54-76.51Zm0,0"/><path class="cls-8" d="M278.23,170.55A21.26,21.26,0,1,1,257,149.3a21.26,21.26,0,0,1,21.25,21.25Zm0,0"/><path class="cls-9" d="M200.3,301.62a21.26,21.26,0,1,1-21.25-21.26,21.26,21.26,0,0,1,21.25,21.26Zm0,0"/><path class="cls-10" d="M356.16,301.62a21.25,21.25,0,1,1-21.25-21.26,21.26,21.26,0,0,1,21.25,21.26Zm0,0"/><path class="cls-11" d="M298.4,293.12l-8.12-13.55a3.83,3.83,0,0,0-6-.77l-2.68,2.76-10.87-10.87-5.44,5.43L276.19,287l-2.76,2.68a3.84,3.84,0,0,0,.77,6l13.55,8.12a3.83,3.83,0,0,0,4.68-.62l5.36-5.36a3.74,3.74,0,0,0,.61-4.67Zm0,0"/><path class="cls-11" d="M235.53,224.66a4,4,0,0,0-5.44,0l-10.8,10.8a4,4,0,0,0,0,5.44l13.54,13.54,15.91-15.91c0-.18,0-.36,0-.54v-.1Zm0,0"/><path class="cls-11" d="M272.82,257.82A19.36,19.36,0,0,0,289,252.46a19.16,19.16,0,0,0,2.45-24.12l-13.25,13.25a3.79,3.79,0,0,1-5.43,0,3.93,3.93,0,0,1,0-5.44L286,222.9a19.26,19.26,0,0,0-24,2.45,18.9,18.9,0,0,0-5.36,16.16l-21.83,21.83a18.86,18.86,0,0,0-16.15,5.36,19.24,19.24,0,0,0-2.45,24l13.24-13.25a4,4,0,0,1,5.44,0,3.8,3.8,0,0,1,0,5.44l-13.25,13.25a19.1,19.1,0,0,0,29.48-18.61Zm0,0"/></g></g></svg>