<svg width="512" height="512" viewBox="0 0 512 512" fill="none" xmlns="http://www.w3.org/2000/svg">
<path d="M304 40H320V56H304V40Z" fill="#663399"/>
<path d="M224 40H288V56H224V40Z" fill="#663399"/>
<path d="M240 456H304V472H240V456Z" fill="#DB4E9F"/>
<path d="M352 456H368V472H352V456Z" fill="#DB4E9F"/>
<path d="M176 456H192V472H176V456Z" fill="#DB4E9F"/>
<path d="M288 264C288 209.264 330.312 164.504 384 160.408V104H160V408H384V367.592C330.312 363.496 288 318.736 288 264Z" fill="#F4EAFF"/>
<path d="M192 264H264V280H192V264Z" fill="url(#paint0_linear)"/>
<path d="M192 296H264V312H192V296Z" fill="url(#paint1_linear)"/>
<path d="M192 328H264V344H192V328Z" fill="url(#paint2_linear)"/>
<path d="M192 360H264V376H192V360Z" fill="url(#paint3_linear)"/>
<path d="M448 40H464V112H448V40Z" fill="#663399"/>
<path d="M448 8H464V24H448V8Z" fill="#663399"/>
<path d="M80 400H96V472H80V400Z" fill="#DB4E9F"/>
<path d="M456 152C442.768 152 432 141.232 432 128C432 114.768 442.768 104 456 104C469.232 104 480 114.768 480 128C480 141.232 469.232 152 456 152Z" fill="#F05EC7"/>
<path d="M88 408C74.768 408 64 397.232 64 384C64 370.768 74.768 360 88 360C101.232 360 112 370.768 112 384C112 397.232 101.232 408 88 408Z" fill="#F05EC7"/>
<path d="M80 488H96V504H80V488Z" fill="#DB4E9F"/>
<path d="M504 264C504 210.488 466.256 165.68 416 154.656V48C416 25.944 398.056 8 376 8H168C145.944 8 128 25.944 128 48V136H81.752L76.928 155.328L59.856 145.08L17.072 187.84L27.32 204.928L8 209.752V270.248L27.328 275.072L17.072 292.16L59.848 334.928L76.92 324.68L81.752 344H128V464C128 486.056 145.944 504 168 504H376C398.056 504 416 486.056 416 464V373.344C466.256 362.32 504 317.512 504 264ZM488 264C488 279.592 484.184 294.28 477.56 307.312C473.12 295.096 462.904 285.488 449.704 282.184L416 273.752V271.84C425.968 264.328 432 252.512 432 240.008V224.008C432 212.832 427.272 202.08 419.024 194.512C410.784 186.968 399.616 183.176 388.448 184.16C368.008 185.928 352 204.168 352 225.656V240C352 252.504 358.032 264.32 368 271.832V273.744L334.296 282.176C321.096 285.48 310.88 295.088 306.44 307.304C299.816 294.28 296 279.592 296 264C296 211.064 339.064 168 392 168C444.936 168 488 211.064 488 264ZM284.72 232H208V152H336V167.152C311.568 181.336 292.96 204.424 284.72 232ZM168 24H376C389.232 24 400 34.768 400 48V72H144V48C144 34.768 154.768 24 168 24V24ZM128 276.576C122.952 278.8 117.504 280 112 280C89.944 280 72 262.056 72 240C72 217.944 89.944 200 112 200C117.504 200 122.952 201.2 128 203.424V276.576ZM94.248 328L90.352 312.408L88.728 308.128L79.592 304.416L62.328 314.784L37.224 289.672L47.592 272.4L43.592 262.64L24 257.752V222.248L43.568 217.36L47.592 207.6L37.224 190.328L62.328 165.216L79.592 175.584L89.352 171.616L94.248 152H128V186.44C122.808 184.88 117.432 184 112 184C81.12 184 56 209.128 56 240C56 270.872 81.12 296 112 296C117.432 296 122.808 295.12 128 293.56V328H94.248ZM376 488H168C154.768 488 144 477.232 144 464V440H400V464C400 477.232 389.232 488 376 488ZM400 424H144V88H400V152.408C397.344 152.216 394.704 152 392 152C377.896 152 364.44 154.728 352 159.512V136H192V248H281.28C280.52 253.24 280 258.552 280 264C280 325.76 330.24 376 392 376C394.704 376 397.344 375.784 400 375.592V424ZM392 360C363.32 360 337.608 347.288 320 327.288V320.984C320 309.952 327.48 300.376 338.176 297.696L384 286.248V262.96L380.024 260.648C372.496 256.264 368 248.544 368 240V225.656C368 212.384 377.592 201.16 389.832 200.096C396.696 199.544 403.2 201.704 408.216 206.304C413.16 210.84 416 217.288 416 224V240C416 248.544 411.504 256.264 403.976 260.648L400 262.96V286.248L445.824 297.696C456.52 300.376 464 309.952 464 320.984V327.288C446.392 347.288 420.68 360 392 360Z" fill="url(#paint4_linear)"/>
<defs>
<linearGradient id="paint0_linear" x1="228" y1="264" x2="228" y2="280" gradientUnits="userSpaceOnUse">
<stop stop-color="#663399"/>
<stop offset="1" stop-color="#E450A0"/>
</linearGradient>
<linearGradient id="paint1_linear" x1="228" y1="296" x2="228" y2="312" gradientUnits="userSpaceOnUse">
<stop stop-color="#663399"/>
<stop offset="1" stop-color="#E450A0"/>
</linearGradient>
<linearGradient id="paint2_linear" x1="228" y1="328" x2="228" y2="344" gradientUnits="userSpaceOnUse">
<stop stop-color="#663399"/>
<stop offset="1" stop-color="#E450A0"/>
</linearGradient>
<linearGradient id="paint3_linear" x1="228" y1="360" x2="228" y2="376" gradientUnits="userSpaceOnUse">
<stop stop-color="#663399"/>
<stop offset="1" stop-color="#E450A0"/>
</linearGradient>
<linearGradient id="paint4_linear" x1="256" y1="8" x2="256" y2="504" gradientUnits="userSpaceOnUse">
<stop stop-color="#663399"/>
<stop offset="1" stop-color="#E450A0"/>
</linearGradient>
</defs>
</svg>
