<svg width="60" height="60" viewBox="0 0 60 60" fill="none" xmlns="http://www.w3.org/2000/svg">
<path d="M0 6C0 2.68629 2.68629 0 6 0H54C57.3137 0 60 2.68629 60 6V54C60 57.3137 57.3137 60 54 60H6C2.68629 60 0 57.3137 0 54V6Z" fill="white"/>
<path d="M5.79258 25.7729C5.79258 13.6335 15.6335 3.7926 27.7729 3.7926C39.9123 3.7926 49.7533 13.6335 49.7533 25.7729L53.9802 34.227L49.7533 36.7632V49.444H41.2992V56.2072H14.2466V43.099C9.10091 39.0759 5.79258 32.811 5.79258 25.7729Z" fill="#FEEEE5"/>
<path d="M17.6281 23.3921C17.6281 17.7946 22.1701 13.2568 27.7729 13.2568C33.3757 13.2568 37.9177 17.7945 37.9177 23.3921C37.9177 27.805 35.0947 31.5583 31.1546 32.9499V38.5951H24.3914V32.9499C20.4514 31.5583 17.6281 27.8049 17.6281 23.3921Z" fill="#FAEA5A"/>
<path d="M28.6184 38.454V31.1127C32.5585 29.7199 35.3815 25.963 35.3815 21.546C35.3815 18.5726 34.1022 15.898 32.0641 14.0425C35.5218 15.659 37.9177 19.1678 37.9177 23.2368C37.9177 27.6538 35.0947 31.4107 31.1546 32.8035V38.454H28.6184Z" fill="#FEC65A"/>
<path d="M26.0822 45.2171H29.4638C31.3315 45.2171 32.8455 43.7031 32.8455 41.8354V35.9176H22.7007V41.8354C22.7006 43.7031 24.2146 45.2171 26.0822 45.2171Z" fill="white"/>
<path d="M30.309 41.8354V35.9176H32.8452V41.8354C32.8452 43.7031 31.3312 45.2171 29.4636 45.2171H26.9274C28.7951 45.2171 30.309 43.7031 30.309 41.8354Z" fill="#E0E0E0"/>
<path d="M26.9275 17.3188L32.8452 24.082H28.6183V29.1544L22.7004 22.3912H26.9275V17.3188Z" fill="#F1F1F0"/>
<path d="M11.6701 9.67013C15.9713 5.36882 21.6901 3 27.7729 3C33.8557 3 39.5746 5.36882 43.8758 9.67013C48.1327 13.927 50.4968 19.5718 50.5451 25.5845L54.6892 33.8726C54.8744 34.243 54.7432 34.6936 54.3881 34.9066L50.5458 37.2119V49.4441C50.5458 49.8818 50.1909 50.2367 49.7532 50.2367H42.0918V56.2074C42.0918 56.6451 41.7369 57 41.2992 57C40.8615 57 40.5066 56.6451 40.5066 56.2074V49.444C40.5066 49.0063 40.8615 48.6514 41.2992 48.6514H48.9608V36.7631C48.9608 36.4847 49.1068 36.2266 49.3455 36.0834L52.9432 33.9248L49.0445 26.1273C48.9894 26.0172 48.9608 25.896 48.9608 25.7728C48.9608 14.0899 39.4559 4.58508 27.773 4.58508C16.0901 4.58508 6.58527 14.0899 6.58527 25.7728C6.58527 32.3379 9.55568 38.4253 14.7348 42.4744C14.927 42.6246 15.0393 42.8549 15.0393 43.0989V56.2072C15.0393 56.6449 14.6844 56.9998 14.2467 56.9998C13.809 56.9998 13.4541 56.6449 13.4541 56.2072V43.4812C8.07607 39.131 5.00008 32.6995 5.00008 25.7729C5.00008 19.69 7.3689 13.9712 11.6701 9.67013Z" fill="#F6430F"/>
<path d="M18.8892 29.6173C18.6336 29.262 18.7144 28.7667 19.0697 28.5112C19.425 28.2556 19.9204 28.3363 20.1758 28.6916C21.3002 30.2542 22.8493 31.4177 24.6555 32.0562C24.9722 32.1682 25.1839 32.4676 25.1839 32.8034V35.1251H30.362V32.8034C30.362 32.4675 30.5736 32.1681 30.8904 32.0562C34.6196 30.738 37.1251 27.1937 37.1251 23.2368C37.1251 18.08 32.9297 13.8846 27.7729 13.8846C22.6162 13.8846 18.4207 18.08 18.4207 23.2368C18.4207 24.0292 18.5199 24.816 18.7153 25.5755C18.8245 25.9993 18.5692 26.4314 18.1452 26.5406C17.7212 26.6498 17.2893 26.3945 17.1801 25.9705C16.9513 25.0821 16.8354 24.1623 16.8354 23.2367C16.8354 17.2058 21.7419 12.2993 27.7728 12.2993C33.8037 12.2993 38.7102 17.2058 38.7102 23.2367C38.7102 27.6746 36.015 31.6687 31.947 33.3484V35.125H32.8453C33.283 35.125 33.6379 35.4799 33.6379 35.9176V41.8354C33.6379 44.137 31.7653 46.0095 29.4638 46.0095H26.0822C23.7805 46.0095 21.908 44.1369 21.908 41.8354V35.9176C21.908 35.4799 22.2629 35.125 22.7006 35.125H23.5989V33.3485C21.7124 32.571 20.0925 31.2896 18.8892 29.6173ZM23.4931 40.1975H32C32.0178 40.1975 32.0353 40.199 32.0528 40.2001V39.2464H23.4931V40.1975ZM26.0822 44.4244H29.4638C30.8913 44.4244 32.0528 43.2629 32.0528 41.8354V41.7799C32.0353 41.7811 32.0178 41.7826 32 41.7826H23.4931V41.8354C23.4931 43.263 24.6546 44.4244 26.0822 44.4244ZM23.4931 37.6613H32.0528V36.7102H31.1546H24.3914H23.4931V37.6613Z" fill="#F6430F"/>
<path d="M28.8972 29.8964C28.5912 30.0112 28.2372 29.9223 28.0219 29.6764L22.1041 22.9133C21.6644 22.4106 22.0342 21.5988 22.7006 21.5988H26.1351V17.319C26.1351 16.604 27.052 16.2579 27.5242 16.7971L33.442 23.5602C33.8817 24.0629 33.512 24.8747 32.8455 24.8747H29.411V29.1545C29.4109 29.4847 29.2062 29.7803 28.8972 29.8964ZM31.0987 23.2896L27.7201 19.4283V22.3913C27.7201 22.829 27.3652 23.1839 26.9275 23.1839H24.4471L27.8257 27.0452V24.0821C27.8257 23.6444 28.1806 23.2895 28.6183 23.2895H31.0987V23.2896Z" fill="#F6430F"/>
</svg>
