<svg width="60" height="60" viewBox="0 0 60 60" fill="none" xmlns="http://www.w3.org/2000/svg">
<path d="M0 6C0 2.68629 2.68629 0 6 0H54C57.3137 0 60 2.68629 60 6V54C60 57.3137 57.3137 60 54 60H6C2.68629 60 0 57.3137 0 54V6Z" fill="white"/>
<path d="M53.3758 43.5C53.7523 42.8478 53.9863 42.113 53.9863 41.4531V18.5469C53.9863 17.887 53.7526 17.1523 53.3759 16.5001L29.9932 30.0001L53.3758 43.5Z" fill="#00599C"/>
<path d="M32.0708 56.505L51.9082 45.052C52.4797 44.722 52.999 44.1523 53.3756 43.5L29.993 30L6.61035 43.5001C6.98687 44.1523 7.50641 44.7222 8.07769 45.052L27.9151 56.505C29.0579 57.1649 30.9281 57.1649 32.0708 56.505Z" fill="#004482"/>
<path d="M53.3759 16.5C52.9992 15.8476 52.4797 15.2779 51.9084 14.9479L32.0709 3.49492C30.9282 2.83503 29.058 2.83503 27.9153 3.49492L8.07783 14.9479C6.93495 15.6077 6 17.2273 6 18.5469V41.4531C6 42.113 6.23382 42.8478 6.61049 43.5L29.9931 30.0001L53.3759 16.5Z" fill="#659AD2"/>
<path d="M29.9932 45.9954C21.1733 45.9954 13.9978 38.8199 13.9978 30C13.9978 21.1801 21.1733 14.0046 29.9932 14.0046C35.6844 14.0046 40.9922 17.0673 43.8451 21.9973L36.9227 26.0031C35.4948 23.5354 32.8394 22.0023 29.9932 22.0023C25.5832 22.0023 21.9955 25.59 21.9955 30C21.9955 34.4099 25.5832 37.9977 29.9932 37.9977C32.8398 37.9977 35.4951 36.4647 36.9231 33.9965L43.8455 38.0021C40.9927 42.9326 35.6847 45.9954 29.9932 45.9954Z" fill="white"/>
<path d="M45.9885 29.1113H44.2112V27.3341H42.4341V29.1113H40.6567V30.8885H42.4341V32.6659H44.2112V30.8885H45.9885V29.1113Z" fill="white"/>
<path d="M52.6533 29.1113H50.876V27.3341H49.0989V29.1113H47.3215V30.8885H49.0989V32.6659H50.876V30.8885H52.6533V29.1113Z" fill="white"/>
</svg>
