<svg width="60" height="60" viewBox="0 0 60 60" fill="none" xmlns="http://www.w3.org/2000/svg">
<path d="M0 6C0 2.68629 2.68629 0 6 0H54C57.3137 0 60 2.68629 60 6V54C60 57.3137 57.3137 60 54 60H6C2.68629 60 0 57.3137 0 54V6Z" fill="white"/>
<path d="M22.5003 33.0317C22.3676 33.0317 22.2331 33.0174 22.0982 32.9874C13.4416 31.0636 9.73843 25.5587 8.15614 21.2792C6.47155 16.723 6.81241 12.6318 6.82781 12.4598C6.91271 11.5079 7.71034 10.7782 8.66617 10.7782H17.7952C18.8981 10.7782 19.7889 11.6817 19.6963 12.7808C19.6167 13.7267 18.8237 14.4695 17.8572 14.4695H11.2928C10.8614 14.4695 10.5246 14.8403 10.5646 15.2698C10.6886 16.5983 10.985 18.3273 11.6633 20.119C13.5191 25.0225 17.2994 28.1396 22.8991 29.384C23.8941 29.6051 24.5215 30.591 24.3004 31.5861C24.1092 32.4462 23.3463 33.0316 22.5003 33.0317Z" fill="#FDB994"/>
<path d="M37.7822 33.0317C37.9149 33.0317 38.0494 33.0174 38.1843 32.9874C46.841 31.0637 50.5442 25.5587 52.1263 21.2792C53.8109 16.723 53.4701 12.6318 53.4547 12.4598C53.3698 11.5079 52.5721 10.7782 51.6163 10.7782H42.4873C41.3844 10.7782 40.4936 11.6817 40.5862 12.7808C40.6658 13.7267 41.4588 14.4695 42.4253 14.4695H48.9897C49.4211 14.4695 49.7579 14.8403 49.7178 15.2698C49.5939 16.5983 49.2975 18.3273 48.6192 20.119C46.7634 25.0225 42.9831 28.1396 37.3834 29.384C36.3884 29.6051 35.7609 30.591 35.9821 31.5861C36.1734 32.4462 36.9362 33.0316 37.7822 33.0317Z" fill="#FDB994"/>
<path d="M42.2319 56.209H18.0513C17.6744 56.209 17.3689 55.9035 17.3689 55.5267V51.811C17.3689 51.4342 17.6744 51.1287 18.0513 51.1287H42.2319C42.6087 51.1287 42.9143 51.4342 42.9143 51.811V55.5267C42.9143 55.9035 42.6087 56.209 42.2319 56.209Z" fill="#FC9D69"/>
<path d="M42.9142 51.8108V55.5263C42.9142 55.9039 42.6084 56.2087 42.2319 56.2087H40.1226C40.4991 56.2087 40.8049 55.9039 40.8049 55.5263V51.8108C40.8049 51.4343 40.4991 51.1284 40.1226 51.1284H42.2319C42.6084 51.1284 42.9142 51.4343 42.9142 51.8108Z" fill="#FB8848"/>
<path d="M38.562 51.1287H21.7207V48.6807C21.7207 47.2269 22.8993 46.0483 24.3531 46.0483H35.9296C37.3834 46.0483 38.562 47.2269 38.562 48.6807V51.1287Z" fill="#FC9D69"/>
<path d="M38.5616 48.6805V51.1283H36.4871V48.6805C36.4871 47.2272 35.308 46.0481 33.8547 46.0481H35.9292C37.3836 46.0481 38.5616 47.2272 38.5616 48.6805Z" fill="#FB8848"/>
<path d="M33.5665 36.247L34.7447 34.3019H25.5378L26.7161 36.247C27.5385 37.6045 27.9807 39.2331 27.9807 40.9037C27.9807 41.9241 27.8156 42.9352 27.4942 43.8822L26.7592 46.0483H33.5231L32.7881 43.8822C32.4668 42.9352 32.3016 41.9241 32.3016 40.9037C32.3018 39.2331 32.744 37.6045 33.5665 36.247Z" fill="#FDB994"/>
<path d="M32.6262 38.4579C32.4131 39.2436 32.3024 40.0683 32.3024 40.9036C32.3024 41.9245 32.4669 42.9349 32.7886 43.8819L33.5237 46.0482H31.3785L30.6434 43.8819C30.3228 42.9349 30.1572 41.9245 30.1572 40.9036C30.1572 40.0683 30.268 39.2436 30.481 38.4579C30.6951 37.6722 31.0104 36.9265 31.4217 36.2473L32.6008 34.3015H34.7449L33.5669 36.2473C33.1556 36.9265 32.8392 37.6722 32.6262 38.4579Z" fill="#FB8848"/>
<path d="M30.1415 35.9164C22.4853 35.9164 16.2788 29.7099 16.2788 22.0536V8.19092H44.0043V22.0536C44.0043 29.7098 37.7978 35.9164 30.1415 35.9164Z" fill="#FED5BF"/>
<path d="M44.0037 8.19043V22.0538C44.0037 29.7095 37.7971 35.9161 30.1414 35.9161C29.747 35.9161 29.3557 35.8992 28.9697 35.8676C36.0781 35.2727 41.6614 29.315 41.6614 22.0538V8.19043H44.0037Z" fill="#FDB994"/>
<path d="M44.9278 8.1909H15.3548C14.8161 8.1909 14.3794 7.75417 14.3794 7.21546V4.76646C14.3794 4.22775 14.8161 3.79102 15.3548 3.79102H44.9278C45.4665 3.79102 45.9033 4.22775 45.9033 4.76646V7.21546C45.9034 7.75417 45.4666 8.1909 44.9278 8.1909Z" fill="#FDB994"/>
<path d="M45.903 4.76608V7.21497C45.903 7.7539 45.4664 8.19052 44.9275 8.19052H42.6853C43.2242 8.19052 43.6609 7.7539 43.6609 7.21497V4.76608C43.6609 4.22821 43.2242 3.79053 42.6853 3.79053H44.9275C45.4664 3.79053 45.903 4.22821 45.903 4.76608Z" fill="#FB8848"/>
<path d="M31.1228 16.1616L32.1372 18.2169C32.2965 18.5398 32.6047 18.7637 32.9611 18.8155L35.2293 19.1451C36.1268 19.2755 36.4852 20.3784 35.8357 21.0115L34.1945 22.6114C33.9366 22.8628 33.8189 23.225 33.8798 23.5799L34.2672 25.8389C34.4206 26.7328 33.4824 27.4145 32.6796 26.9924L30.6508 25.9258C30.332 25.7582 29.9513 25.7582 29.6325 25.9258L27.6038 26.9924C26.801 27.4145 25.8627 26.7327 26.0161 25.8389L26.4036 23.5799C26.4644 23.2249 26.3467 22.8627 26.0889 22.6114L24.4476 21.0115C23.7982 20.3785 24.1565 19.2755 25.054 19.1451L27.3223 18.8155C27.6786 18.7637 27.9868 18.5399 28.1462 18.2169L29.1605 16.1616C29.5617 15.3483 30.7214 15.3483 31.1228 16.1616Z" fill="#F9F7F8"/>
<path d="M34.1944 22.6113C33.936 22.8624 33.8189 23.2252 33.879 23.5795L34.2672 25.8386C34.4201 26.7329 33.4825 27.4142 32.6789 26.9924L31.8446 26.5536C32.0239 26.2942 32.1104 25.9641 32.0492 25.6055L31.5915 22.9362C31.5198 22.5175 31.659 22.0893 31.9638 21.7919L33.9033 19.902C34.1649 19.6467 34.2883 19.3261 34.2946 19.0087L35.229 19.1447C36.1265 19.2755 36.4851 20.3787 35.8354 21.0114L34.1944 22.6113Z" fill="#EEEEEE"/>
<path d="M54.2429 12.3895C54.1208 11.02 52.9917 9.98715 51.6167 9.98715H44.7952V8.98186H44.928C45.9021 8.98186 46.6945 8.1894 46.6945 7.21543V4.76643C46.6945 3.79246 45.9021 3 44.928 3H24.8507C24.4138 3 24.0597 3.35405 24.0597 3.79099C24.0597 4.22793 24.4138 4.58197 24.8507 4.58197H44.928C45.0298 4.58197 45.1126 4.66466 45.1126 4.76643V7.21543C45.1126 7.3172 45.0298 7.39989 44.928 7.39989H15.355C15.2533 7.39989 15.1705 7.3172 15.1705 7.21543V4.76643C15.1705 4.66466 15.2533 4.58197 15.355 4.58197H21.142C21.5788 4.58197 21.933 4.22793 21.933 3.79099C21.933 3.35405 21.5788 3 21.142 3H15.355C14.381 3 13.5885 3.79246 13.5885 4.76643V7.21543C13.5885 8.1894 14.381 8.98186 15.355 8.98186H15.4878V9.98715H8.66635C7.2913 9.98715 6.16229 11.02 6.04017 12.3895C6.02414 12.5686 5.66872 16.8318 7.41448 21.5535C9.01174 25.8735 12.6762 31.3896 21.0723 33.5543C22.4239 34.6223 23.9673 35.458 25.6418 35.9995L26.0399 36.6567C26.7924 37.8989 27.1901 39.3675 27.1901 40.9036C27.1901 41.842 27.0405 42.7587 26.7457 43.628L26.1928 45.2572H24.3534C22.4658 45.2572 20.93 46.793 20.93 48.6807V50.3377H18.0512C17.2388 50.3377 16.5779 50.9987 16.5779 51.8111V55.5267C16.5779 56.3391 17.2388 57 18.0512 57H42.2319C43.0443 57 43.7053 56.3391 43.7053 55.5267V51.8111C43.7053 50.9987 43.0443 50.3377 42.2319 50.3377H39.3531V48.6807C39.3531 46.793 37.8174 45.2572 35.9297 45.2572H34.0903L33.5375 43.628C33.2425 42.7588 33.093 41.8421 33.093 40.9036C33.093 39.3676 33.4907 37.8991 34.2432 36.6567L34.6413 35.9995C36.3158 35.458 37.859 34.6224 39.2108 33.5543C47.6068 31.3896 51.2713 25.8735 52.8686 21.5535C54.6143 16.8318 54.2589 12.5687 54.2429 12.3895ZM15.7807 24.974C14.3059 23.5933 13.176 21.8804 12.4033 19.8389C11.8664 18.4204 11.515 16.8803 11.3585 15.2604H15.4878V22.0536C15.4878 23.0534 15.589 24.03 15.7807 24.974ZM8.89837 21.005C7.27474 16.6136 7.60126 12.6947 7.61592 12.5301C7.66475 11.9823 8.11635 11.5692 8.66635 11.5692H15.4878V13.6785H11.2931C10.8657 13.6785 10.4557 13.8596 10.168 14.1754C9.87993 14.4916 9.73755 14.9172 9.77731 15.3433C9.94384 17.1281 10.3295 18.8291 10.9237 20.3991C12.0972 23.4995 13.9968 25.9205 16.5969 27.644C17.1085 28.8788 17.7842 30.0289 18.5969 31.0673C12.8662 28.6919 10.1672 24.4366 8.89837 21.005ZM42.1233 51.9197V55.418H18.1598V51.9197H42.1233ZM35.9297 46.8392C36.9451 46.8392 37.7712 47.6653 37.7712 48.6807V50.3377H22.512V48.6807C22.512 47.6653 23.3381 46.8392 24.3534 46.8392H35.9297ZM32.0395 44.1363L32.4198 45.2572H27.8632L28.2436 44.1362C28.5941 43.1028 28.772 42.0152 28.772 40.9036C28.772 39.3477 28.4242 37.8456 27.763 36.5132C28.5374 36.6402 29.3317 36.7073 30.1415 36.7073C30.9513 36.7073 31.7456 36.6402 32.52 36.5132C31.8587 37.8456 31.511 39.3477 31.511 40.9036C31.5111 42.0153 31.6888 43.1029 32.0395 44.1363ZM30.1415 35.1252C22.9337 35.1252 17.0698 29.2613 17.0698 22.0536V8.98186H43.2133V22.0536C43.2133 29.2614 37.3493 35.1252 30.1415 35.1252ZM51.3848 21.005C50.1159 24.4367 47.4169 28.6924 41.6858 31.0678C42.5 30.0276 43.1768 28.8752 43.6888 27.6379C45.9214 26.1553 47.6408 24.1587 48.8247 21.6585C49.0117 21.2638 48.8432 20.792 48.4484 20.6051C48.0538 20.4183 47.5821 20.5866 47.395 20.9814C46.6621 22.5293 45.6954 23.8629 44.5017 24.9789C44.6941 24.0334 44.7954 23.0552 44.7954 22.0537V15.2605H48.9247C48.846 16.0744 48.7153 16.8815 48.5359 17.6607C48.4379 18.0864 48.7035 18.511 49.1293 18.6089C49.5546 18.7074 49.9796 18.4413 50.0775 18.0156C50.2773 17.1477 50.4214 16.2486 50.5059 15.3433C50.5457 14.9172 50.4033 14.4916 50.1153 14.1754C49.8276 13.8596 49.4175 13.6785 48.9902 13.6785H44.7954V11.5692H51.6169C52.1669 11.5692 52.6185 11.9823 52.6673 12.5302C52.6818 12.6947 53.0083 16.6136 51.3848 21.005Z" fill="#F6430F"/>
<path d="M35.3429 18.3624L33.0747 18.0328C32.9759 18.0183 32.8906 17.9563 32.8464 17.8669L31.8321 15.8116C31.5122 15.1634 30.8644 14.7607 30.1416 14.7607C29.4187 14.7607 28.7709 15.1634 28.4511 15.8116L27.4367 17.8669C27.3925 17.9564 27.3072 18.0184 27.2084 18.0328L24.9402 18.3624C24.2249 18.4662 23.6418 18.9578 23.4184 19.6453C23.195 20.3329 23.3778 21.0733 23.8954 21.578L25.5366 23.1777C25.6082 23.2474 25.6407 23.3477 25.6239 23.4462L25.2364 25.7053C25.1142 26.4177 25.4015 27.1241 25.9863 27.549C26.571 27.9737 27.3319 28.0289 27.9718 27.6925L30.0004 26.626C30.0888 26.5794 30.1943 26.5794 30.2827 26.626L32.3114 27.6925C32.5897 27.8388 32.8908 27.911 33.1903 27.911C33.5796 27.911 33.9663 27.789 34.2968 27.5489C34.8816 27.124 35.169 26.4175 35.0467 25.7051L34.6593 23.4461C34.6424 23.3476 34.675 23.2473 34.7465 23.1777L36.3878 21.5778C36.9054 21.0732 37.0882 20.3327 36.8648 19.6452C36.6415 18.9578 36.0581 18.4662 35.3429 18.3624ZM35.2835 20.4451L33.6421 22.045C33.1978 22.4781 32.9951 23.1019 33.1 23.7135L33.4874 25.9726C33.5152 26.1343 33.4237 26.2278 33.3668 26.2693C33.3099 26.3107 33.1927 26.3689 33.0474 26.2924L31.0187 25.2258C30.7441 25.0814 30.4428 25.0092 30.1415 25.0092C29.8401 25.0092 29.5388 25.0814 29.2642 25.2258L27.2356 26.2924C27.0905 26.3688 26.9732 26.3106 26.9161 26.2693C26.8592 26.2278 26.7678 26.1344 26.7955 25.9726L27.183 23.7135C27.2879 23.1019 27.0852 22.4781 26.6408 22.0449L24.9995 20.4452C24.882 20.3307 24.9009 20.2013 24.9227 20.1343C24.9445 20.0673 25.0052 19.9515 25.1675 19.9279L27.4356 19.5983C28.0499 19.509 28.5805 19.1235 28.8551 18.5671L29.8695 16.5118C29.942 16.3647 30.071 16.3427 30.1413 16.3427C30.2117 16.3427 30.3407 16.3647 30.4132 16.5118L31.4276 18.5671C31.7022 19.1235 32.2328 19.5091 32.847 19.5983L35.1153 19.9279C35.2776 19.9515 35.3383 20.0673 35.3601 20.1343C35.382 20.2013 35.4009 20.3307 35.2835 20.4451Z" fill="#F6430F"/>
</svg>
