<svg width="512" height="512" viewBox="0 0 512 512" fill="none" xmlns="http://www.w3.org/2000/svg">
<path d="M264 72C272.824 72 280 79.176 280 88H296C296 70.352 281.648 56 264 56C246.352 56 232 70.352 232 88V104C232 121.648 246.352 136 264 136C281.648 136 296 121.648 296 104H280C280 112.824 272.824 120 264 120C255.176 120 248 112.824 248 104V88C248 79.176 255.176 72 264 72Z" fill="#663399"/>
<path d="M352 56H312V136H328V104H352C356.408 104 360 107.592 360 112V136H376V112C376 105.832 373.592 100.256 369.76 96C373.6 91.744 376 86.168 376 80C376 66.768 365.232 56 352 56ZM328 88V72H352C356.408 72 360 75.592 360 80C360 84.408 356.408 88 352 88H328Z" fill="#663399"/>
<path d="M434.232 104H429.768L413.768 56H392V136H408V89.296L418.232 120H445.768L456 89.296V136H472V56H450.232L434.232 104Z" fill="#663399"/>
<path d="M40 168H56V184H40V168Z" fill="#DB4E9F"/>
<path d="M72 168H88V184H72V168Z" fill="#DB4E9F"/>
<path d="M104 168H120V184H104V168Z" fill="#DB4E9F"/>
<path d="M416 248H288C274.768 248 264 258.768 264 272V288C264 301.232 274.768 312 288 312V328C274.768 328 264 338.768 264 352V368C264 381.232 274.768 392 288 392V408C274.768 408 264 418.768 264 432V448C264 461.232 274.768 472 288 472H416C429.232 472 440 461.232 440 448V432C440 418.768 429.232 408 416 408V392C429.232 392 440 381.232 440 368V352C440 338.768 429.232 328 416 328V312C429.232 312 440 301.232 440 288V272C440 258.768 429.232 248 416 248ZM424 432V448C424 452.416 420.408 456 416 456H288C283.592 456 280 452.416 280 448V432C280 427.584 283.592 424 288 424H416C420.408 424 424 427.584 424 432ZM400 408H304V392H400V408ZM424 352V368C424 372.416 420.408 376 416 376H288C283.592 376 280 372.416 280 368V352C280 347.584 283.592 344 288 344H416C420.408 344 424 347.584 424 352ZM400 328H304V312H400V328ZM424 288C424 292.416 420.408 296 416 296H288C283.592 296 280 292.416 280 288V272C280 267.584 283.592 264 288 264H416C420.408 264 424 267.584 424 272V288Z" fill="#E450A0"/>
<path d="M464 8H240C217.944 8 200 25.944 200 48V136H32C18.768 136 8 146.768 8 160V480C8 493.232 18.768 504 32 504H448C461.232 504 472 493.232 472 480V183.192C490.232 179.472 504 163.32 504 144V48C504 25.944 486.056 8 464 8ZM32 152H200.808C204.528 170.232 220.68 184 240 184H268.256L281.592 200H24V160C24 155.592 27.592 152 32 152ZM448 488H32C27.592 488 24 484.416 24 480V216H294.92L300.952 223.24C305.592 228.808 312.408 232 319.656 232C330.136 232 339.008 225.304 342.432 216H456V480C456 484.416 452.408 488 448 488ZM344 200V184H456V200H344ZM488 144C488 157.232 477.232 168 464 168H328V207.656C328 212.256 324.256 216 319.656 216C317.168 216 314.832 214.904 313.24 213L275.744 168H240C226.768 168 216 157.232 216 144V48C216 34.768 226.768 24 240 24H464C477.232 24 488 34.768 488 48V144Z" fill="url(#paint0_linear)"/>
<path d="M144 408C192.52 408 232 368.52 232 320C232 271.48 192.52 232 144 232C95.48 232 56 271.48 56 320C56 368.52 95.48 408 144 408ZM144 392C127.024 392 111.432 386.064 99.112 376.2L147.312 328H215.528C211.536 363.944 180.992 392 144 392ZM200.2 275.112C208.488 285.472 213.984 298.136 215.528 312H163.312L200.2 275.112ZM188.888 263.8L144 308.688L99.112 263.8C111.432 253.936 127.024 248 144 248C160.976 248 176.568 253.936 188.888 263.8ZM87.8 275.112L132.688 320L87.8 364.888C77.936 352.568 72 336.976 72 320C72 303.024 77.936 287.432 87.8 275.112Z" fill="#663399"/>
<path d="M40 424H56V440H40V424Z" fill="#C7C7C7"/>
<path d="M72 424H248V440H72V424Z" fill="#C7C7C7"/>
<path d="M40 456H88V472H40V456Z" fill="#C7C7C7"/>
<path d="M104 456H248V472H104V456Z" fill="#C7C7C7"/>
<defs>
<linearGradient id="paint0_linear" x1="256" y1="8" x2="256" y2="504" gradientUnits="userSpaceOnUse">
<stop stop-color="#663399"/>
<stop offset="1" stop-color="#E450A0"/>
</linearGradient>
</defs>
</svg>
