<svg width="469" height="469" viewBox="0 0 469 469" fill="none" xmlns="http://www.w3.org/2000/svg">
<g clip-path="url(#clip0)">
<path d="M296.039 256.112V298.555C296.039 307.083 282.787 314.491 263.333 318.228C253.845 319.98 244.218 320.842 234.57 320.803C200.615 320.803 173.094 310.847 173.094 298.555V256.112C173.094 268.404 200.615 278.36 234.57 278.36C268.525 278.36 296.039 268.404 296.039 256.112Z" fill="#EA00D3"/>
<path d="M296.039 255.23V256.112C296.039 268.404 268.525 278.36 234.57 278.36C200.615 278.36 173.094 268.404 173.094 256.112V213.969C173.094 226.261 200.615 236.209 234.57 236.209C268.525 236.209 296.039 226.261 296.039 213.969V255.23Z" fill="#EF00D7"/>
<path d="M296.039 171.814V213.969C296.039 226.261 268.525 236.209 234.57 236.209C200.615 236.209 173.094 226.261 173.094 213.969V171.814C173.094 184.098 200.615 194.062 234.57 194.062C268.525 194.062 296.039 184.098 296.039 171.814Z" fill="#EA00C5"/>
<path d="M234.57 149.562C268.513 149.562 296.039 159.53 296.039 171.814C296.039 184.098 268.513 194.062 234.57 194.062C200.627 194.062 173.094 184.098 173.094 171.814C173.094 159.53 200.615 149.562 234.57 149.562V149.562Z" fill="#EF00C9"/>
<path d="M19.2751 104.564C18.2842 93.2937 18.9396 81.9338 21.2256 70.8548C24.2919 57.0451 30.2995 45.5955 39.0885 36.8181C51.4003 24.4986 68.7131 17.742 90.4849 16.7355C101.033 16.3415 111.593 17.0593 121.99 18.8772L124.748 3.13646C113.22 1.12352 101.509 0.327703 89.8139 0.768522C63.8758 1.96615 43.0052 10.2949 27.7989 25.5168C16.8135 36.4905 9.35083 50.6006 5.62142 67.4531L5.59802 67.5584C2.98822 80.1822 2.23531 93.1181 3.36272 105.96L19.2751 104.564Z" fill="url(#paint0_linear)"/>
<path d="M8.00885 135.425C10.0101 143.992 12.4482 152.449 15.3038 160.77L30.4243 155.601C27.7443 147.795 25.4583 139.861 23.574 131.82L8.00885 135.425Z" fill="url(#paint1_linear)"/>
<path d="M54.3261 208.968C49.5083 200.186 45.0962 191.358 41.2068 182.733L26.6403 189.302C30.7013 198.306 35.3006 207.505 40.3135 216.649L54.3261 208.968Z" fill="url(#paint2_linear)"/>
<path d="M116.716 296.956C116.021 296.164 115.327 295.372 114.64 294.576L102.578 305.051C103.284 305.87 103.998 306.685 104.716 307.5C108.672 312.006 112.896 316.664 117.27 321.349C119.177 323.389 121.108 325.426 123.063 327.454L134.586 316.391C132.683 314.409 130.802 312.424 128.941 310.438C124.678 305.878 120.566 301.341 116.716 296.956Z" fill="url(#paint3_linear)"/>
<path d="M83.268 281.578L95.8879 271.775C94.7253 270.28 93.5784 268.782 92.4354 267.281C87.5747 260.891 82.8661 254.399 78.4541 247.978L65.2958 257.044C69.8522 263.664 74.709 270.362 79.718 276.947C80.8883 278.496 82.0703 280.037 83.268 281.578Z" fill="url(#paint4_linear)"/>
<path d="M136.662 341.139C151.751 355.873 167.632 369.773 184.239 382.779C206.76 400.498 230.798 416.199 256.073 429.705C270.83 437.565 286.13 444.373 301.848 450.076L287.262 454.254L291.658 469.612L332.214 458.003L332.463 457.933C334.511 457.359 336.247 455.994 337.285 454.137C338.326 452.28 338.58 450.084 337.995 448.04L327.337 410.831L311.975 415.232L318.747 438.872C299.671 432.837 281.196 425.047 263.563 415.591C239.123 402.53 215.884 387.343 194.105 370.21C177.954 357.563 162.506 344.042 147.826 329.709L136.662 341.139Z" fill="url(#paint5_linear)"/>
<path d="M463.995 343.749C460.73 323.378 453.989 301.454 443.959 278.586L429.326 285.007C438.814 306.63 445.168 327.244 448.215 346.273C453.93 382.01 447.65 410.199 430.052 427.793C421.341 436.508 410.004 442.488 396.37 445.562C385.358 448.04 372.851 448.633 359.189 447.322C355.838 447.002 352.37 446.557 348.879 446.007L346.382 461.783C350.19 462.384 353.985 462.871 357.664 463.226C362.876 463.726 367.951 463.975 372.89 463.975C381.964 464.03 391.018 463.082 399.881 461.147C416.519 457.394 430.473 449.975 441.353 439.091C462.719 417.725 470.549 384.757 463.995 343.749V343.749Z" fill="url(#paint6_linear)"/>
<path d="M425.269 241.588L411.385 249.5C415.244 256.272 418.875 263.071 422.164 269.707L436.477 262.607C433.048 255.691 429.276 248.622 425.269 241.588V241.588Z" fill="url(#paint7_linear)"/>
<path d="M388.17 186.045L375.48 195.755C381.425 203.53 387.242 211.581 392.766 219.684L405.971 210.684C400.279 202.34 394.295 194.054 388.17 186.045Z" fill="url(#paint8_linear)"/>
<path d="M348.676 139.872L337.117 150.904C343.885 157.996 350.545 165.362 356.911 172.805L369.055 162.42C362.497 154.755 355.639 147.167 348.676 139.872Z" fill="url(#paint9_linear)"/>
<path d="M142.599 19.0605L150.678 56.8383L166.306 53.499L161.145 29.3632C175.809 34.5633 190.075 40.8245 203.83 48.1039C227.954 60.8369 250.916 75.6609 272.449 92.4042C282.612 100.241 292.84 108.742 302.85 117.667C308.308 122.54 313.898 127.736 319.473 133.123C321.794 135.359 324.22 137.738 326.678 140.196L337.975 128.899C335.448 126.371 332.951 123.917 330.567 121.619C324.852 116.099 319.106 110.759 313.488 105.742C303.194 96.5666 292.672 87.8205 282.241 79.7765C272.087 71.8808 261.566 64.3986 250.783 57.3143C256.912 53.8579 263.064 50.5849 269.095 47.5889L261.987 33.276C254.821 36.8376 247.502 40.7543 240.235 44.9167L245.314 53.776C234.235 46.719 222.894 40.1223 211.297 33.9821C200.978 28.5284 190.379 23.6131 179.546 19.2595L193.629 16.2479L190.285 0.624176L148.731 9.51077C144.628 10.4236 141.912 14.3364 142.502 18.4988C142.525 18.686 142.56 18.8733 142.599 19.0605Z" fill="url(#paint10_linear)"/>
<path d="M2.52009 345.013C0.503249 356.537 -0.292566 368.244 0.152154 379.935C1.34978 405.881 9.67462 426.752 24.8926 441.97C35.8897 452.967 50.0037 460.422 66.9382 464.147C75.7506 465.977 84.7308 466.901 93.7345 466.897C97.6004 466.897 101.47 466.73 105.344 466.39L103.947 450.474C92.689 451.469 81.3447 450.809 70.2775 448.52C56.4638 445.481 44.9947 439.477 36.1901 430.672C23.8783 418.357 17.1217 401.04 16.1192 379.264C15.7213 368.72 16.439 358.163 18.2569 347.767L2.52009 345.013Z" fill="url(#paint11_linear)"/>
<path d="M134.809 461.74C143.371 459.739 151.829 457.305 160.146 454.449L154.981 439.329C147.175 442.009 139.24 444.295 131.204 446.179L134.809 461.74Z" fill="url(#paint12_linear)"/>
<path d="M188.682 443.113C197.682 439.056 206.884 434.456 216.029 429.443L208.351 415.431C199.562 420.249 190.738 424.661 182.113 428.546L188.682 443.113Z" fill="url(#paint13_linear)"/>
<path d="M247.366 391.299L256.428 404.457C263.122 399.846 269.824 394.989 276.331 390.035C277.876 388.861 279.421 387.675 280.962 386.477L271.15 373.861C269.66 375.024 268.162 376.174 266.656 377.314C260.344 382.124 253.853 386.832 247.366 391.299V391.299Z" fill="url(#paint14_linear)"/>
<path d="M293.964 355.113L304.434 367.183C305.249 366.476 306.065 365.763 306.888 365.041C311.362 361.109 316.012 356.888 320.729 352.495C322.773 350.584 324.809 348.649 326.838 346.69L315.771 335.167C313.789 337.063 311.807 338.958 309.825 340.815C305.234 345.095 300.693 349.21 296.343 353.037C295.551 353.732 294.756 354.422 293.964 355.113V355.113Z" fill="url(#paint15_linear)"/>
<path d="M345.653 21.5338C381.39 15.8227 409.575 22.0995 427.173 39.6971C435.888 48.4082 441.868 59.7485 444.942 73.3905C447.419 84.3993 448.012 96.906 446.702 110.56C446.382 113.911 445.937 117.379 445.383 120.87L461.167 123.367C461.767 119.556 462.255 115.76 462.606 112.089C464.081 96.7461 463.379 82.5463 460.531 69.8796C456.782 53.2377 449.362 39.2797 438.474 28.3958C417.104 7.02191 384.14 -0.807503 343.129 5.75407C322.757 9.01534 300.833 15.7564 277.969 25.7899L284.387 40.4227C306.014 30.9354 326.627 24.5805 345.653 21.5338V21.5338Z" fill="url(#paint16_linear)"/>
<path d="M172.185 112.838L161.796 100.698C154.131 107.256 146.543 114.114 139.248 121.077L150.284 132.636C157.372 125.864 164.741 119.208 172.185 112.838Z" fill="url(#paint17_linear)"/>
<path d="M219.067 76.9912L210.072 63.7822C201.735 69.4621 193.445 75.4502 185.433 81.5788L195.138 94.2728C202.921 88.3198 210.973 82.5033 219.067 76.9912Z" fill="url(#paint18_linear)"/>
<path d="M457.387 137.532L457.316 137.282C456.739 135.238 455.374 133.506 453.517 132.472C451.664 131.434 449.471 131.181 447.427 131.766L410.219 142.412L414.612 157.774L438.252 151.01C432.213 170.082 424.423 188.557 414.97 206.19C401.914 230.63 386.731 253.869 369.593 275.644C356.942 291.799 343.421 307.251 329.093 321.934L340.523 333.095C355.257 318.002 369.153 302.117 382.159 285.51C399.881 262.993 415.583 238.955 429.084 213.68C436.945 198.919 443.752 183.619 449.46 167.901L453.638 182.491L469 178.099L457.387 137.532Z" fill="url(#paint19_linear)"/>
<path d="M16.7589 327.326C17.1295 327.326 17.5001 327.302 17.8707 327.251C18.0619 327.224 18.253 327.189 18.4403 327.15L56.222 319.071L52.8788 303.447L28.7429 308.608C33.9391 293.94 40.2042 279.674 47.4875 265.919C60.2205 241.799 75.0445 218.833 91.7839 197.296C99.625 187.133 108.125 176.905 117.039 166.903C122.052 161.297 127.248 155.707 132.499 150.272C134.602 148.088 136.853 145.802 139.576 143.083L128.274 131.785C125.477 134.582 123.168 136.931 120.999 139.182C115.615 144.756 110.275 150.499 105.118 156.264C95.9464 166.555 87.2002 177.08 79.1523 187.516C61.8512 209.783 46.5278 233.517 33.3618 258.456C27.9042 268.775 22.9889 279.37 18.6392 290.203L15.6276 276.124L0 279.46L8.8866 321.014C9.70192 324.704 12.9788 327.333 16.7589 327.326V327.326Z" fill="url(#paint20_linear)"/>
<path d="M165.592 171.814V298.555C165.592 305.316 169.388 314.842 188.624 321.802C201.084 326.311 217.367 328.792 234.664 328.792H235.261C245.255 328.788 255.23 327.876 265.057 326.073C289.965 321.291 304.407 311.261 304.407 298.551V171.814C304.407 165.053 300.178 155.535 280.938 148.568C268.474 144.058 251.977 141.577 234.66 141.577C217.343 141.577 201.13 144.062 188.667 148.568C169.434 155.531 165.592 165.053 165.592 171.814V171.814ZM288.428 298.555C288.428 300.053 281.96 306.552 262.077 310.372C253.034 312.033 243.859 312.853 234.664 312.814C219.145 312.814 204.872 310.672 194.109 306.775C183.587 302.967 181.571 299.148 181.571 298.555V276.253C183.845 277.458 186.201 278.496 188.624 279.358C201.084 283.868 217.367 286.349 234.695 286.349C252.02 286.349 268.548 283.864 281.008 279.358C283.739 278.371 285.432 277.33 288.428 276.253V298.555ZM288.428 255.23V256.112C288.428 256.709 286.025 260.528 275.508 264.335C264.753 268.229 250.186 270.37 234.664 270.37C219.142 270.37 204.868 268.229 194.105 264.331C183.587 260.524 181.571 256.705 181.571 256.112V234.102C183.845 235.311 186.201 236.349 188.628 237.211C201.084 241.713 217.367 244.202 234.695 244.202C252.02 244.202 268.548 241.717 281.004 237.211C283.735 236.22 285.432 235.183 288.428 234.106V255.23ZM288.428 213.969C288.428 214.562 286.025 218.381 275.512 222.184C264.753 226.078 250.186 228.219 234.664 228.219C219.142 228.219 204.868 226.074 194.109 222.184C183.587 218.381 181.571 214.562 181.571 213.969V191.947C183.841 193.157 186.201 194.194 188.624 195.056C201.087 199.57 217.37 202.047 234.695 202.047C252.016 202.047 268.541 199.562 281.004 195.056C283.735 194.07 285.432 193.028 288.428 191.951V213.969ZM193.816 163.595C204.583 159.697 219.056 157.552 234.57 157.552C250.089 157.552 264.554 159.697 275.317 163.595C285.838 167.402 288.05 171.221 288.05 171.814C288.05 172.407 285.838 176.222 275.317 180.034C264.554 183.927 250.085 186.072 234.57 186.072C219.056 186.072 204.583 183.931 193.816 180.034C183.295 176.222 181.083 172.407 181.083 171.814C181.083 171.221 183.295 167.402 193.816 163.595V163.595Z" fill="url(#paint21_linear)"/>
</g>
<defs>
<linearGradient id="paint0_linear" x1="63.8015" y1="0.650558" x2="63.8015" y2="105.96" gradientUnits="userSpaceOnUse">
<stop stop-color="#663399"/>
<stop offset="1" stop-color="#E450A0"/>
</linearGradient>
<linearGradient id="paint1_linear" x1="19.2166" y1="131.82" x2="19.2166" y2="160.77" gradientUnits="userSpaceOnUse">
<stop stop-color="#663399"/>
<stop offset="1" stop-color="#E450A0"/>
</linearGradient>
<linearGradient id="paint2_linear" x1="40.4832" y1="182.733" x2="40.4832" y2="216.649" gradientUnits="userSpaceOnUse">
<stop stop-color="#663399"/>
<stop offset="1" stop-color="#E450A0"/>
</linearGradient>
<linearGradient id="paint3_linear" x1="118.582" y1="294.576" x2="118.582" y2="327.454" gradientUnits="userSpaceOnUse">
<stop stop-color="#663399"/>
<stop offset="1" stop-color="#E450A0"/>
</linearGradient>
<linearGradient id="paint4_linear" x1="80.5918" y1="247.978" x2="80.5918" y2="281.578" gradientUnits="userSpaceOnUse">
<stop stop-color="#663399"/>
<stop offset="1" stop-color="#E450A0"/>
</linearGradient>
<linearGradient id="paint5_linear" x1="237.482" y1="329.709" x2="237.482" y2="469.612" gradientUnits="userSpaceOnUse">
<stop stop-color="#663399"/>
<stop offset="1" stop-color="#E450A0"/>
</linearGradient>
<linearGradient id="paint6_linear" x1="406.313" y1="278.586" x2="406.313" y2="463.978" gradientUnits="userSpaceOnUse">
<stop stop-color="#663399"/>
<stop offset="1" stop-color="#E450A0"/>
</linearGradient>
<linearGradient id="paint7_linear" x1="423.931" y1="241.588" x2="423.931" y2="269.707" gradientUnits="userSpaceOnUse">
<stop stop-color="#663399"/>
<stop offset="1" stop-color="#E450A0"/>
</linearGradient>
<linearGradient id="paint8_linear" x1="390.725" y1="186.045" x2="390.725" y2="219.684" gradientUnits="userSpaceOnUse">
<stop stop-color="#663399"/>
<stop offset="1" stop-color="#E450A0"/>
</linearGradient>
<linearGradient id="paint9_linear" x1="353.086" y1="139.872" x2="353.086" y2="172.805" gradientUnits="userSpaceOnUse">
<stop stop-color="#663399"/>
<stop offset="1" stop-color="#E450A0"/>
</linearGradient>
<linearGradient id="paint10_linear" x1="240.198" y1="0.624176" x2="240.198" y2="140.196" gradientUnits="userSpaceOnUse">
<stop stop-color="#663399"/>
<stop offset="1" stop-color="#E450A0"/>
</linearGradient>
<linearGradient id="paint11_linear" x1="52.6882" y1="345.013" x2="52.6882" y2="466.897" gradientUnits="userSpaceOnUse">
<stop stop-color="#663399"/>
<stop offset="1" stop-color="#E450A0"/>
</linearGradient>
<linearGradient id="paint12_linear" x1="145.675" y1="439.329" x2="145.675" y2="461.74" gradientUnits="userSpaceOnUse">
<stop stop-color="#663399"/>
<stop offset="1" stop-color="#E450A0"/>
</linearGradient>
<linearGradient id="paint13_linear" x1="199.071" y1="415.431" x2="199.071" y2="443.113" gradientUnits="userSpaceOnUse">
<stop stop-color="#663399"/>
<stop offset="1" stop-color="#E450A0"/>
</linearGradient>
<linearGradient id="paint14_linear" x1="264.164" y1="373.861" x2="264.164" y2="404.457" gradientUnits="userSpaceOnUse">
<stop stop-color="#663399"/>
<stop offset="1" stop-color="#E450A0"/>
</linearGradient>
<linearGradient id="paint15_linear" x1="310.401" y1="335.167" x2="310.401" y2="367.183" gradientUnits="userSpaceOnUse">
<stop stop-color="#663399"/>
<stop offset="1" stop-color="#E450A0"/>
</linearGradient>
<linearGradient id="paint16_linear" x1="370.663" y1="3.50012" x2="370.663" y2="123.367" gradientUnits="userSpaceOnUse">
<stop stop-color="#663399"/>
<stop offset="1" stop-color="#E450A0"/>
</linearGradient>
<linearGradient id="paint17_linear" x1="155.716" y1="100.698" x2="155.716" y2="132.636" gradientUnits="userSpaceOnUse">
<stop stop-color="#663399"/>
<stop offset="1" stop-color="#E450A0"/>
</linearGradient>
<linearGradient id="paint18_linear" x1="202.25" y1="63.7822" x2="202.25" y2="94.2728" gradientUnits="userSpaceOnUse">
<stop stop-color="#663399"/>
<stop offset="1" stop-color="#E450A0"/>
</linearGradient>
<linearGradient id="paint19_linear" x1="399.046" y1="131.457" x2="399.046" y2="333.095" gradientUnits="userSpaceOnUse">
<stop stop-color="#663399"/>
<stop offset="1" stop-color="#E450A0"/>
</linearGradient>
<linearGradient id="paint20_linear" x1="69.7879" y1="131.785" x2="69.7879" y2="327.326" gradientUnits="userSpaceOnUse">
<stop stop-color="#663399"/>
<stop offset="1" stop-color="#E450A0"/>
</linearGradient>
<linearGradient id="paint21_linear" x1="234.999" y1="141.577" x2="234.999" y2="328.792" gradientUnits="userSpaceOnUse">
<stop stop-color="#663399"/>
<stop offset="1" stop-color="#E450A0"/>
</linearGradient>
<clipPath id="clip0">
<rect width="469" height="469" fill="white"/>
</clipPath>
</defs>
</svg>
