<svg width="512" height="512" viewBox="0 0 512 512" fill="none" xmlns="http://www.w3.org/2000/svg">
<path d="M111.538 407.785H99.21H88.792H76.463C48.272 407.785 25.336 430.721 25.336 458.913V504.5C25.336 508.642 28.693 512 32.836 512C36.979 512 40.336 508.642 40.336 504.5V458.913C40.336 438.992 56.542 422.785 76.463 422.785H78.768L67.197 462.116C66.431 464.718 67.131 467.531 69.026 469.472L88.635 489.556C90.046 491.001 91.981 491.816 94.001 491.816C96.021 491.816 97.956 491.001 99.367 489.556L118.976 469.472C120.872 467.531 121.571 464.718 120.805 462.116L109.234 422.785H111.538C131.459 422.785 147.666 438.992 147.666 458.913V504.5C147.666 508.642 151.023 512 155.166 512C159.309 512 162.666 508.642 162.666 504.5V458.913C162.666 430.721 139.73 407.785 111.538 407.785ZM94.001 473.58L82.826 462.135L94.001 424.152L105.176 462.135L94.001 473.58Z" fill="url(#paint0_linear)"/>
<path d="M94.001 403.838C125.598 403.838 151.303 378.132 151.303 346.536V331.926V322.525C151.303 321.504 151.274 320.489 151.221 319.481C151.209 319.252 151.184 319.025 151.169 318.797C151.118 318.01 151.061 317.225 150.978 316.447C150.952 316.208 150.915 315.971 150.887 315.733C150.796 314.965 150.697 314.199 150.576 313.441C150.538 313.205 150.491 312.972 150.45 312.736C150.319 311.981 150.18 311.228 150.02 310.483C149.967 310.238 149.907 309.996 149.851 309.752C149.685 309.025 149.51 308.302 149.316 307.586C149.245 307.322 149.167 307.06 149.092 306.798C148.896 306.114 148.692 305.435 148.472 304.761C148.377 304.469 148.276 304.178 148.176 303.888C147.959 303.259 147.733 302.635 147.495 302.017C147.369 301.69 147.24 301.364 147.109 301.04C146.88 300.477 146.643 299.92 146.397 299.366C146.234 298.998 146.07 298.631 145.899 298.267C145.67 297.779 145.431 297.297 145.189 296.817C144.981 296.403 144.773 295.989 144.555 295.58C144.34 295.179 144.115 294.785 143.892 294.39C143.627 293.921 143.365 293.452 143.087 292.991C142.917 292.709 142.736 292.434 142.561 292.156C140.827 289.388 138.854 286.762 136.651 284.307C136.549 284.193 136.45 284.075 136.347 283.962C135.882 283.452 135.401 282.956 134.916 282.462C134.717 282.258 134.52 282.052 134.317 281.852C133.874 281.413 133.419 280.984 132.96 280.558C132.694 280.311 132.428 280.065 132.158 279.824C131.944 279.633 131.741 279.432 131.524 279.244C131.447 279.172 131.368 279.101 131.287 279.032C131.031 278.813 130.765 278.607 130.506 278.392C130.445 278.342 130.384 278.292 130.323 278.242C129.711 277.74 129.09 277.251 128.459 276.776C128.324 276.674 128.188 276.573 128.052 276.472C127.499 276.063 126.94 275.666 126.375 275.278C126.159 275.13 125.944 274.982 125.726 274.836C125.246 274.517 124.761 274.207 124.272 273.903C123.966 273.712 123.661 273.52 123.351 273.335C122.965 273.105 122.574 272.884 122.183 272.662C121.77 272.428 121.358 272.192 120.938 271.968C120.693 271.837 120.443 271.715 120.196 271.587C116.7 269.782 112.998 268.326 109.132 267.266C109.1 267.257 109.068 267.247 109.035 267.238C108.327 267.045 107.613 266.87 106.895 266.704C106.738 266.668 106.581 266.63 106.423 266.595C105.783 266.453 105.139 266.323 104.492 266.203C104.237 266.155 103.982 266.11 103.726 266.066C103.148 265.967 102.568 265.874 101.984 265.792C101.63 265.742 101.274 265.7 100.918 265.656C100.413 265.595 99.908 265.533 99.399 265.486C98.904 265.439 98.406 265.406 97.909 265.372C97.518 265.346 97.13 265.312 96.738 265.293C95.828 265.249 94.917 265.224 94.003 265.224C84.898 265.224 75.833 267.415 67.788 271.56C64.106 273.457 62.659 277.98 64.557 281.663C66.453 285.346 70.977 286.79 74.66 284.894C80.674 281.795 87.182 280.224 94.004 280.224C94.679 280.224 95.349 280.244 96.016 280.275C96.302 280.289 96.587 280.313 96.872 280.332C97.238 280.357 97.604 280.382 97.967 280.416C98.341 280.451 98.714 280.495 99.087 280.541C99.344 280.572 99.601 280.604 99.857 280.639C100.291 280.7 100.724 280.767 101.156 280.842C101.329 280.872 101.502 280.903 101.674 280.935C102.166 281.026 102.656 281.123 103.144 281.231C103.223 281.248 103.301 281.268 103.379 281.285C106.847 282.076 110.203 283.305 113.368 284.937C113.483 284.997 113.6 285.054 113.715 285.115C114.104 285.32 114.487 285.535 114.87 285.753C115.074 285.869 115.279 285.985 115.481 286.105C115.795 286.29 116.106 286.482 116.416 286.676C116.688 286.847 116.959 287.02 117.227 287.196C117.473 287.358 117.718 287.523 117.961 287.69C118.297 287.922 118.629 288.158 118.957 288.399C119.134 288.528 119.31 288.657 119.485 288.789C119.889 289.095 120.286 289.408 120.678 289.727C120.778 289.809 120.88 289.888 120.98 289.971C121.298 290.235 121.607 290.51 121.917 290.783C122.233 291.061 122.544 291.343 122.851 291.629C123.093 291.855 123.334 292.083 123.571 292.315C123.842 292.58 124.107 292.85 124.37 293.121C124.618 293.377 124.867 293.633 125.109 293.896C125.348 294.155 125.578 294.421 125.81 294.685C126.055 294.965 126.303 295.243 126.541 295.529C126.762 295.795 126.972 296.067 127.185 296.338C127.416 296.63 127.652 296.917 127.875 297.215C128.272 297.746 128.656 298.285 129.028 298.832C129.193 299.074 129.346 299.324 129.506 299.57C129.756 299.956 130.008 300.341 130.245 300.735C130.383 300.963 130.511 301.198 130.645 301.429C130.878 301.833 131.111 302.238 131.331 302.65C131.448 302.869 131.558 303.092 131.671 303.314C131.894 303.751 132.114 304.19 132.322 304.634C132.418 304.839 132.51 305.047 132.602 305.253C132.814 305.725 133.019 306.201 133.214 306.68C133.291 306.87 133.365 307.06 133.44 307.251C133.636 307.756 133.823 308.265 134 308.778C134.061 308.955 134.122 309.132 134.18 309.31C134.355 309.842 134.519 310.379 134.673 310.918C134.721 311.086 134.771 311.254 134.817 311.423C134.967 311.975 135.104 312.532 135.232 313.091C135.27 313.256 135.31 313.419 135.346 313.585C135.468 314.15 135.574 314.719 135.673 315.289C135.702 315.455 135.735 315.619 135.762 315.785C135.854 316.355 135.928 316.928 135.997 317.503C136.018 317.675 136.044 317.845 136.063 318.017C136.125 318.596 136.167 319.178 136.206 319.761C136.217 319.931 136.236 320.099 136.245 320.269C136.285 321.018 136.306 321.77 136.306 322.524V322.56C129.109 319.96 122.89 315.061 118.598 308.449C117.329 306.494 115.224 305.24 112.901 305.055C110.577 304.871 108.301 305.776 106.739 307.507C96.894 318.417 82.836 324.674 68.17 324.674C62.52 324.674 57.004 323.777 51.713 322.004C51.714 321.905 51.717 321.807 51.719 321.708C51.733 320.993 51.76 320.279 51.81 319.568C51.813 319.528 51.814 319.489 51.817 319.449C51.876 318.641 51.959 317.835 52.064 317.032C52.07 316.987 52.076 316.942 52.082 316.897C52.749 311.923 54.29 307.086 56.64 302.674C58.586 299.018 57.202 294.476 53.545 292.529C49.89 290.583 45.346 291.967 43.399 295.624C41.831 298.568 40.54 301.655 39.513 304.829C39.457 304.973 39.398 305.115 39.351 305.265C38.297 308.604 37.562 312.031 37.137 315.51C37.136 315.517 37.135 315.524 37.134 315.531C37.002 316.612 36.904 317.699 36.833 318.789C36.821 318.966 36.813 319.143 36.803 319.321C36.744 320.386 36.704 321.453 36.704 322.525V327.129V346.536C36.699 378.133 62.404 403.838 94.001 403.838ZM51.699 337.614C57.052 338.975 62.556 339.676 68.166 339.676C84.116 339.676 99.507 333.937 111.546 323.7C118.223 330.849 126.795 335.883 136.303 338.213V346.537C136.303 369.862 117.326 388.839 94.001 388.839C70.676 388.839 51.699 369.862 51.699 346.537V337.614V337.614Z" fill="url(#paint1_linear)"/>
<path d="M194.835 246.776C198.978 246.776 202.335 243.418 202.335 239.276V193.688C202.335 173.767 218.541 157.56 238.462 157.56H240.767L229.196 196.891C228.43 199.493 229.13 202.306 231.025 204.247L250.634 224.331C252.045 225.776 253.98 226.591 256 226.591C258.02 226.591 259.955 225.776 261.366 224.331L280.975 204.247C282.871 202.306 283.57 199.493 282.804 196.891L271.233 157.56H273.538C293.459 157.56 309.665 173.767 309.665 193.688V239.276C309.665 243.418 313.022 246.776 317.165 246.776C321.308 246.776 324.665 243.418 324.665 239.276V193.688C324.665 165.496 301.729 142.56 273.538 142.56H261.209H250.791H238.462C210.271 142.56 187.335 165.496 187.335 193.688V239.276C187.335 243.418 190.692 246.776 194.835 246.776ZM256 208.355L244.825 196.91L256 158.928L267.175 196.911L256 208.355Z" fill="url(#paint2_linear)"/>
<path d="M256 138.614C287.597 138.614 313.302 112.908 313.302 81.312V66.702V57.301C313.302 56.28 313.273 55.265 313.22 54.257C313.208 54.028 313.183 53.802 313.168 53.574C313.117 52.787 313.059 52.001 312.977 51.223C312.952 50.985 312.915 50.749 312.886 50.511C312.795 49.742 312.696 48.976 312.574 48.217C312.536 47.982 312.489 47.75 312.448 47.516C312.317 46.759 312.177 46.005 312.017 45.258C311.965 45.016 311.905 44.776 311.85 44.534C311.683 43.805 311.507 43.079 311.313 42.36C311.242 42.098 311.165 41.839 311.09 41.578C310.894 40.892 310.689 40.21 310.468 39.535C310.373 39.244 310.273 38.956 310.174 38.667C309.957 38.037 309.73 37.411 309.492 36.791C309.367 36.465 309.238 36.14 309.107 35.816C308.878 35.252 308.64 34.694 308.394 34.139C308.232 33.772 308.068 33.406 307.897 33.042C307.668 32.553 307.428 32.071 307.186 31.589C306.978 31.176 306.77 30.762 306.552 30.354C306.337 29.953 306.112 29.558 305.888 29.163C305.623 28.694 305.361 28.225 305.083 27.764C304.914 27.484 304.734 27.211 304.56 26.933C302.82 24.155 300.839 21.519 298.627 19.055C298.533 18.951 298.443 18.843 298.349 18.739C297.878 18.222 297.39 17.718 296.898 17.217C296.706 17.021 296.517 16.824 296.323 16.631C295.872 16.185 295.41 15.749 294.944 15.316C294.687 15.077 294.429 14.84 294.168 14.606C293.95 14.411 293.743 14.206 293.522 14.014C293.445 13.942 293.366 13.872 293.286 13.803C293.027 13.581 292.758 13.373 292.495 13.156C292.442 13.112 292.388 13.069 292.335 13.025C291.716 12.517 291.087 12.022 290.449 11.542C290.32 11.445 290.19 11.348 290.06 11.252C289.502 10.839 288.936 10.437 288.364 10.045C288.154 9.9 287.943 9.756 287.73 9.614C287.245 9.291 286.755 8.978 286.261 8.671C285.959 8.483 285.659 8.294 285.354 8.111C284.963 7.878 284.567 7.654 284.171 7.43C283.762 7.198 283.355 6.966 282.94 6.744C282.688 6.61 282.433 6.484 282.179 6.354C278.687 4.552 274.991 3.099 271.13 2.04C271.098 2.031 271.066 2.021 271.033 2.012C270.325 1.819 269.611 1.644 268.893 1.478C268.736 1.442 268.579 1.404 268.421 1.369C267.781 1.227 267.137 1.097 266.49 0.977C266.235 0.929 265.98 0.884 265.724 0.84C265.146 0.741 264.566 0.648 263.982 0.566C263.628 0.516 263.272 0.474 262.916 0.43C262.411 0.369 261.906 0.307 261.397 0.26C260.902 0.213 260.404 0.18 259.907 0.146C259.516 0.12 259.128 0.086 258.736 0.067C257.826 0.026 256.914 0 256 0C246.896 0 237.83 2.191 229.785 6.336C226.103 8.233 224.656 12.756 226.554 16.438C228.451 20.121 232.971 21.567 236.657 19.67C242.67 16.571 249.179 15 256 15C256.675 15 257.345 15.02 258.012 15.051C258.297 15.065 258.582 15.088 258.866 15.108C259.233 15.133 259.599 15.158 259.964 15.192C260.338 15.227 260.711 15.271 261.083 15.316C261.34 15.347 261.597 15.379 261.853 15.414C262.287 15.475 262.719 15.542 263.15 15.616C263.324 15.646 263.498 15.677 263.671 15.709C264.162 15.8 264.651 15.896 265.138 16.004C265.218 16.022 265.297 16.041 265.377 16.059C268.839 16.849 272.189 18.075 275.348 19.702C275.471 19.766 275.595 19.827 275.717 19.891C276.099 20.093 276.477 20.305 276.853 20.518C277.064 20.638 277.276 20.758 277.485 20.882C277.792 21.063 278.096 21.251 278.399 21.44C278.68 21.616 278.96 21.795 279.236 21.977C279.473 22.133 279.708 22.291 279.942 22.452C280.29 22.692 280.634 22.937 280.975 23.187C281.139 23.307 281.304 23.427 281.466 23.55C281.886 23.868 282.299 24.193 282.706 24.525C282.79 24.594 282.876 24.661 282.96 24.731C283.291 25.005 283.612 25.291 283.934 25.575C284.235 25.84 284.533 26.109 284.825 26.382C285.078 26.619 285.33 26.857 285.577 27.099C285.837 27.354 286.091 27.613 286.344 27.873C286.601 28.138 286.858 28.403 287.108 28.674C287.337 28.923 287.559 29.178 287.782 29.432C288.036 29.721 288.292 30.008 288.538 30.305C288.747 30.557 288.946 30.815 289.149 31.071C289.391 31.376 289.637 31.677 289.871 31.989C290.203 32.432 290.52 32.884 290.833 33.339C291.066 33.677 291.291 34.021 291.515 34.366C291.759 34.743 292.005 35.119 292.237 35.503C292.377 35.735 292.508 35.974 292.643 36.209C292.874 36.61 293.105 37.011 293.323 37.419C293.441 37.64 293.552 37.866 293.667 38.089C293.889 38.524 294.108 38.961 294.315 39.403C294.412 39.609 294.504 39.818 294.597 40.026C294.808 40.497 295.013 40.971 295.207 41.45C295.284 41.641 295.359 41.832 295.434 42.024C295.63 42.529 295.816 43.037 295.993 43.549C296.054 43.726 296.115 43.904 296.174 44.082C296.349 44.614 296.513 45.15 296.667 45.69C296.715 45.858 296.765 46.026 296.811 46.196C296.961 46.748 297.098 47.305 297.226 47.864C297.264 48.029 297.304 48.192 297.34 48.358C297.462 48.923 297.568 49.491 297.667 50.062C297.696 50.228 297.729 50.392 297.756 50.558C297.848 51.128 297.922 51.701 297.991 52.276C298.012 52.448 298.038 52.618 298.057 52.79C298.119 53.369 298.161 53.951 298.2 54.534C298.211 54.704 298.23 54.872 298.239 55.042C298.279 55.791 298.3 56.543 298.3 57.297V57.333C291.103 54.732 284.884 49.834 280.592 43.222C279.323 41.267 277.218 40.013 274.895 39.828C272.583 39.645 270.295 40.549 268.734 42.28C258.887 53.19 244.83 59.447 230.164 59.447C224.514 59.447 218.998 58.55 213.707 56.776C213.708 56.677 213.711 56.578 213.713 56.479C213.727 55.767 213.754 55.056 213.803 54.346C213.806 54.303 213.807 54.261 213.81 54.218C213.869 53.413 213.952 52.612 214.056 51.813C214.063 51.762 214.07 51.711 214.077 51.659C214.744 46.688 216.285 41.855 218.633 37.447C220.579 33.791 219.195 29.249 215.538 27.302C211.883 25.355 207.341 26.741 205.392 30.396C203.821 33.347 202.527 36.44 201.498 39.621C201.445 39.76 201.388 39.895 201.343 40.039C200.292 43.372 199.558 46.791 199.132 50.26C199.13 50.278 199.127 50.296 199.125 50.313C198.994 51.39 198.896 52.472 198.825 53.557C198.813 53.737 198.804 53.916 198.794 54.096C198.735 55.16 198.695 56.226 198.695 57.296V61.9V81.307C198.698 112.909 224.403 138.614 256 138.614ZM213.698 72.39C219.051 73.751 224.555 74.452 230.165 74.452C246.115 74.452 261.506 68.712 273.545 58.476C280.222 65.625 288.794 70.659 298.302 72.989V81.313C298.302 104.638 279.325 123.615 256 123.615C232.675 123.615 213.698 104.638 213.698 81.313V72.39Z" fill="url(#paint3_linear)"/>
<path d="M368.785 260.55C370.261 262.495 372.5 263.519 374.767 263.519C376.345 263.519 377.937 263.022 379.292 261.995C382.593 259.493 383.24 254.788 380.737 251.487C371.577 239.405 360.738 228.728 348.522 219.754C345.184 217.302 340.49 218.02 338.038 221.358C335.585 224.696 336.304 229.391 339.642 231.843C350.693 239.962 360.499 249.62 368.785 260.55Z" fill="url(#paint4_linear)"/>
<path d="M323.412 470.28C302.859 481.445 279.549 487.346 256 487.346C232.282 487.346 208.823 481.364 188.159 470.046C184.526 468.058 179.968 469.389 177.978 473.022C175.988 476.655 177.321 481.213 180.954 483.203C203.82 495.727 229.77 502.347 256 502.347C282.042 502.347 307.829 495.816 330.572 483.461C334.212 481.484 335.559 476.93 333.583 473.291C331.604 469.651 327.054 468.303 323.412 470.28Z" fill="url(#paint5_linear)"/>
<path d="M163.476 219.755C151.359 228.657 140.596 239.234 131.486 251.194C128.975 254.489 129.612 259.195 132.907 261.705C134.264 262.739 135.862 263.239 137.446 263.239C139.707 263.239 141.942 262.22 143.418 260.283C151.659 249.464 161.397 239.895 172.357 231.843C175.695 229.39 176.414 224.697 173.961 221.358C171.508 218.022 166.815 217.304 163.476 219.755Z" fill="url(#paint6_linear)"/>
<path d="M435.537 407.785H423.208H412.79H400.462C372.27 407.785 349.334 430.721 349.334 458.913V504.5C349.334 508.642 352.691 512 356.834 512C360.977 512 364.334 508.642 364.334 504.5V458.913C364.334 438.992 380.541 422.785 400.462 422.785H402.766L391.195 462.116C390.429 464.718 391.129 467.531 393.024 469.472L412.633 489.556C414.044 491.001 415.979 491.816 417.999 491.816C420.019 491.816 421.954 491.001 423.365 489.556L442.974 469.472C444.87 467.531 445.569 464.718 444.803 462.116L433.232 422.785H435.537C455.458 422.785 471.664 438.992 471.664 458.913V504.5C471.664 508.642 475.021 512 479.164 512C483.307 512 486.664 508.642 486.664 504.5V458.913C486.664 430.721 463.729 407.785 435.537 407.785ZM417.999 473.58L406.824 462.135L417.999 424.152L429.174 462.135L417.999 473.58Z" fill="url(#paint7_linear)"/>
<path d="M398.655 284.895C404.67 281.796 411.177 280.225 417.999 280.225C418.674 280.225 419.344 280.245 420.011 280.276C420.298 280.29 420.583 280.314 420.869 280.333C421.235 280.358 421.6 280.383 421.963 280.416C422.338 280.451 422.711 280.495 423.084 280.541C423.341 280.572 423.598 280.604 423.853 280.639C424.288 280.7 424.721 280.767 425.153 280.842C425.327 280.872 425.499 280.903 425.672 280.935C426.163 281.026 426.653 281.123 427.14 281.231C427.221 281.249 427.302 281.269 427.382 281.287C430.851 282.079 434.207 283.309 437.372 284.942C437.486 285.001 437.602 285.058 437.716 285.118C438.105 285.323 438.489 285.539 438.872 285.757C439.076 285.873 439.28 285.988 439.481 286.108C439.795 286.293 440.106 286.485 440.415 286.679C440.688 286.85 440.959 287.023 441.227 287.2C441.473 287.361 441.716 287.526 441.959 287.692C442.295 287.924 442.627 288.16 442.956 288.401C443.133 288.53 443.309 288.659 443.484 288.791C443.885 289.095 444.281 289.406 444.671 289.724C444.774 289.807 444.878 289.889 444.979 289.974C445.307 290.246 445.626 290.529 445.946 290.811C446.241 291.071 446.533 291.335 446.82 291.603C447.079 291.844 447.335 292.087 447.588 292.335C447.842 292.584 448.09 292.837 448.337 293.092C448.599 293.362 448.862 293.632 449.117 293.91C449.34 294.152 449.556 294.401 449.773 294.648C450.033 294.943 450.294 295.237 450.545 295.539C450.745 295.78 450.936 296.029 451.131 296.274C451.381 296.589 451.636 296.901 451.877 297.223C452.145 297.581 452.398 297.948 452.653 298.313C452.955 298.743 453.247 299.18 453.533 299.621C453.771 299.989 454.011 300.355 454.237 300.73C454.38 300.967 454.513 301.21 454.652 301.45C454.881 301.846 455.109 302.243 455.324 302.646C455.444 302.87 455.556 303.098 455.672 303.325C455.893 303.757 456.111 304.192 456.316 304.631C456.414 304.839 456.507 305.05 456.601 305.26C456.811 305.729 457.015 306.201 457.208 306.677C457.286 306.87 457.362 307.063 457.437 307.258C457.632 307.761 457.818 308.267 457.993 308.777C458.055 308.956 458.116 309.135 458.175 309.315C458.35 309.846 458.513 310.382 458.667 310.921C458.715 311.09 458.765 311.257 458.811 311.427C458.962 311.979 459.098 312.536 459.226 313.095C459.264 313.26 459.304 313.423 459.34 313.589C459.462 314.154 459.568 314.722 459.667 315.293C459.696 315.459 459.729 315.623 459.756 315.79C459.848 316.358 459.922 316.93 459.99 317.503C460.011 317.677 460.038 317.849 460.056 318.024C460.118 318.602 460.16 319.183 460.198 319.764C460.209 319.935 460.228 320.103 460.237 320.274C460.277 321.023 460.299 321.775 460.299 322.529V322.565C453.102 319.965 446.883 315.066 442.592 308.454C441.323 306.499 439.218 305.245 436.895 305.06C434.583 304.876 432.295 305.781 430.734 307.512C420.887 318.422 406.829 324.679 392.163 324.679C386.513 324.679 380.997 323.782 375.706 322.009C375.707 321.91 375.71 321.811 375.712 321.712C375.726 320.999 375.753 320.287 375.803 319.577C375.806 319.535 375.807 319.493 375.81 319.452C375.869 318.647 375.952 317.844 376.056 317.044C376.062 316.994 376.069 316.945 376.076 316.895C376.743 311.923 378.284 307.089 380.632 302.679C382.578 299.023 381.194 294.481 377.537 292.534C373.882 290.588 369.338 291.972 367.391 295.629C365.821 298.577 364.528 301.667 363.501 304.845C363.447 304.986 363.389 305.125 363.343 305.271C362.292 308.605 361.557 312.025 361.132 315.496C361.13 315.512 361.127 315.528 361.125 315.545C360.994 316.622 360.896 317.705 360.825 318.791C360.813 318.97 360.804 319.15 360.794 319.329C360.735 320.393 360.695 321.459 360.695 322.529V327.133V346.54C360.695 378.136 386.4 403.842 417.997 403.842C449.594 403.842 475.299 378.136 475.299 346.54V331.93V322.529C475.299 321.508 475.27 320.493 475.217 319.485C475.205 319.255 475.179 319.027 475.165 318.798C475.114 318.012 475.057 317.228 474.974 316.451C474.948 316.21 474.911 315.971 474.882 315.73C474.791 314.965 474.693 314.202 474.572 313.447C474.533 313.205 474.485 312.966 474.443 312.725C474.313 311.976 474.175 311.23 474.016 310.491C473.962 310.239 473.9 309.99 473.842 309.739C473.677 309.02 473.504 308.305 473.313 307.596C473.24 307.323 473.159 307.053 473.081 306.781C472.888 306.107 472.686 305.436 472.469 304.772C472.371 304.471 472.267 304.172 472.164 303.873C471.95 303.254 471.728 302.64 471.494 302.03C471.365 301.693 471.232 301.358 471.096 301.023C470.872 300.472 470.639 299.925 470.398 299.383C470.23 299.004 470.061 298.626 469.885 298.25C469.662 297.775 469.429 297.306 469.193 296.838C468.979 296.412 468.765 295.986 468.54 295.565C468.334 295.181 468.118 294.803 467.903 294.424C467.629 293.939 467.357 293.453 467.07 292.976C466.915 292.721 466.752 292.472 466.593 292.22C464.843 289.419 462.848 286.762 460.618 284.28C460.525 284.177 460.437 284.071 460.344 283.969C459.871 283.45 459.382 282.945 458.888 282.443C458.697 282.248 458.509 282.051 458.315 281.859C457.864 281.413 457.402 280.976 456.935 280.543C456.677 280.303 456.418 280.065 456.155 279.83C455.935 279.633 455.726 279.427 455.502 279.233C455.43 279.166 455.356 279.099 455.279 279.034C455.023 278.815 454.757 278.609 454.498 278.394C454.437 278.344 454.376 278.294 454.315 278.244C453.703 277.742 453.082 277.253 452.451 276.778C452.316 276.676 452.18 276.575 452.044 276.474C451.492 276.065 450.932 275.668 450.367 275.28C450.151 275.132 449.935 274.984 449.718 274.838C449.238 274.519 448.753 274.209 448.264 273.905C447.958 273.714 447.653 273.522 447.343 273.337C446.957 273.107 446.566 272.886 446.175 272.664C445.762 272.43 445.35 272.194 444.93 271.97C444.685 271.839 444.435 271.717 444.188 271.589C440.692 269.784 436.991 268.328 433.124 267.268C433.092 267.259 433.06 267.249 433.027 267.24C432.319 267.047 431.605 266.872 430.887 266.706C430.73 266.67 430.573 266.632 430.415 266.597C429.775 266.455 429.131 266.325 428.483 266.205C428.228 266.157 427.973 266.112 427.717 266.068C427.139 265.969 426.559 265.876 425.976 265.794C425.622 265.744 425.266 265.702 424.91 265.658C424.405 265.597 423.9 265.535 423.391 265.488C422.896 265.441 422.398 265.408 421.901 265.374C421.51 265.348 421.122 265.314 420.73 265.295C419.82 265.251 418.909 265.226 417.995 265.226C408.891 265.226 399.826 267.417 391.78 271.562C388.098 273.459 386.651 277.982 388.549 281.664C390.447 285.346 394.971 286.792 398.655 284.895ZM417.999 388.838C394.674 388.838 375.697 369.861 375.697 346.536V337.613C381.05 338.974 386.554 339.675 392.164 339.675C408.114 339.675 423.505 333.936 435.545 323.699C442.221 330.848 450.793 335.882 460.301 338.212V346.536C460.301 369.862 441.324 388.838 417.999 388.838Z" fill="url(#paint8_linear)"/>
<path d="M184.101 374.195L195.554 394.033C197.262 396.991 200.749 398.422 204.048 397.512L222.297 392.467C225.508 394.799 228.932 396.78 232.536 398.394L237.287 416.703C238.145 420.01 241.13 422.319 244.547 422.319H267.453C270.87 422.319 273.854 420.01 274.713 416.703L279.464 398.394C283.068 396.781 286.492 394.799 289.703 392.467L307.952 397.512C311.25 398.422 314.738 396.991 316.446 394.033L327.899 374.195C329.607 371.236 329.1 367.496 326.665 365.1L313.167 351.815C313.374 349.835 313.479 347.859 313.479 345.909C313.479 343.959 313.375 341.984 313.167 340.003L326.665 326.718C329.101 324.322 329.607 320.582 327.899 317.623L316.446 297.785C314.738 294.827 311.25 293.396 307.952 294.306L289.703 299.351C286.492 297.019 283.068 295.038 279.464 293.424L274.713 275.115C273.855 271.808 270.87 269.499 267.453 269.499H244.547C241.13 269.499 238.146 271.808 237.287 275.115L232.536 293.424C228.932 295.037 225.508 297.019 222.297 299.351L204.048 294.306C200.749 293.396 197.262 294.827 195.554 297.785L184.101 317.623C182.393 320.582 182.9 324.322 185.335 326.718L198.833 340.003C198.626 341.983 198.521 343.958 198.521 345.909C198.521 347.86 198.625 349.835 198.833 351.815L185.335 365.1C182.899 367.497 182.393 371.236 184.101 374.195ZM214.166 353.236C213.738 350.777 213.521 348.311 213.521 345.909C213.521 343.508 213.738 341.042 214.166 338.583C214.587 336.158 213.792 333.68 212.037 331.954L199.992 320.099L205.642 310.311L221.931 314.815C224.307 315.471 226.856 314.919 228.746 313.335C232.549 310.149 236.813 307.681 241.423 305.998C243.738 305.152 245.49 303.223 246.11 300.837L250.349 284.501H261.65L265.889 300.837C266.508 303.223 268.26 305.152 270.576 305.998C275.185 307.681 279.45 310.15 283.253 313.335C285.144 314.919 287.691 315.47 290.068 314.815L306.357 310.311L312.007 320.099L299.962 331.954C298.207 333.681 297.412 336.158 297.833 338.583C298.261 341.042 298.478 343.508 298.478 345.909C298.478 348.311 298.261 350.776 297.833 353.236C297.412 355.661 298.207 358.139 299.962 359.865L312.007 371.72L306.357 381.508L290.068 377.004C287.692 376.348 285.143 376.9 283.253 378.484C279.45 381.67 275.186 384.138 270.576 385.821C268.261 386.667 266.509 388.596 265.889 390.982L261.65 407.318H250.35L246.111 390.982C245.492 388.596 243.74 386.667 241.424 385.821C236.815 384.138 232.55 381.669 228.747 378.484C226.855 376.899 224.307 376.347 221.932 377.004L205.643 381.508L199.993 371.72L212.038 359.865C213.792 358.139 214.587 355.661 214.166 353.236Z" fill="url(#paint9_linear)"/>
<path d="M256 372.341C270.574 372.341 282.431 360.484 282.431 345.909C282.431 341.767 279.074 338.409 274.931 338.409C270.788 338.409 267.431 341.767 267.431 345.909C267.431 352.212 262.303 357.341 256 357.341C249.697 357.341 244.569 352.213 244.569 345.909C244.569 339.605 249.697 334.478 256 334.478C260.143 334.478 263.5 331.12 263.5 326.978C263.5 322.836 260.143 319.478 256 319.478C241.426 319.478 229.569 331.335 229.569 345.909C229.569 360.484 241.426 372.341 256 372.341Z" fill="#E450A0"/>
<defs>
<linearGradient id="paint0_linear" x1="94.001" y1="407.785" x2="94.001" y2="512" gradientUnits="userSpaceOnUse">
<stop stop-color="#663399"/>
<stop offset="1" stop-color="#E450A0"/>
</linearGradient>
<linearGradient id="paint1_linear" x1="94.0035" y1="265.224" x2="94.0035" y2="403.838" gradientUnits="userSpaceOnUse">
<stop stop-color="#663399"/>
<stop offset="1" stop-color="#E450A0"/>
</linearGradient>
<linearGradient id="paint2_linear" x1="256" y1="142.56" x2="256" y2="246.776" gradientUnits="userSpaceOnUse">
<stop stop-color="#663399"/>
<stop offset="1" stop-color="#E450A0"/>
</linearGradient>
<linearGradient id="paint3_linear" x1="255.999" y1="0" x2="255.999" y2="138.614" gradientUnits="userSpaceOnUse">
<stop stop-color="#663399"/>
<stop offset="1" stop-color="#E450A0"/>
</linearGradient>
<linearGradient id="paint4_linear" x1="359.421" y1="218.298" x2="359.421" y2="263.519" gradientUnits="userSpaceOnUse">
<stop stop-color="#663399"/>
<stop offset="1" stop-color="#E450A0"/>
</linearGradient>
<linearGradient id="paint5_linear" x1="255.774" y1="469.124" x2="255.774" y2="502.347" gradientUnits="userSpaceOnUse">
<stop stop-color="#663399"/>
<stop offset="1" stop-color="#E450A0"/>
</linearGradient>
<linearGradient id="paint6_linear" x1="152.684" y1="218.3" x2="152.684" y2="263.239" gradientUnits="userSpaceOnUse">
<stop stop-color="#663399"/>
<stop offset="1" stop-color="#E450A0"/>
</linearGradient>
<linearGradient id="paint7_linear" x1="417.999" y1="407.785" x2="417.999" y2="512" gradientUnits="userSpaceOnUse">
<stop stop-color="#663399"/>
<stop offset="1" stop-color="#E450A0"/>
</linearGradient>
<linearGradient id="paint8_linear" x1="417.997" y1="265.226" x2="417.997" y2="403.842" gradientUnits="userSpaceOnUse">
<stop stop-color="#663399"/>
<stop offset="1" stop-color="#E450A0"/>
</linearGradient>
<linearGradient id="paint9_linear" x1="256" y1="269.499" x2="256" y2="422.319" gradientUnits="userSpaceOnUse">
<stop stop-color="#663399"/>
<stop offset="1" stop-color="#E450A0"/>
</linearGradient>
</defs>
</svg>
