<svg width="512" height="512" viewBox="0 0 512 512" fill="none" xmlns="http://www.w3.org/2000/svg">
<path d="M488 72H136C133.878 72 131.843 72.8429 130.343 74.3432C128.843 75.8435 128 77.8783 128 80V312C128 314.122 128.843 316.157 130.343 317.657C131.843 319.157 133.878 320 136 320H352V392H320V408H448V424H320V440H456C458.122 440 460.157 439.157 461.657 437.657C463.157 436.157 464 434.122 464 432V320H488C490.122 320 492.157 319.157 493.657 317.657C495.157 316.157 496 314.122 496 312V80C496 77.8783 495.157 75.8435 493.657 74.3432C492.157 72.8429 490.122 72 488 72V72ZM480 88V120H144V88H480ZM368 320H384V336C384 338.122 384.843 340.157 386.343 341.657C387.843 343.157 389.878 344 392 344C394.122 344 396.157 343.157 397.657 341.657C399.157 340.157 400 338.122 400 336V320H416V392H368V320ZM448 392H432V320H448V392ZM144 304V136H480V304H144Z" fill="url(#paint0_linear)"/>
<path d="M56 440H264C274.605 439.988 284.772 435.77 292.271 428.271C299.77 420.772 303.988 410.605 304 400C304 397.878 303.157 395.843 301.657 394.343C300.157 392.843 298.122 392 296 392H264V336H248V392H72V256H112V240H64C61.8783 240 59.8435 240.843 58.3432 242.343C56.8429 243.843 56 245.878 56 248V392H24C21.8783 392 19.8435 392.843 18.3432 394.343C16.8429 395.843 16 397.878 16 400C16.012 410.605 20.2302 420.772 27.729 428.271C35.2279 435.77 45.395 439.988 56 440V440ZM132.686 408L138.343 413.657C139.843 415.157 141.878 416 144 416H176C178.122 416 180.157 415.157 181.657 413.657L187.314 408H286.629C284.969 412.676 281.903 416.724 277.852 419.589C273.8 422.453 268.962 423.994 264 424H56C51.0381 423.994 46.1996 422.453 42.1481 419.589C38.0966 416.724 35.0308 412.676 33.3711 408H132.686Z" fill="url(#paint1_linear)"/>
<path d="M160 112C164.418 112 168 108.418 168 104C168 99.5817 164.418 96 160 96C155.582 96 152 99.5817 152 104C152 108.418 155.582 112 160 112Z" fill="#E450A0"/>
<path d="M184 112C188.418 112 192 108.418 192 104C192 99.5817 188.418 96 184 96C179.582 96 176 99.5817 176 104C176 108.418 179.582 112 184 112Z" fill="#E450A0"/>
<path d="M208 112C212.418 112 216 108.418 216 104C216 99.5817 212.418 96 208 96C203.582 96 200 99.5817 200 104C200 108.418 203.582 112 208 112Z" fill="#E450A0"/>
<path d="M160 152H184V168H160V152Z" fill="#693399"/>
<path d="M208 152H264V168H208V152Z" fill="#663399"/>
<path d="M280 152H304V168H280V152Z" fill="#663399"/>
<path d="M160 192H184V208H160V192Z" fill="#663399"/>
<path d="M208 192H240V208H208V192Z" fill="#663399"/>
<path d="M256 192H304V208H256V192Z" fill="#663399"/>
<path d="M160 232H184V248H160V232Z" fill="#663399"/>
<path d="M208 232H304V248H208V232Z" fill="#663399"/>
<path d="M160 272H184V288H160V272Z" fill="#663399"/>
<path d="M208 272H240V288H208V272Z" fill="#663399"/>
<path d="M256 272H304V288H256V272Z" fill="#663399"/>
<path d="M354.343 186.343L330.343 210.343C328.843 211.844 328 213.878 328 216C328 218.122 328.843 220.156 330.343 221.657L354.343 245.657L365.657 234.343L347.313 216L365.657 197.657L354.343 186.343Z" fill="#663399"/>
<path d="M429.657 186.343L418.343 197.657L436.687 216L418.343 234.343L429.657 245.657L453.657 221.657C455.157 220.156 456 218.122 456 216C456 213.878 455.157 211.844 453.657 210.343L429.657 186.343Z" fill="#663399"/>
<path d="M368.405 261.321L400.382 165.288L415.567 170.345L383.59 266.377L368.405 261.321Z" fill="#663399"/>
<defs>
<linearGradient id="paint0_linear" x1="312" y1="72" x2="312" y2="440" gradientUnits="userSpaceOnUse">
<stop stop-color="#663399"/>
<stop offset="1" stop-color="#E450A0"/>
</linearGradient>
<linearGradient id="paint1_linear" x1="160" y1="240" x2="160" y2="440" gradientUnits="userSpaceOnUse">
<stop stop-color="#663399"/>
<stop offset="1" stop-color="#E450A0"/>
</linearGradient>
</defs>
</svg>
