<svg width="60" height="60" viewBox="0 0 60 60" fill="none" xmlns="http://www.w3.org/2000/svg">
<path d="M0 6C0 2.68629 2.68629 0 6 0H54C57.3137 0 60 2.68629 60 6V54C60 57.3137 57.3137 60 54 60H6C2.68629 60 0 57.3137 0 54V6Z" fill="white"/>
<path d="M22.841 44.762C22.841 44.762 20.775 45.962 24.3112 46.3681C28.5953 46.8562 30.7848 46.7862 35.5058 45.8937C35.5058 45.8937 36.747 46.6711 38.4804 47.3444C27.8972 51.875 14.5284 47.082 22.841 44.762Z" fill="#5382A1"/>
<path d="M21.5474 38.849C21.5474 38.849 19.2302 40.5622 22.7691 40.9278C27.3454 41.3994 30.9594 41.438 37.2131 40.2352C37.2131 40.2352 38.078 41.1111 39.4382 41.5901C26.6423 45.3274 12.3901 41.8848 21.5474 38.849Z" fill="#5382A1"/>
<path d="M32.4497 28.8203C35.0574 31.8191 31.7645 34.5177 31.7645 34.5177C31.7645 34.5177 38.386 31.1035 35.3451 26.828C32.5049 22.8409 30.3269 20.8599 42.1178 14.0295C42.1178 14.0295 23.61 18.6466 32.4497 28.8203Z" fill="#E76F00"/>
<path d="M46.4471 49.1337C46.4471 49.1337 47.9759 50.392 44.7633 51.3654C38.6545 53.2138 19.3378 53.772 13.9717 51.439C12.0427 50.6008 15.6601 49.4376 16.798 49.1935C17.9847 48.9365 18.6628 48.9844 18.6628 48.9844C16.5176 47.4749 4.79701 51.9483 12.7093 53.2294C34.2874 56.7247 52.0441 51.6555 46.4471 49.1337Z" fill="#5382A1"/>
<path d="M23.8346 32.7236C23.8346 32.7236 14.0089 35.0547 20.3551 35.9012C23.0347 36.2595 28.3763 36.1785 33.3519 35.7621C37.4182 35.4194 41.5013 34.691 41.5013 34.691C41.5013 34.691 40.0675 35.3043 39.0301 36.0118C29.0523 38.633 9.7769 37.4136 15.326 34.7325C20.0189 32.4666 23.8346 32.7236 23.8346 32.7236Z" fill="#5382A1"/>
<path d="M41.4597 42.5646C51.6027 37.3 46.913 32.2408 43.6396 32.9224C42.8373 33.0892 42.4796 33.2337 42.4796 33.2337C42.4796 33.2337 42.7774 32.7677 43.3463 32.566C49.822 30.292 54.8023 39.2729 41.2559 42.8299C41.2559 42.8301 41.4128 42.6899 41.4597 42.5646Z" fill="#5382A1"/>
<path d="M35.3459 3.00037C35.3459 3.00037 40.9632 8.61309 30.0181 17.2439C21.2412 24.1672 28.0167 28.1147 30.0144 32.625C24.8912 28.0079 21.1315 23.9435 23.6538 20.1608C27.356 14.608 37.6123 11.9158 35.3459 3.00037Z" fill="#E76F00"/>
<path d="M24.8305 56.8306C34.5664 57.4531 49.5171 56.4852 49.8712 51.8838C49.8712 51.8838 49.1905 53.6282 41.8249 55.0135C33.5151 56.5755 23.2661 56.3931 17.1873 55.392C17.1874 55.3919 18.4317 56.4208 24.8305 56.8306Z" fill="#5382A1"/>
</svg>
