<svg width="512" height="512" viewBox="0 0 512 512" fill="none" xmlns="http://www.w3.org/2000/svg">
<rect width="512" height="512" fill="#E5E5E5"/>
<path d="M505.626 293.23C493.8 258.62 467.488 233.07 435.774 221.028C419.344 214.789 408.428 199.172 408.187 181.599C408.182 181.215 408.175 180.83 408.166 180.445C406.659 115.863 352.678 64.115 288.089 65.224C249.995 65.878 216.301 84.579 195.184 113.144C176.999 137.743 148.694 153.109 118.104 153.093C117.206 153.093 116.307 153.102 115.404 153.122C53.487 154.476 0.836986 207.6 0.0109856 269.526C-0.868014 335.458 52.314 389.18 118.043 389.18C168.99 389.18 212.392 356.903 228.929 311.683C233.256 299.851 246.081 293.509 258.212 296.911C258.363 296.953 258.515 296.996 258.667 297.038C269.766 300.102 277.125 310.678 276.217 322.157C275 337.54 276.798 353.412 282.015 368.953C302.536 430.088 369.203 463.638 430.508 443.633C493.219 423.168 526.887 355.448 505.626 293.23Z" fill="url(#paint0_linear)"/>
<path d="M293.717 469.813H180.15L202.861 379.792H271.006L293.717 469.813Z" fill="#9FB0FE"/>
<path d="M278.916 411.134H194.951L202.861 379.792H271.006L278.916 411.134Z" fill="#8399FE"/>
<path d="M161 469.737C158.239 469.737 156 467.499 156 464.737C156 461.975 158.239 459.737 161 459.737H312.867C315.628 459.737 317.867 461.975 317.867 464.737C317.867 467.499 315.628 469.737 312.867 469.737H161Z" fill="#6583FE"/>
<path d="M437.193 127.417V381.995C437.193 390.286 430.464 397.014 422.174 397.014H51.695C43.404 397.014 36.676 390.285 36.676 381.995V127.417C36.676 119.126 43.405 112.398 51.695 112.398H422.173C430.464 112.397 437.193 119.126 437.193 127.417Z" fill="white"/>
<path d="M129.88 291.664H219.967C222.8 291.664 225.096 289.368 225.096 286.535C225.096 283.702 222.8 281.406 219.967 281.406H129.88C127.047 281.406 124.751 283.702 124.751 286.535C124.751 289.368 127.048 291.664 129.88 291.664Z" fill="#6583FE"/>
<path d="M79.936 291.664H104.542C107.375 291.664 109.671 289.368 109.671 286.535C109.671 283.702 107.375 281.406 104.542 281.406H79.936C77.103 281.406 74.807 283.702 74.807 286.535C74.807 289.368 77.103 291.664 79.936 291.664Z" fill="#FFA8CF"/>
<path d="M79.936 312.008H219.967C222.8 312.008 225.096 309.712 225.096 306.879C225.096 304.047 222.8 301.75 219.967 301.75H79.936C77.103 301.75 74.807 304.046 74.807 306.879C74.807 309.711 77.103 312.008 79.936 312.008Z" fill="#B7C5FF"/>
<path d="M437.193 250.555V127.417C437.193 119.126 430.464 112.398 422.174 112.398H51.695C43.404 112.398 36.676 119.127 36.676 127.417V250.555H437.193Z" fill="#97FFD2"/>
<path d="M437.193 160.631V127.417C437.193 119.122 430.469 112.398 422.174 112.398H51.695C43.4 112.398 36.676 119.122 36.676 127.417V160.631H437.193Z" fill="#FF7EB8"/>
<path d="M36.676 346.557V381.992C36.676 390.287 43.4 397.011 51.695 397.011H422.173C430.468 397.011 437.192 390.287 437.192 381.992V346.557H36.676Z" fill="#B7C5FF"/>
<path d="M475.323 128.457V453.68C475.323 462.547 468.133 469.737 459.266 469.737H277.997C269.13 469.737 261.94 462.547 261.94 453.68V128.457C261.94 119.59 269.13 112.4 277.997 112.4H459.266C468.133 112.4 475.323 119.59 475.323 128.457Z" fill="white"/>
<path d="M261.939 332.259C297.98 332.259 327.197 302.725 327.197 266.294C327.197 229.863 297.98 200.329 261.939 200.329C225.898 200.329 196.681 229.863 196.681 266.294C196.681 302.725 225.898 332.259 261.939 332.259Z" fill="#D2DEFF"/>
<path d="M475.318 128.461V296.709H261.937V128.461C261.937 119.59 269.126 112.402 277.996 112.402H459.269C468.13 112.402 475.318 119.59 475.318 128.461Z" fill="#FFC4DF"/>
<path d="M327.194 266.293C327.194 277.266 324.551 287.608 319.855 296.709H261.937V200.326C297.979 200.325 327.194 229.86 327.194 266.293Z" fill="#FFA8CF"/>
<path d="M432.242 134.536L439.375 112.398H297.889L305.022 134.536C306.055 137.742 309.011 139.912 312.347 139.912H424.917C428.252 139.911 431.209 137.742 432.242 134.536V134.536Z" fill="#B7C5FF"/>
<path d="M261.939 320.746C297.98 320.746 327.197 291.212 327.197 254.781C327.197 218.35 297.98 188.816 261.939 188.816C225.898 188.816 196.681 218.35 196.681 254.781C196.681 291.212 225.898 320.746 261.939 320.746Z" fill="#FF7EB8"/>
<path d="M348.561 350.376H438.648C441.481 350.376 443.777 348.08 443.777 345.247C443.777 342.415 441.481 340.118 438.648 340.118H348.561C345.728 340.118 343.432 342.414 343.432 345.247C343.432 348.08 345.728 350.376 348.561 350.376Z" fill="#6583FE"/>
<path d="M298.616 350.376H323.222C326.055 350.376 328.351 348.08 328.351 345.247C328.351 342.415 326.055 340.118 323.222 340.118H298.616C295.783 340.118 293.487 342.414 293.487 345.247C293.487 348.08 295.783 350.376 298.616 350.376Z" fill="#FFA8CF"/>
<path d="M298.616 370.72H438.647C441.48 370.72 443.776 368.424 443.776 365.591C443.776 362.759 441.48 360.462 438.647 360.462H298.616C295.783 360.462 293.487 362.758 293.487 365.591C293.487 368.423 295.783 370.72 298.616 370.72Z" fill="#B7C5FF"/>
<path d="M298.616 391.883H438.647C441.48 391.883 443.776 389.587 443.776 386.754C443.776 383.921 441.48 381.625 438.647 381.625H298.616C295.783 381.625 293.487 383.921 293.487 386.754C293.487 389.587 295.783 391.883 298.616 391.883Z" fill="#B7C5FF"/>
<path d="M117.092 215.747C120.183 215.747 122.689 213.241 122.689 210.15C122.689 207.059 120.183 204.553 117.092 204.553C114.001 204.553 111.495 207.059 111.495 210.15C111.495 213.241 114.001 215.747 117.092 215.747Z" fill="#6583FE"/>
<path d="M134.023 204.553C137.114 204.553 139.62 207.059 139.62 210.15C139.62 213.241 137.114 215.747 134.023 215.747C130.932 215.747 128.426 213.241 128.426 210.15C128.426 207.059 130.932 204.553 134.023 204.553Z" fill="#6583FE"/>
<path d="M150.954 215.747C154.045 215.747 156.551 213.241 156.551 210.15C156.551 207.059 154.045 204.553 150.954 204.553C147.863 204.553 145.357 207.059 145.357 210.15C145.357 213.241 147.863 215.747 150.954 215.747Z" fill="#6583FE"/>
<path d="M361.046 204.553C364.137 204.553 366.643 207.059 366.643 210.15C366.643 213.241 364.137 215.747 361.046 215.747C357.955 215.747 355.449 213.241 355.449 210.15C355.449 207.059 357.955 204.553 361.046 204.553Z" fill="#6583FE"/>
<path d="M377.977 215.747C381.068 215.747 383.574 213.241 383.574 210.15C383.574 207.059 381.068 204.553 377.977 204.553C374.886 204.553 372.38 207.059 372.38 210.15C372.38 213.241 374.886 215.747 377.977 215.747Z" fill="#6583FE"/>
<path d="M394.908 215.747C397.999 215.747 400.505 213.241 400.505 210.15C400.505 207.059 397.999 204.553 394.908 204.553C391.817 204.553 389.311 207.059 389.311 210.15C389.311 213.241 391.817 215.747 394.908 215.747Z" fill="#6583FE"/>
<path d="M372.167 421.268C370.216 419.315 367.05 419.316 365.097 421.267L359.256 427.107C357.303 429.06 357.303 432.225 359.255 434.178C360.232 435.155 361.512 435.643 362.791 435.643C364.07 435.643 365.35 435.155 366.326 434.179L368.632 431.873L370.937 434.178C372.888 436.131 376.056 436.131 378.007 434.178C379.96 432.226 379.96 429.06 378.007 427.108L372.167 421.268Z" fill="#FE2C8F"/>
<path d="M475.323 128.457V453.68C475.323 462.547 468.133 469.737 459.266 469.737H277.997C269.13 469.737 261.94 462.547 261.94 453.68V128.457C261.94 119.59 269.13 112.4 277.997 112.4H459.266C468.133 112.4 475.323 119.59 475.323 128.457Z" fill="url(#paint1_linear)"/>
<path d="M74.808 141.587C77.57 141.587 79.808 139.349 79.808 136.587V136.441C79.808 133.679 77.57 131.441 74.808 131.441C72.046 131.441 69.808 133.679 69.808 136.441V136.587C69.808 139.349 72.046 141.587 74.808 141.587Z" fill="#FE2C8F"/>
<path d="M94.157 141.587C96.919 141.587 99.157 139.349 99.157 136.587V136.441C99.157 133.679 96.919 131.441 94.157 131.441C91.395 131.441 89.157 133.679 89.157 136.441V136.587C89.157 139.349 91.396 141.587 94.157 141.587Z" fill="#FE2C8F"/>
<path d="M113.507 141.587C116.269 141.587 118.507 139.349 118.507 136.587V136.441C118.507 133.679 116.269 131.441 113.507 131.441C110.745 131.441 108.507 133.679 108.507 136.441V136.587C108.507 139.349 110.745 141.587 113.507 141.587Z" fill="#FE2C8F"/>
<path d="M97.656 472.187C94.894 472.187 92.656 469.949 92.656 467.187C92.656 463.867 89.954 461.165 86.634 461.165C83.872 461.165 81.634 458.927 81.634 456.165C81.634 453.403 83.872 451.165 86.634 451.165C89.954 451.165 92.656 448.463 92.656 445.143C92.656 442.381 94.894 440.143 97.656 440.143C100.418 440.143 102.656 442.381 102.656 445.143C102.656 448.463 105.358 451.165 108.678 451.165C111.44 451.165 113.678 453.403 113.678 456.165C113.678 458.927 111.44 461.165 108.678 461.165C105.358 461.165 102.656 463.867 102.656 467.187C102.656 469.948 100.418 472.187 97.656 472.187Z" fill="#6583FE"/>
<path d="M355.449 96.653C352.687 96.653 350.449 94.415 350.449 91.653C350.449 88.333 347.747 85.632 344.427 85.632C341.665 85.632 339.427 83.394 339.427 80.632C339.427 77.87 341.665 75.632 344.427 75.632C347.747 75.632 350.449 72.93 350.449 69.61C350.449 66.848 352.687 64.61 355.449 64.61C358.211 64.61 360.449 66.848 360.449 69.61C360.449 72.93 363.15 75.632 366.47 75.632C369.232 75.632 371.47 77.87 371.47 80.632C371.47 83.394 369.232 85.632 366.47 85.632C363.15 85.632 360.449 88.333 360.449 91.653C360.449 94.415 358.211 96.653 355.449 96.653Z" fill="#6583FE"/>
<path d="M146.948 449.669C144.186 449.669 141.948 447.431 141.948 444.669C141.948 441.349 139.246 438.647 135.926 438.647C133.164 438.647 130.926 436.409 130.926 433.647C130.926 430.885 133.164 428.647 135.926 428.647C139.246 428.647 141.948 425.945 141.948 422.625C141.948 419.863 144.186 417.625 146.948 417.625C149.71 417.625 151.948 419.863 151.948 422.625C151.948 425.945 154.649 428.647 157.969 428.647C160.731 428.647 162.969 430.885 162.969 433.647C162.969 436.409 160.731 438.647 157.969 438.647C154.649 438.647 151.948 441.349 151.948 444.669C151.948 447.431 149.71 449.669 146.948 449.669Z" fill="#FF7EB8"/>
<path d="M403.943 71.827C402.617 71.827 401.345 71.301 400.407 70.362L389.4 59.355C387.448 57.403 387.448 54.237 389.401 52.285L400.408 41.278C402.359 39.325 405.527 39.325 407.478 41.278L418.485 52.285C420.438 54.237 420.438 57.403 418.486 59.355L407.479 70.363C406.541 71.301 405.27 71.827 403.943 71.827V71.827ZM400.008 55.819L403.944 59.756L407.88 55.819L403.944 51.883L400.008 55.819Z" fill="#97FFD2"/>
<path d="M260.75 271.625H244.312L241.188 281H231.219L248.156 235.5H256.844L273.875 281H263.906L260.75 271.625ZM246.844 264.031H258.219L252.5 247L246.844 264.031ZM288.094 281H278.719V235.5H288.094V281Z" fill="white"/>
<defs>
<linearGradient id="paint0_linear" x1="17.284" y1="162.637" x2="542.345" y2="344.2" gradientUnits="userSpaceOnUse">
<stop offset="0.0485" stop-color="#FFDBED"/>
<stop offset="0.9993" stop-color="#D2DEFF"/>
</linearGradient>
<linearGradient id="paint1_linear" x1="368.632" y1="112.4" x2="368.632" y2="469.737" gradientUnits="userSpaceOnUse">
<stop offset="0.0028" stop-color="#FF7EB8" stop-opacity="0"/>
<stop offset="1" stop-color="#FF7EB8" stop-opacity="0.6"/>
</linearGradient>
</defs>
</svg>
