<svg width="60" height="60" viewBox="0 0 60 60" fill="none" xmlns="http://www.w3.org/2000/svg">
<path d="M0 6C0 2.68629 2.68629 0 6 0H54C57.3137 0 60 2.68629 60 6V54C60 57.3137 57.3137 60 54 60H6C2.68629 60 0 57.3137 0 54V6Z" fill="white"/>
<path d="M29.9852 3C16.1847 3 17.0465 8.97601 17.0465 8.97601L17.0619 15.1671H30.2314V17.026H11.831C11.831 17.026 3 16.0259 3 29.9304C3 43.835 10.7079 43.3419 10.7079 43.3419H15.308V36.8896C15.308 36.8896 15.06 29.193 22.8928 29.193H35.9546C35.9546 29.193 43.2932 29.3115 43.2932 22.1109V10.205C43.2932 10.205 44.4074 3 29.9852 3ZM22.7235 7.16323C24.0338 7.16323 25.0928 8.2207 25.0928 9.52906C25.0928 10.8374 24.0338 11.8949 22.7235 11.8949C21.4133 11.8949 20.3542 10.8374 20.3542 9.52906C20.3542 8.2207 21.4133 7.16323 22.7235 7.16323Z" fill="url(#paint0_linear)"/>
<path d="M30.3778 56.9999C44.1783 56.9999 43.3165 51.0239 43.3165 51.0239L43.3011 44.8328H30.1316V42.974H48.532C48.532 42.974 57.363 43.974 57.363 30.0695C57.363 16.165 49.6551 16.658 49.6551 16.658H45.055V23.1103C45.055 23.1103 45.303 30.8069 37.4702 30.8069H24.4084C24.4084 30.8069 17.0698 30.6884 17.0698 37.889V49.7949C17.0698 49.7949 15.9556 56.9999 30.3778 56.9999ZM37.6395 52.8367C36.3292 52.8367 35.2702 51.7792 35.2702 50.4709C35.2702 49.1625 36.3292 48.1051 37.6395 48.1051C38.9497 48.1051 40.0088 49.1625 40.0088 50.4709C40.0088 51.7792 38.9497 52.8367 37.6395 52.8367Z" fill="url(#paint1_linear)"/>
<defs>
<linearGradient id="paint0_linear" x1="8.22433" y1="7.85718" x2="35.1254" y2="34.5288" gradientUnits="userSpaceOnUse">
<stop stop-color="#387EB8"/>
<stop offset="1" stop-color="#366994"/>
</linearGradient>
<linearGradient id="paint1_linear" x1="24.7607" y1="24.9584" x2="53.6515" y2="52.3097" gradientUnits="userSpaceOnUse">
<stop stop-color="#FFE052"/>
<stop offset="1" stop-color="#FFC331"/>
</linearGradient>
</defs>
</svg>
