<svg id="Capa_1" enable-background="new 0 0 512 512" height="512" viewBox="0 0 512 512" width="512" xmlns="http://www.w3.org/2000/svg" xmlns:xlink="http://www.w3.org/1999/xlink"><linearGradient id="SVGID_1_" gradientUnits="userSpaceOnUse" x1="256" x2="256" y1="512" y2="0"><stop offset="0" stop-color="#addcff"/><stop offset=".5028" stop-color="#eaf6ff"/><stop offset="1" stop-color="#eaf6ff"/></linearGradient><linearGradient id="SVGID_2_" gradientUnits="userSpaceOnUse" x1="256" x2="256" y1="407" y2="105"><stop offset="0" stop-color="#00c0ff"/><stop offset="1" stop-color="#5558ff"/></linearGradient><g><g><circle cx="256" cy="256" fill="url(#SVGID_1_)" r="256"/></g><g><g><path d="m371.375 282.647h-93.95l-15.15-15.163c-3.467-3.47-9.083-3.47-12.55 0l-15.15 15.163h-93.95c-14.682 0-26.625 11.953-26.625 26.647v71.059c0 14.694 11.943 26.647 26.625 26.647h230.75c14.682 0 26.625-11.953 26.625-26.647v-71.059c0-14.694-11.943-26.647-26.625-26.647zm-175.628 68.526-5.264 1.712 3.253 4.481c2.886 3.973 2.002 9.524-1.959 12.404-4.001 2.904-9.539 1.983-12.394-1.96l-3.259-4.489-3.259 4.489c-2.854 3.941-8.391 4.866-12.394 1.96-3.961-2.88-4.845-8.432-1.959-12.404l3.253-4.481-5.264-1.712c-4.663-1.518-7.22-6.531-5.703-11.189 1.525-4.667 6.544-7.2 11.18-5.708l5.27 1.714v-5.54c0-4.909 3.969-8.882 8.875-8.882s8.877 3.973 8.877 8.882v5.54l5.27-1.714c4.654-1.501 9.664 1.041 11.18 5.708 1.517 4.658-1.04 9.671-5.703 11.189zm53.25 0-5.264 1.712 3.253 4.481c2.886 3.973 2.002 9.524-1.959 12.404-4.001 2.904-9.539 1.983-12.394-1.96l-3.259-4.489-3.259 4.489c-2.854 3.941-8.391 4.866-12.394 1.96-3.961-2.88-4.845-8.432-1.959-12.404l3.253-4.481-5.264-1.712c-4.663-1.518-7.22-6.531-5.703-11.189 1.517-4.667 6.535-7.2 11.18-5.708l5.27 1.714v-5.54c0-4.909 3.969-8.882 8.875-8.882s8.875 3.973 8.875 8.882v5.54l5.27-1.714c4.637-1.501 9.664 1.041 11.18 5.708 1.519 4.658-1.038 9.671-5.701 11.189zm53.25 0-5.264 1.712 3.253 4.481c2.886 3.973 2.002 9.524-1.959 12.404-4.001 2.904-9.539 1.983-12.394-1.96l-3.259-4.489-3.259 4.489c-2.854 3.941-8.391 4.866-12.394 1.96-3.961-2.88-4.845-8.432-1.959-12.404l3.253-4.481-5.264-1.712c-4.663-1.518-7.22-6.531-5.703-11.189 1.517-4.667 6.518-7.2 11.18-5.708l5.27 1.714v-5.54c0-4.909 3.969-8.882 8.875-8.882s8.875 3.973 8.875 8.882v5.54l5.27-1.714c4.628-1.501 9.655 1.041 11.18 5.708 1.519 4.658-1.038 9.671-5.701 11.189zm53.25 0-5.264 1.712 3.253 4.481c2.886 3.973 2.002 9.524-1.959 12.404-4.001 2.904-9.539 1.983-12.394-1.96l-3.259-4.489-3.259 4.489c-2.854 3.941-8.391 4.866-12.394 1.96-3.961-2.88-4.845-8.432-1.959-12.404l3.253-4.481-5.264-1.712c-4.663-1.518-7.22-6.531-5.703-11.189 1.525-4.667 6.544-7.2 11.18-5.708l5.27 1.714v-5.54c0-4.909 3.969-8.882 8.875-8.882s8.875 3.973 8.875 8.882v5.54l5.27-1.714c4.654-1.501 9.664 1.041 11.18 5.708 1.519 4.658-1.038 9.671-5.701 11.189zm-72.872-210.644h26.625c0-19.595-15.921-35.529-35.5-35.529h-35.5c-17.106 0-31.416 12.169-34.757 28.311 12.039 6.877 26.473 22.138 54.145 24.654 3.753-10.167 13.538-17.436 24.987-17.436zm26.625 35.53v-17.765h-26.625c-4.897 0-8.875 3.981-8.875 8.882 0 4.91-3.969 8.882-8.875 8.882-36.392 0-57.418-19.495-62.125-21.894v21.894c0 29.388 23.886 53.294 53.25 53.294s53.25-23.905 53.25-53.293zm-72.075 78.865c5.027-5.031 11.718-7.807 18.825-7.807s13.798 2.776 18.825 7.807l9.95 9.958h62.619c-10.012-20.93-31.206-35.529-55.894-35.529h-35.5-35.5c-24.688 0-45.882 14.6-55.894 35.529h62.619z" fill="url(#SVGID_2_)"/></g></g></g></svg>