<svg id="Capa_1" enable-background="new 0 0 512 512" height="512" viewBox="0 0 512 512" width="512" xmlns="http://www.w3.org/2000/svg" xmlns:xlink="http://www.w3.org/1999/xlink"><linearGradient id="SVGID_1_" gradientUnits="userSpaceOnUse" x1="256" x2="256" y1="512" y2="0"><stop offset="0" stop-color="#c3ffe8"/><stop offset=".9973" stop-color="#f0fff4"/></linearGradient><linearGradient id="SVGID_2_" gradientUnits="userSpaceOnUse" x1="256" x2="256" y1="407" y2="105"><stop offset="0" stop-color="#9cffac"/><stop offset="1" stop-color="#00b59c"/></linearGradient><g><g><circle cx="256" cy="256" fill="url(#SVGID_1_)" r="256"/></g><g><g><path d="m353.731 167.176c0-4.975-3.909-8.882-8.885-8.882s-8.885 3.908-8.885 8.882c0 14.745-11.905 26.647-26.654 26.647h-22.212l19.901 17.765h2.31c24.523 0 44.425-19.896 44.425-44.412zm-50.82 6.751c11.549-5.329 15.281-18.831 15.281-24.515 0-14.745-11.905-26.647-26.654-26.647h-.178c-8.35-11.014-21.323-17.765-35.36-17.765s-27.01 6.751-35.361 17.765c-14.749-.534-26.832 11.902-26.832 26.647 0 5.685 3.732 19.186 15.459 24.338 6.752 3.198 11.905 9.06 14.215 15.989.356 1.42.888 2.842 1.422 4.086h62.192c.534-1.244 1.066-2.487 1.422-3.908 2.311-7.107 7.464-12.97 14.394-15.99zm4.087 37.661h-101.996c-40.158 34.108-64.502 103.747-64.502 133.235 0 40.149 41.047 62.177 115.5 62.177s115.5-22.028 115.5-62.177c0-29.488-24.344-99.127-64.502-133.235zm-42.113 140.482v10.518c0 4.91-3.974 8.882-8.885 8.882s-8.885-3.973-8.885-8.882v-10.606c-4.87-1.744-9.274-4.718-12.433-8.928-2.941-3.929-2.152-9.498 1.77-12.439 3.948-2.932 9.509-2.151 12.442 1.77 1.692 2.264 4.286 3.556 7.106 3.556 4.902 0 8.885-3.981 8.885-8.882 0-5.829-1.128-6.766-10.958-9.125-9.197-2.212-24.58-5.907-24.58-26.404 0-11.565 7.45-21.332 17.769-25.011v-10.519c0-4.91 3.974-8.882 8.885-8.882s8.885 3.973 8.885 8.882v10.606c4.87 1.744 9.274 4.718 12.433 8.928 2.941 3.929 2.152 9.498-1.77 12.439s-9.483 2.16-12.442-1.77c-4.633-6.202-15.999-2.394-15.991 5.326 0 5.829 1.128 6.766 10.958 9.125 9.197 2.212 24.58 5.907 24.58 26.404 0 11.566-7.45 21.333-17.769 25.012z" fill="url(#SVGID_2_)"/></g></g></g></svg>