<svg id="Capa_1" enable-background="new 0 0 512 512" height="512" viewBox="0 0 512 512" width="512" xmlns="http://www.w3.org/2000/svg" xmlns:xlink="http://www.w3.org/1999/xlink"><linearGradient id="SVGID_1_" gradientUnits="userSpaceOnUse" x1="256" x2="256" y1="512" y2="0"><stop offset="0" stop-color="#ffc8d1"/><stop offset="1" stop-color="#fff6f7"/></linearGradient><linearGradient id="SVGID_2_" gradientUnits="userSpaceOnUse" x1="256" x2="256" y1="105" y2="407"><stop offset="0" stop-color="#fd3a84"/><stop offset="1" stop-color="#ffa68d"/></linearGradient><g><g><circle cx="256" cy="256" fill="url(#SVGID_1_)" r="256"/></g><g><g><path d="m314.578 340.202c-19.271 22.203-36.374 38.196-40.614 42.068-4.953 4.502-11.32 6.965-17.964 6.965s-13.011-2.464-17.93-6.931c-4.254-3.886-21.369-19.889-40.647-42.102-27.52 4.319-56.894 13.167-56.894 31.268 0 28.044 72.586 35.53 115.471 35.53s115.471-7.486 115.471-35.529c0-18.101-29.374-26.95-56.893-31.269zm-99.546-128.614 11.84 35.53h58.256l11.84-35.53zm34.983 157.567c1.7 1.544 3.843 2.316 5.985 2.316s4.285-.772 5.985-2.316c4.103-3.747 100.603-92.467 100.603-157.566 0-58.777-47.812-106.589-106.588-106.589s-106.588 47.812-106.588 106.588c0 65.1 96.5 153.819 100.603 157.567zm-37.967-110.345-17.765-53.294c-.911-2.706-.451-5.69 1.214-8.006 1.674-2.316 4.354-3.687 7.208-3.687h12.148l15.436-30.871c2.203-4.398 7.521-6.167 11.918-3.973 4.389 2.195 6.167 7.529 3.973 11.918l-11.463 22.926h42.564l-11.463-22.926c-2.195-4.389-.416-9.724 3.973-11.918 4.372-2.195 9.715-.425 11.918 3.973l15.436 30.871h12.148c2.854 0 5.534 1.371 7.208 3.687 1.665 2.316 2.125 5.3 1.214 8.006l-17.765 53.294c-1.206 3.626-4.597 6.072-8.423 6.072h-71.059c-3.823 0-7.214-2.446-8.42-6.072z" fill="url(#SVGID_2_)"/></g></g></g></svg>