<svg id="Capa_1" enable-background="new 0 0 512 512" height="512" viewBox="0 0 512 512" width="512" xmlns="http://www.w3.org/2000/svg" xmlns:xlink="http://www.w3.org/1999/xlink"><linearGradient id="SVGID_1_" gradientUnits="userSpaceOnUse" x1="256" x2="256" y1="512" y2="0"><stop offset="0" stop-color="#ffe59a"/><stop offset="1" stop-color="#ffffd5"/></linearGradient><linearGradient id="SVGID_2_" gradientUnits="userSpaceOnUse" x1="256" x2="256" y1="407" y2="105"><stop offset="0" stop-color="#ffde00"/><stop offset="1" stop-color="#fd5900"/></linearGradient><g><g><circle cx="256" cy="256" fill="url(#SVGID_1_)" r="256"/></g><g><g><path d="m291.529 140.529c0-19.595-15.934-35.529-35.529-35.529s-35.529 15.934-35.529 35.529 15.934 35.529 35.529 35.529 35.529-15.934 35.529-35.529zm-88.823 106.589h106.588c4.909 0 8.882-3.973 8.882-8.882v-25.233c0-27.272-33.491-36.943-62.177-36.943s-62.177 9.672-62.177 36.943v25.233c.001 4.909 3.974 8.882 8.884 8.882zm0 53.294c0-19.595-15.934-35.529-35.529-35.529s-35.53 15.934-35.53 35.529 15.935 35.529 35.53 35.529 35.529-15.934 35.529-35.529zm-35.529 35.529c-28.686 0-62.177 9.672-62.177 36.943v25.233c0 4.91 3.973 8.882 8.882 8.882h106.588c4.91 0 8.882-3.973 8.882-8.882v-25.233c.001-27.271-33.49-36.943-62.175-36.943zm213.176-35.529c0-19.595-15.935-35.529-35.53-35.529s-35.529 15.934-35.529 35.529 15.934 35.529 35.529 35.529 35.53-15.934 35.53-35.529zm-35.53 35.529c-28.685 0-62.177 9.672-62.177 36.943v25.233c0 4.91 3.973 8.882 8.882 8.882h106.588c4.91 0 8.882-3.973 8.882-8.882v-25.233c.002-27.271-33.489-36.943-62.175-36.943zm-54.786-12.838c2.724-4.086 1.622-9.594-2.464-12.317l-22.692-15.128v-21.894c0-4.91-3.973-8.882-8.882-8.882s-8.882 3.973-8.882 8.882v21.894l-22.692 15.128c-4.086 2.724-5.187 8.232-2.464 12.317 2.678 4.023 8.163 5.217 12.317 2.463l21.72-14.48 21.72 14.48c4.158 2.756 9.643 1.559 12.319-2.463z" fill="url(#SVGID_2_)"/></g></g></g></svg>