<svg id="Capa_1" enable-background="new 0 0 512 512" height="512" viewBox="0 0 512 512" width="512" xmlns="http://www.w3.org/2000/svg" xmlns:xlink="http://www.w3.org/1999/xlink"><linearGradient id="SVGID_1_" gradientUnits="userSpaceOnUse" x1="256" x2="256" y1="512" y2="0"><stop offset="0" stop-color="#ffc2cc"/><stop offset="1" stop-color="#fff2f4"/></linearGradient><linearGradient id="SVGID_2_" gradientUnits="userSpaceOnUse" x1="256" x2="256" y1="407" y2="105"><stop offset="0" stop-color="#ffa68d"/><stop offset="1" stop-color="#fd3a84"/></linearGradient><g><g><circle cx="256" cy="256" fill="url(#SVGID_1_)" r="256"/></g><g><g><path d="m344.846 105h-177.692c-14.698 0-26.654 11.953-26.654 26.647v142.118c0 14.694 11.956 26.647 26.654 26.647h53.312l14.216-18.953c4.98-6.662 12.963-10.652 21.318-10.652s16.338 3.99 21.335 10.669l14.202 18.936h53.309c14.698 0 26.654-11.953 26.654-26.647v-142.118c0-14.694-11.956-26.647-26.654-26.647zm-23.556 104.168-8.885 35.529c-2.967 11.884-13.605 20.185-25.856 20.185h-14.307c-12.815 0-25.37-3.539-36.311-10.236-8.173-4.996-16.338-7.529-24.276-7.529h-17.847c-4.911 0-8.885-3.973-8.885-8.882v-44.412c0-4.91 3.974-8.882 8.885-8.882h32.25c3.592 0 6.854-2.047 8.138-5.092 2.672-6.375 4.035-13.124 4.035-20.029v-10.409c0-4.91 3.974-8.882 8.885-8.882 21.457 0 39.399 15.284 43.529 35.529 1.975.356 15.965-2.334 25.795 10.244 5.093 6.515 6.854 14.851 4.85 22.866zm-25.856-15.345h-12.78c-4.911 0-8.885-3.973-8.885-8.882 0-11.58-7.427-21.46-17.769-25.129 0 9.281-1.822 18.337-5.423 26.916-4.078 9.706-13.7 15.978-24.519 15.978h-23.365v26.647h8.963c11.262 0 22.55 3.418 33.552 10.149 8.147 4.979 17.492 7.616 27.036 7.616h14.307c4.087 0 7.627-2.767 8.624-6.731l8.885-35.521c1.399-5.603-2.844-11.043-8.626-11.043zm-32.326 98.299c-1.678-2.237-4.311-3.553-7.108-3.553s-5.43 1.316-7.108 3.553l-35.539 47.373c-2.019 2.691-2.344 6.292-.839 9.302 1.505 3.009 4.581 4.91 7.947 4.91h8.885v44.412c0 4.906 3.978 8.882 8.885 8.882h35.538c4.907 0 8.885-3.977 8.885-8.882v-44.412h8.884c3.365 0 6.44-1.901 7.945-4.91s1.18-6.611-.839-9.302z" fill="url(#SVGID_2_)"/></g></g></g></svg>